<svg xmlns="http://www.w3.org/2000/svg" xmlns:xlink="http://www.w3.org/1999/xlink" viewBox="0 0 1694.24 1117.97"><defs><style>.cls-1,.cls-12,.cls-13,.cls-17,.cls-18,.cls-21,.cls-22,.cls-23,.cls-24,.cls-27,.cls-31,.cls-32,.cls-33,.cls-34,.cls-4,.cls-9{fill:none;}.cls-2{fill:#dce2e5;}.cls-3{fill:#e9eef2;}.cls-4{stroke:#dce2e5;stroke-width:26px;}.cls-12,.cls-17,.cls-18,.cls-21,.cls-22,.cls-23,.cls-24,.cls-27,.cls-31,.cls-32,.cls-33,.cls-34,.cls-4{stroke-miterlimit:10;}.cls-5{fill:#f2f6f9;}.cls-6{fill:#e4eff7;}.cls-7{fill:#ef6e45;}.cls-8{fill:#162c56;}.cls-13,.cls-9{stroke:#3361c2;stroke-linejoin:round;}.cls-9{stroke-width:46px;}.cls-10{fill:#72a065;}.cls-11{fill:#319374;}.cls-12,.cls-18,.cls-21,.cls-27,.cls-31,.cls-32{stroke:#fff;}.cls-12,.cls-21,.cls-27{stroke-linecap:square;}.cls-12,.cls-34{stroke-width:3px;}.cls-13,.cls-18,.cls-24,.cls-32,.cls-33{stroke-linecap:round;}.cls-13{stroke-width:65px;}.cls-14{fill:#3361c2;}.cls-15,.cls-30{fill:#fff;}.cls-16{fill:#24272d;}.cls-17{stroke:#ef6e45;}.cls-17,.cls-21{stroke-width:14px;}.cls-18{stroke-width:31px;}.cls-19{clip-path:url(#clip-path);}.cls-20{fill:#ffba5f;}.cls-22,.cls-33{stroke:#274992;}.cls-22,.cls-23{stroke-width:20px;}.cls-23,.cls-24{stroke:#52a36f;}.cls-24,.cls-33{stroke-width:15px;}.cls-25{fill:#274992;}.cls-26{fill:#52a36f;}.cls-27,.cls-31{stroke-width:4px;}.cls-28{fill:#ef977f;}.cls-29{fill:#ffd097;}.cls-30{opacity:0.26;}.cls-32{stroke-width:11px;}.cls-34{stroke:#24272d;}</style><clipPath id="clip-path" transform="translate(-137.03 -93.44)"><path class="cls-1" d="M1525.64,1158.5l-128.35-157.68,79.16,157.68h-122l-106.7-169.9a118.91,118.91,0,0,1-6.21-115.32L1318,716.34l163.23-94.29,35.59,39.28a145,145,0,0,1,17.69,170.56L1491.77,905l155.83,253.5Z"/></clipPath></defs><title>1</title><g id="Back"><path class="cls-2" d="M161.57,1147.46S216,995.3,310.23,992.38c99.41-3.07,96.81,109.79,176.64,107.08s71.6-41.63,176.93-45.69,199.27,93.69,199.27,93.69Z" transform="translate(-137.03 -93.44)"/><path class="cls-2" d="M1399.82,1147.46H1048a176.89,176.89,0,0,1,351.79,0Z" transform="translate(-137.03 -93.44)"/><path class="cls-3" d="M748.34,1147.46s64-186.66,204.85-187.38c101.62-.53,146.24,124.74,265.44,121.31S1362,975,1519.31,975.38c167,.42,276.46,172.08,276.46,172.08Z" transform="translate(-137.03 -93.44)"/><line class="cls-4" x1="767.3" y1="602.33" x2="767.3" y2="1052.3"/><path class="cls-5" d="M955.13,274.91s31.2-83.61,148.95-87.4,173.06-90.17,272.77-94,137.22,107.85,268.77,102.15,185.65,79.22,185.65,79.22Z" transform="translate(-137.03 -93.44)"/><path class="cls-5" d="M747.56,423.85s-43.2-87.32-125.25-90-79.39,64.83-148.87,62.19-71.42-90-163.09-93.94S137,423.85,137,423.85Z" transform="translate(-137.03 -93.44)"/><path class="cls-3" d="M721.78,486.86h85a63.54,63.54,0,0,1,63.54,63.54v59.68a0,0,0,0,1,0,0H658.24a0,0,0,0,1,0,0V550.4A63.54,63.54,0,0,1,721.78,486.86Z"/><path class="cls-3" d="M1004.74,768.76h22.7a12,12,0,0,0,10.1-18.55l-30.15-46.69H942.15l31,48.05A37.55,37.55,0,0,0,1004.74,768.76Z" transform="translate(-137.03 -93.44)"/></g><g id="Man"><ellipse class="cls-6" cx="867.82" cy="1111.02" rx="695.23" ry="6.95"/><path class="cls-7" d="M1525.64,1158.5l-128.35-157.68,79.16,157.68h-122l-106.7-169.9a118.91,118.91,0,0,1-6.21-115.32L1318,716.34l163.23-94.29,35.59,39.28a145,145,0,0,1,17.69,170.56L1491.77,905l155.83,253.5Z" transform="translate(-137.03 -93.44)"/><polygon class="cls-8" points="1332.55 1065.06 1355.61 1111.02 1148.26 1111.02 1234.63 1065.06 1332.55 1065.06"/><polygon class="cls-8" points="1500.54 1065.06 1523.59 1111.02 1316.25 1111.02 1402.62 1065.06 1500.54 1065.06"/><polyline class="cls-9" points="1248.28 368.78 1381.76 407.3 1363.09 580.79"/><polyline class="cls-9" points="926.39 513.02 1073.6 605.64 1085.93 521.12"/><path class="cls-10" d="M1183.51,617.38S1167.31,530,1249,469.82s175.73-29.93,175.73-29.93l-21.83,80.29,78.35,101.87L1318,716.34l-63.1-68.44-2,10.69Z" transform="translate(-137.03 -93.44)"/><polygon class="cls-11" points="1304.72 477.22 1140.31 578.75 1117.91 554.46 1115.86 565.14 1049.06 525.47 1285.11 356.04 1265.89 426.74 1304.72 477.22"/><polyline class="cls-12" points="1342.5 803.59 1354.74 812.38 1348.62 829.83"/><line class="cls-12" x1="1117.91" y1="554.46" x2="1047.58" y2="478.03"/><polyline class="cls-12" points="1267.61 426.74 1262.85 447.17 1200.16 437.66"/><line class="cls-13" x1="1035.56" y1="306.12" x2="1106.55" y2="395.73"/><path class="cls-14" d="M1207.75,476.58l-4.79,3.75a48.13,48.13,0,0,1-72.38-15.77l-16.12-31.1a48.1,48.1,0,0,1,13.5-60.37h0a48.11,48.11,0,0,1,67.46,9l20.91,27.35A48.13,48.13,0,0,1,1207.75,476.58Z" transform="translate(-137.03 -93.44)"/><rect class="cls-14" x="1057.4" y="291.42" width="35.39" height="45.43" rx="17.7"/><line class="cls-12" x1="1080.64" y1="304.23" x2="1076.42" y2="324.43"/><polyline class="cls-12" points="990.71 336.19 1004.57 360.62 1013.29 355.73"/><path class="cls-15" d="M1172.57,445.73a13.21,13.21,0,1,1-13.21,22.88c-6.32-3.65-2.1-9.69,1.55-16S1166.25,442.08,1172.57,445.73Z" transform="translate(-137.03 -93.44)"/><path class="cls-16" d="M1202.73,422.09,1164.67,386l-9-8.57A39.93,39.93,0,0,1,1151,389.7c-8,13.87-45.9,33.61-66.58,11.27-16.86-18.22,12.5-19.85,23-28.08,16.47-12.95,22.37-30.95,54.68-32.76,38.69-2.16,48.62,44.79,48.62,44.79S1194.83,387.83,1202.73,422.09Z" transform="translate(-137.03 -93.44)"/><polygon class="cls-16" points="1060.83 390.36 1075.34 379.5 1069.92 401.83 1060.83 390.36"/><rect class="cls-7" x="907.04" y="608.4" width="73.78" height="112.52" transform="translate(-347.37 550.11) rotate(-34.1)"/><rect class="cls-17" x="938.29" y="599.15" width="73.78" height="84.55" rx="29.2" transform="matrix(0.83, -0.56, 0.56, 0.83, -328.96, 563.64)"/><path class="cls-14" d="M1075.77,586.92s-12.55-7.9-18-14.88c-5.9-7.57-15.5-20.51-31.52-10.12s-56,37.5-58.11,51.24,22,50.18,38.38,44.55S1061,620.38,1061,620.38" transform="translate(-137.03 -93.44)"/><path class="cls-12" d="M999.41,591.59a12.66,12.66,0,0,1,2.25,10.9s7.58-6.2,12.19-1c5.11,5.81,1.06,10.65,1.06,10.65s7.33-5.72,13.2.53c6.46,6.87-2,13.27-2,13.27s7.67-4.32,11.72,1.84-2.31,12.33-2.31,12.33" transform="translate(-137.03 -93.44)"/><line class="cls-12" x1="865.12" y1="508.62" x2="843.45" y2="527.55"/><line class="cls-12" x1="878.75" y1="518.1" x2="850.98" y2="543"/><line class="cls-12" x1="890.29" y1="531.62" x2="861.24" y2="553.43"/><path class="cls-14" d="M1030.81,584.31l-16.2,7.84s3.64,21.68-2.71,29.25c0,0-16.91-30.86-20.34-32.62s30.62-21.29,30.62-21.29" transform="translate(-137.03 -93.44)"/><path class="cls-12" d="M1030,583.31l-16.2,7.84s5.31,19.81-1,27.38" transform="translate(-137.03 -93.44)"/><polyline class="cls-18" points="795.72 572.71 810.47 576.4 812.45 561.33"/><circle class="cls-15" cx="1008.49" cy="332.68" r="4.95"/><circle class="cls-15" cx="981.87" cy="345.84" r="4.95"/><g class="cls-19"><path class="cls-20" d="M1277.23,999.68c-15.61,5.32-30.09,7.32-38.49,5.85-3.93-.69-6.52-2.14-7.28-4.36a4.59,4.59,0,0,1-.22-1.09v-.56a4.64,4.64,0,0,1,.07-.64.54.54,0,0,0,0-.1c-2.67-8-2.26-23.15,1.6-39.91,5.44-23.57,15.68-41.34,22.86-39.68,5.9,1.36,7.91,15.38,5.43,33.4,12.66-12,24.58-18.12,29-14.28,4.68,4-.39,17.89-11.48,33.06,18.54-4.8,33.64-4.39,35.67,1.55C1316.76,979.9,1300.13,991.88,1277.23,999.68Z" transform="translate(-137.03 -93.44)"/><path class="cls-20" d="M1266.94,833.8c-7.77-14.54-12.09-28.51-12-37,0-4,1.06-6.78,3.13-7.89a4.2,4.2,0,0,1,1-.39l.17,0,.35-.06h0a3.39,3.39,0,0,1,.64,0l.09-.05c7.43-3.92,22.48-6,39.65-4.87,24.14,1.56,43.33,8.79,42.85,16.14-.39,6-13.9,10.29-32.08,10.76,13.84,10.56,21.86,21.32,18.79,26.34-3.23,5.27-17.72,2.5-34.48-6,7.73,17.52,9.76,32.48,4.24,35.44C1292.85,869.61,1278.34,855.13,1266.94,833.8Z" transform="translate(-137.03 -93.44)"/><path class="cls-20" d="M1530.69,690.6c13.1-10,26.2-16.51,34.63-17.78,3.94-.6,6.86-.05,8.29,1.81a4.86,4.86,0,0,1,.55,1l.06.16c0,.11.07.23.11.34v0a4.13,4.13,0,0,1,.14.63l.06.08c5.07,6.7,9.51,21.23,11.18,38.35,2.33,24.08-1.73,44.18-9.06,44.89-6,.58-12.39-12.07-15.77-29.94-8.2,15.35-17.54,25-23,22.77-5.72-2.34-5.32-17.08.37-35-16,10.44-30.5,14.85-34.3,9.87C1499.49,721.92,1511.46,705.27,1530.69,690.6Z" transform="translate(-137.03 -93.44)"/><path class="cls-20" d="M1384,717.48c-13.74-9.1-24.18-19.34-28.14-26.89-1.86-3.53-2.3-6.47-1-8.43a4.45,4.45,0,0,1,.73-.84l.13-.1.29-.22h0a3.87,3.87,0,0,1,.55-.34l.06-.08c4.67-7,16.94-16,32.57-23.13,22-10.1,42.3-12.85,45.38-6.15,2.52,5.5-7.35,15.66-23.12,24.7,17.19,2.72,29.36,8.38,29,14.25-.33,6.18-14.4,10.63-33.18,11.12,15.12,11.75,24,23.95,20.57,29.18C1423.79,736.68,1404.14,730.84,1384,717.48Z" transform="translate(-137.03 -93.44)"/><path class="cls-20" d="M1640,1085.36c9.29,13.61,15.1,27,15.92,35.52.39,4-.31,6.86-2.25,8.18a4.19,4.19,0,0,1-1,.5l-.17,0-.34.09h0a4.35,4.35,0,0,1-.63.1l-.09.06c-7,4.7-21.7,8.37-38.89,9.13-24.17,1.06-44-4-44.34-11.42-.27-6,12.7-11.73,30.72-14.16-14.89-9-24-18.84-21.52-24.15,2.64-5.59,17.34-4.41,34.93,2.22-9.58-16.59-13.22-31.25-8-34.78C1610.36,1052.55,1626.35,1065.38,1640,1085.36Z" transform="translate(-137.03 -93.44)"/><path class="cls-20" d="M1431.07,1070.66c14.8,7.27,26.45,16.1,31.35,23.08,2.29,3.26,3.11,6.12,2.07,8.23a4.71,4.71,0,0,1-.62.93l-.12.12-.26.25v0a5,5,0,0,1-.51.4l0,.09c-3.75,7.52-14.77,18-29.36,27.09-20.51,12.82-40.32,18.15-44.22,11.9-3.21-5.14,5.29-16.47,19.78-27.46-17.4-.5-30.2-4.56-30.63-10.43-.45-6.16,12.93-12.37,31.5-15.26-16.5-9.72-26.89-20.69-24.13-26.31C1389.13,1056.69,1409.37,1060,1431.07,1070.66Z" transform="translate(-137.03 -93.44)"/><path class="cls-20" d="M1501.57,953.56c14.72-7.42,28.79-11.4,37.31-11.1,4,.14,6.75,1.21,7.81,3.31a4.23,4.23,0,0,1,.37,1.05,1,1,0,0,1,0,.17c0,.12,0,.24.05.36v0a4.66,4.66,0,0,1,0,.65.41.41,0,0,0,0,.09c3.74,7.52,5.43,22.62,3.92,39.75-2.14,24.1-9.83,43.11-17.17,42.46-6-.54-10-14.15-10-32.33-10.89,13.57-21.84,21.33-26.78,18.14-5.19-3.35-2.08-17.77,6.81-34.32-17.7,7.3-32.71,9-35.53,3.38C1465.14,978.61,1480,964.44,1501.57,953.56Z" transform="translate(-137.03 -93.44)"/><path class="cls-20" d="M1533.32,835.38c2.46,16.3,1.85,30.91-1.09,38.91-1.37,3.75-3.26,6-5.58,6.39a4.13,4.13,0,0,1-1.11,0l-.17,0-.36-.07h0a3.62,3.62,0,0,1-.62-.18h-.1c-8.31,1.22-23.19-1.88-39-8.66-22.22-9.55-37.89-22.78-35-29.55,2.39-5.56,16.54-5.05,33.83.59-9.5-14.58-13.47-27.4-8.9-31.1,4.81-3.89,17.54,3.56,30.5,17.17-1.42-19.1,1.66-33.89,7.86-34.82C1520.87,793,1529.71,811.46,1533.32,835.38Z" transform="translate(-137.03 -93.44)"/></g><path class="cls-14" d="M1556.2,644.48c1.84.79-3.44,67.35-36.46,66.35-23.57-.72-42.7-19.12-42.7-42.71a42.7,42.7,0,0,1,42.7-42.7c5,0,6.87,45.17,6.87,45.17s8.06-40.64,14.8-39.27c2.85.57-3.57,44.46-3.57,44.46S1548.65,641.25,1556.2,644.48Z" transform="translate(-137.03 -93.44)"/><line class="cls-21" x1="1173.2" y1="620.09" x2="1335.87" y2="526.02"/><path class="cls-12" d="M1397.29,1000.82l-34.11-41.56a80.49,80.49,0,0,1-14.53-75.34l42.29-133.7" transform="translate(-137.03 -93.44)"/></g><g id="Drone"><rect class="cls-22" x="499.38" y="1005.7" width="139.46" height="91.65" rx="36.51" transform="translate(-229.12 -38.11) rotate(-5.15)"/><rect class="cls-22" x="675.5" y="989.83" width="139.46" height="91.65" rx="36.51" transform="translate(-226.98 -22.37) rotate(-5.15)"/><path class="cls-23" d="M932.57,922.7S941.4,983,810.06,994.81" transform="translate(-137.03 -93.44)"/><line class="cls-24" x1="790.41" y1="772.26" x2="794.69" y2="819.76"/><path class="cls-25" d="M440,980.29H689.38a0,0,0,0,1,0,0v68.94a0,0,0,0,1,0,0H440a34.47,34.47,0,0,1-34.47-34.47v0A34.47,34.47,0,0,1,440,980.29Z" transform="translate(-225.91 -40.21) rotate(-5.15)"/><rect class="cls-26" x="578.32" y="963.91" width="301.9" height="68.94" rx="34.47" transform="matrix(1, -0.09, 0.09, 1, -223.7, -23.95)"/><polygon class="cls-20" points="692.39 861.06 478.16 880.37 421.03 721.41 404.53 675.52 350.65 525.59 350.46 525.07 583.5 504.07 629.61 655.24 643.67 701.35 692.39 861.06"/><polygon class="cls-7" points="478.74 880.85 311.78 895.9 251.78 736.67 234.51 690.85 178.1 541.14 351.04 525.55 404.93 675.49 421.42 721.38 478.55 880.34 478.74 880.85"/><polygon class="cls-7" points="338.99 414.46 257.34 421.81 212.66 325.4 306.1 316.98 338.99 414.46"/><polygon class="cls-20" points="462.74 403.31 338.46 414.51 305.57 317.03 431.46 305.68 462.74 403.31"/><polygon class="cls-7" points="428.26 406.41 423.8 518.99 318.77 528.46 306.81 417.36 428.26 406.41"/><polygon class="cls-20" points="660.81 384.93 638.3 499.13 423.23 518.51 427.69 405.94 660.81 384.93"/><circle class="cls-27" cx="481.07" cy="450.4" r="16.91"/><rect class="cls-15" x="585.46" y="516.39" width="33.32" height="31.9" transform="translate(-182.38 -37.25) rotate(-5.15)"/><line class="cls-27" x1="522.08" y1="422.62" x2="583.99" y2="417.04"/><line class="cls-27" x1="518.03" y1="435.1" x2="579.94" y2="429.52"/><line class="cls-27" x1="328.87" y1="331.57" x2="390.78" y2="325.99"/><line class="cls-27" x1="335.94" y1="343.04" x2="397.85" y2="337.46"/><line class="cls-27" x1="513.13" y1="447.65" x2="550.13" y2="444.31"/><circle class="cls-27" cx="405.53" cy="561.92" r="16.91"/><path class="cls-27" d="M574.45,639c6.18-.56,6.9,7.4,13.09,6.84s5.47-8.52,11.66-9.08,6.91,7.41,13.1,6.85,5.48-8.52,11.67-9.08,6.91,7.41,13.1,6.85" transform="translate(-137.03 -93.44)"/><path class="cls-27" d="M584.67,658c6.19-.55,6.91,7.41,13.1,6.85s5.47-8.52,11.66-9.08,6.91,7.41,13.09,6.85,5.48-8.52,11.67-9.08,6.91,7.4,13.11,6.84" transform="translate(-137.03 -93.44)"/><polygon class="cls-28" points="421.03 721.41 421.03 721.42 251.78 736.67 234.51 690.85 404.53 675.53 421.03 721.41"/><polygon class="cls-29" points="643.67 701.35 421.42 721.38 404.93 675.49 629.61 655.24 643.67 701.35"/><polygon class="cls-30" points="421.03 721.42 421.03 721.41 404.53 675.53 404.93 675.49 421.42 721.38 421.03 721.42"/><rect class="cls-28" x="481.06" y="505.72" width="40.68" height="51.6" transform="translate(-182.72 -46.29) rotate(-5.15)"/><rect class="cls-26" x="627.78" y="886.34" width="228.54" height="138.14" rx="69.07" transform="translate(-219.79 -22.98) rotate(-5.15)"/><rect class="cls-16" x="656.78" y="894.31" width="192.73" height="102.31" rx="51.15" transform="translate(-218.86 -22.02) rotate(-5.15)"/><path class="cls-31" d="M748.56,933.68s6,12.32,18.15,10.72" transform="translate(-137.03 -93.44)"/><line class="cls-32" x1="631.63" y1="814.44" x2="632.84" y2="827.94"/><line class="cls-32" x1="649.58" y1="812.82" x2="650.8" y2="826.33"/><path class="cls-22" d="M326,977.37s2,60.89,137,48.72" transform="translate(-137.03 -93.44)"/><path class="cls-25" d="M310.24,967.77h35.91a0,0,0,0,1,0,0v50.39a18,18,0,0,1-18,18h0a18,18,0,0,1-18-18V967.77A0,0,0,0,1,310.24,967.77Z" transform="translate(-225.64 -59.94) rotate(-5.15)"/><line class="cls-33" x1="182.38" y1="827.1" x2="186.65" y2="874.52"/><path class="cls-11" d="M916.84,913.1h35.91a0,0,0,0,1,0,0v50.39a18,18,0,0,1-18,18h0a18,18,0,0,1-18-18V913.1A0,0,0,0,1,916.84,913.1Z" transform="translate(-218.29 -5.71) rotate(-5.15)"/><polygon class="cls-11" points="830.89 780.39 757.08 787.04 751.31 779.43 825.12 772.78 830.89 780.39"/><path class="cls-23" d="M478.08,963.67s2.09,60.87,133.43,49" transform="translate(-137.03 -93.44)"/><line class="cls-24" x1="335.91" y1="813.22" x2="340.19" y2="860.72"/><path class="cls-11" d="M480.29,954.06h0a18,18,0,0,1,18,18v50.39a0,0,0,0,1,0,0H462.33a0,0,0,0,1,0,0V972A18,18,0,0,1,480.29,954.06Z" transform="translate(910.31 1835.92) rotate(174.85)"/><polygon class="cls-11" points="297.53 828.46 371.34 821.81 375.66 813.28 301.85 819.94 297.53 828.46"/><polygon class="cls-25" points="222.86 835.19 149.04 841.84 143.28 834.23 217.09 827.58 222.86 835.19"/><line class="cls-34" x1="198.6" y1="821.14" x2="223.86" y2="818.86"/><line class="cls-34" x1="168.02" y1="848.14" x2="143.01" y2="850.39"/><line class="cls-34" x1="805.36" y1="765.88" x2="830.61" y2="763.61"/><line class="cls-34" x1="774.78" y1="792.88" x2="749.77" y2="795.14"/><polygon class="cls-7" points="583.5 504.07 358.66 547.87 350.65 525.59 583.5 504.07"/></g></svg>