<svg xmlns="http://www.w3.org/2000/svg" xmlns:xlink="http://www.w3.org/1999/xlink" viewBox="0 0 1592.28 1010.1"><defs><style>.cls-1,.cls-12,.cls-14,.cls-15,.cls-20,.cls-5,.cls-6,.cls-7{fill:none;}.cls-2{fill:#eff6f9;}.cls-3{fill:#e0e7ea;}.cls-4{fill:#e4eff7;}.cls-12,.cls-5,.cls-6{stroke:#25282d;}.cls-12,.cls-14,.cls-16,.cls-20,.cls-5,.cls-6,.cls-7{stroke-miterlimit:10;}.cls-5,.cls-6{stroke-width:5px;}.cls-6,.cls-7{stroke-linecap:square;}.cls-14,.cls-16,.cls-7{stroke:#fff;}.cls-12,.cls-14,.cls-16,.cls-7{stroke-width:3px;}.cls-16,.cls-8{fill:#3361c2;}.cls-9{clip-path:url(#clip-path);}.cls-10{fill:#82b5a5;}.cls-11{fill:#ea6f57;}.cls-13{fill:#24272d;}.cls-15,.cls-20{stroke:#ea6f57;}.cls-15{stroke-linejoin:round;stroke-width:43px;}.cls-17{fill:#111316;}.cls-18{fill:#25282d;}.cls-19{fill:#fff;}.cls-20{stroke-width:9px;}</style><clipPath id="clip-path" transform="translate(-258.45 -154.46)"><path class="cls-1" d="M605,825.25s-42.25-84.76-40.59-139.51c.68-22.56,8.77-59.79,87-59.82,73.74,0,129.74,85.41,129.74,85.41L605,825.25Z"/></clipPath></defs><title>11</title><g id="Back"><path class="cls-2" d="M1511.45,693.56h-6.35l-.37,0h-1.64s0,0,0,0h-2.53l-1.1.08.54,7c3.79-.29,7.64-.44,11.45-.44v-7Zm-23.9,1.86c-1.09.17-2.17.35-3.25.55h0l-.18,0h0l-.13,0h-.11l-.12,0h-.1l-.13,0h-.3l-.11,0H1483l-.12,0h-.12l-.07,0h-.11l-.12,0h-.1l-.13,0h0c-2.15.41-4.28.88-6.39,1.38l1.63,6.81c3.69-.88,7.47-1.63,11.22-2.22l-1.08-6.92ZM1464.23,701h0l0,0h0l-.06,0h0l0,0h0l-.06,0h0l0,0h0l-.06,0h0l-.07,0h0l-.06,0h0l-.07,0h0l-.07,0h0l-.07,0h0l-.08,0h0l-.07,0h0l-.08,0h0l-.08,0h0l-.08,0h0l-.09,0h0l-.09,0h0l-.08,0h0l-.17.06h0l-.08,0h0l-.17.06h0q-4.63,1.57-9.11,3.44l2.68,6.47c3.51-1.46,7.12-2.79,10.73-4l-2.16-6.65Zm-22.14,9.19-.06,0h0l0,0h0l-.09,0h0l-.15.08h0l-.1.05h0l-.15.08h0l-.25.13h0q-4.9,2.55-9.58,5.43l3.66,6c3.24-2,6.6-3.88,10-5.61l-3.18-6.23Zm-20.43,12.56c-1,.73-2,1.48-3,2.24h0l-.22.17h0l-.14.11h0l-.06.05h0l-.14.11h0l-.07.06h0l-.06.05h0l-.06,0h0l-.07.05h0l-.06,0h0l-.06,0h0l-.06.05h0l-.06,0v0l-.07,0v0l-.06,0h0l-.06.05h0l-.07,0h0l-.06.05h0l-.06,0,0,0-.06,0v0l0,0h0l-.06.05h0l-.06,0h0l0,0v0l-.06,0,0,0-.06,0h0l-.06.05h0l0,0h0l0,0,0,0-.06,0,0,0-.06.05h0l-.05,0h0l-.06.05h0l-.06,0h0l-.05.05h0l-.06,0h0l0,.05h0l0,0,0,0-.06,0,0,0,0,0h0l-.06,0h0l-.06.05h0l-.06,0h0l-.06.05h0l-.06,0h0l-.06.05h0l-.06,0h0l-.14.11h0l-.06.06h0l-.14.12h0c-.8.65-1.59,1.32-2.37,2l4.55,5.31c2.89-2.47,5.92-4.86,9-7.1l-4.13-5.65Zm-18.21,15.59h0l0,0h0l-.05.05,0,0,0,0,0,0,0,.05h0l0,.06h0l0,.06h0l-.06.06h0l-.06.06h0l-.13.13h0l-.07.06h0c-1.2,1.23-2.39,2.47-3.55,3.73h0l-.13.13h0l-.06.07h0l-.13.14h0l-.06.07h0l0,.07h0l-.06.06h0l-.06.06h0l-.06.06h0l0,.06h0l-.06.06h0l-.06.06h0l0,.06h0l0,.05,0,0,0,0,0,0-.05.05,0,0,0,0,0,0,0,0,0,0,0,.05,0,0,0,0,0,0,0,0,0,0,0,0,0,.05,0,0-.06.06v0l0,0,0,0-.06.06v0l-.11.12h0l-.19.2h0c-.63.71-1.26,1.43-1.88,2.15l5.33,4.55c2.47-2.89,5.08-5.72,7.76-8.42l-5-4.94Zm-15.56,18.24c-.12.16-.24.32-.35.49h0c0,.07-.1.15-.16.22v0l0,.06,0,0,0,0,0,0,0,0,0,0,0,0,0,0,0,0,0,.05,0,0,0,0v0l0,.07h0l0,.06h0l-.05.07h0l-.16.22h0q-1.62,2.29-3.16,4.66h0l-.1.15h0l-.15.24h0l0,.08h0l0,.07h0l0,.07h0l-.09.15h0l0,.07h0l0,.07h0l-.05.07v0l0,.06v0l0,.06h0l0,.07v0l0,.06h0l0,.06v0l0,.07h0l0,.07h0l0,.06v0l0,.06v0l0,.06v0l0,.06v0l0,.06v0l0,.05,0,0,0,.06v0l0,.06v0l0,.05,0,0,0,.06v0l0,.05v0l0,0v0l0,.06v0l0,.05,0,0,0,.06,0,0,0,.06v0l0,.05,0,0,0,.06,0,0,0,0,0,0,0,.05,0,0,0,.07,0,0,0,.05v0l0,.06v0l0,.07v0l0,.05v0l0,.06h0l6,3.66c2-3.24,4.13-6.44,6.36-9.52l-5.66-4.11ZM1375.37,777l-.06.12v0l0,.07v0l0,0v0l0,.07v0l0,.05,0,0,0,0v0l0,.06,0,0,0,0,0,0,0,0v0l0,0,0,.05,0,0,0,0,0,0,0,0,0,0,0,.06v0l0,0v0l0,.07v0l0,.07v0l0,.06h0l0,.07v0l0,.07h0l0,.07v0l0,.07h0l0,.07h0l0,.07v0l0,.07h0l0,.07h0l0,.08h0l-.08.16h0l0,.07h0l-.08.16h0q-1.87,3.87-3.54,7.86h0a1.11,1.11,0,0,1-.07.16h0l0,.08h0l0,.07h0l6.47,2.67c1.45-3.51,3.06-7,4.78-10.39l-6.23-3.18Zm-9.16,22.16h0l0,.17h0l0,.09h0l0,.08h0l0,.08h0l0,.08h0l0,.07v0l0,.08v0l0,.06v0l0,.07v0l0,.07v0l0,.06v0l0,.07v0l0,0v0l0,.06v.08l0,0v.08l0,.07v0l0,0v0l0,.07V801l0,.05v.08l0,.05v.08l0,.05v0l0,0v0l0,.06v.11l0,.07v.07l0,.06v.07l0,.08v0l0,.05v0l0,.07v.09l0,.08v0l0,.08v.1l0,.07v.1l0,.07v0l0,.06V803l0,.06v0l0,0v.13l0,.06v0l0,0v.14l0,0v.1l0,0v.1l0,0V804l0,0v.13l0,0v.13l0,.05v.13l0,.06v.11l0,.07v.11l0,.07v0l0,.06v.11l0,.07v.11l0,.07v.1h0l0,.07v0l0,.08v0l0,.06v0l0,.08v0l0,.07h0l0,.08v0l0,.07h0l0,.08h0l0,.08v0l0,.08h0l0,.08v0l0,.08h0l0,.09h0l0,.09h0l0,.17h0l0,.17h0l0,.08h0l0,.17h0l0,.18h0l0,.09h0l0,.18h0l0,.17h0a2.68,2.68,0,0,0-.07.27h0l0,.18h0c0,.09,0,.18-.07.27h0l0,.17h0c0,.06,0,.12,0,.18h0l0,.09h0l0,.18h0l0,.17h0l0,.08h0l0,.17h0l0,.09h0l0,.08v0l0,.08h0l0,.08h0l0,.08v.2l0,.07v0l0,.06v0l0,.07h0l6.81,1.62c.88-3.69,1.91-7.4,3.08-11l-6.66-2.15Zm-5.54,23.33c-.14.86-.26,1.73-.38,2.6h0v.06h0l0,.11v.32h0l0,.13h0q-.45,3.33-.75,6.71h0v0h0v.13h0V833h0v.05h0v0h0c0,.43-.07.86-.1,1.29l7,.53c.29-3.8.73-7.63,1.31-11.38l-6.91-1.07Zm5.18,23.89-7,0h0v.13h0v0h0v.13h0v0h0v.13h0v0h0v.18h0v0h0v.14h0v0h0v.13h0v0h0v.13h0v0h0v0h0v.08h0v0h0v0h0v.13h0v0h0v.23h0v.07h0v.75h0v.11h0v.05h0v.06h0v.11h0v.05h0v0h0v.05h0V850h0v0h0v.11h0v.05h0v.12h0v.06h0v.18h0c0,1.88.14,3.76.26,5.62h0v.18h0v.06h0v.12h0v0h0v.05h0v.37h0v.08h0v0h0l.09,1.2,7-.55c-.3-3.78-.46-7.63-.46-11.45Zm1.81,22.82-6.91,1.1c.13.8.26,1.58.4,2.38h0v0h0v.05h0v0h0v.26h0v.09h0l0,.13h0v.05h0c.52,2.91,1.13,5.8,1.82,8.65l6.8-1.64c-.89-3.69-1.64-7.47-2.24-11.22Zm5.37,22.23-6.66,2.17.2.59h0l0,.17h0l.06.16h0l0,.1h0l0,.15v0l0,.09v0l0,0h0l0,.09v0l0,.09h0l0,0v0l0,.08v0l0,.05v0l0,.08v0l0,.06v0l0,0v0l0,.07v0l0,0v0l0,.05v0l0,0,0,.05v.08l0,.06,0,0v0l0,.06v0l0,0,0,0v.08l0,0,0,.06v.07l0,.06v.08l0,.05,0,0v0l0,.05v0l0,0v0l0,.07v0l0,.05,0,0v.05l0,0,0,.06v0l0,0v0l0,.07v0l0,0v0l0,0v0l0,.06v.07l0,0,0,.06v0l0,.05v0l0,.05v0l0,.07v0l0,0v0l0,.07v0l0,.06v0l0,0v0l0,.07v0l0,.06v0l0,.07v0l0,.07v0l0,.05v0l0,.07v0l0,0v0l0,.07v0l0,.07v0l0,0v0l0,.07v0l0,.06v0l0,.07v0l0,.07v0l0,.07h0l0,.08v0l0,.07h0l0,.08v0l0,.08h0l0,.08h0l0,.08h0l.06.16h0l0,.08h0l0,.08h0l0,.09h0l.06.16h0c0,.08.06.17.1.26h0c.44,1.13.89,2.26,1.36,3.38l6.46-2.7c-1.46-3.5-2.8-7.11-4-10.72Zm8.8,21.1-6.23,3.2h0c1.72,3.34,3.56,6.62,5.51,9.81h0l.14.24h0l0,.08h0l0,.08h0l.05.07v0l0,.07h0l0,.07h0l6-3.68c-2-3.23-3.89-6.59-5.63-10Zm12,19.47-5.65,4.13h0l0,.06v0l0,0v0l0,.06v0l.05.06h0l0,.07h0l.06.07h0q3.4,4.61,7.12,8.94L1401,941c-2.48-2.88-4.87-5.9-7.11-9Zm14.91,17.36-4.94,5q1.59,1.59,3.23,3.12h0l.13.12h0l.07.06h0l.13.12h0l.06.06h0l.06.06h0l.06.06h0l.06.06h0l0,.05h0l.06,0,0,0,0,0h0l0,0v0l.06.05,0,0,0,0,0,0,0,0,0,0,0,0,0,0,0,0,0,0,0,0,0,0,.05,0,0,0,0,0,0,0,0,0,0,0,0,0,0,0,0,0,0,0,0,0,0,0,0,0,0,0,0,0,0,0,0,0,0,0,0,0,0,0,0,0,0,0,0,0,0,0,0,0,0,0,0,0,0,0,0,0,.06,0,0,0,0,.05,0,0,0,0,0,0,.06,0,0,0,0,0,0,0,0,0,0,0,.06,0,0,0,0,0,0,0,0,0,0,0,0,.05,0,0,0,0,0,0,0,0,0,0,0,0,0,0,0,0,0,0,0,0,0,0,0,0,0,0,0,0,0,0,0,0,0,0,0,0,0,0,0,0,0,0,0,0,0,0,0,0,.06,0,0,0,0,0,0,0,.06,0h0l.05,0,0,0,0,0h0l.06,0,0,0,.06,0h0l.06,0h0l.07,0h0l.13.11h0l.07.06h0l.13.12h0l.78.67,4.53-5.33c-2.89-2.46-5.73-5.07-8.42-7.75Zm17.43,14.82-4.1,5.67q4.85,3.51,10,6.65l3.65-6c-3.24-2-6.45-4.11-9.53-6.34Zm19.53,11.91-3.17,6.25h0l.06,0h0l.07,0h0l.15.07h0l.08,0h0l.16.08h0q4.14,2.08,8.41,3.91h0l.26.1h0l.09,0h0l.08,0h0l.08,0h0l.16.07h0l.08,0h0l.07,0h0l.08,0h0l.08,0h0l.06,0h0l.06,0h0l.06,0h0l.06,0h0l.07,0h0l0,0,0,0,.06,0,0,0h0l.06,0h0l0,0h0l.06,0,2.66-6.47c-3.51-1.44-7-3-10.4-4.77Zm21.15,8.7-2.14,6.66h0l.06,0h0l.07,0h.1l.07,0h0l.06,0h0l.08,0h0l.08,0h0l.07,0h0l.08,0h0l.07,0h0l.08,0h0l.08,0h0l.09,0h0l.08,0h0l.17,0h0l.17.06h0q3.3,1,6.67,1.89h0l.18,0h0l.09,0h0l.09,0h0l.09,0h0l.08,0h0l.08,0h0l.08,0h0l.06,0h.12l.06,0h0l0,0h.22l.06,0h.07l.08,0h.08l.1,0h0l1.59.39,1.61-6.82c-3.7-.87-7.41-1.9-11-3.06Zm22.26,5.25-1.07,6.92c1.31.2,2.63.38,4,.55h0l.23,0h0l.12,0h.06l.18,0h1.32l.11,0h1.15l.12,0h.06l.18,0h.06l.18,0h0c1.39.14,2.79.26,4.19.36l.52-7c-3.8-.28-7.62-.71-11.37-1.29Zm34.27,1.22c-3.79.3-7.64.47-11.45.48l0,7q4.54,0,9-.29h.64l2.34-.18-.56-7Zm22.58-3.64c-3.69.9-7.47,1.66-11.22,2.26l1.11,6.92c3.11-.5,6.18-1.1,9.21-1.78h.1l.08,0h.37l0,0h.12l.17,0h0l1.66-.4-1.65-6.8Zm21.72-7.14c-3.5,1.47-7.11,2.81-10.72,4l2.19,6.65c1-.32,1.92-.64,2.88-1h0l.09,0h0l0,0h0l.1,0h0l.08,0h.1l.06,0h.07l.06,0,0,0h.07l.07,0h0l.06,0h0l.06,0h0l.07,0h0l.06,0h0l.07,0h0l.08,0h0l.08,0h0l.08,0h0l.17-.06h0c1.49-.55,3-1.12,4.45-1.71h0l.08,0h0l.08,0h0l.08,0h0l.08,0h0l.08,0h0l.07,0h0l0,0h0l.07,0,0,0h0l.06,0h0l0,0h0l.07,0h0l1.16-.48-2.71-6.45ZM1588,970c-3.23,2-6.58,3.9-10,5.64l3.21,6.22c3.56-1.83,7-3.81,10.44-5.91l-3.69-6Zm18.44-13.54c-2.88,2.48-5.89,4.88-9,7.13l4.14,5.64c1.44-1,2.85-2.13,4.25-3.23h0l.07,0h0l.07-.06h0l.07,0h0l.07-.06h0l.06,0h0l.06-.05h0l.05,0,0,0,0,0,0,0,.06,0,0,0,0,0,0,0,0,0,0,0,0,0,0,0,0,0,0,0,0,0,0,0,0,0,0,0,0,0,0,0,.05,0,0,0h0l.07,0v0l0,0h0l.08-.07h0l.13-.1h0l.08-.07h0l.13-.1h0l.09-.07h0l.13-.11h0l2-1.69h0l.13-.11h0l.08-.07h0l.13-.11h0l.07-.06h0l.12-.1,0,0,.06,0,0,0,0,0,0,0,0,0,0,0,0,0,0,0,0,0,0,0,0,0,0,0,0,0-4.58-5.3Zm16.12-16.25c-2.46,2.9-5.06,5.74-7.74,8.44l5,4.93q4.14-4.17,8-8.66h0l.06-.07h0l0,0,0,0,0,0-5.34-4.53ZM1636,921.68c-2,3.25-4.1,6.46-6.33,9.54l5.68,4.1c.64-.89,1.27-1.78,1.89-2.68h0l0-.08h0l.1-.15h0l.05-.07h0l0-.06h0l0-.07h0l0-.07h0l0-.06h0l0-.07v0l0-.06v0l0-.05,0,0,0-.06v0l0-.05,0,0,0,0,0,0,0,0,0,0,0,0,0,0,0,0,0,0,0,0,0,0,0,0,0,0,0,0,0,0v0l0-.06v0l0,0v0l0-.07,0,0,0-.07,0,0,0,0h0l.06-.08v0l.09-.13h0l.06-.08h0l.09-.14h0l.06-.08h0l.09-.14h0l.15-.23h0l.09-.14h0l.06-.09h0l.09-.14h0l.16-.23h0l.09-.14h0l.06-.08h0l.08-.14h0l.05-.08v0l0,0h0l0-.07v0l0-.05,0,0,0,0,0,0,0,0,0,0,0-.05,0,0,0,0,0,0,0,0,0,0,0,0,0-.06,0,0,0,0,0,0,0,0,0,0,0-.06v0l0,0v0l0-.07v0l0-.06h0l0-.07h0l0-.07h0l.09-.15h0l1.08-1.75-6-3.64Zm10.3-20.42c-1.44,3.52-3,7-4.75,10.42l6.25,3.15q2-4,3.84-8.19h0l.06-.15v0l0-.08v0l0,0v0l0-.07,0,0,0-.05,0,0v0l0,0,0,0,0,0v0l0-.06v0l0,0v0l0-.07v0l0-.08h0l0-.07v0l0-.08h0l0-.07h0l0-.08h0c0-.08.07-.17.11-.25h0l.43-1.05-6.48-2.65Zm7-21.78c-.87,3.7-1.89,7.41-3,11l6.67,2.13c.13-.4.25-.8.38-1.2h0l0-.16h0l0-.09v-.1l0-.07v-.07l0-.06v0l0,0v0l0-.07v-.12l0-.05v0l0-.07v0l0-.07h0l0-.08v0l.05-.16h0l0-.09h0l0-.08h0l0-.08h0l0-.17h0c.46-1.55.9-3.11,1.31-4.69h0l.05-.18h0l0-.08h0l0-.09h0l0-.08h0l0-.08h0l0-.08h0l0-.08v0l0-.06v0l0-.07v0l0-.05v0l0-.07v-.13l0,0v0l0-.06v-.08l0-.06v0l0,0v0l0-.08v-.07h0l0-.1h0c.16-.66.32-1.31.47-2l-6.81-1.6Zm3.44-22.61c-.28,3.79-.71,7.62-1.28,11.37l6.92,1.06c0-.17,0-.32.08-.48h0v0h0v-.11h0v-.3h0v-.08h0v-.08h0V868h0c.18-1.24.35-2.49.49-3.75h0v0h0l0-.12V864h0v-.08h0v-.37h0v-.06h0v-.05h0l0-.17h0v-.05h0c.21-1.92.39-3.84.53-5.78l-7-.5Zm6.86-23.48-7,.58c.32,3.78.48,7.63.5,11.44l7,0c0-1,0-2,0-3.06h0v0h0v-.18h0v0h0v-.4h0v-.17h0v-.06h0v-.05h0v0h0v-.06h0v-.11h0v-.12h0v-.06h0v-.11h0v0h0v-.05h0v-.12h0v-.06h0v-.12h0v-.05h0v-.12h0v0h0V840h0V840h0v-.06h0v0h0v-.12h0v-.05h0v-.17h0v-.05h0v-.06h0v-.17h0V839h0v-.56h0v-.14h0v0h0v-.14h0v-.18h0v0h0c-.08-1.5-.18-3-.3-4.47Zm-3.85-23.66-6.8,1.67c.9,3.68,1.67,7.46,2.28,11.21l6.91-1.12c-.52-3.23-1.15-6.42-1.87-9.58h0l0-.18h0l0-.18h0v0h0v0h0l0-.09h0V811l0,0h0v-.1h0v-.05h0l0-.11h0c-.07-.31-.15-.62-.22-.93ZM1652.15,787l-6.45,2.71c1.47,3.51,2.83,7.11,4,10.72l6.65-2.2-.45-1.33h0l-.05-.17h0l0-.08h0l0-.08h0l0-.07v0l0-.08h0l0-.07v0l0-.07v0l0,0,0,0v0l0,0,0-.06v-.08l0,0,0-.06v-.07l0-.07v-.1l0-.07v0l-.05-.15v0l0-.09h0l-.06-.16h0c-.93-2.63-1.94-5.21-3-7.77h0l0-.1h0l0-.11Zm-11-21.29-6,3.69c2,3.23,3.92,6.58,5.66,10l6.22-3.22h0l0-.06v0l0,0v0l0-.07v0l0-.05v0l0-.06v0l0-.07v0l0-.05v0l0-.06,0,0,0-.06v0l0-.05v0l0-.06,0,0,0,0v0l0-.06v0l0-.06v0l0,0v0l0-.06,0,0,0-.07h0l0-.06v0l0-.07v0l0-.06v0l0-.06,0,0,0-.07v0l0-.06h0l0-.07v0l0-.07h0l0-.06v0l0-.07v0l0-.06v0l0-.06v0l0-.07h0l0-.07h0l0-.07v0l0-.07h0l0-.07h0l0-.07v0l-.08-.15h0l0-.07h0l0-.07h0l0-.07v0l0-.07h0l0-.08h0l0-.07h0l-.08-.15h0l0-.08h0l-.09-.15h0l0-.08h0l0-.08h0l0-.08h0l-.09-.15h0l0-.08h0l-.09-.16h0l-.09-.15h0l0-.08h0l-.09-.16h0l0-.08h0l-.09-.16h0c0-.08-.09-.16-.14-.24h0l-.09-.16h0l0-.08h0l-.09-.16h0l-.14-.24h0l-.09-.16h0l0-.08h0l-.09-.15h0l0-.07h0l-.1-.15h0l-.09-.16h0l0-.08h0l-.09-.16h0l0-.08h0l0-.08h0l0-.08h0l0-.07h0l0-.07h0l0-.07h0l-.09-.15h0l0-.07h0l0-.07h0l0-.07h0l0-.07v0l0-.06h0l0-.07v0l0-.06v0l0,0,0,0,0-.06,0,0,0,0v0l0-.07v0l0-.06v0l0,0,0,0,0-.06,0,0,0,0,0,0,0,0,0,0,0-.06,0,0,0,0,0-.06,0,0,0,0v0l0-.07v0l0-.08h0l0,0v0l0-.08h0l-.41-.66Zm-14.22-19.31-5.3,4.58c2.49,2.88,4.9,5.89,7.15,8.95l5.64-4.15c-.52-.71-1.05-1.41-1.58-2.1h0l-.06-.07h0l0-.07h0l0-.06v0l-.05-.06h0l0-.06h0l0-.06v0l0-.06,0,0,0-.05v0l0-.06,0,0,0,0,0,0,0,0,0,0,0,0,0,0,0,0,0,0,0,0,0,0,0,0,0-.06,0,0,0-.05,0,0,0,0,0,0,0-.06,0,0-.1-.12v0l-.05-.07,0,0,0,0h0l0-.07,0,0,0-.07h0l0,0h0l-.06-.07v0l-.1-.13h0l-.06-.08h0l-.1-.13h0l-.07-.07h0l-.11-.13h0l-.17-.21h0l-.1-.13h0l-.06-.07v0l-.1-.12v0l-.06-.07h0l-.1-.12v0l-.06-.07h0l0,0v0l-.06-.06v0l0-.06,0,0,0,0v0l-.05-.06,0,0,0,0,0,0,0,0,0,0,0-.05,0,0,0,0,0,0,0,0,0,0,0,0,0,0,0,0,0,0,0,0,0,0,0,0,0-.05,0,0,0,0v0l0-.05,0,0-.05,0,0,0,0,0,0,0,0,0,0,0,0,0v0l0-.05,0,0,0,0,0,0,0-.06v0l0,0h0l-.05-.06v0l0-.06h0l0,0,0,0,0-.06h0l-.05-.06h0l-.06-.06h0l0-.07h0l0-.06h0l-.06-.07h0l0-.06h0l0-.06h0l0-.06h0l-.11-.14h0l-.06-.07h0l-.12-.13h0l-.06-.07h0l-.12-.14h0l-.06-.07h0l-.06-.07h0l-.06-.07h0l-.12-.14h0l-.06-.07h0l-.12-.13h0l-.06-.07Zm-17.06-16.85-4.51,5.35c2.9,2.45,5.75,5,8.45,7.72l4.92-5c-.89-.88-1.79-1.74-2.7-2.6h0l-.41-.38h0l-.13-.12h0a1.8,1.8,0,0,0-.2-.19h0l-.21-.19h0l-.13-.12h0l-.06-.06h0l-.13-.12h0l-.07-.07h0l-.14-.12h0l-.14-.12h0l-.07-.06h0l-.2-.19h0l-.13-.13h0l-.21-.19h0l-.21-.18h0c-1-.92-2.06-1.82-3.1-2.71h0l-.22-.18h0l-.14-.12h0l-.07-.06h0l-.13-.12Zm-19.47-14-3.62,6c3.25,2,6.46,4.09,9.55,6.31l4.08-5.69h0l-.05,0,0,0-.06,0,0,0,0,0,0,0,0,0,0,0-.06,0,0,0,0,0,0,0,0,0,0,0,0,0,0,0,0,0,0,0,0,0,0,0,0,0-.07-.05h0l-.08-.06h0l0,0h0l-.08,0h0l-.13-.1h0l-.09-.06h0l-.14-.09h0l-.23-.17h0c-1.39-1-2.78-1.9-4.19-2.82h0l-.24-.16h0l-.14-.09h0l-.09-.06h0l-.14-.09h0l-.08-.05h0l0,0h0l-.07,0,0,0-.07,0h0l0,0h0l-.06-.05h0l0,0,0,0,0,0,0,0,0,0,0,0,0,0,0,0,0,0,0,0,0,0-.05,0,0,0,0,0,0,0,0,0h0l-.06,0,0,0,0,0,0,0-.06,0h0l-.06,0,0,0-.06,0h0l-.07,0h0l-.07,0h0l-.06,0h0l-.07,0h0l-.14-.09h0l-.07,0h0l-.15-.09h0l-.08,0h0l-1.12-.69ZM1569,704.77l-2.64,6.48c3.52,1.43,7,3,10.42,4.73l3.14-6.25c-1.32-.67-2.65-1.31-4-1.94h0l-.26-.12h0l-.15-.07h0l-.26-.12h0l-.42-.19h0l-.53-.24h0c-1.74-.79-3.51-1.55-5.29-2.27Zm-22.85-7.26-1.59,6.82c3.71.86,7.42,1.88,11,3l2.12-6.67q-5.7-1.82-11.57-3.18ZM1522.4,694l-.5,7c3.8.27,7.63.69,11.38,1.25l1-6.92c-2.3-.34-4.63-.64-7-.88h-.92l-.13,0h0c-1.28-.13-2.56-.23-3.85-.32Z" transform="translate(-258.45 -154.46)"/><path class="cls-3" d="M1826.72,382.19h-12v7h12v-7Zm-24,0h-12v7h12v-7Zm-24,0h-12v7h12v-7Zm-24,0h-12v7h12v-7Zm-24,0h-12v7h12v-7Zm-24,0h-12v7h12v-7Zm-24,0h-12v7h12v-7Zm-24,0h-12v7h12v-7Zm-24,0h-12v7h12v-7Zm-24,0h-12v7h12v-7Zm-24,0h-12v7h12v-7Zm-5.3,11.69h-7v12h7v-12Zm0,24h-7v12h7v-12Zm0,24h-7v12h7v-12Zm0,24h-7v12h7v-12Zm0,24h-7v12h7v-12Zm0,24h-7v12h7v-12Zm0,24h-7v12h7v-12Zm0,24h-7v12h7v-12Zm0,24h-7v12h7v-12Zm0,24h-7v12h7v-12Zm0,24h-7v12h7v-12Zm0,24h-7v12h7v-12Zm0,24h-7v12h7v-12Zm0,24h-7v12h7v-12Zm0,24h-7v12h7v-12Zm0,24h-7v12h7v-12Zm0,24h-7v12h7v-12Zm0,24h-7v12h7v-12Zm4.74,17.26h-11.74v6.74h0v0h0v.26h11.74v-7Zm24,0h-12v7h12v-7Zm24,0h-12v7h12v-7Zm24,0h-12v7h12v-7Zm24,0h-12v7h12v-7Zm24,0h-12v7h12v-7Zm24,0h-12v7h12v-7Zm24,0h-12v7h12v-7Zm24,0h-12v7h12v-7Zm24,0h-12v7h12v-7Zm24,0h-12v7h12v-7Zm24,0h-12v7h12v-7Zm.56-16.43h-7v12h7v-12Zm0-24h-7v12h7v-12Zm0-24h-7v12h7v-12Zm0-24h-7v12h7v-12Zm0-24h-7v12h7v-12Zm0-24h-7v12h7v-12Zm0-24h-7v12h7v-12Zm0-24h-7v12h7v-12Zm0-24h-7v12h7v-12Zm0-24h-7v12h7v-12Zm0-24h-7v12h7v-12Zm0-24h-7v12h7v-12Zm0-24h-7v12h7v-12Zm0-24h-7v12h7v-12Zm0-24h-7v12h7v-12Zm0-24h-7v12h7v-12Zm0-24h-7v12h7v-12Zm0-24h-7v12h7v-12Zm0-12.52h-12v7h12v-7Z" transform="translate(-258.45 -154.46)"/><path class="cls-2" d="M1267.77,154.46h-12v7h12v-7Zm-24,0h-12v7h12v-7Zm-24,0h-12v7h12v-7Zm-24,0h-12v7h12v-7Zm-24,0h-12v7h12v-7Zm-24,0h-12v7h12v-7Zm-24,0h-12v7h12v-7Zm-24,0h-12v7h12v-7Zm-24,0h-12v7h12v-7Zm-24,0h-12v7h12v-7Zm-24,0h-12v7h12v-7Zm-24,0h-12v7h12v-7Zm-24,0h-12v7h12v-7Zm-24,0h-12v7h12v-7Zm-24,0h-12v7h12v-7Zm-24,0h-12v7h12v-7Zm-18.35,0h-7v7h0v3.65h7V154.46Zm0,22.65h-7v12h7v-12Zm0,24h-7v12h7v-12Zm0,24h-7v12h7v-12Zm0,24h-7v12h7v-12Zm0,24h-7v12h7v-12Zm0,24h-7v12h7v-12Zm0,24h-7v12h7v-12Zm0,24h-7v12h7v-12Zm0,24h-7v12h7v-12Zm0,24h-7v12h7v-12Zm12.87,9.12h-12v7h12v-7Zm24,0h-12v7h12v-7Zm24,0h-12v7h12v-7Zm24,0h-12v7h12v-7Zm24,0h-12v7h12v-7Zm24,0h-12v7h12v-7Zm24,0h-12v7h12v-7Zm24,0h-12v7h12v-7Zm24,0h-12v7h12v-7Zm24,0h-12v7h12v-7Zm24,0h-12v7h12v-7Zm24,0h-12v7h12v-7Zm24,0h-12v7h12v-7Zm24,0h-12v7h12v-7Zm24,0h-12v7h12v-7Zm24,0h-12v7h12v-7Zm29.48-11.52h-7v11.52h-10.48v7h12v-6.52h5.48v-12Zm0-24h-7v12h7v-12Zm0-24h-7v12h7v-12Zm0-24h-7v12h7v-12Zm0-24h-7v12h7v-12Zm0-24h-7v12h7v-12Zm0-24h-7v12h7v-12Zm0-24h-7v12h7v-12Zm0-24h-7v12h7v-12Zm0-24h-7v12h7v-12Zm0-20.25h-12v7h5v1.25h7v-8.25Z" transform="translate(-258.45 -154.46)"/><path class="cls-3" d="M1030.33,345.81h-12v6.44l-5.33,8.93,6,3.59,6.15-10.3-2.78-1.66h3.77l4.18-7Zm-24,0h-12v7h12v-7Zm-24,0h-12v7h12v-7Zm-24,0h-12v7h12v-7Zm-24,0h-12v7h12v-7Zm-24,0h-12v7h12v-7Zm-24,0h-12v7h12v-7Zm-24,0h-12v7h12v-7Zm-24,0h-12v7h12v-7Zm-24,0h-12v7h12v-7Zm-24,0h-12v7h12v-7Zm-24,0H754.5l4.18,7h7.65v-7Zm.42,6.86-6,3.58,6.14,10.31,6-3.59-6.15-10.3Zm12.3,20.61-6,3.58,2.67,4.48h0l3.46,5.81,6-3.59-6.14-10.3Zm12.29,20.61-6,3.58,6.15,10.31,6-3.59-6.15-10.3Zm12.3,20.6-6,3.59,4.65,7.79h0l1.48,2.49,6-3.59-6.15-10.31Zm12.3,20.61-6,3.59L816.08,449l6-3.59-6.15-10.31Zm12.3,20.61-6,3.59,5.49,9.2h0l0,0h0v0h0v0h0l.59,1,6-3.58-6.15-10.31Zm12.3,20.61-6,3.59,1.28,2.14h0l.07.13h0l0,.08h0l0,.06v0h0l0,0h0l.06.1h0l4.6,7.7,6-3.58-6.15-10.31Zm12.3,20.61-6,3.59,2.43,4.07h0l0,.06,0,0h0l.08.14h0l3.59,6,6-3.58-6.15-10.31Zm12.3,20.61-6,3.59,5.82,9.75h0v0h0l0,0h0l0,.08h0l0,.06h0l.2.33,6-3.59-6.15-10.3Zm12.3,20.61-6,3.59.81,1.37h0v0h0l.08.14h0l0,0h0l0,0h0v0h0l0,0h0l0,0h0l5.08,8.51,6-3.59-6.15-10.3ZM896.16,557l-3.74,6.28-2.68-4.49-6,3.59L886.5,567l0,0h0v0h0l3.3,5.53,4.58-2.73,1.57.94,5.4-9h0l.09-.15h0v0h0v0h0v0h0v0h0l0,0h0v0h0l0,0h0l0,0h0l0,0h0l.46-.78-6-3.59Zm12.3-20.61-6.15,10.3,6,3.59.6-1h0v0h0v0h0v0h0l0,0h0l5.49-9.2-6-3.59Zm12.3-20.61-6.15,10.31,6,3.58,5.2-8.71h0l0,0,0,0h0l0-.07h0c.51-.87.85-1.43.85-1.43l-6-3.59Zm12.3-20.61-6.15,10.31,6,3.58,6.15-10.3-6-3.59Zm12.3-20.61-6.15,10.31,6,3.58,3.74-6.26v0h0v0h0l0,0h0l2.36-3.95-6-3.59Zm12.3-20.61-6.15,10.31,6,3.59,6.15-10.31-6-3.59ZM970,433.31l-6.15,10.31,6,3.59,2.53-4.24h0l0,0h0l3.59-6-6-3.59Zm12.3-20.6L976.11,423l6,3.59,2-3.37h0l4.13-6.91-6-3.58Zm12.29-20.61-6.14,10.3,6,3.59,6.15-10.31-6-3.58Zm12.3-20.61-6.15,10.3,6,3.59,2.79-4.67,3.36-5.64-6-3.58Z" transform="translate(-258.45 -154.46)"/><path class="cls-3" d="M525.4,755.2h-12v7h5v11.55h7V755.2Zm-24,0h-12v7h12v-7Zm-24,0h-12v7h12v-7Zm-24,0h-12v7h12v-7Zm-24,0h-12v7h12v-7Zm-24,0h-12v7h12v-7Zm-24,0h-12v7h12v-7Zm-24,0h-12v7h12v-7Zm-24,0h-12v7h12v-7Zm-24,0h-12v7h12v-7Zm-24,0h-12v7h12v-7Zm-19.95,0h-7v7h0v2h7v-9Zm0,21h-7v12h7v-12Zm0,24h-7v12h7v-12Zm0,24h-7v12h7v-12Zm0,24h-7v12h7v-12Zm0,24h-7v12h7v-12Zm0,24h-7v12h7v-12Zm0,24h-7v12h7v-12Zm0,24h-7v12h7v-12Zm0,24h-7v9.27h7v-9.27Zm19.73,2.27h-12v7h12v-7Zm24,0h-12v7h12v-7Zm24,0h-12v7h12v-7Zm24,0h-12v7h12v-7Zm24,0h-12v7h12v-7Zm24,0h-12v7h12v-7Zm24,0h-12v7h12v-7Zm24,0h-12v7h12v-7Zm24,0h-12v7h12v-7Zm24,0h-12v7h12v-7Zm24,0h-12v7h12v-7Zm.22-16.77h-7v12h7v-12Zm0-24h-7v12h7v-12Zm0-24h-7v12h7v-12Zm0-24h-7v12h7v-12Zm0-24h-7v12h7v-12Zm0-24h-7v12h7v-12Zm0-24h-7v12h7v-12Zm0-24h-7v12h7v-12Z" transform="translate(-258.45 -154.46)"/><path class="cls-3" d="M399.16,164.7H395.1c-2.66.07-5.31.22-7.93.45l.59,7c3.76-.32,7.6-.48,11.4-.48v-7Zm-23.89,2c-.92.16-1.83.32-2.75.5h-.16l-.11,0h-.88l-.08,0h-.19l-.17,0h-.1l-.27.05h-.1l-.23.05h0c-2.24.47-4.45,1-6.65,1.56l1.77,6.77c3.66-1,7.41-1.76,11.14-2.4l-1.18-6.9Zm-23.19,6.05-1.33.48h-.13l-.13,0h-.24l-.1,0h-.49l0,0h0l0,0h0l-.09,0h0l-.05,0h-.16l0,0h0l-.09,0h0l0,0h0l0,0h0l0,0h0l0,0h-.06l-.09,0h-.16l0,0h0l0,0h0l-.1,0h0l0,0h0l0,0h-.16l-.09,0h-.26l0,0h-.33l-.11,0h-.06l0,0h0l0,0h-.06l-.15.06h0l0,0h0l0,0h0l0,0h-.05l-.17.07h0l0,0h0l0,0h0l0,0h0c-1.87.75-3.72,1.55-5.55,2.38l2.9,6.37c3.45-1.57,7-3,10.57-4.27l-2.34-6.6Zm-21.82,9.93-1.31.74h0l0,0h0l0,0h0l0,0h0l-.16.09h-.05l0,0h-.07l0,0h-.06l0,0h0l0,0,0,0h0l0,0h0l0,0h0l0,0h0l0,0h0q-4.14,2.42-8.09,5.11l3.94,5.79c3.13-2.14,6.39-4.16,9.69-6l-3.43-6.1Zm-19.82,13.49-.07.06h0l-.07.06h0l-.13.11h0l-.06,0h0l-.06,0h0l-.06,0h0l-.05,0,0,0-.05,0,0,0,0,0,0,0-.05,0,0,0,0,0,0,0,0,0,0,0,0,0,0,0,0,0-.06,0h0l-.07.06h0l-.07.06h0l-.2.17h0c-.74.62-1.47,1.24-2.2,1.88h0l-.07.07h0l-.07.07h0l-.11.1h0l-.07.06h0l-.06.06h0l-.06,0h0l0,0h0l-.06.05,0,0-.06,0,0,0,0,0,0,0,0,0,0,0,0,0,0,0,0,0,0,0,0,0,0,0,0,0,0,0,0,0,0,0,0,0,0,0,0,0,0,0,0,0-.05,0,0,0-.05,0,0,0-.06.05v0l-.05,0h0l0,.05,0,0,0,0h0l-.06.05h0l-.06.06h0l-.05.05v0l-.06,0h0l-.05.05h0l-.06.06h0l-.07.06h0l-.06.06h0l-.06.06h0l-.06.06h0l-.13.12h0l-.06.06h0l-.06,0h0l-.2.19h0l-.07.06h0l-.07.06h0l-.13.12h0l-.07.06h0l-.07.06h0l-.21.19h0l-.06.06h0l-.06.06h0l-.13.13h0l-.07.06h0l-.07.06h0l-.13.12h0l-.07.06h0l-.06.06h0l-.06,0h0l-.07.06h0l-.06.06h0l-.06,0v0l-.05.05h0l-.06.06h0l-.06,0v0l-.05.05,0,0-.05,0,0,0-.05,0,0,0,0,0,0,0,0,0,0,0,0,0,0,0,0,0,0,0,0,0,0,0,4.86,5c2.73-2.63,5.6-5.17,8.54-7.56l-4.42-5.43Zm-17.25,16.64h0l-.06.06h0l-.05.06h0L293,213h0l-.05,0v0l-.05.06,0,0,0,.05,0,0,0,0,0,0,0,0,0,0,0,0,0,0,0,.05,0,0,0,0,0,0,0,0,0,.05,0,0,0,.05,0,0,0,0v0l-.05.06v0l-.06.06h0l-.17.2h0l-.06.08h0q-2.26,2.67-4.41,5.46h0l-.05.07v0l0,.06,0,0,0,0,0,0,0,.05,0,0,0,.05,0,0,0,0,0,0,0,0,0,.05,0,0,0,.06,0,0,0,0v0l-.05.06h0l-.05.06v0l-.05.06h0l-1.12,1.5,5.65,4.14c2.24-3.05,4.64-6,7.13-8.89l-5.27-4.61ZM279,232.15c-.95,1.55-1.86,3.12-2.75,4.7h0l0,.05h0l0,0h0l-.13.23h0l0,0h0l0,0h0l0,0h0l0,0h0l0,0h0l-.05.09h0v.05l0,0v.09l0,0h0v0h0l-.06.11h0l0,0h0l0,0h0l0,0h0l0,0h0c-.83,1.52-1.64,3.06-2.41,4.62l6.26,3.12c1.69-3.38,3.55-6.74,5.52-10l-6-3.65ZM268.29,253.6c-.7,1.78-1.37,3.57-2,5.39h0l0,0h0l0,0h0v0h0l0,.11v.28l0,.05h0v.05h0v.05l0,0v.06h0v0h0l-.06.15h0v0h0l0,.05h0c-.55,1.6-1.06,3.22-1.55,4.85l6.7,2c1.09-3.62,2.35-7.24,3.74-10.76l-6.51-2.58Zm-6.88,23h0v.2l0,.07h0v0h0V277h0l0,.13h0v0h0v.15l0,.11h0v0h0v0h0v0h0v0h0l0,.12h0v0h0v0h0v0h0v0h0l0,.08h0v.13h0v0h0l0,.12h0v.08h0v0h0l0,.17h0v0h0v0h0v0h0l0,.18h0v0h0v0h0v0h0l0,.18h0v0h0v0h0c-.55,3-1,5.94-1.37,9l6.95.84c.45-3.77,1.07-7.55,1.84-11.25l-6.85-1.43Zm-2.87,23.8c0,.11,0,.23,0,.34V301h0v.07h0v.07h0c0,1.05-.05,2.11-.06,3.16h0v.16h0v.08h0v.23h0v.07h0v.07h0V305h0v.39h0v.06h0v.78h0v.1h0v.05h0c0,1.17,0,2.34.07,3.51h0v.11h0v.05h0v.05h0v.1h0v.23h0c0,.61,0,1.22.08,1.83l7-.34c-.11-2.19-.16-4.41-.16-6.61,0-1.6,0-3.21.08-4.81l-7-.24Zm8.1,23-6.94.93c.19,1.37.39,2.74.61,4.1h0v.13h0l0,.12h0v.22h0v.16h0v0h0v.05h0v.11h0v0h0v0h0v.05h0c.21,1.21.44,2.41.67,3.61h0v.05h0v.05h0v.05h0l0,.11h0v.21h0v.08h0v0h0v0h0v0h0c.16.78.32,1.55.5,2.32l6.83-1.52c-.82-3.69-1.49-7.46-2-11.22Zm4.95,22.23-6.68,2.1q1.48,4.69,3.27,9.24h0l0,0h0l0,0h0v0h0v0h0l0,.11v.17h0v0h0c.2.51.4,1,.61,1.52l6.47-2.67c-1.44-3.5-2.74-7.1-3.88-10.71Zm8.67,21.06L274,369.87c.49.94,1,1.87,1.49,2.8h0l.1.19h0l0,0h0l0,0v0l0,0h0l0,0v.05h0l0,0v0l0,0,0,0h0l0,0v.06l0,0h0v0h0l0,0h0l.13.24h0c1.25,2.24,2.55,4.45,3.92,6.61l5.92-3.73c-2-3.2-3.92-6.53-5.66-9.89Zm12.14,19.27-5.59,4.22,0,0h0l0,.07h0l.09.12h0l.05.07,0,0,0,.06,0,0,0,.06,0,0,0,0v0l.05,0v0l.05.05,0,0,0,0,0,0,0,0,0,.05,0,0,0,0,0,0,0,0,0,.05,0,0,0,0,0,.05,0,0,0,0,0,0,0,0,0,0,0,0,0,0,0,.05,0,0,0,.06,0,0,0,0,0,0,0,0v0l.05.05v0l.05.05v0l.05.06v0l0,0,0,0,0,.05v0l.05.06v0l0,.05v0l0,.06h0l0,.05v0l.05.06v0l.05.06v0l.05.05v0l.05.05v0l0,.06h0l0,.06,0,0,0,.06h0l0,.06h0l.05.06h0l.05.06v0l.05.06h0l.05.06v0l.05.06h0l0,.07h0l0,.06h0l.05.07h0l.05.06h0l.05.07h0l.05.06h0l.05.07h0l.05.06h0l.06.06h0l.05.06h0l.05.07h0l.06.06h0l.11.14h0l.05.07h0l.05.06h0l.05.07h0l.05.07h0l0,.07h0l0,.06h0l0,.06h0l0,.07h0l.06.06v0l.05.06h0l.05.06h0l.05.07h0l.05.06h0l.05.06v0l.05.06h0l.05.06h0l.05.06h0l.05.06v0l.05.05v0l.05.06h0l.05.06v0l.05.05h0l.05.06v0l.05.05v0l.05.06h0l0,.05v0l.05.05v0l.05.06,0,0,0,.05,0,0,0,0,0,0,0,.05,0,0,0,.05,0,0,0,.05,0,0,0,0,0,0,0,0,0,0,0,0,0,0,0,0,0,0,0,.05,0,0,0,0,0,0,0,0,0,0,0,0,0,0,0,.05,0,0,0,0,0,0,0,0,0,.05,0,0,0,0,0,0,0,0,0,0,0,.05,0,0,.05,0v0l.05.06,0,0,0,0v0l.06.06h0l.05.07h0l.06.07h0l.17.2h0l.06.08h0l.72.8,5.2-4.68c-2.53-2.82-5-5.78-7.25-8.8Zm15.23,16.95-4.8,5.11,2.21,2h0l.28.25h0l.07.06h0l.07.06h0l.14.13h0l.07.06h0l.07.06h0l.21.19h0l.07.06h0l.07.06h0l.07.06h0l.07.06h0l.07.05h0l.06.06h0l.06.06h0l.07.06h0l.07.06h0l.06.05h0l.06.05h0l.07.06h0l.06.06h0l.06.06h0l.06.05h0l.07.05h0l.07.05h0l.06.05h0l0,.05,0,0,.06.05h0l.06.05h0l.06.06h0l.06.05h0l.06.05h0l.07.05h0l.06.05h0l.06.05h0l.05.05,0,0,.06,0v0l.06,0h0l.06.05v0l.06,0,0,0,0,.05h0l.06.05h0l.05,0,0,0,.05,0,0,0,.06,0h0l.05,0h0l0,0,0,0,0,0,0,0,.05.05h0l.06.05,0,0,.05,0,0,0,0,0,0,0,.05,0,0,0,0,.05,0,0,0,0,0,0,0,0,0,0,0,0,0,0,.05,0,0,0,0,0,0,0,0,0,0,0,0,0,0,0,0,0,0,0,.05,0,0,0h0l.06.05,0,0,.06.05h0l.19.16h0l.07.06h0c.52.43,1,.84,1.57,1.26l4.34-5.49c-3-2.35-5.87-4.85-8.63-7.45ZM325.49,417l-3.86,5.84c1.17.77,2.34,1.52,3.52,2.25h0l0,0h0l0,0h0l0,0h0l0,0h0l0,0h0l0,0h0l0,0h0l0,0h0l0,0h0l0,0h0c1.54,1,3.11,1.87,4.69,2.76h0l0,0h0l0,0h.06l0,0h0l0,0h0l.14.08h0l.05,0h0l1.17.64,3.35-6.14c-3.32-1.81-6.61-3.79-9.77-5.88Zm20,10.9-2.81,6.41,1.88.81h0l0,0h0l0,0h0l0,0h0q4.5,1.89,9.13,3.46l2.26-6.62c-3.59-1.22-7.16-2.61-10.63-4.13Zm21.56,7.33L365.38,442c2.76.68,5.56,1.28,8.38,1.8h.17l.1,0h.46l2.65.44,1.08-6.92c-3.74-.58-7.5-1.34-11.17-2.24Zm22.5,3.53-.49,7c1.27.09,2.56.16,3.84.22h8.15l-.09-7h-1.8c-3.2,0-6.43-.11-9.61-.34Zm34.09-1.89c-3.72.69-7.52,1.22-11.29,1.59l.68,7h.42l.24,0h0c2.33-.24,4.65-.54,6.94-.89h.1l.18,0h.15l.12,0H422l.1,0h.17l.27,0h0c.79-.13,1.58-.27,2.36-.42l-1.27-6.88Zm21.95-6.05c-3.55,1.32-7.2,2.49-10.85,3.5l1.86,6.75q5.82-1.6,11.42-3.68l-2.43-6.57Zm20.6-9.71c-3.28,1.91-6.67,3.69-10.09,5.3l3,6.33q1.41-.66,2.79-1.35h0l0,0h0l0,0h0l0,0h0l0,0h0l.11-.05h.13l0,0h.07l0,0h0l.09-.05h0l0,0h.05l0,0h0l0,0h0q3.26-1.65,6.4-3.47h0l0,0h.06l0,0h0l0,0h0l.1-.05h0l0,0h0l0,0h0l0,0h0l.16-.09-3.51-6.06Zm18.66-13.07c-2.91,2.43-6,4.76-9.06,6.94l4,5.73,0,0h0l.06,0,0,0,.06,0,0,0,.06,0h0l0,0h0l.07-.05h0l.06,0,0,0,.06,0,0,0,0,0,.05,0,0,0,0,0,.05,0,0,0,.05,0,0,0,.05,0,0,0,0,0,0,0,.05,0,0,0,.06,0,0,0,.06,0,0,0,0,0,0,0,0,0,0,0,.05,0,0,0,0,0,0,0,0,0,.05,0,0,0,.05,0,0,0,0,0,.05,0,0,0,0,0,0,0,0,0,.05,0,0,0,0,0,0,0,0,0,0,0,0,0,0,0,.05,0,0,0,.05,0,0,0,0,0,0,0,0,0,0,0,.06,0,0,0,.05,0,0,0,.05,0,0,0,.05,0,0,0,.06,0,0,0,.06,0,0,0,.05,0h0l0,0h0l.05,0,0,0,.06,0,0,0,.05,0h0l.05-.05h0l.05,0h0l.06,0,0,0,0,0,0,0,.06,0,0,0,.05,0,0,0,.05,0,0,0,.05,0h0l.06-.05h0l.05,0,0,0,.05,0h0l.06,0,0,0,.06,0,0,0,.06,0v0l0,0,0,0,.06,0,0,0,.05,0h0l.05-.05h0l.05,0,0,0,0,0h0l.06,0,0,0,.06,0,0,0,.05,0,0,0,0,0,0,0,.05,0,0,0,.05,0,0,0,0,0,0,0,0,0,0,0,0,0,0,0,0,0,0,0,0,0,0,0,0,0,0,0,0,0,0,0,0,0,0,0,0,0,0,0,0,0,0,0,0,0,.05,0,0,0,0,0,0,0,0,0,0,0,.06-.05h0l.06-.05h0l.07-.06h0l.12-.1h0l.08,0h0l.07-.06h0q1.32-1.06,2.64-2.16l-4.49-5.37ZM501,392c-2.45,2.89-5.06,5.7-7.75,8.37l4.93,5q4.26-4.23,8.15-8.8L501,392Zm13.24-18.54c-1.93,3.26-4,6.47-6.22,9.55l5.69,4.07c.85-1.18,1.67-2.38,2.48-3.59h0l.15-.21h0l0-.08h0l.05-.07v0l0-.08h0l0,0v0l0-.06v0l0-.05,0,0,0,0,0,0,0,0,0,0,0,0,0,0,0,0,0,0,0,0,0-.05,0,0,0-.05,0,0,0-.05,0,0,0,0,0,0,0-.06,0,0,0-.06v0l0-.06h0l0-.06v0l0-.06v0l0-.06v0l.05-.07h0l.1-.14h0l0-.07h0l0-.07h0l.15-.23h0q1.26-2,2.46-4l-6-3.57Zm9.9-20.51c-1.35,3.54-2.87,7.06-4.51,10.47l6.3,3q2.06-4.26,3.83-8.67h0l0,0h0l0,0h0l.06-.14h0l0,0v-.09l0,0h0v0h0l.08-.21h0c.22-.56.44-1.11.65-1.67L524.17,353Zm6.24-21.9c-.72,3.72-1.61,7.45-2.65,11.09l6.73,1.92c0-.19.11-.38.16-.56h0l.07-.25h0l0,0h0v0h0v0h0l0-.11h0l0-.05h0v-.09h0v0h0l0,0h0v-.05h0v-.43h0v0h0v0h0l0-.13h0v0h0v-.08h0v0h0l0-.18h0v0h0v0h0l.06-.22h0v0h0v0h0q1.14-4.37,2-8.83l-6.87-1.34Zm2.43-22.65c-.09,3.8-.33,7.63-.74,11.38l7,.75q.65-5.93.77-12l-7-.15Zm5.51-23.77-6.93,1c.56,3.74,1,7.55,1.19,11.34l7-.43-.06-.82h0v-.05h0v-.1h0v0h0V295h0v-.13h0v0h0v0h0c0-.07,0-.15,0-.23h0v0h0l0-.28h0q-.25-3.24-.65-6.43h0c0-.11,0-.22,0-.33h0v0h0l0-.17h0v0h0v0h0l0-.22h0v-.08h0l0-.13h0v-.05h0v0h0v0h0v0h0l0-.13h0v0h0v0h0v0h0l0-.12V286h0v0h0l0-.13h0v0h0v0h0v0h0l0-.16v-.15h0l0-.12h0v0h0V285h0v-.08h0v0h0v-.08h0v0h0v-.07Zm-5.53-23.33-6.65,2.19c1.19,3.6,2.23,7.28,3.1,11l6.82-1.62q-.84-3.51-1.84-7h0l0,0h0v-.05h0l-.07-.21h0v0h0v0h0v0h0l-.05-.15h0v0h0v0h0v0h0l0-.05h0l0-.1h0v0h0v0h0l0,0h0v-.05h0l0-.1h0l0,0h0v0h0v0h0l0-.05h0l0-.16h0l0-.05h0l0-.05h0a2.58,2.58,0,0,0-.08-.26h0v-.05h0c-.27-.86-.54-1.71-.82-2.56Zm-9.43-22-6.17,3.3c1.78,3.34,3.44,6.8,4.93,10.27l6.43-2.75q-.57-1.33-1.17-2.67h0c0-.11-.11-.22-.16-.34h0l0,0h0l0,0h0a1.89,1.89,0,0,1-.11-.25h0v0h0l0,0h0l-.07-.17h0l0,0h0l0,0h0l0,0h0l0,0h0l-.1-.21h0l0,0h0l0,0h0l0,0h0l-.12-.25h0l0,0h0l0,0h0l-.1-.21h0l0,0h0l0,0h0l0,0h0l0,0h0a1.24,1.24,0,0,0-.1-.2h0l0,0h0l0,0h0l0,0h0l-.1-.2h0l0,0h0l0,0h0l0,0h0l0,0h0a2,2,0,0,1-.1-.21h0l0,0h0v0h0l-.12-.25h0l0,0h0l0,0h0c0-.1-.09-.2-.14-.29h0l0,0h0l-.13-.25h0l0,0h0q-1-2-2.05-4Zm-13-20.11-5.53,4.29c2.33,3,4.55,6.12,6.61,9.3L517.3,229q-3.27-5-6.95-9.78Zm-16.26-17.62-4.72,5.17c2.79,2.55,5.51,5.26,8.08,8L502.6,210h0l-.06-.06h0l-.06-.07h0l-.06-.07h0l-.06-.07h0l-.19-.2h0l-.06-.06h0c-.85-.92-1.71-1.82-2.59-2.71h0l-.52-.53h0l-.06-.06h0l-.07-.07h0l-.13-.13h0l-.06-.07h0l-.06-.06h0l-.07-.06h0l-.06-.06h0l-.06-.06h0l-.06-.06h0l-.06-.06h0l-.06-.06h0l-.06-.06h0l-.06-.06h0l-.06,0h0l-.06-.06h0l-.05,0h0l-.05-.06h0l-.05-.05,0,0-.05-.05h0l-.06-.06h0l-.05-.05h0l-.06-.05v0l-.06,0,0,0-.05,0h0l-.05,0v0l-.05,0,0,0-.05-.05,0,0,0-.05,0,0,0,0,0,0,0,0,0,0-.05-.05,0,0-.05-.05,0,0-.05,0,0,0,0,0,0,0,0,0,0,0-.05,0,0,0-.05,0,0,0,0,0,0,0,0,0,0,0,0,0,0,0,0,0,0,0,0,0,0,0,0,0,0,0,0,0,0,0-.05-.05,0,0,0,0,0,0,0,0,0,0,0,0,0,0,0,0,0,0,0,0,0,0,0,0,0,0,0,0,0,0,0,0,0,0,0,0,0,0,0,0,0,0,0,0,0,0,0,0,0,0-.05,0,0,0-.05-.05,0,0,0,0,0,0,0,0,0,0,0,0,0,0,0-.05,0,0,0-.05,0,0,0,0,0,0-.05,0,0,0-.05,0,0,0-.05-.05,0,0-.05,0h0l-.05,0v0l-.06-.05Zm-19-14.62-3.79,5.89c3.19,2.05,6.33,4.26,9.33,6.57l4.27-5.55q-4.76-3.66-9.81-6.91Zm-21.2-11.18-2.73,6.44c3.49,1.48,6.95,3.12,10.3,4.89l3.27-6.19q-5.3-2.8-10.84-5.14Zm-22.8-7.41-1.58,6.82c3.68.86,7.38,1.88,11,3.05l2.17-6.66q-4.92-1.59-10-2.83h-.16l-.1,0h-.23l-1.1-.26Zm-23.73-3.4-.4,7c3.79.21,7.6.6,11.34,1.13l1-6.93c-1.91-.27-3.83-.51-5.76-.7h-.06l-.28,0h0l-.17,0h-2.8l-.18,0H410l-.23,0h-.1l-.19,0h-2.07Z" transform="translate(-258.45 -154.46)"/><path class="cls-2" d="M514.13,246.72h-4.34q-3.85.12-7.65.44l.59,7c3.76-.32,7.6-.48,11.4-.48v-7Zm-23.89,2c-1.71.29-3.42.61-5.11,1h0l-.21,0h-.11l-.22,0h0l-.05,0h0l-.21,0h-.11L484,250h-.11l-.21.05h-.05l-.06,0h0l-.21,0h-.11l-.21,0h-.05l-.27.06h-.11l-.21,0h-.11l-.21,0h-.11l-.21.05h0l-3.15.78,1.77,6.78c3.66-1,7.41-1.77,11.14-2.4l-1.18-6.9Zm-23.19,6-.29.1h0l-.05,0h-.1l-.05,0h-.07l0,0h-.17q-3.65,1.32-7.2,2.83h0l-.25.11h-.2l-.1,0h-.22l0,0h0l0,0h0l0,0H458l0,0h0l-.14.06h0l0,0h0l0,0h0l0,0h0l-1.77.78,2.9,6.37c3.45-1.56,7-3,10.57-4.27l-2.34-6.59Zm-21.82,9.92-1.32.75h0l0,0h-.05l0,0h-.06l0,0h-.05l0,0h-.06l0,0h0l0,0h0q-4.29,2.5-8.4,5.3l3.94,5.78c3.13-2.13,6.39-4.15,9.69-6l-3.43-6.1ZM425.41,278.2l-1.76,1.46h0l-.06.06h0l-.06.06h0l-.05.05h0l0,0,0,0,0,0,0,0,0,0,0,0,0,0,0,0,0,0,0,0,0,0,0,0,0,0,0,0,0,0-.05,0,0,0-.05.05h0l-.06.05h0l-.06.05h0l-.06.05h0l-.06.05,0,0-.05.05h0l-.06.05h0l-.05.05h0l-.06.05h0l-.06.05h0L422,281h0l-.06.06h0l-.07.06h0l-.06.06h0l-.06,0h0l-.07,0h0l-.07.06h0l-.06,0h0l-.07.06h0l-.07.06h0l-.14.12h0l-.07,0h0l-.07.06h0L421,282h0l-.07.06h0l-.07.06h0l-.2.18h0l-.07.06h0l-.06.06h0l-.21.18h0l-.07.06h0l-.21.18h0l-.07.06h0l-.07.06h0l-.14.13h0l-.07.06h0l-.07.06h0l-.2.18h0l-.06.06h0l-.06.06h0l-.13.12h0l-.07.06h0l-.07.06h0l-.07.06h0l-.13.12h0l-.06,0h0l-.06.06h0l-.13.12h0l-.07.06h0l-.07.06h0l-.2.18h0l-.06.06h0l-.06.06h0l-.14.12h0l-.07.06h0l-.07.06h0l-.2.19h0l-.07.06h0l-1,1,4.86,5c2.73-2.63,5.6-5.18,8.54-7.57l-4.42-5.43Zm-17.25,16.65-.86,1h0l-.18.21h0l-.06.07h0l-.06.06h0l-.12.14h0l-.06.07h0l-.05.07h0l-.05.07h0l-.11.13h0l-.05.06h0l-.05.07h0l-.11.14h0l-.05.07h0l0,.06h0l-.06.07h0l-.12.14h0l-.06.07h0l-.06.07h0l-.18.21h0c-1.75,2.12-3.45,4.29-5.07,6.51l5.64,4.14c2.24-3.05,4.64-6,7.13-8.89l-5.27-4.61ZM394,314.17c-.4.65-.79,1.3-1.18,2h0l0,0h0v0h0l0,0h0v.05l0,0,0,.05h0l0,0h0l0,0h0l0,0h0l0,0h0c-1.38,2.36-2.68,4.75-3.92,7.19h0l0,0h0l0,0h0l0,0h0v0h0l0,0h0l0,0,0,.06h0l0,0h0l0,0h0l0,0h0l-.23.46,6.26,3.13c1.69-3.39,3.55-6.74,5.52-10l-6-3.65Zm-10.71,21.44-.39,1h0v0h0l0,.05h0l-.06.15h0l0,0h0l0,0h0l0,0h0v.09h0l0,0h0v.21h0l0,0h0l0,.13h0v0h0l0,0h0v0h0v0h0l-.08.22h0q-1.61,4.25-2.92,8.62h0l-.07.22h0v0h0v0h0v0h0l6.7,2c1.09-3.63,2.35-7.25,3.74-10.77l-6.51-2.58Zm-6.88,23c-.15.73-.3,1.47-.44,2.2h0c0,.12-.05.24-.07.36h0q-.87,4.59-1.43,9.27l6.95.84c.45-3.76,1.07-7.55,1.84-11.25l-6.85-1.43Zm-2.87,23.8c0,.12,0,.23,0,.35h0V383h0v.08h0v.07h0c0,1-.05,2.1-.06,3.16h0v.16h0v.07h0v.15h0v.07h0v.07h0V387h0v.15h0v.24h0v.17h0v.72h0v.05h0v0h0c0,1.22,0,2.42.07,3.63h0v.05h0v.06h0v.05h0v.05h0v0h0v.23h0c0,.59.05,1.18.08,1.77l7-.34c-.11-2.18-.16-4.41-.16-6.6,0-1.6,0-3.22.08-4.81l-7-.25Zm8.1,23-6.93.93c.17,1.28.36,2.55.56,3.82h0l0,.09h0l0,.18h0v0h0v.1l0,.11v.2l0,.1h0v0h0v0h0v.05h0q.45,2.63,1,5.23h0v.05h0l0,.16h0v.05h0v0h0v.35l.24,1.08,6.83-1.52c-.82-3.69-1.49-7.47-2-11.22Zm4.95,22.23-6.68,2.1c.15.48.31.95.46,1.43h0v0h0v0h0l.06.17h0v.22l0,.05h0l0,.05h0v0h0v0h0l0,0h0v0h0l.06.2h0l0,.05h0q1.5,4.47,3.28,8.8l6.48-2.67c-1.45-3.5-2.75-7.1-3.89-10.71Zm8.68,21.05L389,451.88c.66,1.28,1.34,2.55,2,3.81h0l0,0h0l0,0h0l.14.24h0l0,0h0l0,0v0l0,0h0l.09.16h0l0,0h0l0,0h0v0h0l0,0v.06l.06.1h0l0,0h0l0,0h0l0,0h0v0h0l0,0v0h0l.06.1v0l0,0h0v0l0,0v.06l0,0h0l.06.11h0l0,0v0l0,0h0v0h0l0,0h0v0h0l.08.15h0l0,0h0l0,0h0v.05l0,0h0l0,0h0l.09.15h0l0,0h0l0,0h0l0,0h0l0,0h0l.09.15h0l0,0h0l0,0h0l0,0h0l0,0h0l.09.16h0l0,0h0l0,0h0l0,0h0l0,0h0c.05.08.1.16.14.24h0l0,0h0l0,0h0l0,0h0l.11.19h0l0,0h0l0,0h0l0,0h0l0,0h0l.1.15h0l0,0h0v0h0l0,0h0l0,0h0l.12.2h0l0,0h0l0,0h0l0,0h0l0,0h0l.1.15h0l0,0h0l0,0h0l0,0v0l0,0v0l0,0h0l.06.1h0v0h0l0,0h0v0l0,0v0l0,0v0h0l.05.09h0l0,0v0l0,0v.05h0l0,0h0l0,0h0l.1.17h0l0,0h0l0,0h0c.15.24.31.48.46.73l5.92-3.73c-2-3.21-3.92-6.54-5.65-9.9ZM407.37,468l-5.58,4.22,0,0h0q3.6,4.77,7.6,9.21l5.2-4.67c-2.53-2.82-5-5.78-7.25-8.8ZM422.6,484.9l-4.8,5.1,1.21,1.12h0l.08.07h0l0,0h0l.07.05,0,0,0,0,0,0,0,0,0,0,0,0,.05,0,0,0,0,0h0l0,0h0l.06,0h0l.06,0v0l.06,0h0l.06.06h0l.07.06h0l.07.06h0l.06.06h0q2,1.81,4.11,3.55h0l.08.06h0l.14.12h0l.07.06h0l.06.06h0l.07.05h0l.06.05h0l.06.05h0l.06.05,0,0,.05,0,0,0,0,0,0,0,0,0,0,0,.05,0,0,0,.05,0,0,0,0,0,0,0h0l.06.05v0l.12.09h0l.07.06h0l1.28,1,4.34-5.49c-3-2.35-5.87-4.86-8.63-7.45ZM440.47,499l-3.87,5.83.53.35h0l0,0h0l0,0h0l0,0h0l.05,0h0l0,0,0,0h0l0,0h0l0,0h0l0,0h0l0,0h0c1.51,1,3.05,1.94,4.6,2.87h0l0,0h0l0,0h0l0,0h0l0,0h.06l.09.06h.08l0,0h.06l0,0h0l0,0h0c1.38.81,2.77,1.59,4.17,2.36l3.35-6.15c-3.32-1.81-6.6-3.78-9.76-5.87Zm20,10.9-2.81,6.41,1.93.83h.15l.09,0h.05l0,0h0l0,0h0l0,0h0q4.35,1.81,8.83,3.34l2.26-6.63c-3.59-1.21-7.16-2.6-10.63-4.12ZM482,517.26l-1.67,6.8c2.48.61,5,1.16,7.52,1.63h0l.22,0h.16l.1,0h.56l.13,0h.14c1,.18,1.95.34,2.93.5l1.09-6.92c-3.75-.59-7.51-1.34-11.18-2.25Zm22.5,3.54-.49,7c1.46.11,2.92.19,4.4.25H516l-.09-7h-1.8c-3.2,0-6.43-.12-9.61-.34Zm34.09-1.9c-3.72.69-7.52,1.23-11.29,1.6l.68,7h.43l.23,0h.05c2.33-.24,4.64-.53,6.94-.89h.1l.17,0h.15l.12,0h.52l.1,0h.44l.27,0h0l2.36-.41-1.27-6.89Zm21.95-6c-3.55,1.31-7.2,2.49-10.85,3.49l1.86,6.75,1.22-.34h.54l.15-.05h.16l.26-.08h0c1.46-.43,2.9-.88,4.34-1.35h0l0,0h.11l0,0h0l.1,0h.21l0,0h0l0,0h.19l.22-.07h.05c1.22-.42,2.44-.85,3.65-1.3l-2.43-6.56Zm20.6-9.71c-3.28,1.9-6.67,3.68-10.09,5.3l3,6.33,1.69-.81h0l0,0h.1l0,0h0l0,0h0l.08,0h.14l0,0h.09l0,0h0l.1,0h0l0,0h.06l0,0h0l0,0h0l0,0h0l.18-.09h0l0,0h0l0,0h0l.29-.14h0L579.7,512h0l.66-.35h0l0,0h0l.05,0h0q2.13-1.14,4.22-2.36l-3.51-6.05Zm18.66-13.07c-2.91,2.43-6,4.76-9.05,6.93l4,5.73h0l.06-.05h0l.05,0,0,0,0,0,0,0,0,0,0,0,0,0,.05,0,0,0,0,0,0,0,0,0,0,0,.05,0,0,0,0,0,0,0,.05,0,0,0,.06,0h0l.06,0,0,0,.06,0h0l.06-.05h0l.06-.05h0l.07,0h0l.06-.05h0l.06-.05h0l.07,0h0l.07-.05h0l.07-.05h0l.07-.05h0l.15-.11h0l.08-.05h0l.07-.06h0l.22-.16h0l.08-.06h0q3.68-2.69,7.16-5.6l-4.49-5.37ZM616,474c-2.45,2.88-5.06,5.7-7.75,8.36l4.93,5c.53-.52,1.06-1.06,1.58-1.59h0l.07-.07h0l.06-.07h0l.13-.13h0l.05-.06h0l.06-.06h0l.06-.06h0l0-.05h0l.05-.06h0l0-.06h0l.06-.06h0l0,0v0l.05,0,0,0,0,0,0,0,.05-.05,0,0,0,0,0,0,0,0,0,0,0,0,0,0,0,0,0,0,0,0,0,0,0,0,0,0,0,0,0,0,0,0,0,0,0,0,0,0,0,0,0-.05,0,0,.05-.05,0,0,0,0,0,0,0,0,0,0,0,0v0l.06,0v0l.07-.07h0l0,0h0l.06-.06,0,0,0-.06h0l0-.06h0l.11-.11h0l.07-.07h0l.06-.07h0l.11-.12h0l.07-.07h0l.06-.07h0l.06-.07h0l.1-.11h0l.06-.07h0l.06-.07h0l.1-.12h0l.06-.06v0l.06-.06h0l.06-.06v0l0,0,0,0,.05-.05h0l0-.06,0,0,.05-.05,0,0,0,0,0,0,0,0,0,0,0,0,0,0,.05,0,0,0,0,0,0,0,0,0,0,0,0,0,0,0,0,0,0,0,0,0,0,0,0,0,0-.05,0,0,0-.05,0,0,0,0,0,0,0-.05,0,0,0,0,0,0,0-.05v0l.05-.06h0l0-.05h0l.05-.06,0,0,0-.06h0l.05-.06h0l.12-.13h0l.06-.07h0c.48-.54,1-1.09,1.41-1.63L616,474Zm13.24-18.54c-1.93,3.25-4,6.47-6.22,9.55l5.69,4.07.76-1.07h0l.16-.23h0l0-.08h0l0-.08h0l.1-.15h0l0-.07h0l.05-.07h0l0-.07h0l0-.06h0l0-.07h0l0-.07h0l0-.06,0,0,0-.06h0l0-.06,0,0,0-.06v0l0-.06,0,0,0,0,0,0,0-.05,0,0,0-.06,0,0,0-.06,0,0,0,0,0,0,0-.05,0,0,0-.05,0,0,0-.06,0,0,0,0,0-.05,0,0,0-.05,0,0,0,0,0,0,0,0,0,0,0-.06v0l0-.07,0,0,0-.07h0l0,0h0l.05-.08h0l0-.07h0l.06-.08h0l.14-.22h0q1.9-2.87,3.66-5.84l-6-3.57Zm9.9-20.51c-1.35,3.53-2.87,7.05-4.51,10.46l6.3,3.05c.22-.46.44-.91.65-1.37h0l0,0h0v0h0l0,0v0l0,0h0l0-.05v0l0,0v-.17h0v0h0l.07-.15v0l0,0h0l0,0h0l0,0h0c.62-1.35,1.22-2.7,1.8-4.07h0l.13-.3h0l0,0h0v-.08h0v0h0l0-.06v-.32l0-.05h0v-.05h0v0h0v0h0v0h0l0,0h0c0-.08.06-.16.1-.25h0c.46-1.12.91-2.25,1.34-3.38L639.14,435Zm6.24-21.9c-.72,3.72-1.61,7.45-2.65,11.08l6.73,1.92.07-.24h0l0,0h0l0-.15h0v-.23l0-.07h0v0h0v0h0v0h0q1.49-5.29,2.54-10.76l-6.87-1.34Zm2.43-22.65c-.09,3.79-.33,7.62-.73,11.38l7,.74q.63-5.91.77-12l-7-.15Zm5.51-23.78-6.93,1c.56,3.74,1,7.55,1.19,11.34l7-.44c0-.36-.05-.73-.08-1.09h0v-.06h0v-.05h0v-.16h0v0h0v0h0v-.05h0v-.11h0v-.21h0v0h0v-.27h0v-.26h0v-1.73h0v-1.82h0v-.21h0v-.05h0v-.06h0V372h0v-.06h0v-.05h0v0h0v-.1h0v-.11h0v-.05h0v0h0v-.05h0v-.11h0v-.06h0v0h0v0h0l0-.22h0c-.16-1.43-.35-2.86-.56-4.28Zm-5.53-23.32-6.64,2.19c1.18,3.59,2.22,7.28,3.1,11l6.81-1.61c-.21-.88-.43-1.75-.65-2.61h0v-.05h0v0h0v0h0v0h0l0-.05h0v-.24l0-.16h0l0,0h0v-.05h0c-.72-2.75-1.53-5.48-2.42-8.16Zm-9.43-22-6.17,3.29c1.78,3.34,3.44,6.8,4.93,10.28l6.43-2.75c-.13-.32-.27-.62-.4-.94h0l0,0h0l0-.1h0l0,0v0l0,0v-.07h0l0,0v0l0,0h0c-1-2.29-2.07-4.55-3.2-6.77v-.11h0l0,0h0l0,0h0c-.42-.84-.85-1.67-1.3-2.5Zm-13-20.11-5.53,4.29c2.33,3,4.55,6.12,6.61,9.29l5.87-3.81q-3.27-5-6.95-9.77Zm-16.25-17.62-4.73,5.16c2.8,2.56,5.51,5.27,8.08,8l5.15-4.75q-4.08-4.41-8.5-8.46Zm-19-14.62-3.78,5.89c3.18,2,6.32,4.25,9.32,6.56l4.27-5.55-2.09-1.58h0l-.07,0h0l-.15-.11h0l-.07-.05h0l-.07-.05h0l-.06-.05h0l-.06-.05h0l-.06,0h0l-.06-.05h0l-.06,0h0l-.06,0h0l-.05,0,0,0,0,0h0l0,0,0,0-.05,0,0,0,0,0,0,0,0,0,0,0,0,0,0,0,0,0,0,0,0,0,0,0,0,0-.05,0,0,0,0,0,0,0,0,0,0,0,0,0,0,0,0,0,0,0,0,0,0,0,0,0,0,0-.05,0,0,0-.05,0,0,0,0,0,0,0,0,0,0,0-.06,0,0,0-.06,0h0l-.06-.05h0l-.12-.09h0l-.06,0,0,0-.07,0,0,0-.06,0h0l0,0h0l-.06-.05h0l-.06,0,0,0-.07-.05h0l-.13-.08h0l-.07-.05h0l-.06,0,0,0-.07-.05h0l0,0,0,0-.06,0h0l-.07,0h0l-.07,0h0l0,0h0l-.07-.05h0l-.06-.05h0l-.07,0,0,0-.12-.08h0l-.06-.05h0l-.06-.05h0l-.08-.05h0l0,0h0l-.07-.05h0l-.06-.05h0l-.08,0h0l-.13-.09h0l-.08-.06h0l-.09-.06h0l-.22-.15h0L590.07,269Zm-21.2-11.19-2.73,6.45c3.49,1.47,7,3.11,10.3,4.88l3.27-6.19-1.43-.74h0l0,0h0l0,0h0l0,0h0l0,0h0l-.09,0h0l0,0h-.14l0,0h0l0,0h-.08l0,0h-.1l0,0h0l-.16-.08h0l0,0h0l0,0h-.05q-4.08-2-8.3-3.83Zm-22.8-7.4-1.58,6.82c3.68.85,7.38,1.88,11,3.05l2.16-6.66c-2.85-.92-5.73-1.76-8.65-2.5h0l-.05,0h-.06l-.15,0h-.24l-.11,0h-.15c-.72-.17-1.43-.35-2.15-.51ZM522.34,247l-.4,7c3.79.22,7.6.6,11.34,1.14l1-6.93h0l-.17,0h-.2l-.12,0h-3.06l-.1,0H529l-.17,0h-.11l-.22,0h0l-.28,0h0q-2.89-.28-5.82-.46Z" transform="translate(-258.45 -154.46)"/><path class="cls-2" d="M604.26,652.2h-2.72q-4.59.09-9.17.48h-.1l.6,7c3.77-.32,7.6-.48,11.39-.48v-7Zm-23.89,2c-3.93.67-7.85,1.51-11.72,2.52l1.76,6.78c3.66-1,7.41-1.76,11.15-2.4l-1.19-6.9Zm-23.19,6q-5.64,2-11.13,4.49h0l2.89,6.37c3.45-1.56,7-3,10.57-4.26l-2.33-6.6Zm-21.83,9.91-1.21.69h0l0,0h0l0,0h0l0,0h0l-.15.09h0l0,0h0l0,0h-.06l0,0h0l0,0h-.07l0,0h0l0,0h0l0,0h0l-.09.05h0l0,0h0l0,0h0l0,0h0l0,0h0q-4.05,2.37-8,5l3.94,5.79c3.13-2.13,6.38-4.15,9.68-6l-3.43-6.1Zm-19.81,13.5c-1,.78-1.92,1.58-2.86,2.39h0l-.07.06h0l-.14.12h0l-.06.06h0l-.13.11h0l-.06,0h0l-.06,0h0l-.06.05h0l-.06,0,0,0,0,0h0l-.05,0,0,0-.05.05h0l-.05,0h0l-.05.05h0l-.05,0,0,0-.05,0,0,0-.05,0,0,0,0,.05,0,0,0,0,0,0,0,0,0,0-.05,0,0,0,0,0,0,0,0,0,0,0,0,0,0,0,0,0-.05,0,0,0,0,0,0,0,0,0,0,0-.05,0,0,0,0,0,0,0,0,0,0,0-.06.05,0,0,0,0-.05,0,0,0,0,0-.06,0,0,0-.06.05h0l0,0,0,0-.06.05h0l-.11.11h0l-.06.06h0l-.06.06h0l0,0,0,0-.06.06h0l-.08.07h0l0,0h0l-.05,0,0,0-.07.06h0l0,0h0l-.06.05,0,0-.06,0,0,0,0,0,0,0-.05,0,0,0-.05,0,0,0,0,0,0,0-.05,0,0,0,0,0-.05,0,0,0,0,0,0,0,0,0,0,0,0,0,0,0,0,0,0,0,0,0,0,0,0,.05,0,0-.06,0h0l-.05.05h0l-.06,0,0,0-.06.05h0l-.06.06h0l-.06.06h0l-.13.12h0l-.07.07h0l-1,1,4.87,5c2.73-2.63,5.6-5.18,8.53-7.57l-4.42-5.42Zm-17.25,16.65q-4,4.54-7.51,9.35l5.64,4.15c2.23-3.05,4.64-6,7.13-8.89l-5.26-4.61Zm-14.2,19.31q-3.15,5.15-5.81,10.5l6.27,3.12c1.68-3.39,3.54-6.74,5.51-10l-6-3.65ZM473.4,741.09c-1.48,3.73-2.79,7.52-3.93,11.34l6.7,2c1.09-3.63,2.35-7.26,3.74-10.77l-6.51-2.58Zm-6.88,23-.09.45h0v.26h0q-.84,4.14-1.43,8.33h0v0h0v.05h0v0h0v.05h0l0,.1v.22h0c-.1.74-.2,1.48-.29,2.22l6.95.85c.46-3.76,1.08-7.55,1.85-11.25l-6.85-1.43Zm-2.88,23.79c0,.91-.06,1.81-.07,2.72h0v0h0v.44h0v0h0v0h0v0h0c0,2.88,0,5.75.16,8.63l7-.34c-.19-3.78-.21-7.62-.08-11.41l-7-.25Zm8.11,23-6.94.94c.12.86.25,1.73.38,2.59h0v.05h0v0h0v0h0l0,.17V815h0l0,.1h0v0h0v.15h0v.05h0c0,.09,0,.18,0,.26h0q.45,2.79,1,5.56h0v0h0v.21h0l0,.12h0v0h0v0h0v.05h0c.14.62.27,1.25.41,1.88l6.83-1.52c-.82-3.7-1.49-7.47-2-11.23Zm4.95,22.24L470,835.2q1.8,5.7,4.08,11.28l6.48-2.66c-1.44-3.5-2.74-7.11-3.88-10.72Zm8.66,21.06-6.22,3.21c.83,1.6,1.69,3.2,2.58,4.78h0l.06.09h0l.16.29h0c.1.19.21.37.32.56h0q1.37,2.37,2.83,4.69l5.92-3.73c-2-3.2-3.92-6.53-5.65-9.89Zm12.13,19.27-5.58,4.22,0,.07h0l0,.07h0l.11.14h0l.05.07h0l.06.07h0l.05.06v0l.05.06h0l.11.14h0l0,.06h0l.05.07h0l.05.07h0l.05.06,0,0,0,.06h0l0,.06h0l0,.06,0,0,0,.06h0l.05.06h0l0,.06,0,0,0,.06h0l0,.06h0l0,.06,0,0,0,.06,0,0,0,0v0l.05.06v0l.05.06v0l0,0,0,0,0,0,0,0,0,.05,0,0,0,0,0,0,0,0,0,0,0,.05,0,0,0,0,0,0,0,0,0,0,0,0,0,0,0,0,0,0,0,0,0,0,0,0,0,0,0,0,0,0,0,0,0,0,0,.05,0,0,0,0,0,.05,0,0,0,0,0,0,0,0,0,0,0,0,0,0,0,.06,0,0,0,0,0,0,0,0,0,0,0,.05,0,0,0,0,0,0,0,0,0,0,0,.05,0,0,0,0,0,0,0,0,0,0,0,0,0,0,0,0,0,0,0,0,0,0,0,0,0,0,0,0,0,0,0,0,0,0,0,.05v0l.05.07h0l0,0,0,0,0,.06,0,0,.05.06,0,0,0,0v0l.05,0,0,0,.05.05,0,0,0,0v0l.05.06,0,0,.05.06,0,0,0,0,0,0,0,.05,0,0,.05,0,0,0,0,0,0,0,0,0,0,0,.05.06,0,0,0,0v0l0,.06,0,0,.05.05,0,0,0,0,0,0,0,0,0,0,0,0,0,0,0,0,0,0,0,0,0,0,0,0,0,0,0,0,0,0,0,0,0,0,0,0,0,0,0,0,0,.05,0,0,0,0,0,0,0,0,0,0,0,0,0,0,0,0,0,0,0,0,0,0,0,0,0,0,.05.05,0,0,0,0,0,0,0,0,0,0,0,.06,0,0,0,0h0l0,.06,0,0,.05,0v0l.05.05v0l.05,0v0l.06.06h0l.05.06h0l.05.06h0l.05.06h0l.06.06h0l.06.06h0l.06.06h0l.06.07h0l.06.07h0l.06.07h0l.19.21h0l.5.56,5.21-4.68c-2.54-2.82-5-5.78-7.26-8.79Zm15.24,17-4.79,5.1c1,.95,2,1.89,3.06,2.8h0l.21.19h0l.07.06h0l.14.12h0l.07.06h0l.14.12h0l.07.06h0l.14.12h0l.06.05h0l.14.12h0l.07.06h0l.14.12h0l.07.05h0l.14.11h0l.07.06h0l.13.12h0l.06.06h0l.14.12h0l.07.06h0l.14.11h0l.07,0h0l.06.06h0l.06.06h0l.06.06h0l.07.06h0l.07.06h0l.07.06h0l.06.06h0l.06.06h0l.06.06h0l.07.06h0l.07.06h0l.07.06h0l.07.06h0l.14.12h0l.07.06h0l.14.12h0l.07.06h0l.13.11h0l.07.06h0l.14.12h0l.07,0h0l.14.11h0l.72.58h0l1.16.93,4.35-5.48c-3-2.35-5.86-4.86-8.63-7.46Zm17.86,14.15-3.86,5.83c1,.67,2,1.33,3,2h0l0,0h0l0,0h0l0,0h0l0,0h0l0,0h0l0,0h0l0,0h0l0,0h.05l0,0h0l0,0h0l.06,0h0l0,0h0l0,0h0l0,0h0l0,0h0q2,1.23,4,2.38h0l.16.1h0l0,0h0l0,0h.05l0,0h0l.09,0h0l0,0h.06l0,0h0l0,0h0l.09.05h0l.05,0h0l0,0h0l1.61.89,3.34-6.15c-3.32-1.81-6.6-3.78-9.76-5.87Zm20,10.88-2.81,6.42.36.16h0l.39.17h0l.29.12h0l0,0h.06l.19.08h0l0,0h0l.05,0h0l0,0h0l.2.09h0l0,0h0l0,0h0l0,0h0l.19.08h0l0,0h0l0,0h.1l.1.05h0l0,0h0l0,0h0l0,0h.06l.19.08h0l0,0h0l0,0h0l0,0h0l0,0h0l.14.06h.2l0,0h0l0,0h0l.05,0h1.22l0,0h0l.11,0h.11l0,0h.1l.16.06h0l0,0h.15l.16.07h.1l0,0h0l0,0h0l.22.08h0l0,0h.05q2.55,1,5.15,1.86l2.24-6.63c-3.58-1.21-7.16-2.6-10.62-4.12Zm21.56,7.32-1.67,6.8h.15c3.84.94,7.72,1.72,11.61,2.33l1.09-6.91c-3.74-.59-7.5-1.35-11.18-2.25Zm22.51,3.55-.5,7,1.45.09h1.71c1.39.07,2.78.11,4.17.14h4.66l-.09-7h-1.8c-3.19,0-6.42-.12-9.6-.34Zm34.07-1.91c-3.72.69-7.52,1.23-11.29,1.6l.69,7h.42l.27,0h.1q5.57-.58,11.09-1.6l-1.28-6.89Zm22-6c-3.54,1.31-7.19,2.49-10.85,3.49l1.86,6.75,1.09-.3H643q5.1-1.46,10.11-3.3l-2.43-6.57Zm20.61-9.69c-3.28,1.9-6.67,3.68-10.1,5.29l3,6.33q5.42-2.53,10.63-5.57l-3.51-6.05ZM690,895.57c-2.91,2.43-6,4.76-9.05,6.93l4,5.73.45-.32h0l.14-.1h0l0,0h0l0,0h0l0,0h0l0,0h0l0,0h0l0,0h0l0,0h0l0,0h0l0,0h0l.09-.06h0l0,0h0q4.27-3.06,8.37-6.48L690,895.57Zm16.19-16.05c-2.32,2.72-4.79,5.39-7.33,7.94l-.43.42,4.93,5,.22-.22h0l0,0h0l0-.05h0l0,0,0,0,0-.05,0,0h0l0-.06h0l.05,0h0l0-.05,0,0,.05,0h0l.06-.06h0l.06-.06h0l0-.05,0,0,.05,0h0l0-.05h0l.05-.06h0l0-.05h0l.05,0v0l0-.05,0,0,0,0,0,0,0-.05,0,0,0,0h0l0-.05,0,0,0,0v0l0-.05,0,0,.05,0h0l0,0,0,0,0,0,0,0,0,0,0,0,0,0,0,0,0,0,0,0,0,0,0,0,0,0,0,0,0,0,0,0,0,0,0,0,0,0,0,0,0,0,0,0,0,0,0,0,0,0,0,0,0,0,0,0,0,0,0,0,0,0,.05,0,0,0,0,0,0,0,0,0v0l.06,0,0,0,0,0v0l.06-.06h0l.11-.12h0l.11-.11h0l.19-.2h0q2.38-2.55,4.63-5.17l-5.33-4.54ZM719.38,861c-1.93,3.26-4,6.47-6.22,9.55l5.69,4.07h0v0l0,0v0h0l0,0h0q2.93-4.1,5.51-8.34h0l0,0h0a1.76,1.76,0,0,1,.14-.23h0l0,0v0l0,0v0h0l0-.06h0l0,0h0v0h0l0,0v0l0,0v0l0,0h0l0,0h0l0,0v0l0,0h0l0,0v0l0,0h0l0,0h0l.06-.09h0l0,0h0l0,0h0l.11-.19h0l.13-.23-6-3.57Zm9.88-20.51c-1.34,3.54-2.86,7.06-4.5,10.47l6.31,3c.75-1.57,1.48-3.15,2.17-4.74h0l0,0h0l0,0h0l.09-.21h0l0,0h0l0,0v0l0,0h0l0,0v0l0,0v-.18l0,0v0l0,0v0l0-.09h0v-.13h0l0,0h0l0,0h0l0,0h0l0,0h0l0,0h0v0h0v0h0v0h0l0,0h0l0-.1h0l0,0h0l0-.05h0l0,0h0l0,0h0l.08-.2h0c.34-.82.68-1.65,1-2.48h0l0-.1h0l.08-.19h0l0,0h0l0,0h0l.06-.14h0l0-.05h0l0,0h0V844l0-.09v-.26h0l0-.11h0v0h0l0,0h0v0h0v0h0c.05-.11.09-.23.13-.34l-6.54-2.49Zm6.24-21.9c-.72,3.71-1.62,7.44-2.65,11.08l6.73,1.92v0h0v0h0l0-.15h0v-.05h0v0h0v-.05h0v0h0c.4-1.4.77-2.8,1.12-4.21h0l0-.1h0l0-.2h0v0h0v0h0v0h0v-.06l0-.15h0v0h0v0h0v0h0v0h0v0h0l0-.1h0v0h0v0h0v0h0v-.15l0-.05h0v-.41h0v-.29l0-.15v0h0v0h0v0h0v-.08h0l0-.13h0v0h0v-.08h0v0h0v0h0a2.68,2.68,0,0,1,.07-.27h0v0h0c0-.12,0-.24.08-.36h0c.23-1,.44-2.07.65-3.11h0v0h0v0h0c0-.08,0-.15,0-.23h0v0h0l-6.87-1.33Zm2.44-22.66c-.09,3.79-.34,7.62-.74,11.38l7,.75c.15-1.43.28-2.86.39-4.3h0l0-.32h0v0h0v0h0v0h0l0-.23h0v0h0v-.23h0v-.08h0v-.46h0v-1h0v0h0v0h0V801h0v-.08h0v0h0v0h0v0h0c0-.1,0-.19,0-.28h0v-.05h0c.08-1.45.13-2.9.16-4.35l-7-.16Zm5.5-23.77-6.93,1c.56,3.74,1,7.56,1.2,11.34l7-.44c-.21-3.47-.56-6.94-1-10.39h0v0h0c0-.09,0-.19,0-.28h0v0h0v0h0v-.08h0l0-.17h0v-.38h0v-.05h0v0h0v0h0v-.05h0l0-.25Zm-5.52-23.32L731.27,751c1.18,3.6,2.22,7.29,3.09,11l6.81-1.61c0-.24-.11-.48-.17-.72h0l-.09-.36h0v0h0v0h0v0h0v0h0l0-.13h0v-.27h0l0-.11v-.28h0v0h0v-.3h0l0-.15h0v0h0v0h0v0h0l-.06-.26h0q-1.12-4.3-2.51-8.53Zm-9.42-22.05-6.18,3.29c1.78,3.34,3.44,6.8,4.92,10.28l6.44-2.75h0v-.18l-.06-.16h0v0h0v0h0l0,0h0l0,0h0l-.07-.16h0l0,0h0q-2.14-4.92-4.67-9.71h0l0,0h0v0h0v0l0,0v0l0,0h0l0,0h0l0,0h0v0Zm-13-20.11-5.53,4.3c2.33,3,4.55,6.11,6.61,9.29l5.87-3.81-.66-1h0l-.08-.11h0l0,0v0l0,0v0l0,0h0l0,0h0l-.12-.18h0q-2.8-4.23-6-8.28ZM699.19,689l-4.72,5.17c1.47,1.34,2.92,2.74,4.34,4.15s2.53,2.58,3.75,3.9l5.14-4.75c-.84-.91-1.7-1.81-2.57-2.7h0l-.12-.13h0l-.13-.13h0l-.06-.06h0l-.06-.07h0l-.06-.06h0l-.11-.12h0l-.06-.06h0l-.06-.06h0l-.06-.05h0l-.06-.06h0l-.05-.06h0l-.11-.11v0l-.06,0h0l-.05-.05h0l0-.06h0l-.05-.05h0l-.06,0h0l0-.06h0l0,0h0l0,0h0l0,0v0l0,0v0l0,0h0l0,0h0l-.07-.08h0l0,0h0l0,0h0l0,0v0l0,0h0l0,0h0l-.08-.08h0l0,0h0l0,0h0l0,0h0l0,0h0l-.12-.12h0l0,0h0l0,0h0l0,0h0l-.2-.2h0l0,0h0l0,0h0l-.16-.16h0l-1.14-1.1h0l-.32-.31h0l-.17-.15h0l0,0h0l0,0h0l0,0h0l0,0h0l-.08-.07h0l0,0h0l0,0h0l0,0v0l0,0h0l0,0h0l0,0,0,0,0,0,0,0,0,0h0l0,0,0,0v0l0,0h0l0,0h0l-.18-.16h0l-.58-.54Zm-19-14.62-3.78,5.89c3.18,2,6.32,4.25,9.32,6.56l4.27-5.54c-1.23-1-2.46-1.87-3.71-2.77h0l0,0h0l0,0h0l0,0h0l0,0h0l0,0h0l0,0h0l0,0h0l0,0h0l-.09-.07h0l0,0h0l0,0h0l0,0h0q-2.57-1.82-5.18-3.51h0l-.19-.13h0l0,0h0l0,0h0l0,0ZM659,663.24l-2.72,6.45c3.49,1.47,7,3.11,10.3,4.87l3.26-6.19c-3.27-1.72-6.61-3.31-10-4.76h0l-.16-.07h-.22l-.48-.2Zm-22.8-7.39-1.59,6.82c3.69.85,7.39,1.88,11,3.05l2.15-6.66c-3.81-1.24-7.67-2.31-11.55-3.21Zm-23.73-3.42-.41,7c3.78.22,7.6.61,11.35,1.15l1-6.93q-5.94-.85-11.93-1.21Z" transform="translate(-258.45 -154.46)"/></g><g id="Man"><ellipse class="cls-4" cx="750.15" cy="1001.5" rx="483.19" ry="8.59"/><polyline class="cls-5" points="309.32 535.32 309.32 758.29 299.32 999.95"/><line class="cls-5" x1="384.85" y1="758.29" x2="394.85" y2="999.94"/><line class="cls-5" x1="515.85" y1="758.29" x2="525.85" y2="999.94"/><line class="cls-6" x1="309.32" y1="628.94" x2="346.56" y2="628.94"/><path class="cls-7" d="M623.64,810" transform="translate(-258.45 -154.46)"/><path class="cls-8" d="M605,825.25s-40.86-81.11-40.59-135.88c.1-18.81,3-60.25,81.2-63.54s135.53,85.5,135.53,85.5L605,825.25Z" transform="translate(-258.45 -154.46)"/><g class="cls-9"><circle class="cls-10" cx="292.62" cy="511.78" r="24.46"/><circle class="cls-10" cx="378.02" cy="507.1" r="24.46"/><circle class="cls-10" cx="463.42" cy="502.43" r="24.46"/><circle class="cls-10" cx="339.61" cy="579.01" r="24.46"/><circle class="cls-10" cx="425.01" cy="574.33" r="24.46"/><circle class="cls-10" cx="389.16" cy="646.86" r="24.46"/></g><path class="cls-11" d="M641.72,658.36l-.57-.13a26.49,26.49,0,0,1-19.66-31.9l22.44-94.55A26.5,26.5,0,0,1,695.5,544l-22.44,94.55A26.5,26.5,0,0,1,641.72,658.36Z" transform="translate(-258.45 -154.46)"/><path class="cls-11" d="M660.08,611.39l4.82,1.86a40.91,40.91,0,0,0,54.94-30.77l5.39-29.28a40.91,40.91,0,0,0-25.94-45.75h0a40.92,40.92,0,0,0-52.62,24.05l-10.22,27.43A40.91,40.91,0,0,0,660.08,611.39Z" transform="translate(-258.45 -154.46)"/><rect class="cls-11" x="624.36" y="537.06" width="30.09" height="38.62" rx="15.04" transform="translate(1154.86 747.53) rotate(163.04)"/><line class="cls-12" x1="373.99" y1="395.23" x2="382.44" y2="410.61"/><polyline class="cls-12" points="455.04 398.91 449.82 422.21 441.53 420.4"/><path class="cls-13" d="M650.65,565.84l22-38.79,5.22-9.2a33.87,33.87,0,0,0,6.85,8.82c10,9.28,45.66,15.94,56.93-7.35,9.18-19-15.09-13-25.65-17.14-16.6-6.44-25.86-19.61-52.58-13.07C631.42,497,635,537.59,635,537.59S648.57,536,650.65,565.84Z" transform="translate(-258.45 -154.46)"/><polygon class="cls-13" points="420.79 461.21 405.71 458.07 418.06 473.25 420.79 461.21"/><circle class="cls-13" cx="437.22" cy="406.77" r="4.21"/><circle class="cls-13" cx="462.13" cy="410.86" r="4.21"/><path class="cls-12" d="M684.75,578.4s5.68,1.69,6.87,7.26" transform="translate(-258.45 -154.46)"/><path class="cls-11" d="M736.35,670.49s35.64-29,65.5,7.51-22.37,30.15-22.37,30.15l-26.3-6.77Z" transform="translate(-258.45 -154.46)"/><polygon class="cls-11" points="770.32 999.95 640.35 999.95 623.97 999.74 636.51 941.41 695.3 946.67 770.32 999.95"/><polygon class="cls-11" points="887.06 676.57 808.53 755.1 798.48 764.85 763.14 714.36 802.53 682.7 887.06 676.57"/><path class="cls-13" d="M833.16,793.45,678.46,911.38H876.73V1111H990.46V856.4c0-34.77-30-62.95-66.93-62.95Z" transform="translate(-258.45 -154.46)"/><path class="cls-13" d="M836.81,823.15,736.18,897.6c-36.64,27.1-94.6,14-116.48-27.08L605,825.25,781.77,707.69C813,691,849.21,694.43,883.6,718.09L1079.15,810l-49.07,98Z" transform="translate(-258.45 -154.46)"/><path class="cls-14" d="M870.07,798.45,736.18,900.6s-16.13,13.61-48,13.61" transform="translate(-258.45 -154.46)"/><path class="cls-14" d="M992.41,859.71s-3.06-64-67.37-61.26c-12.57.54-55,0-55,0" transform="translate(-258.45 -154.46)"/><line class="cls-14" x1="733.96" y1="705.25" x2="733.96" y2="826.44"/><line class="cls-6" x1="515.85" y1="758.29" x2="311.78" y2="758.29"/><line class="cls-5" x1="439.72" y1="758.29" x2="430.32" y2="999.94"/><polyline class="cls-15" points="374.32 555.21 391.63 564.53 499.94 528.62"/><polyline class="cls-16" points="402.36 526.95 356.65 582.31 322.52 553.08"/><path class="cls-11" d="M757,702.51a17.79,17.79,0,0,1-2.72,1c-.4.12-.81.21-1.22.29l1.2-.39Z" transform="translate(-258.45 -154.46)"/><path class="cls-17" d="M765.84,686.76c0,9.45-4.94,17.54-11.94,20.91l-2.74.93-1.2.4-16.42,5.57a20.16,20.16,0,0,0,6.71-6.49,25.08,25.08,0,0,0,4-13.76c0-9.84-5.37-18.23-12.87-21.32a16.63,16.63,0,0,0-6.36-1.27,16.86,16.86,0,0,0-3.7.42l17.3-5.92,1.81-.62,3.57-1.22a15.31,15.31,0,0,1,2.63-.22C757.23,664.17,765.84,674.28,765.84,686.76Z" transform="translate(-258.45 -154.46)"/><path class="cls-11" d="M875.1,711.52c-2.51,4.48,1.85,16.82,17.44,24.82s30.1,4.28,32.2,0c1.46-3-10.71-13.67-21.94-19.08C891,711.61,877.27,707.65,875.1,711.52Z" transform="translate(-258.45 -154.46)"/><rect class="cls-18" x="712.44" y="659.17" width="38.84" height="12.19" rx="6.1" transform="translate(-447.24 149.43) rotate(-20.84)"/></g><g id="Phone"><path class="cls-19" d="M1479.39,578V1104.2a48.93,48.93,0,0,1-48.93,48.92H1106.15a48.92,48.92,0,0,1-48.92-48.92V578Z" transform="translate(-258.45 -154.46)"/><path class="cls-11" d="M1455.39,578h-12v3h12v-3Zm-24,0h-12v3h12v-3Zm-24,0h-12v3h12v-3Zm-24,0h-12v3h12v-3Zm-24,0h-12v3h12v-3Zm-24,0h-12v3h12v-3Zm-24,0h-12v3h12v-3Zm-24,0h-12v3h12v-3Zm-24,0h-12v3h12v-3Zm-24,0h-12v3h12v-3Zm-24,0h-12v3h12v-3Zm-24,0h-12v3h12v-3Zm-24,0h-12v3h12v-3Zm-24,0h-12v3h12v-3Zm-24,0h-12v3h12v-3Zm-24,0h-12v3h12v-3Zm-24,0h-12v3h12v-3Zm-11.16,9.84h-3v12h3v-12Zm0,24h-3v12h3v-12Zm0,24h-3v12h3v-12Zm0,24h-3v12h3v-12Zm0,24h-3v12h3v-12Zm0,24h-3v12h3v-12Zm0,24h-3v12h3v-12Zm0,24h-3v12h3v-12Zm0,24h-3v12h3v-12Zm0,24h-3v12h3v-12Zm0,24h-3v12h3v-12Zm0,24h-3v12h3v-12Zm0,24h-3v12h3v-12Zm0,24h-3v12h3v-12Zm0,24h-3v12h3v-12Zm0,24h-3v12h3v-12Zm0,24h-3v12h3v-12Zm0,24h-3v12h3v-12Zm0,24h-3v12h3v-12Zm0,24h-3v12h3v-12Zm0,24h-3v12h3v-12Zm0,24h-3v12h3v-12Zm1.29,23.18-2.91.71c.05.19.09.38.14.58h0v0h0v0h0l0,.1h0v0h0l0,.13h0v0h0v0h0v0h0v.46h0v0h0v.08h0v0h0v0h0v0h0v0h0v0h0l0,.09h0v0h0v0h0l0,.09h0v0h0l0,.13h0v0h0l0,.14h0l0,0h0l0,.14h0v0h0l0,.14h0l.06.18h0l.06.18h0a1.21,1.21,0,0,1,0,.18h0l.06.17h0l0,0h0l0,.13h0l.06.17h0l.06.17h0l0,.13h0v0h0l0,0h0l0,.09h0v0h0l0,0h0l0,.09h0v0h0v0h0l0,.09h0l0,0h0v0h0l0,.08h0v0h0l0,0h0l0,.09h0l0,0h0l0,.12h0v0h0l0,0h0l0,.09h0v0h0v0h0l0,0h0v0h0v0l0,0h0l0,0h0v0h0l0,0h0v0h0v0h0l0,0h0v0h0v0h0l0,0h0l0,0h0v0h0l0,.08h0v0h0v0h0l0,.08h0v0h0v0h0l0,.08h0v0h0v0h0l0,.08h0v0h0v0h0l0,.08h0v.09l0,.08h0l0,0h0v0h0l0,.08h0l0,0h0l0,0h0l0,.08h0v0h0l0,0h0l0,.08h0l0,0h0v0h0l0,.08h0l0,0h0l0,0h0l0,.08h0v0h0v0h0l0,.09h0l0,0h0l.06.13h0l0,0h0c.41.92.85,1.83,1.32,2.71l2.66-1.39a46.05,46.05,0,0,1-4-10.51Zm10.39,19.73-2.23,2a47.69,47.69,0,0,0,4.88,4.76h0l0,0h0l.11.09h0l0,0h0l.08.07h0l0,0h0l0,0h0l.05,0h0l0,0h0l0,0h0l0,0h0l0,0h0l0,0h0l0,0h0l0,0h0l0,0h0l0,0h0l0,0h0l0,0h0l0,0h0l0,0h0l0,0h0l0,0h0l.08.05h0l0,0h0c1,.79,2,1.55,3.06,2.26l1.69-2.48a45.9,45.9,0,0,1-8.46-7.41Zm18.45,12.54-1,2.82c.89.32,1.8.63,2.72.9h0l0,0h0l.13,0h.09l.09,0h.09l.09,0h1.09l.06,0h.13l.05,0h.12l.1,0h.09l.14,0h0l.14,0h0a48.06,48.06,0,0,0,6.4,1.11l.31-3a45.54,45.54,0,0,1-10.94-2.53Zm34.62,2.79h-12v3h12v-3Zm24,0h-12v3h12v-3Zm24,0h-12v3h12v-3Zm24,0h-12v3h12v-3Zm24,0h-12v3h12v-3Zm24,0h-12v3h12v-3Zm24,0h-12v3h12v-3Zm24,0h-12v3h12v-3Zm24,0h-12v3h12v-3Zm24,0h-12v3h12v-3Zm24,0h-12v3h12v-3Zm24,0h-12v3h12v-3Zm24,0h-12v3h12v-3Zm23.59-.4a47.86,47.86,0,0,1-6.11.4H1425v3h7.77c1.42-.06,2.83-.19,4.21-.37l-.39-3Zm20.72-8.24a46.28,46.28,0,0,1-9.85,5.4l1.1,2.79c1.18-.47,2.34-1,3.47-1.54h0l.13-.06h0l0,0h0l0,0h.09l0,0h.11l0,0h0l0,0h.1l.07,0h0l0,0h0l0,0h0l.08,0h0l.12-.06h0a49.69,49.69,0,0,0,6-3.68l-1.75-2.43Zm14.41-17a46.24,46.24,0,0,1-6.16,9.39l2.29,1.94a49,49,0,0,0,4-5.4h0l.08-.12h0l0,0h0l.08-.12h0l0,0h0l.07-.11h0l0,0h0l.05-.09h0l0,0h0l.08-.12h0l0,0h0l0-.08h0v0h0v0h0l.05-.08h0l0,0h0l0,0h0l.06-.09h0v0h0l.07-.12h0l0,0h0l0-.1h0v0h0v0h0l.06-.1h0l0,0h0l.07-.13h0c.54-.93,1-1.87,1.52-2.84l-2.69-1.32Zm7.69-21.91h-3v1.66a46.4,46.4,0,0,1-1,9.64l2.93.62a47.24,47.24,0,0,0,1-7h0c0-.2,0-.4,0-.61h0v0h0v0h0v0h0v0h0v0h0v0h0v0h0v0h0v0h0v0h0v0h0v0h0v0h0v0h0v0h0c0-.07,0-.14,0-.2h0v0h0v-.24h0v0h0v-.11h0v0h0v0h0v0h0v0h0v0h0v0h0v0h0v0h0v0h0v-.13h0v0h0v0h0v0h0v-.64h0v0h0v0h0v-1.7Zm0-24h-3v12h3v-12Zm0-24h-3v12h3v-12Zm0-24h-3v12h3v-12Zm0-24h-3v12h3v-12Zm0-24h-3v12h3v-12Zm0-24h-3v12h3v-12Zm0-24h-3v12h3v-12Zm0-24h-3v12h3v-12Zm0-24h-3v12h3v-12Zm0-24h-3v12h3v-12Zm0-24h-3v12h3v-12Zm0-24h-3v12h3v-12Zm0-24h-3v12h3v-12Zm0-24h-3v12h3v-12Zm0-24h-3v12h3v-12Zm0-24h-3v12h3v-12Zm0-24h-3v12h3v-12Zm0-24h-3v12h3v-12Zm0-24h-3v12h3v-12Zm0-24h-3v12h3v-12Zm0-24h-3v12h3v-12Zm0-20.5h-12v3h9v5.5h3V578Z" transform="translate(-258.45 -154.46)"/><path class="cls-13" d="M1406.93,284.87h23.53a48.93,48.93,0,0,1,48.93,48.92V578h-34.46" transform="translate(-258.45 -154.46)"/><path class="cls-19" d="M1443.39,578V1104.2a48.93,48.93,0,0,1-48.93,48.92H1070.15a48.92,48.92,0,0,1-48.92-48.92V578Z" transform="translate(-258.45 -154.46)"/><path class="cls-11" d="M1419.39,578h-12v3h12v-3Zm-24,0h-12v3h12v-3Zm-24,0h-12v3h12v-3Zm-24,0h-12v3h12v-3Zm-24,0h-12v3h12v-3Zm-24,0h-12v3h12v-3Zm-24,0h-12v3h12v-3Zm-24,0h-12v3h12v-3Zm-24,0h-12v3h12v-3Zm-24,0h-12v3h12v-3Zm-24,0h-12v3h12v-3Zm-24,0h-12v3h12v-3Zm-24,0h-12v3h12v-3Zm-24,0h-12v3h12v-3Zm-24,0h-12v3h12v-3Zm-24,0h-12v3h12v-3Zm-24,0h-12v3h12v-3Zm-11.16,9.84h-3v12h3v-12Zm0,24h-3v12h3v-12Zm0,24h-3v12h3v-12Zm0,24h-3v12h3v-12Zm0,24h-3v12h3v-12Zm0,24h-3v12h3v-12Zm0,24h-3v12h3v-12Zm0,24h-3v12h3v-12Zm0,24h-3v12h3v-12Zm0,24h-3v12h3v-12Zm0,24h-3v12h3v-12Zm0,24h-3v12h3v-12Zm0,24h-3v12h3v-12Zm0,24h-3v12h3v-12Zm0,24h-3v12h3v-12Zm0,24h-3v12h3v-12Zm0,24h-3v12h3v-12Zm0,24h-3v12h3v-12Zm0,24h-3v12h3v-12Zm0,24h-3v12h3v-12Zm0,24h-3v12h3v-12Zm0,24h-3v12h3v-12Zm1.29,23.18-2.91.71c0,.19.09.38.14.58h0v0h0v0h0l0,.1h0v0h0l0,.13h0v0h0v0h0v0h0v.46h0v0h0v.08h0v0h0v0h0v0h0v0h0v0h0l0,.09h0v0h0v0h0l0,.09h0v0h0l0,.13h0v0h0l0,.14h0l0,0h0l0,.14h0v0h0l0,.14h0l.06.18h0l.06.18h0a1.21,1.21,0,0,1,.05.18h0l.06.17h0l0,0h0l0,.13h0l.06.17h0l.06.17h0l0,.13h0v0h0l0,0h0l0,.09h0v0h0l0,0h0l0,.09h0v0h0v0h0l0,.09h0l0,0h0v0h0l0,.08h0v0h0l0,0h0l0,.09h0l0,0h0l0,.12h0v0h0l0,0h0l0,.09h0v0h0v0h0l0,0h0v0h0v0l0,0h0l0,0h0v0h0l0,0h0v0h0v0h0l0,0h0v0h0v0h0l0,0h0l0,0h0v0h0l0,.08h0v0h0v0h0l0,.08h0v0h0v0h0l0,.08h0v0h0v0h0l0,.08h0v0h0v0h0l0,.08h0v.09l0,.08h0l0,0h0v0h0l0,.08h0l0,0h0l0,0h0l0,.08h0v0h0l0,0h0l0,.08h0l0,0h0v0h0l0,.08h0l0,0h0l0,0h0l0,.08h0v0h0v0h0l0,.09h0l0,0h0l.06.13h0l0,0h0c.41.92.85,1.83,1.32,2.71l2.66-1.39a46.05,46.05,0,0,1-4-10.51Zm10.39,19.73-2.23,2a47.69,47.69,0,0,0,4.88,4.76h0l0,0h0l.11.09h0l0,0h0l.08.07h0l0,0h0l0,0h0l.05,0h0l0,0h0l0,0h0l0,0h0l0,0h0l0,0h0l0,0h0l0,0h0l0,0h0l0,0h0l0,0h0l0,0h0l0,0h0l0,0h0l0,0h0l0,0h0l.08.05h0l0,0h0c1,.79,2,1.55,3.06,2.26l1.69-2.48a45.9,45.9,0,0,1-8.46-7.41Zm18.45,12.54-1,2.82c.89.32,1.8.63,2.72.9h0l0,0h0l.13,0h.09l.09,0h.09l.09,0h1.09l.06,0h.13l.05,0h.12l.1,0h.09l.14,0h0l.14,0h0a48.06,48.06,0,0,0,6.4,1.11l.31-3a45.54,45.54,0,0,1-10.94-2.53Zm34.62,2.79h-12v3h12v-3Zm24,0h-12v3h12v-3Zm24,0h-12v3h12v-3Zm24,0h-12v3h12v-3Zm24,0h-12v3h12v-3Zm24,0h-12v3h12v-3Zm24,0h-12v3h12v-3Zm24,0h-12v3h12v-3Zm24,0h-12v3h12v-3Zm24,0h-12v3h12v-3Zm24,0h-12v3h12v-3Zm24,0h-12v3h12v-3Zm24,0h-12v3h12v-3Zm23.59-.4a47.86,47.86,0,0,1-6.11.4H1389v3h7.77c1.42-.06,2.83-.19,4.21-.37l-.39-3Zm20.72-8.24a46.28,46.28,0,0,1-9.85,5.4l1.1,2.79c1.18-.47,2.34-1,3.47-1.54h0l.13-.06h0l0,0h0l0,0h.09l0,0h.11l0,0h0l0,0h.1l.07,0h0l0,0h0l0,0h0l.08,0h0l.12-.06h0a49.69,49.69,0,0,0,6-3.68l-1.75-2.43Zm14.41-17a46.24,46.24,0,0,1-6.16,9.39l2.29,1.94a49,49,0,0,0,4-5.4h0l.08-.12h0l0,0h0l.08-.12h0l0,0h0l.07-.11h0l0,0h0l.05-.09h0l0,0h0l.08-.12h0l0,0h0l0-.08h0v0h0v0h0l.05-.08h0l0,0h0l0,0h0l.06-.09h0v0h0l.07-.12h0l0,0h0l0-.1h0v0h0v0h0l.06-.1h0l0,0h0l.07-.13h0c.54-.93,1-1.87,1.52-2.84l-2.69-1.32Zm7.69-21.91h-3v1.66a46.4,46.4,0,0,1-1,9.64l2.93.62a47.24,47.24,0,0,0,1-7h0c0-.2,0-.4,0-.61h0v0h0v0h0v0h0v0h0v0h0v0h0v0h0v0h0v0h0v0h0v0h0v0h0v0h0v0h0v0h0c0-.07,0-.14,0-.2h0v0h0v-.24h0v0h0v-.11h0v0h0v0h0v0h0v0h0v0h0v0h0v0h0v0h0v0h0v-.13h0v0h0v0h0v0h0v-.64h0v0h0v0h0v-1.7Zm0-24h-3v12h3v-12Zm0-24h-3v12h3v-12Zm0-24h-3v12h3v-12Zm0-24h-3v12h3v-12Zm0-24h-3v12h3v-12Zm0-24h-3v12h3v-12Zm0-24h-3v12h3v-12Zm0-24h-3v12h3v-12Zm0-24h-3v12h3v-12Zm0-24h-3v12h3v-12Zm0-24h-3v12h3v-12Zm0-24h-3v12h3v-12Zm0-24h-3v12h3v-12Zm0-24h-3v12h3v-12Zm0-24h-3v12h3v-12Zm0-24h-3v12h3v-12Zm0-24h-3v12h3v-12Zm0-24h-3v12h3v-12Zm0-24h-3v12h3v-12Zm0-24h-3v12h3v-12Zm0-24h-3v12h3v-12Zm0-20.5h-12v3h9v5.5h3V578Z" transform="translate(-258.45 -154.46)"/><path class="cls-8" d="M1443.39,333.79V578H1021.23V333.79a48.92,48.92,0,0,1,48.92-48.92h324.31A48.93,48.93,0,0,1,1443.39,333.79Z" transform="translate(-258.45 -154.46)"/><path class="cls-19" d="M825.56,157.18h296.62a38.69,38.69,0,0,1,38.69,38.69V423.58a0,0,0,0,1,0,0h-374a0,0,0,0,1,0,0V195.87A38.69,38.69,0,0,1,825.56,157.18Z"/><path class="cls-8" d="M1167.29,310.64h130A21.38,21.38,0,0,1,1318.72,332v17.31a0,0,0,0,1,0,0H1145.9a0,0,0,0,1,0,0V332a21.38,21.38,0,0,1,21.38-21.38Z" transform="translate(2206.18 505.51) rotate(180)"/><path class="cls-11" d="M1419.31,578h-12v3h9v9.15h3V578Zm-24,0h-12v3h12v-3Zm-24,0h-12v3h12v-3Zm-24,0h-12v3h12v-3Zm-24,0h-12v3h12v-3Zm-24,0h-12v3h12v-3Zm-24,0h-12v3h12v-3Zm-24,0h-12v3h12v-3Zm-24,0h-12v3h12v-3Zm-24,0h-12v3h12v-3Zm-24,0h-12v3h12v-3Zm-24,0h-12v3h12v-3Zm-24,0h-12v3h12v-3Zm-24,0h-12v3h12v-3Zm-24,0h-12v3h12v-3Zm-24,0h-12v3h12v-3Zm-11,10h-3v12h3V588Zm0,24h-3v12h3V612Zm0,24h-3v12h3V636Zm0,24h-3v12h3V660Zm0,24h-3v12h3V684Zm0,24h-3v12h3V708Zm0,24h-3v12h3V732Zm0,24h-3v12h3V756Zm0,24h-3v12h3V780Zm0,24h-3v12h3V804Zm0,24h-3v12h3V828Zm0,24h-3v12h3V852Zm0,24h-3v12h3V876Zm0,24h-3v12h3V900Zm0,24h-3v12h3V924Zm0,24h-3v12h3V948Zm0,24h-3v12h3V972Zm0,24h-3v12h3V996Zm0,24h-3v12h3v-12Zm0,24h-3v12h3v-12Zm0,24h-3v12h3v-12Zm.19,23.68-3,.31a38.46,38.46,0,0,0,3,11.55l2.74-1.2a35.75,35.75,0,0,1-2.81-10.66Zm8.76,19.94-2.25,2h0l0,0h0l0,0h0l0,0h0l0,0h0l0,0h0l0,0h0l0,0h0l0,0h0l0,0h0l0,0h0l0,0h0l0,0h0l.06.06h0l0,0h0l0,0h0l0,0h0l0,0h0l0,0h0l0,0h0l0,.06h0l0,0h0l0,0h0l0,0h0l.07.06h0l0,0h0l.06.06h0l.06.06h0l0,0h0l.06.06h0a1.29,1.29,0,0,0,.16.17h0a38.87,38.87,0,0,0,7.93,6.26l1.53-2.58a35.64,35.64,0,0,1-8.49-7Zm18.72,11.15-.67,2.92c.55.13,1.1.24,1.66.35h.1l.11,0h.71l.2,0h0c1,.15,2.08.27,3.13.35h6v-3H1084a35.86,35.86,0,0,1-8-.9Zm35.25.9h-12v3h12v-3Zm24,0h-12v3h12v-3Zm24,0h-12v3h12v-3Zm24,0h-12v3h12v-3Zm24,0h-12v3h12v-3Zm24,0h-12v3h12v-3Zm24,0h-12v3h12v-3Zm24,0h-12v3h12v-3Zm24,0h-12v3h12v-3Zm24,0h-12v3h12v-3Zm24,0h-12v3h12v-3Zm24,0h-12v3h12v-3Zm21.9-4a35.1,35.1,0,0,1-10.44,3.53l.51,3c.66-.12,1.31-.25,2-.39h0l.09,0h0l.08,0h1l.07,0h.15l.09,0h0a38.64,38.64,0,0,0,7.91-3.08l-1.39-2.66Zm15.33-15.49a36,36,0,0,1-6.46,8.94l2.14,2.11,0,0h0l.06-.07h0l0,0h0l0,0h0l0,0h0l0,0h0l0,0h0l0,0h0l0,0h0l0,0h0l0,0h0l0,0h0l0,0h0l0,0h0l0,0h0l0,0h0l0,0h0l0,0h0l0,0h0l0,0h0l0,0h0l0,0h0l.06-.06h0l.06-.07h0l0,0h0l.06-.07h0c.71-.77,1.38-1.57,2-2.39h0l0-.08h0l.09-.11h0l.06-.07h0l0,0h0l0-.07h0l0,0h0l0,0h0l0,0h0l0,0h0l0,0h0l0,0h0l0,0h0l0,0h0l0-.06h0l0,0h0v0h0l0,0h0l0,0h0l0,0h0l0,0h0v0h0l0,0v0l0,0v0h0l0,0h0l0,0v0l0,0v0l0,0v0h0l0,0h0v0l0,0h0v0l0,0v0h0l0,0v0l0,0h0l0,0h0l.05-.07h0l0,0h0v0h0l0,0h0l0-.07h0l0-.05h0v0h0l0,0h0l.05-.07h0l0,0h0l0-.07h0a38.68,38.68,0,0,0,2.39-4.07l-2.67-1.36Zm6.85-22h-3V1088a36,36,0,0,1-.45,5.68l3,.47c.1-.66.19-1.33.26-2h0v-.06h0v0h0v-.23h0v-.25h0v-.09h0v0h0v0h0v-.09h0v0h0v0h0v0h0v0h0v0h0v0h0v-.09h0v-.05h0v0h0v0h0v0h0v0h0v-.08h0v-.09h0v0h0v0h0v0h0v-.09h0v-.09h0v0h0v0h0v0h0v-.09h0v-.09h0v0h0v0h0v0h0v0h0v0h0v-.09h0v0h0v0h0v0h0v0h0v0h0v-.09h0v0h0v0h0v0h0v0h0v0h0v0h0v0h0v0h0v0h0v0h0v0h0v0h0v0h0v0h0v0h0v0h0v0h0v0h0v0h0v0h0v0h0v-5.88Zm0-24h-3v12h3v-12Zm0-24h-3v12h3v-12Zm0-24h-3v12h3v-12Zm0-24h-3v12h3v-12Zm0-24h-3v12h3v-12Zm0-24h-3v12h3v-12Zm0-24h-3v12h3v-12Zm0-24h-3v12h3v-12Zm0-24h-3v12h3v-12Zm0-24h-3v12h3v-12Zm0-24h-3v12h3v-12Zm0-24h-3v12h3v-12Zm0-24h-3v12h3v-12Zm0-24h-3v12h3v-12Zm0-24h-3v12h3v-12Zm0-24h-3v12h3v-12Zm0-24h-3v12h3v-12Zm0-24h-3v12h3v-12Zm0-24h-3v12h3v-12Zm0-24h-3v12h3v-12Z" transform="translate(-258.45 -154.46)"/><line class="cls-20" x1="707.15" y1="423.58" x2="1287.5" y2="423.58"/><polyline class="cls-20" points="954.13 513.71 974.34 533.93 993.6 514.67"/><line class="cls-20" x1="973.86" y1="533.93" x2="973.86" y2="466.03"/><polyline class="cls-20" points="924.63 544.99 924.63 567.33 1023.1 567.33 1023.1 544.99"/><path class="cls-11" d="M1327.77,762.82a3.31,3.31,0,1,1,0,6.61H1136.85a3.31,3.31,0,1,1,0-6.61h190.92m0-3H1136.85a6.31,6.31,0,1,0,0,12.61h190.92a6.31,6.31,0,1,0,0-12.61Z" transform="translate(-258.45 -154.46)"/><rect class="cls-11" x="874.99" y="608.36" width="71.56" height="6.62" rx="3.31"/></g></svg>