<svg xmlns="http://www.w3.org/2000/svg" xmlns:xlink="http://www.w3.org/1999/xlink" viewBox="0 0 1706.27 1070.95"><defs><style>.cls-1,.cls-11,.cls-14,.cls-15,.cls-2,.cls-3,.cls-7{fill:none;}.cls-2{stroke:#f2f6f9;}.cls-14,.cls-2,.cls-3{stroke-linecap:round;stroke-linejoin:round;}.cls-2,.cls-3{stroke-width:33px;}.cls-3{stroke:#edf1f4;}.cls-4{fill:#f2f6f9;}.cls-5{fill:#fff;}.cls-6{fill:#24272d;}.cls-7{stroke:#1c2028;stroke-width:7px;}.cls-11,.cls-15,.cls-7{stroke-miterlimit:10;}.cls-8{fill:#3361c2;}.cls-9{fill:#ea6f57;}.cls-10{fill:#e4eff7;}.cls-11{stroke:#fff;stroke-linecap:square;}.cls-11,.cls-15{stroke-width:3px;}.cls-12{fill:#72a065;}.cls-13{clip-path:url(#clip-path);}.cls-14{stroke:#ffc774;stroke-width:18px;}.cls-15{stroke:#25282d;}</style><clipPath id="clip-path" transform="translate(-143.5 -132.05)"><path class="cls-1" d="M1170.59,902.9c-2,32.72-21,147.56-21,147.56h-78.7s15.6-94.81,21-138.88c.12-1,.23-2,.34-3a292.69,292.69,0,0,0,1.24-30.88c0-.68,0-1.36,0-2.05,0-.87,0-1.75,0-2.63,0-1.14,0-2.27-.06-3.41s0-2.28-.08-3.43-.06-2.29-.1-3.44l-.12-3.43a2.81,2.81,0,0,0,0-.29c0-1-.08-2.1-.13-3.15,0-.34,0-.68,0-1,0-.8-.07-1.6-.11-2.4-.45-9.75-1.09-19.3-1.77-28l-77.5,91.88-26.41-19.07-20.48-89c44.66-46.82,50.54-81,66.7-93.16a44.55,44.55,0,0,1,5.88-3.71c-15.53-35.16-40.55-92.62-46.19-110.17-8.31-25.88-13.84-148.89-13.84-148.89l72.61-16.61L1067,577.84l68.92,137.67-1.22.35c13.71,6.74,18.7,19.54,19.62,32.83l4.56-2.44h0l4.19-2.24s2.85,37.62,5.1,77.11C1170.05,853.94,1171.51,888.05,1170.59,902.9Z"/></clipPath></defs><title>12</title><g id="Back"><polyline class="cls-2" points="73.11 72.88 175.27 72.88 175.27 156.62 265.12 156.62 265.12 248.95"/><polyline class="cls-2" points="722.02 322.81 628.71 229.51 705.21 153.01 623.14 70.95"/><line class="cls-2" x1="498.58" y1="261.99" x2="336.52" y2="424.05"/><line class="cls-3" x1="375.12" y1="37.18" x2="460.56" y2="122.63"/><line class="cls-2" x1="990.54" y1="855.41" x2="1075.99" y2="940.86"/><line class="cls-3" x1="1206.58" y1="16.5" x2="1292.03" y2="101.95"/><line class="cls-2" x1="1539.05" y1="213.16" x2="1663.86" y2="337.97"/><line class="cls-2" x1="16.5" y1="261.99" x2="95.48" y2="340.97"/><line class="cls-3" x1="85.42" y1="496.42" x2="260.68" y2="671.68"/><circle class="cls-4" cx="558.59" cy="416.81" r="30.09"/><polyline class="cls-2" points="1140.74 801.52 1140.74 699.37 1224.49 699.37 1224.49 609.52 1316.82 609.52"/><polyline class="cls-2" points="1395.68 192.62 1302.37 285.93 1225.88 209.43 1143.82 291.5"/><polyline class="cls-2" points="400.66 814.27 307.35 907.58 230.86 831.08 148.8 913.15"/><line class="cls-2" x1="1330.86" y1="438.06" x2="1492.92" y2="600.12"/><line class="cls-3" x1="824.39" y1="167.92" x2="986.45" y2="329.98"/><line class="cls-3" x1="1321.86" y1="858.14" x2="1400.84" y2="779.16"/><line class="cls-2" x1="668.94" y1="535.91" x2="747.92" y2="456.93"/><line class="cls-2" x1="1514.51" y1="767.44" x2="1689.77" y2="592.18"/><circle class="cls-4" cx="1485.68" cy="363.05" r="30.09"/><circle class="cls-4" cx="1527.36" cy="59.22" r="30.09"/><circle class="cls-4" cx="549.5" cy="913.15" r="30.09"/><circle class="cls-4" cx="1564.61" cy="898.14" r="30.09"/><circle class="cls-4" cx="1056.13" cy="137.11" r="30.09"/><circle class="cls-4" cx="73.12" cy="725.42" r="30.09"/></g><g id="Man"><line class="cls-2" x1="1144.05" y1="513.52" x2="1229.5" y2="428.07"/><path class="cls-5" d="M1138.85,274.33l-5.14,22.58-1.17-.42c-.84-.31-1.65-.64-2.43-1l-.61-.27c-.89-.4-1.73-.82-2.55-1.25-.39-.2-.77-.42-1.16-.63-.77-.45-1.52-.89-2.23-1.36-.23-.15-.47-.3-.69-.46-.71-.47-1.4-1-2.07-1.45l-1-.76c-.55-.41-1.08-.84-1.6-1.27-.33-.27-.66-.54-1-.81l-1.08-.93-1-.88-1-.88-2-1.7c-.42-.37-.86-.75-1.31-1.12l5.14-22.58c6.37,5.32,11.39,10.92,21.65,14.75C1138.07,274.06,1138.46,274.2,1138.85,274.33Z" transform="translate(-143.5 -132.05)"/><path class="cls-5" d="M1089.87,246.59l-5.14,22.57c-12-3.12-25.39-5.44-25.39-5.44l5.14-22.57S1077.85,243.46,1089.87,246.59Z" transform="translate(-143.5 -132.05)"/><path class="cls-5" d="M1133.72,296.92q2.6.93,5.08,1.68C1137.14,298.11,1135.44,297.55,1133.72,296.92Z" transform="translate(-143.5 -132.05)"/><path class="cls-5" d="M1157.64,302.65c-.43,0-.9-.11-1.4-.18Z" transform="translate(-143.5 -132.05)"/><path class="cls-6" d="M1133.71,296.91l-5.68,25-1.17-.42c-10.25-3.84-15.28-9.43-21.64-14.76l5.68-24.95c.45.37.89.75,1.31,1.12l2,1.7,1,.88,1,.88,1.08.93c.31.27.64.54,1,.81.52.43,1,.86,1.6,1.27l1,.76c.67.49,1.36,1,2.07,1.45.22.16.46.31.69.46.71.47,1.46.91,2.23,1.36.39.21.77.43,1.16.63.82.43,1.66.85,2.55,1.25l.61.27c.78.34,1.59.67,2.43,1Z" transform="translate(-143.5 -132.05)"/><path class="cls-6" d="M1084.73,269.16l-5.68,24.95c-12-3.13-25.4-5.44-25.4-5.44l5.69-24.95S1072.7,266,1084.73,269.16Z" transform="translate(-143.5 -132.05)"/><path class="cls-5" d="M1138.8,298.6c-1.66-.49-3.36-1.05-5.08-1.68Q1136.32,297.85,1138.8,298.6Z" transform="translate(-143.5 -132.05)"/><path class="cls-5" d="M1157.64,302.65c-.43,0-.9-.11-1.4-.18Z" transform="translate(-143.5 -132.05)"/><path class="cls-5" d="M1128,321.87l-4.79,21c-10.92-4-17.33-8.32-23.45-12.4l5.43-23.81c6.36,5.33,11.39,10.92,21.64,14.76Z" transform="translate(-143.5 -132.05)"/><path class="cls-5" d="M1079.05,294.11l-5.46,23.94c-14.95-4.42-25.51-4.9-25.51-4.9l5.57-24.48S1067,291,1079.05,294.11Z" transform="translate(-143.5 -132.05)"/><path class="cls-6" d="M1105.22,306.69l-5.43,23.81c-5.71-3.79-11.16-7.4-19.77-10.39-2.22-.77-4.36-1.45-6.43-2.06l5.46-23.94c2.23.59,4.42,1.19,6.48,1.82A53.17,53.17,0,0,1,1105.22,306.69Z" transform="translate(-143.5 -132.05)"/><path class="cls-5" d="M1110.9,281.74l-5.68,24.95a53.17,53.17,0,0,0-19.69-10.76c-2.06-.63-4.25-1.23-6.48-1.82l5.68-24.95c1.12.29,2.23.59,3.31.89s2.14.61,3.17.93c.58.17,1.14.36,1.69.55s1.09.37,1.61.56,1,.39,1.53.59l.74.31c.49.2,1,.4,1.43.61l.69.32c.46.21.91.43,1.36.66s.8.4,1.19.62l0,0c.38.2.74.4,1.1.62a49.77,49.77,0,0,1,4.8,3.13l.68.51Q1109.55,280.6,1110.9,281.74Z" transform="translate(-143.5 -132.05)"/><path class="cls-6" d="M1116,259.16l-5.14,22.58q-1.35-1.14-2.82-2.25l-.68-.51a49.77,49.77,0,0,0-4.8-3.13c-.36-.22-.72-.42-1.1-.62l0,0c-.39-.22-.79-.42-1.19-.62s-.9-.45-1.36-.66l-.69-.32c-.46-.21-.94-.42-1.43-.61l-.74-.31c-.5-.2-1-.4-1.53-.59s-1.06-.38-1.61-.56-1.11-.38-1.69-.55c-1-.32-2.1-.62-3.17-.93s-2.19-.6-3.31-.89l5.14-22.57c2.24.58,4.43,1.18,6.48,1.82A52.72,52.72,0,0,1,1116,259.16Z" transform="translate(-143.5 -132.05)"/><path class="cls-6" d="M1155.66,328l-4.87,21.4s-10.41-.5-25.8-5.88l-1.75-.63,4.79-21A115.26,115.26,0,0,0,1155.66,328Z" transform="translate(-143.5 -132.05)"/><path class="cls-5" d="M1161.35,303.06,1155.66,328a115.26,115.26,0,0,1-27.63-6.14l5.68-25h0c1.72.63,3.42,1.19,5.08,1.68l1.66.49,1.62.45a121.74,121.74,0,0,0,14.07,2.91l.09,0c.5.07,1,.14,1.4.18l.09,0,.83.1C1160.34,303,1161.35,303.06,1161.35,303.06Z" transform="translate(-143.5 -132.05)"/><path class="cls-6" d="M1166.49,280.47l-5.14,22.59s-1-.07-2.79-.29l-.83-.1-.09,0-1.4-.18-.09,0a121.74,121.74,0,0,1-14.07-2.91l-1.62-.45-1.66-.49q-2.49-.75-5.08-1.68h0l5.14-22.58A114.81,114.81,0,0,0,1166.49,280.47Z" transform="translate(-143.5 -132.05)"/><path class="cls-5" d="M1133.72,296.92q2.6.93,5.08,1.68C1137.14,298.11,1135.44,297.55,1133.72,296.92Z" transform="translate(-143.5 -132.05)"/><path class="cls-5" d="M1156.24,302.47l1.4.18C1157.21,302.61,1156.74,302.54,1156.24,302.47Z" transform="translate(-143.5 -132.05)"/><line class="cls-7" x1="882.67" y1="261.99" x2="917.73" y2="108.08"/><path class="cls-8" d="M947.15,827.08c62.77-56.41,67.9-98.29,86.16-112,19.93-15,61.21-16.66,99.69,0s13.54,78.15,13.54,78.15L985.62,970.46S919.55,851.88,947.15,827.08Z" transform="translate(-143.5 -132.05)"/><polygon class="cls-8" points="366.44 410.5 330.9 528.21 326.59 543.1 377.68 546.13 389.46 491.59 366.44 410.5"/><path class="cls-9" d="M1013.5,916.3,993.18,939a98.3,98.3,0,0,1-132.75,12.64L508.86,684.12l52.72-73.76Z" transform="translate(-143.5 -132.05)"/><path class="cls-9" d="M1006.23,456s-14.77-90.46,0-97.23,36.31,7.38,36.31,7.38,20.92,6.16,22.15,13.54-7.38,42.46-12.3,44.93-4.94,22.15-4.94,22.15" transform="translate(-143.5 -132.05)"/><path class="cls-8" d="M1051.77,435.69l-72.62,16.62s5.54,123,13.85,148.88,58.77,138.5,58.77,138.5l84.15-24.18L1067,577.85Z" transform="translate(-143.5 -132.05)"/><ellipse class="cls-10" cx="799.81" cy="1064" rx="419.9" ry="6.95"/><polygon class="cls-8" points="445.66 548.91 500.31 653.63 541.44 621.78 519.64 577.78 445.66 548.91"/><path class="cls-9" d="M653.39,675.16c.88,7,20.92,97.05,20.92,97.05l171-21.28,10.89,157.13a82.88,82.88,0,0,0,90.36,76.79h0a52.19,52.19,0,0,0,46-63.67l-53.41-232a61.89,61.89,0,0,0-69.73-47.29Z" transform="translate(-143.5 -132.05)"/><path class="cls-11" d="M1033.24,367.38l-8,36.72s19.49-2.66,24.82-19.28" transform="translate(-143.5 -132.05)"/><path class="cls-11" d="M1009.92,372.31s16.77-1.22,21,1.16" transform="translate(-143.5 -132.05)"/><path class="cls-11" d="M1007.15,388.46s16-2.46,20.52,0" transform="translate(-143.5 -132.05)"/><path class="cls-11" d="M1007.92,411.38s31.7-4.92,33.39,6.31" transform="translate(-143.5 -132.05)"/><polyline class="cls-11" points="526.86 540.5 509.89 543.11 530.81 640.16 651.83 625.1"/><path class="cls-11" d="M848.26,793l8.4,119.53s4.51,34.27,24.94,49.68" transform="translate(-143.5 -132.05)"/><path class="cls-9" d="M1094.23,1041.23l-4.17,9.42a64,64,0,0,0-4.09,11.87c-1.91,7.54.94,12-3.75,23.89-5.32,13.47,9.8,7.48,13.56,1.57,2.93-4.62,1.76-10.74,6-13.6,1.81,2.19,5.69,5.29,10,24.45.78,3.44-3.16,27,12.36,30.27,12.77.46,22.17-20.47,23.46-27.2a56.24,56.24,0,0,0-1-26c-2.37-9.35-2.24-12.52-8.25-23.92a104,104,0,0,0-10-14.78" transform="translate(-143.5 -132.05)"/><rect class="cls-12" x="464.09" y="865.15" width="552.43" height="56.11" rx="28.05" transform="translate(543.67 -397.74) rotate(37.03)"/><rect class="cls-12" x="788.81" y="747.16" width="764.11" height="56.11" rx="28.05" transform="translate(-325.65 1018.97) rotate(-49.03)"/><path class="cls-8" d="M1087.13,784.73s10.18,82.79,4.75,126.86-21,138.87-21,138.87h78.7s19-114.84,21-147.55S1163.07,744,1163.07,744" transform="translate(-143.5 -132.05)"/><g class="cls-13"><polyline class="cls-14" points="806.12 351.03 856.17 351.03 856.17 394.72 894.19 394.72 894.19 438.7"/><line class="cls-14" x1="888.74" y1="333.18" x2="935.55" y2="333.18"/><line class="cls-14" x1="827.65" y1="463.64" x2="903.95" y2="515.03"/><line class="cls-14" x1="920.06" y1="481.49" x2="977.07" y2="424.48"/><line class="cls-14" x1="945.91" y1="540.5" x2="935.55" y2="555.88"/><line class="cls-14" x1="829.28" y1="726.8" x2="857.08" y2="739.36"/><polyline class="cls-14" points="873.91 571.16 915.84 594.11 900.2 637.18 940.73 650.72"/><line class="cls-14" x1="873.91" y1="696.26" x2="840.58" y2="614.41"/><line class="cls-14" x1="910.15" y1="690.11" x2="900.2" y2="778.11"/><line class="cls-14" x1="972.27" y1="745.54" x2="1052.08" y2="800.26"/><polyline class="cls-14" points="950.78 792 936.5 819.04 971.53 838.81 946.9 870.62 974.06 894.83"/><line class="cls-14" x1="1006.08" y1="838.41" x2="1033.99" y2="874.11"/></g><ellipse class="cls-6" cx="1195.58" cy="606.26" rx="54.2" ry="42.44" transform="translate(-283.91 584.16) rotate(-31.59)"/><path class="cls-9" d="M1101.21,739.49a29,29,0,0,1,3.36-34.81l66.87-72.76a29,29,0,0,1,42.7,39.25l-66.87,72.76a29,29,0,0,1-46.06-4.44Z" transform="translate(-143.5 -132.05)"/><path class="cls-9" d="M1123.28,694.8l-3.85-3.58a41.6,41.6,0,0,1,3.64-63.92l24.37-18a41.6,41.6,0,0,1,53.37,3.33h0a41.6,41.6,0,0,1,1.46,58.81L1181.76,693A41.61,41.61,0,0,1,1123.28,694.8Z" transform="translate(-143.5 -132.05)"/><polyline class="cls-15" points="1011.64 496.42 985.25 504.24 990.57 513.27"/><circle class="cls-6" cx="1013.8" cy="509.94" r="5.09"/><circle class="cls-6" cx="1000.99" cy="489.1" r="5.09"/><path class="cls-15" d="M1131.14,659.78s3.57,5.14,9.55,4.49" transform="translate(-143.5 -132.05)"/><path class="cls-6" d="M1258.08,857.72C1204.91,897,1194,838.34,1194,838.34s-42.94,68.2-79.53-2.82.22-119.2,29.41-133.53c11.62-5.7,23.65-5.22,35.84-3.81-17.16-40.71,8.7-55.84,8.7-55.84s-59.84-45.37-13.85-73,89.56,10.41,106.17,38.5a68.29,68.29,0,0,1,7.61,19c5.18,21.48,4.22,41.17,18.45,65.15,39.31,66.24-18.77,110.64-18.77,110.64S1294.07,831.13,1258.08,857.72Z" transform="translate(-143.5 -132.05)"/><rect class="cls-9" x="1167.95" y="652.51" width="37.47" height="54.51" rx="18.74" transform="translate(1534.96 -728.4) rotate(81.27)"/><line class="cls-15" x1="1057.87" y1="546.12" x2="1033.99" y2="549.77"/></g></svg>