<svg xmlns="http://www.w3.org/2000/svg" xmlns:xlink="http://www.w3.org/1999/xlink" viewBox="0 0 1734.47 1089.82"><defs><style>.cls-1,.cls-13,.cls-14,.cls-9{fill:none;}.cls-2{fill:#e4eff7;}.cls-3{fill:#72a065;}.cls-4{fill:#edf0f2;}.cls-5{fill:#ffc774;}.cls-6{fill:#dce2e5;}.cls-7{fill:#fff;}.cls-8{fill:#1d2023;}.cls-14,.cls-9{stroke:#1d2023;}.cls-13,.cls-14,.cls-9{stroke-miterlimit:10;stroke-width:3px;}.cls-10{fill:#ea6f57;}.cls-11{fill:#24272d;}.cls-12{clip-path:url(#clip-path);}.cls-13{stroke:#fff;}.cls-13,.cls-14{stroke-linecap:square;}</style><clipPath id="clip-path" transform="translate(-142.22 -155.43)"><path class="cls-1" d="M1170.19,489.16l-93.42,56.64,4.7,109.24-158.64,3.38L911.17,611.2l-33.75,28.36a57.74,57.74,0,0,1-47.24,11.52L707.94,626.86l12-72.93,122,15.65s37.36-44.84,81.28-68.35c22.89-12.26,68.41-17.56,103.47-19.85l84.78-47.89L1153,315.55,1220.51,335Z"/></clipPath></defs><title>13</title><g id="Back"><ellipse class="cls-2" cx="867.23" cy="1083.59" rx="867.23" ry="6.23"/><circle class="cls-3" cx="1563" cy="1031.96" r="53.11"/><polygon class="cls-4" points="1134.75 0 1189.04 779.65 464.65 830.1 430.12 334.3 698.27 30.39 1134.75 0"/><polygon class="cls-5" points="28.37 1082.59 119.53 1082.59 73.95 1012.81 28.37 1082.59"/><polygon class="cls-5" points="1204.47 877.61 1255.29 856.71 1213.88 828.26 1204.47 877.61"/><polygon class="cls-6" points="698.27 30.39 718.04 314.25 430.12 334.3 698.27 30.39"/><path class="cls-7" d="M1609.3,1239c-11-9.74-17.62-25.27-17.62-41.69a57.74,57.74,0,0,1,11-34.53H1667a57.73,57.73,0,0,1,11,34.53c0,16.42-6.57,32-17.62,41.69Z" transform="translate(-142.22 -155.43)"/><path class="cls-8" d="M1666.27,1164.28a56.34,56.34,0,0,1,10.29,33c0,15.78-6.22,30.71-16.69,40.19h-50c-10.47-9.48-16.7-24.41-16.7-40.19a56.35,56.35,0,0,1,10.3-33h62.79m1.5-3H1602a59,59,0,0,0-11.79,36c0,17.78,7.32,33.52,18.56,43.19H1661c11.25-9.67,18.56-25.41,18.56-43.19a59,59,0,0,0-11.79-36Z" transform="translate(-142.22 -155.43)"/><line class="cls-9" x1="1306.12" y1="976.27" x2="1306.12" y2="750.72"/><circle class="cls-5" cx="1306.12" cy="721.65" r="29.07"/><line class="cls-9" x1="1492.65" y1="1005.85" x2="1492.65" y2="959.41"/><circle class="cls-5" cx="1492.65" cy="938.7" r="20.71"/><circle class="cls-5" cx="307" cy="801.72" r="30.52"/><line class="cls-9" x1="1229.39" y1="867.61" x2="1271.94" y2="976.27"/><line class="cls-9" x1="1335.41" y1="975.4" x2="1382.15" y2="868.47"/><rect class="cls-3" x="1512.58" y="986.2" width="39.35" height="39.35" transform="translate(-145.35 1851.54) rotate(-66.39)"/><polygon class="cls-3" points="505.73 834.44 436.25 805.86 492.87 766.96 505.73 834.44"/><line class="cls-9" x1="396.6" y1="926.62" x2="396.6" y2="706.53"/><line class="cls-9" x1="471.47" y1="820.59" x2="429.95" y2="926.62"/><line class="cls-9" x1="364.69" y1="933.69" x2="319.08" y2="829.35"/><polygon class="cls-7" points="1251.84 1083.57 1216.05 959.33 1396.19 959.33 1384.13 1001.21 1372.16 1042.76 1360.39 1083.57 1251.84 1083.57"/><path class="cls-8" d="M1536.43,1116.27l-11.52,40-12,41.55-11.45,39.73h-106.3l-11.57-40.17-10.53-36.54-12.83-44.52h176.17m4-3H1356.27l13.94,48.35,10.52,36.54,12.2,42.34h110.82l12.07-41.89,12-41.56,12.62-43.78Z" transform="translate(-142.22 -155.43)"/><rect class="cls-7" x="101.28" y="971.61" width="109.49" height="109.49"/><path class="cls-8" d="M351.49,1128.54V1235H245V1128.54H351.49m3-3H242V1238H354.49V1125.54Z" transform="translate(-142.22 -155.43)"/><rect class="cls-7" x="1655.24" y="1027.85" width="53.24" height="53.24"/><path class="cls-8" d="M1849.21,1184.78V1235H1799v-50.25h50.24m3-3H1796V1238h56.24v-56.25Z" transform="translate(-142.22 -155.43)"/><rect class="cls-5" x="552.79" y="1012.81" width="69.78" height="69.78"/><rect class="cls-3" x="364.69" y="642.72" width="63.81" height="63.81"/><path class="cls-7" d="M476.13,1236.53c-25.77-22.41-41.14-58.41-41.14-96.44,0-29.76,9.22-58.21,26-80.2H608.69c16.76,22,26,50.44,26,80.2,0,38-15.37,74-41.15,96.44Z" transform="translate(-142.22 -155.43)"/><path class="cls-8" d="M608,1061.39c16.27,21.65,25.22,49.53,25.22,78.7a137.05,137.05,0,0,1-11.23,54.66A115.54,115.54,0,0,1,593,1235H476.7a115.54,115.54,0,0,1-29-40.28,136.88,136.88,0,0,1-11.23-54.66c0-29.17,8.95-57,25.22-78.7H608m1.48-3H460.23c-16.6,21.5-26.74,50.19-26.74,81.7,0,40.32,16.59,76,42.08,97.94H594.08c25.5-21.92,42.09-57.62,42.09-97.94,0-31.51-10.14-60.2-26.74-81.7Z" transform="translate(-142.22 -155.43)"/><polygon class="cls-3" points="314.67 1011.12 379 1011.12 346.84 961.88 314.67 1011.12"/><polygon class="cls-3" points="406.21 1011.12 470.54 1011.12 438.38 961.88 406.21 1011.12"/><circle class="cls-3" cx="1312.87" cy="1021.45" r="21.89"/><path class="cls-3" d="M1407.79,1176.88a21.89,21.89,0,0,1-21.89,21.89,21.53,21.53,0,0,1-5.17-.62l-10.52-36.53a21.89,21.89,0,0,1,37.58,15.26Z" transform="translate(-142.22 -155.43)"/><path class="cls-3" d="M1527.79,1157.05l-12,41.55a21.89,21.89,0,0,1,2.7-43.61A21.59,21.59,0,0,1,1527.79,1157.05Z" transform="translate(-142.22 -155.43)"/></g><g id="Man"><polygon class="cls-3" points="1103.28 1008.81 1121.62 1050.3 1076.07 1082.59 956.67 1082.59 1025.38 1035.57 1103.28 1008.81"/><polygon class="cls-3" points="901.43 1008.81 919.77 1061.3 874.23 1082.59 754.83 1082.59 823.53 1035.57 901.43 1008.81"/><path class="cls-10" d="M1172.09,327.17,1168.55,317a138.86,138.86,0,0,1-3.19-15.22c-1.18-8,2-18.82-7.94-30.8s7.26-6.61,12.3-1c4.21,4.67,6,16.47,10.46,19.72a20.69,20.69,0,0,0,3.72-4.56l20.67-46.64a3.72,3.72,0,0,1,4.11-2.14l1.92.39a3.17,3.17,0,0,1,2.49,4.23c-3.77,10.08-15.81,39.93-15.23,40l1.09.71,26.62-46.47a3.73,3.73,0,0,1,4.35-1.76l2.61.8a3.13,3.13,0,0,1,2,4.32c-4.84,10.86-24.42,46.51-23.82,46.64l1.37.68,26.31-37.8a3.73,3.73,0,0,1,4.59-1.66l2,.8a3.14,3.14,0,0,1,1.74,4.34L1222.41,289l1.31,1.11,22.9-26.26a3.75,3.75,0,0,1,4.53-1.29l1,.43a3.15,3.15,0,0,1,1.58,4.34c-2.84,5.68-13.47,16.86-20.87,29-5.74,9.45-7.62,17.41-16.2,28.63-3.62,4.75-9.78,10.13-13.14,13.14" transform="translate(-142.22 -155.43)"/><polyline class="cls-3" points="866.57 336.04 969.18 278.06 1010.79 160.12 1078.28 179.55 1027.97 333.73 893.96 414.99"/><polygon class="cls-11" points="1007.96 1042.2 911.94 878.93 920.42 1041.51 806.33 1041.24 780.61 502.99 939.2 498.74 971.43 736.26 1115.48 1005.06 1007.96 1042.2"/><path class="cls-10" d="M725.05,575.8,720,566a154.53,154.53,0,0,0-9-13.28c-5.07-6.66-15-12.22-17.21-27.92s-9.55.36-8.77,8c.65,6.36,8.07,16.17,7.51,21.68a20.38,20.38,0,0,1-5.74-.66l-47.42-19.12a3.37,3.37,0,0,0-4.23,1.37l-1,1.64a3.4,3.4,0,0,0,1.45,4.82c9.79,4.63,39.36,17.7,39.06,18.19l-.2,1.28L623.3,547.17a3.4,3.4,0,0,0-4.13,1.81l-1.11,2.43a3.37,3.37,0,0,0,1.81,4.56c11.06,4.43,49.78,16.36,49.48,16.87l-.41,1.47-44.67-8.72a3.39,3.39,0,0,0-4.2,2l-.74,2a3.39,3.39,0,0,0,2,4.37l43.13,9.82-.06,1.73-34-2.78a3.41,3.41,0,0,0-3.9,2.28l-.31,1a3.41,3.41,0,0,0,2.12,4.25c6,2.11,21.06,2.67,34.75,6.24,10.63,2.77,17.64,7.2,31.4,9.24,5.82.87,13.75.41,18.14.2" transform="translate(-142.22 -155.43)"/><path class="cls-3" d="M841.88,569.58s37.36-44.83,81.27-68.35c40.31-21.59,150.78-21.59,150.78-21.59l7.54,175.4-158.64,3.38L911.17,611.2l-33.76,28.36a57.69,57.69,0,0,1-47.24,11.52L707.94,626.86l12-72.93Z" transform="translate(-142.22 -155.43)"/><g class="cls-12"><polygon class="cls-5" points="702.86 357.78 632.6 357.78 667.73 411.57 702.86 357.78"/><polygon class="cls-5" points="805.26 357.78 735 357.78 770.13 411.57 805.26 357.78"/><polygon class="cls-5" points="907.67 357.78 837.41 357.78 872.54 411.57 907.67 357.78"/><polygon class="cls-5" points="1010.07 357.78 939.81 357.78 974.94 411.57 1010.07 357.78"/><polygon class="cls-5" points="654.07 433.93 583.81 433.93 618.94 487.72 654.07 433.93"/><polygon class="cls-5" points="756.47 433.93 686.21 433.93 721.34 487.72 756.47 433.93"/><polygon class="cls-5" points="858.87 433.93 788.61 433.93 823.74 487.72 858.87 433.93"/><polygon class="cls-5" points="961.28 433.93 891.02 433.93 926.15 487.72 961.28 433.93"/><polygon class="cls-5" points="859.75 275.77 789.49 275.77 824.63 329.56 859.75 275.77"/><polygon class="cls-5" points="962.16 275.77 891.9 275.77 927.03 329.56 962.16 275.77"/><polygon class="cls-5" points="1064.56 275.77 994.3 275.77 1029.43 329.56 1064.56 275.77"/><polygon class="cls-5" points="1018.24 197.29 947.98 197.29 983.11 251.08 1018.24 197.29"/><polygon class="cls-5" points="1074.41 129.33 1004.15 129.33 1039.28 183.12 1074.41 129.33"/></g><path class="cls-10" d="M993.66,509.67H993a27.08,27.08,0,0,1-26.41-27.72l2.41-99.8a27.07,27.07,0,0,1,54.13,1.3l-2.41,99.81A27.08,27.08,0,0,1,993.66,509.67Z" transform="translate(-142.22 -155.43)"/><path class="cls-10" d="M973.92,458.36l-5.26-.74a42,42,0,0,1-34-55l9.77-29a42,42,0,0,1,46.13-28.12h0a42,42,0,0,1,35.24,47.86l-4.51,29.73A42,42,0,0,1,973.92,458.36Z" transform="translate(-142.22 -155.43)"/><polyline class="cls-10" points="801.4 223.42 784.68 246.25 793.03 248.77"/><path class="cls-11" d="M1005.12,422.18c-11-3.22,1.16-39.37,1.16-39.37l-14.54,7.26c-3.24,2.07-6.29-21.46-6.29-21.46s-43.66,3.75-38.81-33.63c2.8-21.5,20.06-4.18,31.59-2.58,18.12,2.5,33-4.71,53.73,14.51C1056.77,369.91,1034.59,430.79,1005.12,422.18Z" transform="translate(-142.22 -155.43)"/><polygon class="cls-11" points="824.29 301.54 840.1 302.36 823.86 314.21 824.29 301.54"/><circle class="cls-11" cx="809.58" cy="225.88" r="4.32"/><path class="cls-13" d="M996.35,660.47" transform="translate(-142.22 -155.43)"/><path class="cls-13" d="M1005.07,704.27" transform="translate(-142.22 -155.43)"/><path class="cls-13" d="M978.9,656.29" transform="translate(-142.22 -155.43)"/><path class="cls-13" d="M987.61,700.1" transform="translate(-142.22 -155.43)"/><path class="cls-13" d="M969.59,652.83" transform="translate(-142.22 -155.43)"/><path class="cls-13" d="M978.31,696.64" transform="translate(-142.22 -155.43)"/><line class="cls-13" x1="916.06" y1="888.82" x2="893.23" y2="592.22"/><rect class="cls-10" x="989.88" y="376.04" width="30.91" height="39.67" rx="15.45" transform="translate(450.12 -757.98) rotate(46.03)"/><line class="cls-14" x1="872.7" y1="237.92" x2="860.43" y2="247.2"/><path class="cls-14" d="M941.92,412.1a10.21,10.21,0,0,1,10.47-2.46" transform="translate(-142.22 -155.43)"/><line class="cls-13" x1="936.35" y1="380.21" x2="937.69" y2="396.35"/><line class="cls-13" x1="766.94" y1="458.77" x2="788.01" y2="439.34"/><polyline class="cls-13" points="955.6 722.72 971.43 736.26 958.03 759.64"/><line class="cls-14" x1="812.32" y1="213.49" x2="818.78" y2="218.22"/></g></svg>