<svg xmlns="http://www.w3.org/2000/svg" viewBox="0 0 1769.59 1124.41"><defs><style>.cls-1{fill:#edf1f5;}.cls-2,.cls-6{fill:none;stroke-miterlimit:10;}.cls-2{stroke:#f9d0b5;stroke-width:14px;}.cls-3{fill:#f9d0b5;}.cls-4{fill:#3361c2;}.cls-5{fill:#ef6e45;}.cls-6{stroke:#fff;stroke-linecap:square;stroke-width:3px;}.cls-7{fill:#24272d;}.cls-8{fill:#fff;}</style></defs><title>14</title><g id="Back"><path class="cls-1" d="M241.5,520.29a64.19,64.19,0,0,1-120.67,23.87,65.68,65.68,0,0,1-3.61-8.13A64.2,64.2,0,1,1,241.5,520.29Z" transform="translate(-99.23 -123.31)"/><path class="cls-1" d="M900.8,970.54a64,64,0,0,1-25,44.94,65.1,65.1,0,0,1-7.26,4.8,64.19,64.19,0,1,1,32.23-49.74Z" transform="translate(-99.23 -123.31)"/><path class="cls-1" d="M1141.15,761a32,32,0,0,1-12.48,22.48,35,35,0,0,1-3.63,2.4,32.15,32.15,0,0,1-44.23-12.94,32.88,32.88,0,0,1-1.8-4.07,32.1,32.1,0,1,1,62.14-7.87Z" transform="translate(-99.23 -123.31)"/><path class="cls-1" d="M358.38,1186.57a32.06,32.06,0,0,1-12.49,22.48,32.55,32.55,0,0,1-3.63,2.4A32.11,32.11,0,0,1,298,1198.51a30.86,30.86,0,0,1-1.8-4.07,32.1,32.1,0,1,1,62.14-7.87Z" transform="translate(-99.23 -123.31)"/><path class="cls-1" d="M1574.28,453.05a32,32,0,0,1-12.48,22.47,33.5,33.5,0,0,1-3.63,2.4A32.12,32.12,0,0,1,1513.94,465a32.74,32.74,0,0,1-1.8-4.06,32.1,32.1,0,1,1,62.14-7.87Z" transform="translate(-99.23 -123.31)"/><path class="cls-1" d="M1855.09,279.27a32,32,0,0,1-12.48,22.47,32.55,32.55,0,0,1-3.63,2.4,32.09,32.09,0,0,1-44.22-12.94,30.73,30.73,0,0,1-1.8-4.06,32.1,32.1,0,1,1,62.13-7.87Z" transform="translate(-99.23 -123.31)"/><path class="cls-1" d="M163.28,312.67a32,32,0,0,1-12.49,22.47,32,32,0,0,1-22.51,6.43,32.09,32.09,0,1,1,35-28.9Z" transform="translate(-99.23 -123.31)"/><path class="cls-1" d="M1598.18,1218.67a32.11,32.11,0,0,1-47,25.31,32.3,32.3,0,0,1-13.32-13.37,32.93,32.93,0,0,1-1.81-4.07,32.1,32.1,0,1,1,62.14-7.87Z" transform="translate(-99.23 -123.31)"/><path class="cls-1" d="M951.41,1108.91a32,32,0,0,1-12.48,22.47,32.55,32.55,0,0,1-3.63,2.4,32.09,32.09,0,0,1-44.22-12.94,31.32,31.32,0,0,1-1.8-4.06,32.1,32.1,0,1,1,62.13-7.87Z" transform="translate(-99.23 -123.31)"/><path class="cls-1" d="M1868.52,1122.73a64,64,0,0,1-25,44.94,65.18,65.18,0,0,1-7.26,4.81,64.11,64.11,0,0,1-76.18-9.59,64.23,64.23,0,0,1-15.87-24.42,64.2,64.2,0,1,1,124.28-15.74Z" transform="translate(-99.23 -123.31)"/><path class="cls-1" d="M1196.71,193.6a64,64,0,0,1-25,44.94,62.87,62.87,0,0,1-7.26,4.8,64.13,64.13,0,0,1-76.18-9.58A64.73,64.73,0,0,1,1076,217.47,64.27,64.27,0,0,1,1074.8,160a64.2,64.2,0,0,1,121.91,33.6Z" transform="translate(-99.23 -123.31)"/></g><g id="Man"><line class="cls-2" x1="89.77" y1="1013.65" x2="286.69" y2="860.69"/><line class="cls-2" x1="839.31" y1="333.92" x2="1305.99" y2="614.39"/><line class="cls-2" x1="1102.69" y1="1004.04" x2="1419.66" y2="815.38"/><line class="cls-2" x1="574.69" y1="448.38" x2="486.08" y2="582.54"/><line class="cls-2" x1="1668.81" y1="333.92" x2="1580.21" y2="553.15"/><line class="cls-2" x1="1324.23" y1="107.92" x2="1663.93" y2="312.84"/><line class="cls-2" x1="248.54" y1="97.43" x2="573.46" y2="208.39"/><path class="cls-3" d="M722.15,873.09a236.59,236.59,0,0,1-78.36,154.61q-6.74,6-13.91,11.46a238.81,238.81,0,0,1-26.82,17.74,236,236,0,0,1-137.86,29.94l-1.69-.15A237.17,237.17,0,0,1,283.87,974.63q-4-6.54-7.63-13.35a237.64,237.64,0,0,1-4.59-212.35c41.56-87.66,134.75-144.24,236.91-134.49C639,626.88,734.6,742.69,722.15,873.09Z" transform="translate(-99.23 -123.31)"/><path class="cls-3" d="M241.5,1150.44a64,64,0,0,1-25,45,65.1,65.1,0,0,1-7.26,4.8,64.2,64.2,0,0,1-88.44-25.88,65,65,0,0,1-3.61-8.13,64.2,64.2,0,1,1,124.28-15.74Z" transform="translate(-99.23 -123.31)"/><path class="cls-3" d="M1803.53,865.46A237.19,237.19,0,1,1,1353,741.3c41.56-87.66,134.75-144.24,236.91-134.49C1720.35,619.25,1816,735.06,1803.53,865.46Z" transform="translate(-99.23 -123.31)"/><path class="cls-3" d="M1015.76,404.84a237.19,237.19,0,1,1-450.5-124.16C606.82,193,700,136.44,802.17,146.19,932.58,158.63,1028.21,274.44,1015.76,404.84Z" transform="translate(-99.23 -123.31)"/><path class="cls-3" d="M422.42,228.51a64.19,64.19,0,0,1-120.67,23.86,62.93,62.93,0,0,1-3.6-8.13,64.19,64.19,0,1,1,124.27-15.73Z" transform="translate(-99.23 -123.31)"/><path class="cls-3" d="M1243.78,1143.06a64.17,64.17,0,0,1-108.41,40.16,64.33,64.33,0,0,1-15.86-24.42,64.19,64.19,0,1,1,124.27-15.74Z" transform="translate(-99.23 -123.31)"/><path class="cls-3" d="M1836.94,444.33a64.19,64.19,0,0,1-120.67,23.87,65,65,0,0,1-3.61-8.13,64.2,64.2,0,1,1,124.28-15.74Z" transform="translate(-99.23 -123.31)"/><path class="cls-3" d="M1469.12,223.84a64,64,0,0,1-25,44.94,62.87,62.87,0,0,1-7.26,4.8,64.13,64.13,0,0,1-76.18-9.58,64.33,64.33,0,0,1-15.86-24.42,64.19,64.19,0,1,1,124.27-15.74Z" transform="translate(-99.23 -123.31)"/><path class="cls-4" d="M1337,721.74l6.11-11.11a178.63,178.63,0,0,0,6.84-17c3.08-9.07,2-22,15.49-34.21s-6.46-8.84-13.2-3.21c-5.62,4.69-10.19,18-15.78,21a23.24,23.24,0,0,1-3-5.88l-12.22-57.26a3.88,3.88,0,0,0-4-3.14L1315,611a3.9,3.9,0,0,0-3.65,4.47c1.88,12.25,8.41,48.7,7.75,48.72l-1.35.64-18.74-58a3.87,3.87,0,0,0-4.36-2.76l-3,.5a3.86,3.86,0,0,0-3.17,4.64c2.88,13.34,16.35,57.73,15.67,57.77l-1.65.56-20.33-48a3.89,3.89,0,0,0-4.64-2.68l-2.39.59a3.9,3.9,0,0,0-2.86,4.72l18.29,47.22-1.68,1.06-19.16-34.11a3.9,3.9,0,0,0-4.66-2.24l-1.14.34a3.91,3.91,0,0,0-2.68,4.74c1.84,7,11,21.69,16.33,37,4.17,11.86,4.46,21.36,11.34,35.72,2.9,6.09,8.42,13.32,11.43,17.35" transform="translate(-99.23 -123.31)"/><path class="cls-5" d="M1684.44,1049.27a237.24,237.24,0,0,1-281.5-35.42l2.86-73.33L1314,925.36a59.06,59.06,0,0,1-43.06-63.42L1278.45,718l72.53,5,2,18.32L1364.19,838s75.88,9.49,179.43,36C1644.42,899.81,1674.11,989.32,1684.44,1049.27Z" transform="translate(-99.23 -123.31)"/><line class="cls-6" x1="1305.57" y1="816.28" x2="1306.42" y2="791.29"/><ellipse class="cls-7" cx="1546.22" cy="737.7" rx="81.56" ry="75.22" transform="translate(-87.68 1375.83) rotate(-51.89)"/><path class="cls-4" d="M1495.87,902.66a31,31,0,0,1-10.95-35.7l36.1-99.12A31,31,0,1,1,1579.21,789l-36.11,99.13a31,31,0,0,1-47.23,14.5Z" transform="translate(-99.23 -123.31)"/><path class="cls-4" d="M1502,847.39l-6-2.23a50.64,50.64,0,0,1-25.78-73.56l19-31.6a50.64,50.64,0,0,1,61.55-21.2h0a50.65,50.65,0,0,1,29.14,65.43l-13,33.83A50.64,50.64,0,0,1,1502,847.39Z" transform="translate(-99.23 -123.31)"/><polyline class="cls-6" points="1407.56 634.62 1381.55 655.74 1391.76 663.41"/><circle class="cls-8" cx="1414.17" cy="644.05" r="5.49"/><circle class="cls-8" cx="1391.34" cy="632.5" r="5.49"/><path class="cls-7" d="M1657,931.56s-25.32,63.39-74.64,35.23c-81.65-46.63-64.88-107.95-41.86-136,9.17-11.17,22-16.12,35.39-20.18-38.93-34.33-19.79-61.67-19.79-61.67s-104.12-6.69-70.45-56.08,93.81-42.92,125.69-21.47c74.1,49.88,48.88,100.72,65.79,119.44C1773,897.06,1657,931.56,1657,931.56Z" transform="translate(-99.23 -123.31)"/><rect class="cls-4" x="1543.42" y="767.67" width="45.62" height="66.36" rx="22.81" transform="translate(1337.5 -1076.79) rotate(58.7)"/><line class="cls-6" x1="1482.76" y1="668.88" x2="1457.62" y2="684.15"/><path class="cls-8" d="M1506.14,802.19a13.21,13.21,0,0,1-26.35,2c-.56-7.28,6.81-7.21,14.08-7.77S1505.58,794.91,1506.14,802.19Z" transform="translate(-99.23 -123.31)"/><path class="cls-4" d="M931.73,564.32l-8.24,6.59a238.81,238.81,0,0,1-26.82,17.74A237.27,237.27,0,0,1,569.85,493c37.66-27.68,100.71-60.75,181.36-54C886.11,450.35,931.73,564.32,931.73,564.32Z" transform="translate(-99.23 -123.31)"/><path class="cls-5" d="M771,495.23a36.73,36.73,0,0,1-4.54-.27,38,38,0,0,1-33.24-42.22l18-151.41a38,38,0,0,1,75.47,9l-18,151.41A38,38,0,0,1,771,495.23Z" transform="translate(-99.23 -123.31)"/><path class="cls-5" d="M802.81,417.88l8.06.9a64.18,64.18,0,0,0,71.2-68.48l-3.42-46.6a64.19,64.19,0,0,0-57.53-59.16h0a64.19,64.19,0,0,0-70.34,57.38l-4.64,45.69A64.19,64.19,0,0,0,802.81,417.88Z" transform="translate(-99.23 -123.31)"/><rect class="cls-5" x="726.01" y="312.25" width="47.21" height="60.59" rx="23.6" transform="translate(1468.33 118.2) rotate(148.4)"/><line class="cls-6" x1="637.16" y1="211.87" x2="656.08" y2="231.87"/><polyline class="cls-6" points="749.66 186.31 750.99 223.76 737.67 224.3"/><path class="cls-8" d="M809.21,359.24a17.62,17.62,0,1,0,31,16.77c4.63-8.57-4.38-12.48-13-17.11S813.84,350.68,809.21,359.24Z" transform="translate(-99.23 -123.31)"/><path class="cls-7" d="M770.43,352.47l18-67.61,4.27-16a53.22,53.22,0,0,0,13.9,10.67c18.84,10.14,75.64,6.1,83.51-33.73,6.42-32.48-28.07-13.81-45.73-15.84-27.75-3.2-47-19.53-85,1-45.45,24.59-23.92,84.87-23.92,84.87S755.46,308,770.43,352.47Z" transform="translate(-99.23 -123.31)"/><polygon class="cls-7" points="713.65 295.67 689.58 293.48 711.56 314.93 713.65 295.67"/><circle class="cls-8" cx="724.01" cy="199.93" r="6.61"/><circle class="cls-8" cx="763.44" cy="199.93" r="6.61"/><path class="cls-7" d="M681.24,985.38a238.27,238.27,0,0,1-37.45,42.32q-6.74,6-13.91,11.46a238.81,238.81,0,0,1-26.82,17.74,236.34,236.34,0,0,1-43.8,19.34l-94.06,10.6-1.69-.15A237.17,237.17,0,0,1,283.87,974.63c35.55-65.19,99.06-132.32,211.82-148.53C603.19,810.65,662.27,935.9,681.24,985.38Z" transform="translate(-99.23 -123.31)"/><path class="cls-4" d="M510.07,882.18l-1.2.08a43.22,43.22,0,0,1-45.15-41.18l-7-151.84a43.21,43.21,0,1,1,86.33-4l7,151.83A43.21,43.21,0,0,1,510.07,882.18Z" transform="translate(-99.23 -123.31)"/><path class="cls-4" d="M535.64,802.78l7.83-2a64,64,0,0,0,41.8-89.16l-19.83-42.15a64,64,0,0,0-74.66-34.5h0a64,64,0,0,0-45,78.51l12,44.18A64,64,0,0,0,535.64,802.78Z" transform="translate(-99.23 -123.31)"/><rect class="cls-4" x="435.7" y="721.47" width="47.06" height="60.4" rx="23.53" transform="translate(1236.05 720.18) rotate(127.41)"/><path class="cls-7" d="M597.21,755.48c6.1,25.35,2,62.53-28.7,70.3S499.7,809,493.3,783.7s.61-39.43,31.33-47.21S589.24,722.41,597.21,755.48Z" transform="translate(-99.23 -123.31)"/><line class="cls-6" x1="345.06" y1="626.22" x2="365.23" y2="638.12"/><path class="cls-8" d="M521,759.39a17.57,17.57,0,0,0,34.84,4.53c1.25-9.62-8.54-10-18.16-11.3S522.25,749.77,521,759.39Z" transform="translate(-99.23 -123.31)"/><polygon class="cls-7" points="448.6 675.88 424.57 677.66 449.69 695.16 448.6 675.88"/><circle class="cls-8" cx="418.81" cy="591.44" r="6.58"/><circle class="cls-8" cx="464.84" cy="578.44" r="6.58"/><path class="cls-4" d="M446.29,1081.72l26.32,17.65s-1.17,62.78,26.44,59.43c0,0,.11,9.92,5.72,10.87s20.9-22.47,20.9-22.47,21-7.92,25.15-28.2,4.91-68.18-1.57-71.79-70.41-5.19-70.41-5.19S452.3,1045.24,446.29,1081.72Z" transform="translate(-99.23 -123.31)"/><line class="cls-6" x1="391.46" y1="910.69" x2="285.33" y2="871.51"/><line class="cls-6" x1="306.4" y1="877.37" x2="365.95" y2="804.89"/><path class="cls-3" d="M500.47,1090.81" transform="translate(-99.23 -123.31)"/><path class="cls-6" d="M525.53,1079.91" transform="translate(-99.23 -123.31)"/><path class="cls-6" d="M538.55,1072.24" transform="translate(-99.23 -123.31)"/><path class="cls-6" d="M446.13,1084.44s-2.77-38.11,46.49-49.85" transform="translate(-99.23 -123.31)"/><polyline class="cls-6" points="446.15 568.34 460.75 602.71 448.55 607.97"/></g></svg>