<svg xmlns="http://www.w3.org/2000/svg" xmlns:xlink="http://www.w3.org/1999/xlink" viewBox="0 0 1690.45 1036.35"><defs><style>.cls-1,.cls-10,.cls-5,.cls-9{fill:none;}.cls-2{fill:#f2f6f9;}.cls-3{fill:#ffc774;}.cls-4{clip-path:url(#clip-path);}.cls-5{stroke:#ffa161;stroke-linecap:round;stroke-width:31px;}.cls-10,.cls-11,.cls-5,.cls-9{stroke-miterlimit:10;}.cls-11,.cls-6{fill:#3361c2;}.cls-7{fill:#24272d;}.cls-8{fill:#ea6f57;}.cls-11,.cls-9{stroke:#fff;}.cls-10,.cls-11,.cls-9{stroke-width:3px;}.cls-10{stroke:#25282d;}.cls-12{clip-path:url(#clip-path-2);}</style><clipPath id="clip-path" transform="translate(-205.62 -165.92)"><path class="cls-1" d="M624.94,513.28H957.71a150.4,150.4,0,0,1,150.4,150.4v0a150.4,150.4,0,0,1-150.4,150.4H833.39A254.62,254.62,0,0,1,578.76,559.46v0a46.18,46.18,0,0,1,46.18-46.18Z" transform="translate(767.56 -406.88) rotate(47.75)"/></clipPath><clipPath id="clip-path-2" transform="translate(-205.62 -165.92)"><path class="cls-1" d="M490,533H822.79a150.4,150.4,0,0,1,150.4,150.4v0a150.4,150.4,0,0,1-150.4,150.4H698.47A254.62,254.62,0,0,1,443.84,579.15v0A46.18,46.18,0,0,1,490,533Z" transform="translate(471.9 -272.14) rotate(32.13)"/></clipPath></defs><title>15</title><g id="Back"><path class="cls-2" d="M1896.07,622.12H1212.35s.52-133.5,85.88-133.5c84.43,0,116.07,91.62,166,91.62s41.14-145.5,128.83-145.5c67.38,0,125.22,118.19,226.22,152.42C1884.15,609.17,1896.07,622.12,1896.07,622.12Z" transform="translate(-205.62 -165.92)"/><path class="cls-2" d="M301.36,332.72H968.67s-32.91-100.56-101.6-100.56c-51.44,0-63.85,43.58-113.23,43.58S671.38,165.92,596.71,165.92c-78.56,0-117.32,125.63-188.18,139.4C321.53,322.21,301.36,332.72,301.36,332.72Z" transform="translate(-205.62 -165.92)"/><path class="cls-2" d="M899.33,1202.27h862.55s-42.54-121.14-131.33-121.14c-66.49,0-82.53,52.49-146.36,52.49s-106.59-132.3-203.1-132.3c-101.55,0-151.64,151.35-243.24,167.93C925.4,1189.6,899.33,1202.27,899.33,1202.27Z" transform="translate(-205.62 -165.92)"/><path class="cls-2" d="M927.62,1027.58h-722s23.61-110.69,91-110.69c58.15,0,107.35,66,156.38,66s73.49-146.18,169.26-146.18c89.09,0,160.63,153.41,230.43,166.95C912.86,1015.33,927.62,1027.58,927.62,1027.58Z" transform="translate(-205.62 -165.92)"/><path class="cls-2" d="M1720.13,850.61l-29,7.72A104.48,104.48,0,0,1,1496,904.16l-4.47-2.81A71.56,71.56,0,0,1,1469,802.69a13,13,0,0,1,17.89-4.1l21.4,13.45a71.54,71.54,0,0,1,17.58-25.38,13,13,0,0,1,18.34.68l60.45,65.11h18.72a34,34,0,0,1,66.43-9.91l.88.23Z" transform="translate(-205.62 -165.92)"/><path class="cls-2" d="M400.41,565.93l-21.1,5.62a76,76,0,0,1-142,33.35l-3.25-2a52.09,52.09,0,0,1-16.41-71.81,9.46,9.46,0,0,1,13-3l15.57,9.79a52,52,0,0,1,12.8-18.47,9.44,9.44,0,0,1,13.35.49l44,47.39H330a24.71,24.71,0,0,1,48.34-7.21l.65.17Z" transform="translate(-205.62 -165.92)"/><path class="cls-2" d="M1426.69,329.46,1409.53,334a61.82,61.82,0,0,1-115.44,27.11l-2.65-1.66a42.35,42.35,0,0,1-13.35-58.38,7.69,7.69,0,0,1,10.59-2.43l12.67,8a42.24,42.24,0,0,1,10.4-15,7.68,7.68,0,0,1,10.85.4l35.78,38.54h11.07a20.09,20.09,0,0,1,39.31-5.87l.52.14Z" transform="translate(-205.62 -165.92)"/></g><g id="Man"><path class="cls-3" d="M627.26,512.53H960a150.4,150.4,0,0,1,150.4,150.4v0A150.4,150.4,0,0,1,960,813.33H835.71A254.62,254.62,0,0,1,581.09,558.7v0A46.18,46.18,0,0,1,627.26,512.53Z" transform="translate(550.53 -573.86) rotate(47.13)"/><g class="cls-4"><line class="cls-5" x1="932.87" y1="509.5" x2="855.26" y2="553.2"/><line class="cls-5" x1="925.87" y1="587.85" x2="964.47" y2="656.41"/><line class="cls-5" x1="594.91" y1="646.59" x2="633.51" y2="715.15"/><line class="cls-5" x1="781.86" y1="547.58" x2="820.46" y2="616.14"/><line class="cls-5" x1="822.12" y1="403.57" x2="860.72" y2="472.13"/><line class="cls-5" x1="677.63" y1="581.17" x2="633.93" y2="503.55"/><line class="cls-5" x1="778.95" y1="766.9" x2="735.25" y2="689.28"/><line class="cls-5" x1="599.28" y1="574.17" x2="530.72" y2="612.77"/><line class="cls-5" x1="894.81" y1="660.95" x2="826.24" y2="699.55"/><line class="cls-5" x1="743.38" y1="618.61" x2="674.82" y2="657.21"/><line class="cls-5" x1="783.56" y1="470.42" x2="715" y2="509.02"/><line class="cls-5" x1="685.89" y1="281.63" x2="608.27" y2="325.32"/><line class="cls-5" x1="678.89" y1="359.97" x2="717.49" y2="428.54"/><line class="cls-5" x1="347.92" y1="418.71" x2="386.52" y2="487.28"/><line class="cls-5" x1="534.87" y1="319.71" x2="573.47" y2="388.27"/><line class="cls-5" x1="575.14" y1="175.69" x2="613.74" y2="244.25"/><line class="cls-5" x1="430.65" y1="353.3" x2="386.95" y2="275.68"/><line class="cls-5" x1="531.96" y1="539.03" x2="488.27" y2="461.41"/><line class="cls-5" x1="352.3" y1="346.3" x2="283.74" y2="384.9"/><line class="cls-5" x1="647.82" y1="433.08" x2="579.26" y2="471.68"/><line class="cls-5" x1="496.4" y1="390.74" x2="427.84" y2="429.34"/><line class="cls-5" x1="536.58" y1="242.55" x2="468.02" y2="281.15"/></g><polygon class="cls-6" points="337.61 405.53 287.63 602.72 605.98 613.45 616.6 571.58 337.61 405.53"/><polygon class="cls-7" points="901.12 935.88 771.65 916.01 789.11 869.24 841.22 881.33 901.12 935.88"/><polygon class="cls-7" points="1032.42 898.14 902.96 878.28 920.42 831.51 972.52 843.6 1032.42 898.14"/><path class="cls-8" d="M949.3,582l113.12-29.06L1205.6,727.35a103.8,103.8,0,0,1,22.45,77.58l-25.38,208.52-92.78-1,27.88-217.9-137.22-96c-25.14-22-41.8-52.94-46.87-87Z" transform="translate(-205.62 -165.92)"/><path class="cls-7" d="M955,382.66c38.38-18.55,101.33-20,129-13.46s55.79,117.1,55.79,117.1l63.37,90-62.07,39.88-74.19-106.41,29.46-26.31s-26.92,41.65-33.83,71.94H934.59s8.12-60,10.39-94.32" transform="translate(-205.62 -165.92)"/><circle class="cls-6" cx="1004.19" cy="466.23" r="120.79"/><path class="cls-6" d="M1330.6,632.15c0,205.28-166.41,371.7-371.69,371.7s-371.7-166.42-371.7-371.7" transform="translate(-205.62 -165.92)"/><polyline class="cls-9" points="880 252.54 898.76 298.84 878.89 349.58"/><path class="cls-8" d="M935.13,555.17h116.43l100,205.22a105,105,0,0,1,4.41,81l-73.92,207.17H977.46l66.45-246.68L958.83,681.14a147.23,147.23,0,0,1-26.05-96.23Z" transform="translate(-205.62 -165.92)"/><path class="cls-8" d="M1125.93,579.6h8.42a41.19,41.19,0,0,1,10.21,1.07c6.24,1.33,8.53,5.86,19,6.37,11.83.59,3.33,10.88-2.37,12-4.45.84-9.81-1.37-13.4,1.39,1,2.6,1.19,8.31,14.5,19.55,7.62,6.43,21,8.2,18,24.12-4.17,12.17-23.14,12.89-28.36,10.75-15.25-6.25-27.31-19-33.6-29.35a110.59,110.59,0,0,1-7.37-15.54" transform="translate(-205.62 -165.92)"/><path class="cls-7" d="M1100.9,527.44l56.1,42.41-54.93,58.67L974,541.05S930,435,960.49,405.2" transform="translate(-205.62 -165.92)"/><ellipse class="cls-7" cx="892.61" cy="93.27" rx="37.63" ry="48.06"/><path class="cls-8" d="M1041.43,392.37a25.71,25.71,0,0,0,24.73-18.72l23.89-84.3a25.72,25.72,0,1,0-49.48-14l-23.89,84.31a25.74,25.74,0,0,0,24.75,32.74Z" transform="translate(-205.62 -165.92)"/><path class="cls-8" d="M1064.93,354.93l4.49,1.25A36.89,36.89,0,0,0,1116,323.73l2.27-26.76A36.89,36.89,0,0,0,1091,258.21h0a36.89,36.89,0,0,0-45.1,26.21l-6.76,25.52A36.89,36.89,0,0,0,1064.93,354.93Z" transform="translate(-205.62 -165.92)"/><polyline class="cls-10" points="894.62 134.13 900.98 157.7 891.68 157.87"/><circle class="cls-7" cx="883.4" cy="138.78" r="4.51"/><circle class="cls-7" cx="905.09" cy="138.78" r="4.51"/><path class="cls-10" d="M1087.73,332.72s-5.54-.31-7.82-5.12" transform="translate(-205.62 -165.92)"/><path class="cls-7" d="M879.25,328.8c-5,58.42,44.42,39.43,44.42,39.43S892.1,432.35,962.75,427s89.93-55.54,87.2-84.24c-1.09-11.44-7-20.3-13.77-28.85,38.72-5.95,38.13-32.51,38.13-32.51s62.08,24.12,61.58-23.45-49.47-62.82-78.41-62.32a60.48,60.48,0,0,0-17.92,3.11c-18.63,6.06-33.06,15.94-57.78,16.33-68.3,1.08-74.86,65.58-74.86,65.58S882.61,289.26,879.25,328.8Z" transform="translate(-205.62 -165.92)"/><rect class="cls-8" x="1030.22" y="275.88" width="33.23" height="48.33" rx="16.61" transform="translate(1922.39 3.88) rotate(157.14)"/><line class="cls-10" x1="835.6" y1="122.3" x2="843.94" y2="142.04"/><path class="cls-3" d="M1433.19,625.59,1328.5,653.47l-16,4.25h0a32.1,32.1,0,0,1-32.12-32.13Z" transform="translate(-205.62 -165.92)"/><circle class="cls-3" cx="1020.13" cy="414.15" r="13.39"/><rect class="cls-8" x="1294.68" y="609.49" width="163.85" height="105.16" transform="translate(-319.38 831.09) rotate(-38.35)"/><polyline class="cls-9" points="1088.95 509.49 1174.75 500.91 1202.92 419.32"/><line class="cls-11" x1="1153.69" y1="514.91" x2="1141.31" y2="568"/><line class="cls-11" x1="1193.82" y1="483.16" x2="1248.33" y2="483.32"/><path class="cls-3" d="M1433.19,625.59h-152.8a32.09,32.09,0,0,1,32.12-32.13h0l16,4.26h0Z" transform="translate(-205.62 -165.92)"/><path class="cls-3" d="M490,533H822.79a150.4,150.4,0,0,1,150.4,150.4v0a150.4,150.4,0,0,1-150.4,150.4H698.47A254.62,254.62,0,0,1,443.84,579.15v0A46.18,46.18,0,0,1,490,533Z" transform="translate(266.28 -438.06) rotate(32.13)"/><polyline class="cls-9" points="919.67 379.95 839.77 320.44 820.72 265.45"/><path class="cls-9" d="M994.49,555.06S974.16,543.2,968.9,527.7s-26-83.39-26-83.39" transform="translate(-205.62 -165.92)"/><polyline class="cls-9" points="849.44 615.48 838.29 635.94 849.44 650.11"/><g class="cls-12"><line class="cls-5" x1="790.21" y1="449.31" x2="727.23" y2="512.29"/><line class="cls-5" x1="804.57" y1="526.64" x2="860.2" y2="582.28"/><line class="cls-5" x1="501.64" y1="672.34" x2="557.28" y2="727.97"/><line class="cls-5" x1="655.03" y1="526.64" x2="710.66" y2="582.28"/><line class="cls-5" x1="655.03" y1="377.11" x2="710.66" y2="432.74"/><line class="cls-5" x1="563.69" y1="587.06" x2="500.71" y2="524.08"/><line class="cls-5" x1="711.28" y1="738.65" x2="648.3" y2="675.66"/><line class="cls-5" x1="486.36" y1="601.41" x2="430.72" y2="657.05"/><line class="cls-5" x1="794.33" y1="605.41" x2="738.7" y2="661.05"/><line class="cls-5" x1="637.1" y1="605.41" x2="581.47" y2="661.05"/><line class="cls-5" x1="635.89" y1="451.88" x2="580.26" y2="507.51"/><line class="cls-5" x1="490.99" y1="296.35" x2="428.01" y2="359.34"/><line class="cls-5" x1="505.35" y1="373.69" x2="560.98" y2="429.33"/><line class="cls-5" x1="202.42" y1="519.38" x2="258.06" y2="575.02"/><line class="cls-5" x1="355.81" y1="373.69" x2="411.44" y2="429.33"/><line class="cls-5" x1="355.81" y1="224.15" x2="411.44" y2="279.79"/><line class="cls-5" x1="264.47" y1="434.11" x2="201.49" y2="371.12"/><line class="cls-5" x1="412.06" y1="585.69" x2="349.08" y2="522.71"/><line class="cls-5" x1="187.14" y1="448.46" x2="131.5" y2="504.1"/><line class="cls-5" x1="495.11" y1="452.46" x2="439.48" y2="508.1"/><line class="cls-5" x1="337.88" y1="452.46" x2="282.25" y2="508.1"/><line class="cls-5" x1="336.67" y1="298.92" x2="281.04" y2="354.56"/></g><path class="cls-9" d="M678.58,486.26,887.85,617.92s23.49,16.6,34.3,33.47" transform="translate(-205.62 -165.92)"/></g></svg>