<svg xmlns="http://www.w3.org/2000/svg" xmlns:xlink="http://www.w3.org/1999/xlink" viewBox="0 0 1732.24 1150.71"><defs><style>.cls-1,.cls-12,.cls-2,.cls-3,.cls-8{fill:none;}.cls-2{stroke:#f2f6f9;}.cls-2,.cls-3{stroke-linecap:round;stroke-linejoin:round;stroke-width:33px;}.cls-3{stroke:#edf1f4;}.cls-4{fill:#f2f6f9;}.cls-5{fill:#e4eff7;}.cls-6{fill:#ef6e45;}.cls-7{fill:#24272d;}.cls-8{stroke:#fff;stroke-linecap:square;stroke-width:3px;}.cls-12,.cls-8{stroke-miterlimit:10;}.cls-9{fill:#004599;}.cls-10{fill:#cfd0d1;}.cls-11{fill:#e1e2e5;}.cls-12{stroke:#889099;stroke-width:4px;}.cls-13{fill:#54565b;}.cls-14{fill:#8a8b96;}.cls-15{clip-path:url(#clip-path);}.cls-16{fill:#3361c2;}.cls-17{fill:#fff;}</style><clipPath id="clip-path" transform="translate(-143.14 -93.33)"><path class="cls-1" d="M903.13,462.26,800.69,493.74l-5,16.75-27.62-1.11L766.22,490,633,502.92l-45.85,88.93,50.87,121.29-61.62,45.08s-102.89-109.1-93.55-176.08c3.24-23.3,10.76-45.8,18.27-63.87a335.39,335.39,0,0,1,18.14-37.14l.15-.26c.53-.86,1.07-1.72,1.61-2.58,30.25-47.73,81-82.58,170.52-91.84,100.51-10.39,132.51-13.53,132.51-13.53l-58.54-96.55L825.62,237,932.27,362.36C961.28,396.46,945.92,449.11,903.13,462.26Z"/></clipPath></defs><title>16</title><g id="Back"><polyline class="cls-2" points="1715.73 380.95 1581.2 515.03 1470.91 405.12 1352.59 523.04"/><line class="cls-2" x1="1462.22" y1="689.01" x2="1695.88" y2="921.87"/><line class="cls-2" x1="1275.14" y1="1021.23" x2="1398.34" y2="898.45"/><line class="cls-3" x1="16.5" y1="806.49" x2="139.7" y2="683.71"/><line class="cls-2" x1="318.63" y1="260.36" x2="498.58" y2="81.02"/><polyline class="cls-2" points="1151.3 745.1 1004.01 745.1 1004.01 624.76 874.47 624.76 874.47 492.1"/><polyline class="cls-2" points="231.63 533.63 366.16 667.71 255.88 777.62 374.2 895.54"/><line class="cls-2" x1="673.39" y1="532.23" x2="907.05" y2="299.37"/><line class="cls-3" x1="772.21" y1="1037.18" x2="957.23" y2="852.16"/><line class="cls-2" x1="782.19" y1="800.66" x2="658.99" y2="677.87"/><line class="cls-3" x1="1576.09" y1="194.16" x2="1462.22" y2="80.67"/><line class="cls-2" x1="181.7" y1="202.21" x2="67.82" y2="88.72"/><line class="cls-2" x1="1148.3" y1="268.33" x2="895.61" y2="16.5"/><ellipse class="cls-4" cx="246.34" cy="491.69" rx="43.24" ry="43.38" transform="translate(-398.04 624.65) rotate(-87.69)"/><ellipse class="cls-4" cx="1336.74" cy="196.35" rx="43.38" ry="43.24"/><ellipse class="cls-4" cx="155.64" cy="1002.98" rx="43.38" ry="43.24"/><ellipse class="cls-4" cx="1127.89" cy="944.67" rx="43.38" ry="43.24"/></g><g id="Man"><ellipse class="cls-4" cx="565.24" cy="309.77" rx="43.38" ry="43.24"/><ellipse class="cls-5" cx="880.06" cy="1144.48" rx="582.16" ry="6.23"/><path class="cls-6" d="M790.8,275.57l-15.6-14.09s-39.39,11.41-42-7.09c0,0-6.27,1.62-7.82-1.87S736,235.14,736,235.14s1.42-15,13.51-21.12,42.16-14.76,45.54-11.16,15.25,44.84,15.25,44.84S812.79,265.48,790.8,275.57Z" transform="translate(-143.14 -93.33)"/><path class="cls-7" d="M657.22,1191.85l44.4-365.39,21,96-16.17,269.39h122l17.17-296a199.52,199.52,0,0,0-5.72-60.36l-64.55-256-205.11-1.64L569.46,880l-31.2,311.85Z" transform="translate(-143.14 -93.33)"/><line class="cls-8" x1="559.08" y1="741.07" x2="572.85" y2="596.81"/><polygon class="cls-9" points="570.13 1098.52 547.08 1144.48 754.42 1144.48 668.05 1098.52 570.13 1098.52"/><polygon class="cls-9" points="402.14 1098.52 379.09 1144.48 586.43 1144.48 500.06 1098.52 402.14 1098.52"/><path class="cls-9" d="M824.08,372.92s-32,3.15-132.51,13.54c-119.05,12.3-169.49,69.85-194.42,142.77-7.81,22.88-.26,48,23.92,48.16l109,.87,145.23,1.23,25.43-85.75,102.44-31.47c42.79-13.15,58.15-65.81,29.14-99.91L825.62,237l-60.08,39.35Z" transform="translate(-143.14 -93.33)"/><path class="cls-8" d="M671.15,584.54" transform="translate(-143.14 -93.33)"/><path class="cls-8" d="M663.94,635.18" transform="translate(-143.14 -93.33)"/><path class="cls-8" d="M690.85,578.67" transform="translate(-143.14 -93.33)"/><path class="cls-8" d="M683.63,629.31" transform="translate(-143.14 -93.33)"/><path class="cls-8" d="M701.27,574.12" transform="translate(-143.14 -93.33)"/><path class="cls-8" d="M694.05,624.76" transform="translate(-143.14 -93.33)"/><polyline class="cls-8" points="588.7 805.44 576.43 823.13 589.93 837.6"/><rect class="cls-10" x="428.66" y="506.34" width="350.13" height="242.87" transform="translate(-201.05 -31.97) rotate(-5.55)"/><path class="cls-6" d="M583.32,750.17s83,58.19,97.7-32.53c13-80.56-82.31,21-82.31,21" transform="translate(-143.14 -93.33)"/><rect class="cls-11" x="468.02" y="504.23" width="340.63" height="236.29" transform="translate(-117.49 -118.6) rotate(2.31)"/><path class="cls-6" d="M617,715.28a186.07,186.07,0,0,1,18.74,6.81c9.56,4.13,18.27,11.17,38.87,12.14,19.75.92,7.05,16.68-6.93,14-9.39-1.8-27.84-7.31-31.27.78l-55.89-14.25" transform="translate(-143.14 -93.33)"/><line class="cls-12" x1="458.58" y1="522.67" x2="341.24" y2="618.67"/><polyline class="cls-12" points="343.7 418.47 496.73 531.43 657.14 433.24"/><path class="cls-9" d="M482.88,582.14c-9.34,67,93.54,176.08,93.54,176.08l61.63-45.08L587.18,591.85l64.51-125.14L521,478.3S490.41,528.12,482.88,582.14Z" transform="translate(-143.14 -93.33)"/><line class="cls-12" x1="541.68" y1="522.67" x2="643.6" y2="634.23"/><path class="cls-7" d="M1326.22,587.62V707.45h84.6V587.62a42.31,42.31,0,0,0-42.17-42.3h-.13l-2.06.06a42.28,42.28,0,0,0-40.19,40.19C1326.23,586.24,1326.22,586.93,1326.22,587.62Z" transform="translate(-143.14 -93.33)"/><rect class="cls-7" x="1442.23" y="707.46" width="18.77" height="530.35" transform="translate(2760.08 1851.93) rotate(-180)"/><rect class="cls-13" x="1461" y="707.46" width="18.77" height="530.35" transform="translate(2797.62 1851.93) rotate(-180)"/><path class="cls-14" d="M1326.22,707.46h84.6L1382.3,744.7a61,61,0,0,1-48.44,23.91h-24.15a15,15,0,0,1-11.89-24.08Z" transform="translate(-143.14 -93.33)"/><polygon class="cls-7" points="1336.63 614.13 1336.63 642.76 1317.85 675.28 1317.85 614.13 1336.63 614.13"/><path class="cls-9" d="M519.29,481.13a335.39,335.39,0,0,0-18.14,37.14A230.53,230.53,0,0,1,519.29,481.13Z" transform="translate(-143.14 -93.33)"/><g class="cls-15"><circle class="cls-16" cx="364.18" cy="404.32" r="30.94"/><circle class="cls-16" cx="497.66" cy="404.32" r="30.94"/><circle class="cls-16" cx="632.14" cy="404.32" r="30.94"/><circle class="cls-16" cx="365.41" cy="575.09" r="30.94"/><circle class="cls-16" cx="498.89" cy="575.09" r="30.94"/><circle class="cls-16" cx="432.79" cy="328.06" r="30.94"/><circle class="cls-16" cx="566.28" cy="328.06" r="30.94"/><circle class="cls-16" cx="699.76" cy="328.06" r="30.94"/><circle class="cls-16" cx="632.14" cy="246.4" r="30.94"/><circle class="cls-16" cx="766.38" cy="246.4" r="30.94"/><circle class="cls-16" cx="699.76" cy="173.15" r="30.94"/><circle class="cls-16" cx="432.79" cy="488.55" r="30.94"/></g><path class="cls-9" d="M521.05,478.29c-.54.86-1.08,1.72-1.61,2.58,1-1.68,1.51-2.57,1.51-2.57Z" transform="translate(-143.14 -93.33)"/><path class="cls-6" d="M703,425.47H702a32.49,32.49,0,0,1-31.59-33.38l3.12-114.28a32.5,32.5,0,0,1,65,1.78l-3.13,114.28A32.49,32.49,0,0,1,703,425.47Z" transform="translate(-143.14 -93.33)"/><path class="cls-6" d="M724.07,361.41l6.08.13a48.12,48.12,0,0,0,48.49-56L772.91,271a48.12,48.12,0,0,0-47-40.24h0a48.12,48.12,0,0,0-48.61,47.63L677,312.81A48.13,48.13,0,0,0,724.07,361.41Z" transform="translate(-143.14 -93.33)"/><rect class="cls-6" x="661.51" y="286.08" width="35.39" height="45.43" rx="17.7" transform="translate(1264.85 55.63) rotate(143.18)"/><line class="cls-8" x1="525.69" y1="210.86" x2="537.86" y2="223.59"/><polyline class="cls-8" points="610.52 193.66 614.06 221.53 604.15 222.84"/><path class="cls-7" d="M695.43,314.78l8.84-51.7,2.09-12.27a40.12,40.12,0,0,0,11.11,7c14.75,6.28,56.89-.61,60-30.88,2.58-24.69-21.9-8.4-35.23-8.71-20.93-.5-36.44-11.38-63.39,6.54-32.27,21.46-12.08,65-12.08,65S681.23,282.62,695.43,314.78Z" transform="translate(-143.14 -93.33)"/><polygon class="cls-7" points="592.98 268.22 574.85 268.23 592.73 282.74 592.98 268.22"/><circle class="cls-17" cx="597.01" cy="204.08" r="4.95"/><circle class="cls-17" cx="626.19" cy="204.08" r="4.95"/><path class="cls-17" d="M726.93,322.06c.44,0,14.54-1,16.76,9.94" transform="translate(-143.14 -93.33)"/><path class="cls-6" d="M1368.65,545.32a42.31,42.31,0,0,1,42.17,42.3V707.45h167.75V587.75a42.44,42.44,0,0,0-42.44-42.43Z" transform="translate(-143.14 -93.33)"/><path class="cls-7" d="M1440.31,503.7V639.14h16.56V511.47h21V495.4l-23.75-3.57A12,12,0,0,0,1440.31,503.7Z" transform="translate(-143.14 -93.33)"/></g></svg>