<svg xmlns="http://www.w3.org/2000/svg" viewBox="0 0 1599.8 1044.91"><defs><style>.cls-1{fill:#e9eef2;}.cls-10,.cls-11,.cls-2,.cls-6{fill:none;stroke-miterlimit:10;}.cls-2{stroke:#f2f6f9;stroke-width:21px;}.cls-3{fill:#f2f6f9;}.cls-4{fill:#72a065;}.cls-5{fill:#e4eff7;}.cls-6{stroke:#475056;stroke-width:5px;}.cls-7{fill:#24272d;}.cls-8{fill:#fff;}.cls-9{fill:#3361c2;}.cls-10,.cls-11{stroke:#fff;stroke-width:3px;}.cls-10{stroke-linecap:square;}.cls-12{fill:#ea6f57;}.cls-13{fill:#ffba5f;}.cls-14{fill:#f79d52;}.cls-15{fill:#e25d4b;}</style></defs><title>17</title><g id="Back"><circle class="cls-1" cx="756.03" cy="917.89" r="45.74"/><line class="cls-2" x1="298.26" y1="735.55" x2="375.37" y2="812.66"/><path class="cls-3" d="M352.82,911.11q.36,14.43-10.92,29.86l13.56,13.56-14.18,14.18-13.07-13.07a101.75,101.75,0,0,1-19.9,13.66,67.27,67.27,0,0,1-19.28,7l-10.16-25.52a69.15,69.15,0,0,0,19-6.77,67.38,67.38,0,0,0,16.74-12.1q13.47-13.47,6.51-20.43-3.67-3.67-9.28-1.6t-16.08,8.62a161.07,161.07,0,0,1-20.06,11.14,37.06,37.06,0,0,1-18.39,3.12q-9.74-.75-18.66-9.68A35.19,35.19,0,0,1,228,897.68q-.19-14.83,11.93-30.38l-13.44-13.44,14.18-14.18,13.19,13.2a95.25,95.25,0,0,1,15.39-10.5A66.37,66.37,0,0,1,285,836.1l10.75,25.16q-18.4,5.24-29.52,16.33-7,7-8,12.31t2.37,8.75q3.42,3.42,8.92,1.35t15.71-8.63a155.79,155.79,0,0,1,20.12-11.2A38.16,38.16,0,0,1,323.66,877q9.73.64,18.66,9.56A34.76,34.76,0,0,1,352.82,911.11Z" transform="translate(-226.44 -132.07)"/><path class="cls-3" d="M560.86,682.4q-20.28,10.67-50.18,5.45l-9.77,28.85-30.16-10.22,9.42-27.8A161.58,161.58,0,0,1,446.72,660q-15-11-23.46-22.57L452.45,605a109.59,109.59,0,0,0,23,22.27,106.68,106.68,0,0,0,29,15.33q28.66,9.7,33.67-5.11,2.64-7.8-4.25-14.33t-23.58-16.82a259.29,259.29,0,0,1-30-20.72,58.94,58.94,0,0,1-17.37-24q-5.78-14.42.66-33.38a55.85,55.85,0,0,1,28.56-33.05q21-10.71,51.64-4.38l9.68-28.59,30.16,10.22-9.5,28.06A150.32,150.32,0,0,1,599.9,515,105.11,105.11,0,0,1,620,533.11l-28.27,33q-20.38-22.54-44-30.54-14.84-5-23.16-2.78t-10.79,9.53q-2.46,7.27,4.35,13.64t23.34,16.3Q560,583.5,571.52,593a60.72,60.72,0,0,1,17.42,23.85q5.92,14.32-.49,33.29A55.16,55.16,0,0,1,560.86,682.4Z" transform="translate(-226.44 -132.07)"/><path class="cls-3" d="M384.22,361.87q-12.93,13.61-37.49,17.41v24.94H320.66v-24a132.07,132.07,0,0,1-30.86-5.73q-14.57-4.59-24.13-11.34l14.13-32.8a89.86,89.86,0,0,0,23.69,11.23A87.32,87.32,0,0,0,330,345.81q24.78,0,24.78-12.81,0-6.74-7.07-10T325,316.15a210.2,210.2,0,0,1-28.68-8.2,48.17,48.17,0,0,1-19.78-14q-8.27-9.66-8.26-26.06a45.79,45.79,0,0,1,13.47-33.14q13.49-13.82,38.91-17V193h26.07V217.3a122.77,122.77,0,0,1,23.8,4.49,86.54,86.54,0,0,1,20.32,8.76l-13.25,33q-21.74-12.13-42.16-12.13-12.82,0-18.7,3.93t-5.86,10.22q0,6.3,6.95,9.44t22.39,6.51a205.43,205.43,0,0,1,28.79,8.2,49.74,49.74,0,0,1,19.78,13.93q8.35,9.56,8.36,25.95A45.18,45.18,0,0,1,384.22,361.87Z" transform="translate(-226.44 -132.07)"/><path class="cls-3" d="M1294.4,820.24q-16.05,16.88-46.53,21.61v31h-32.38V843a164,164,0,0,1-38.3-7.11q-18.07-5.72-30-14.09l17.54-40.72a111.43,111.43,0,0,0,29.4,14,108.65,108.65,0,0,0,32.91,5.3q30.77,0,30.76-15.9,0-8.37-8.77-12.41t-28.19-8.51a261.31,261.31,0,0,1-35.61-10.18,59.74,59.74,0,0,1-24.55-17.43q-10.26-12-10.25-32.35a56.84,56.84,0,0,1,16.72-41.14q16.74-17.14,48.29-21V610.65h32.38v30.12a152.65,152.65,0,0,1,29.54,5.58,107.17,107.17,0,0,1,25.22,10.87l-16.45,41q-27-15.06-52.34-15.06-15.91,0-23.2,4.88t-7.29,12.69q0,7.82,8.64,11.72t27.78,8.08q21.59,4.76,35.75,10.18A61.8,61.8,0,0,1,1300.07,748q10.38,11.87,10.38,32.22A56.1,56.1,0,0,1,1294.4,820.24Z" transform="translate(-226.44 -132.07)"/><path class="cls-3" d="M1634.51,906.6q-20.65,21.72-59.89,27.81v39.84H1533v-38.4a210.88,210.88,0,0,1-49.3-9.16q-23.27-7.35-38.54-18.12l22.57-52.4a143.42,143.42,0,0,0,37.84,17.94,139.63,139.63,0,0,0,42.36,6.82q39.57,0,39.58-20.46,0-10.77-11.29-16t-36.28-11q-27.42-6.09-45.83-13.1A77,77,0,0,1,1462.48,798q-13.2-15.42-13.19-41.63,0-30.87,21.52-52.94t62.15-27.1V636.86h41.66v38.77a196.8,196.8,0,0,1,38,7.18,137.58,137.58,0,0,1,32.46,14l-21.18,52.76q-34.73-19.38-67.35-19.39-20.49,0-29.86,6.29t-9.38,16.33q0,10.05,11.12,15.07t35.76,10.41q27.76,6.11,46,13.1a79.51,79.51,0,0,1,31.59,22.25q13.37,15.27,13.37,41.46Q1655.17,884.88,1634.51,906.6Z" transform="translate(-226.44 -132.07)"/><path class="cls-3" d="M1647,407.84q-23.93.6-49.51-18.1L1575,412.23l-23.52-23.52L1573.15,367a169.1,169.1,0,0,1-22.66-33q-9-17.27-11.52-32l42.31-16.84a114.4,114.4,0,0,0,11.23,31.49,111.64,111.64,0,0,0,20.06,27.76q22.34,22.33,33.89,10.79,6.07-6.08,2.64-15.38t-14.3-26.66A270,270,0,0,1,1616.33,280a61.59,61.59,0,0,1-5.17-30.49q1.26-16.17,16.06-30.95a58.35,58.35,0,0,1,42-17.73q24.62-.31,50.38,19.78l22.28-22.29,23.52,23.52-21.88,21.88a156.86,156.86,0,0,1,17.4,25.51,109.37,109.37,0,0,1,10.42,26.22l-41.73,17.83q-8.66-30.54-27.08-49Q1691,252.72,1682.16,251t-14.51,3.93q-5.67,5.67-2.24,14.78t14.31,26.06q12.22,19.13,18.57,33.36a63.42,63.42,0,0,1,5.27,30.39q-1.07,16.15-15.85,30.94A57.6,57.6,0,0,1,1647,407.84Z" transform="translate(-226.44 -132.07)"/><path class="cls-3" d="M978.9,896.52Q969,907,950.07,909.91v19.18H930V910.6a101.43,101.43,0,0,1-23.73-4.4,67.27,67.27,0,0,1-18.55-8.73l10.86-25.22a69.35,69.35,0,0,0,18.22,8.64,67.25,67.25,0,0,0,20.39,3.28q19,0,19-9.85,0-5.19-5.43-7.69t-17.46-5.27a161.55,161.55,0,0,1-22.06-6.31,37,37,0,0,1-15.21-10.79q-6.36-7.43-6.35-20a35.19,35.19,0,0,1,10.36-25.48Q910.46,788.1,930,785.68v-19h20.06v18.66a95.52,95.52,0,0,1,18.3,3.45A66.68,66.68,0,0,1,984,795.53l-10.2,25.4q-16.71-9.33-32.42-9.33c-6.57,0-11.37,1-14.37,3s-4.52,4.64-4.52,7.87,1.79,5.64,5.35,7.25,9.3,3.29,17.22,5a156.91,156.91,0,0,1,22.14,6.31,38.31,38.31,0,0,1,15.21,10.71q6.44,7.35,6.43,20A34.74,34.74,0,0,1,978.9,896.52Z" transform="translate(-226.44 -132.07)"/><path class="cls-3" d="M1155.39,388.9q.54,22.05-16.69,45.63l20.73,20.73-21.68,21.68-20-20a155.53,155.53,0,0,1-30.41,20.88q-15.93,8.28-29.48,10.62l-15.53-39a105.54,105.54,0,0,0,29-10.36A102.55,102.55,0,0,0,1097,420.62q20.6-20.6,10-31.24-5.6-5.61-14.18-2.44t-24.57,13.18a248.68,248.68,0,0,1-30.66,17,56.65,56.65,0,0,1-28.11,4.76q-14.89-1.16-28.52-14.79a53.81,53.81,0,0,1-16.35-38.75q-.28-22.68,18.23-46.43L962.21,301.4l21.68-21.68,20.17,20.17a144.48,144.48,0,0,1,23.51-16,101.21,101.21,0,0,1,24.18-9.61l16.43,38.47q-28.15,8-45.13,25-10.66,10.65-12.27,18.8t3.62,13.37q5.24,5.24,13.63,2.07t24-13.19a240.58,240.58,0,0,1,30.75-17.12,58.52,58.52,0,0,1,28-4.86q14.89,1,28.53,14.61A53.18,53.18,0,0,1,1155.39,388.9Z" transform="translate(-226.44 -132.07)"/><line class="cls-2" x1="1284.85" y1="333.39" x2="1206.57" y2="411.67"/><line class="cls-2" x1="1592.37" y1="688.41" x2="1514.1" y2="766.69"/><line class="cls-2" x1="707.6" y1="46.91" x2="629.33" y2="125.18"/><line class="cls-2" x1="280.77" y1="155.15" x2="369.1" y2="243.48"/><line class="cls-2" x1="1222.86" y1="123.73" x2="1147.5" y2="48.36"/><line class="cls-2" x1="1007.18" y1="827.65" x2="1084.48" y2="904.95"/><circle class="cls-1" cx="45.74" cy="501.76" r="45.74"/><circle class="cls-1" cx="438.24" cy="45.74" r="45.74"/><circle class="cls-1" cx="1113.32" cy="209.06" r="45.74"/><circle class="cls-1" cx="1526.16" cy="456.01" r="45.74"/></g><g id="Man"><polygon class="cls-4" points="951.64 656.25 1030.62 656.25 971.83 471.12 892.85 471.12 951.64 656.25"/><rect class="cls-4" x="1123.8" y="776.22" width="101.74" height="12.1" transform="translate(2122.91 1432.46) rotate(-180)"/><ellipse class="cls-5" cx="767.26" cy="1037.08" rx="595.15" ry="7.83"/><line class="cls-6" x1="711.23" y1="658.16" x2="626.9" y2="1037.08"/><line class="cls-6" x1="802.58" y1="658.16" x2="718.24" y2="1037.08"/><line class="cls-6" x1="1234.4" y1="657.78" x2="1318.82" y2="1037.08"/><line class="cls-6" x1="1142.97" y1="657.78" x2="1227.39" y2="1037.08"/><line class="cls-6" x1="634.56" y1="657.92" x2="1292.21" y2="657.92"/><polygon class="cls-7" points="916.26 573.17 883.85 573.17 883.85 471.12 916.26 573.17"/><path class="cls-8" d="M1174.72,705.24a25.32,25.32,0,0,0,.9,2.57c4.51,10.92,15.47,16.74,24.49,13,6-2.49,9.63-8.57,10.06-15.59a24.77,24.77,0,0,0-1.89-10.92c-4.51-10.92-15.48-16.74-24.5-13C1175.47,684.74,1171.71,695.09,1174.72,705.24Z" transform="translate(-226.44 -132.07)"/><path class="cls-7" d="M1165.72,705.24h35.45a24.77,24.77,0,0,0-1.89-10.92c-4.51-10.92-15.48-16.74-24.5-13C1166.47,684.74,1162.71,695.09,1165.72,705.24Z" transform="translate(-226.44 -132.07)"/><path class="cls-7" d="M1359.75,490.16V693.24a12,12,0,0,1-12,12h-8a12,12,0,0,0,12-12V490.16a12,12,0,0,0-12-12h8A12,12,0,0,1,1359.75,490.16Z" transform="translate(-226.44 -132.07)"/><rect class="cls-4" x="735.78" y="346.1" width="389.54" height="227.08" rx="12"/><rect class="cls-8" x="763.24" y="357.81" width="348.04" height="199.97"/><polygon class="cls-9" points="223 953.83 170.72 1006.96 219.3 1036.09 369.1 1036.09 289.35 993.65 223 953.83"/><polygon class="cls-9" points="517.79 969.39 484.34 1036.09 675.8 1036.09 596.05 993.65 517.79 969.39"/><path class="cls-7" d="M537.19,1137.54,717.11,957.72A108,108,0,0,0,747.44,898l15.38-98.69,67.34,98.17L724.52,1100l114.74,34,108.56-174.9a95.66,95.66,0,0,0-3.22-105.77l-105-151.56L669,659.5l-13.29,20.85a145.45,145.45,0,0,0-22.52,69.21L625.59,872,421.87,1081.64Z" transform="translate(-226.44 -132.07)"/><path class="cls-9" d="M750.84,750.46s-12.31,2.32-31.2,6.67c0,0-7.23,13.69-10.66,14-10.77.82-42.07-10.74-25.88-43.3s67.74-28.18,67.74-28.18" transform="translate(-226.44 -132.07)"/><polyline class="cls-10" points="404.31 762.24 395.64 738.85 416.95 735.55"/><polyline class="cls-10" points="619.24 782.4 599.37 764.6 626.9 750.84"/><line class="cls-10" x1="539.41" y1="638.64" x2="533.03" y2="708.34"/><path class="cls-4" d="M790.39,475.08C726.68,461.06,669,659.5,669,659.5l170.6,42.3S878.92,494.56,790.39,475.08Z" transform="translate(-226.44 -132.07)"/><path class="cls-4" d="M785.59,474.43s-37.21-3.27-54.9,6.78c-10.06,5.72-50.6,49.31-83.73,85.89-20,22.08-8,58,21,63L839.23,659.5l5.45-61.24-102.2-25.89L763,540.87" transform="translate(-226.44 -132.07)"/><path class="cls-4" d="M800.21,478.21s67.71,19.64,78.79,37.48,3.21,143.81,3.21,143.81L754.69,761,705.46,701.8,814.1,612.92" transform="translate(-226.44 -132.07)"/><ellipse class="cls-7" cx="835.97" cy="398.73" rx="56.38" ry="61.14" transform="translate(-278.84 4.7) rotate(-9.07)"/><path class="cls-9" d="M809,525.16a23.23,23.23,0,0,0,20.16-19.41l12.4-78.1a23.21,23.21,0,0,0-45.84-7.28l-12.4,78.1A23.23,23.23,0,0,0,809,525.16Z" transform="translate(-226.44 -132.07)"/><path class="cls-9" d="M825.05,486.71l4.75.73a38,38,0,0,0,43.66-38.83l-1-27.62a38,38,0,0,0-32.63-36.29h0A38,38,0,0,0,797,417l-3.79,26.89A38,38,0,0,0,825.05,486.71Z" transform="translate(-226.44 -132.07)"/><polyline class="cls-11" points="626.01 294.26 635.38 317.57 625.9 318.88"/><circle class="cls-8" cx="617.42" cy="303.37" r="4.11"/><circle class="cls-8" cx="638.45" cy="303.37" r="4.11"/><path class="cls-11" d="M837,457s10.65-.67,16.12,8" transform="translate(-226.44 -132.07)"/><path class="cls-7" d="M692.86,485.49s-6.47,50.75,36.1,50.24c70.47-.85,81.78-47.15,76.9-73.89-2-10.65-8.53-18.55-15.86-26.1,38-8.33,35.41-33.21,35.41-33.21S896.08,436,892,391.41s-45.86-62.26-74.56-59.8c-66.71,5.73-68.68,48.22-86.57,54.34C629.38,420.67,692.86,485.49,692.86,485.49Z" transform="translate(-226.44 -132.07)"/><rect class="cls-9" x="782.78" y="407.97" width="34.2" height="49.74" rx="17.1" transform="translate(1482.71 281.05) rotate(150.34)"/><line class="cls-11" x1="566.26" y1="289.36" x2="577.18" y2="308.52"/><circle class="cls-12" cx="785.95" cy="453.74" r="173.58"/><circle class="cls-13" cx="816.95" cy="453.74" r="173.58"/><circle class="cls-14" cx="816.95" cy="453.74" r="130.61"/><path class="cls-9" d="M821.25,618,848,608s31.19,22.09,39,7c0,0,5,3.34,7.42.84s-4.14-18.21-4.14-18.21,3.21-13.29-5.58-22.32S852,549.5,848,551.52s-26.73,26.53-26.73,26.53Z" transform="translate(-226.44 -132.07)"/><line class="cls-11" x1="454.53" y1="500.76" x2="589.18" y2="503.73"/><line class="cls-11" x1="582" y1="434.46" x2="488.26" y2="430.46"/><line class="cls-11" x1="525.79" y1="410.19" x2="503.95" y2="430.93"/><line class="cls-11" x1="510.22" y1="544.21" x2="560.47" y2="503.09"/><path class="cls-15" d="M1085.71,634.44q-9.95,10.47-28.83,13.39V667h-20.06V648.53a101.86,101.86,0,0,1-23.73-4.41,67.13,67.13,0,0,1-18.55-8.73l10.86-25.22a69.35,69.35,0,0,0,18.22,8.64,67.2,67.2,0,0,0,20.39,3.28q19,0,19-9.85,0-5.18-5.43-7.69t-17.46-5.27a162.28,162.28,0,0,1-22.07-6.3,37.17,37.17,0,0,1-15.2-10.8q-6.36-7.42-6.36-20a35.21,35.21,0,0,1,10.37-25.49q10.35-10.62,29.91-13v-19h20.06v18.66a95.52,95.52,0,0,1,18.3,3.45,66.68,66.68,0,0,1,15.63,6.74l-10.2,25.4q-16.71-9.33-32.42-9.33-9.87,0-14.38,3t-4.51,7.86q0,4.83,5.35,7.25t17.21,5A158.05,158.05,0,0,1,1074,579a38.31,38.31,0,0,1,15.21,10.71q6.43,7.35,6.43,20A34.73,34.73,0,0,1,1085.71,634.44Z" transform="translate(-226.44 -132.07)"/></g></svg>