<svg xmlns="http://www.w3.org/2000/svg" xmlns:xlink="http://www.w3.org/1999/xlink" viewBox="0 0 1601.65 1082.97"><defs><style>.cls-1,.cls-13,.cls-7{fill:none;}.cls-2{fill:#f2f6f9;}.cls-3{fill:#e8ecef;}.cls-4{fill:#ef6e45;}.cls-5{fill:#e4eff7;}.cls-6{fill:#24272d;}.cls-7{stroke:#fff;stroke-linecap:square;stroke-width:3px;}.cls-13,.cls-7{stroke-miterlimit:10;}.cls-8{fill:#ffc774;}.cls-9{fill:#fff;}.cls-10{fill:#3361c2;}.cls-11{fill:#72a065;}.cls-12{clip-path:url(#clip-path);}.cls-13{stroke:#ffa161;stroke-linecap:round;stroke-width:31px;}</style><clipPath id="clip-path" transform="translate(-230.63 -161.07)"><path class="cls-1" d="M1608.16,471.44,1547.84,490c6.92,44,6.89,87.88,6.89,87.88l-205.1,1.63s-2.4-12.59-4.91-30.88c-21.27,12.34-57.5,30.71-92.35,35.94-58,8.69-144.75-67.62-144.75-67.62l31.59-78.31,105.92,41.18L1356,413.37l.12-.08c58-35.76,72.83-34.12,103.32-24.41l-.13-.33c53.27-5.46,69.76-6.46,69.76-6.46l-51.34-84.73,69-45.75,90.53,119.92C1666.32,405.63,1651,458.29,1608.16,471.44Z"/></clipPath></defs><title>18</title><g id="Back"><path class="cls-2" d="M1558.15,749.81c0,123.44,100.08,223.52,223.52,223.52V749.81Z" transform="translate(-230.63 -161.07)"/><polygon class="cls-3" points="559.66 434.74 287.86 434.74 423.76 210.58 559.66 434.74"/><polygon class="cls-2" points="1004.4 224.16 732.59 224.16 868.5 0 1004.4 224.16"/><rect class="cls-3" x="1588.37" y="294.22" width="202.05" height="202.05" transform="translate(-15.3 1149.29) rotate(-45)"/><circle class="cls-3" cx="1034.69" cy="800.49" r="126.41"/><path class="cls-4" d="M723.82,583" transform="translate(-230.63 -161.07)"/><path class="cls-2" d="M454.15,773.09c-123.45,0-223.52,100.07-223.52,223.52H454.15Z" transform="translate(-230.63 -161.07)"/><rect class="cls-2" x="818.01" y="607.53" width="202.05" height="202.05" transform="translate(-462.47 696.32) rotate(-45)"/><circle class="cls-2" cx="142.09" cy="153.55" r="126.41"/></g><g id="Man"><path class="cls-4" d="M1154.18,467.71s-42.06,68.3-95.11-6.74c-47.11-66.64,84.67-9.5,84.67-9.5" transform="translate(-230.63 -161.07)"/><ellipse class="cls-5" cx="779.81" cy="1076.74" rx="645.9" ry="6.23"/><path class="cls-6" d="M1467.67,1191.85l-44.4-365.39-6,65,16.17,300.39h-137l-9.17-291a199.52,199.52,0,0,1,5.72-60.36l56.56-261,205.1-1.64L1564.42,880l42.2,311.85Z" transform="translate(-230.63 -161.07)"/><line class="cls-7" x1="1192.03" y1="673.34" x2="1178.26" y2="529.07"/><polygon class="cls-8" points="1180.98 1030.78 1204.04 1076.74 996.69 1076.74 1083.06 1030.78 1180.98 1030.78"/><polygon class="cls-8" points="1348.97 1030.78 1372.03 1076.74 1164.68 1076.74 1251.05 1030.78 1348.97 1030.78"/><path class="cls-8" d="M1349.63,579.49l205.1-1.64s.11-164.51-50.4-176c-70.3-16-68.1-37.93-148.17,11.44C1322,434.37,1349.63,579.49,1349.63,579.49Z" transform="translate(-230.63 -161.07)"/><path class="cls-7" d="M1453.73,584.54" transform="translate(-230.63 -161.07)"/><path class="cls-7" d="M1461,635.18" transform="translate(-230.63 -161.07)"/><path class="cls-7" d="M1434,578.67" transform="translate(-230.63 -161.07)"/><path class="cls-7" d="M1441.25,629.31" transform="translate(-230.63 -161.07)"/><path class="cls-7" d="M1423.61,574.12" transform="translate(-230.63 -161.07)"/><path class="cls-7" d="M1430.83,624.76" transform="translate(-230.63 -161.07)"/><path class="cls-4" d="M1429.24,424.11l.9-.07a32.51,32.51,0,0,0,29.21-35.49l-11-113.79a32.5,32.5,0,1,0-64.69,6.27l11,113.79A32.51,32.51,0,0,0,1429.24,424.11Z" transform="translate(-230.63 -161.07)"/><path class="cls-4" d="M1403.74,361.67l-6.06.55a48.12,48.12,0,0,1-52.25-52.5l3.33-34.88a48.13,48.13,0,0,1,44.09-43.4h0a48.13,48.13,0,0,1,51.79,44.16l2.73,34.32A48.13,48.13,0,0,1,1403.74,361.67Z" transform="translate(-230.63 -161.07)"/><rect class="cls-4" x="1427.15" y="283.36" width="35.39" height="45.43" rx="17.7" transform="translate(166.46 -895.88) rotate(32.85)"/><line class="cls-7" x1="1224.25" y1="139.7" x2="1213" y2="153.24"/><polyline class="cls-7" points="1138.44 128.4 1136.84 156.45 1146.81 157.07"/><path class="cls-6" d="M1429.08,313.17l-12.39-51-3-12.1a39.81,39.81,0,0,1-10.59,7.78c-14.28,7.28-56.8,3.33-62-26.65-4.28-24.46,21.26-9.9,34.54-11.13,20.85-1.94,35.57-13.87,63.7,2.14,33.67,19.17,16.54,64,16.54,64S1441,280.1,1429.08,313.17Z" transform="translate(-230.63 -161.07)"/><polygon class="cls-6" points="1161.1 201.57 1179.18 200.33 1162.35 216.04 1161.1 201.57"/><circle class="cls-9" cx="1152.64" cy="137.87" r="4.95"/><circle class="cls-9" cx="1123.52" cy="139.89" r="4.95"/><path class="cls-9" d="M1398.16,322.61c-.44,0-14.57,0-16,11.07" transform="translate(-230.63 -161.07)"/><path class="cls-4" d="M1494.39,295.38l-35.07-29.28s-36.08-19.5-24.93-34.5c0,0-5.61-3.25-4.27-6.82s19.76-4.94,19.76-4.94,11.53-9.69,24.44-5.57,35.72,15.81,39.5,19c5.13,4.31,14,37.94,14,37.94S1517.13,303.62,1494.39,295.38Z" transform="translate(-230.63 -161.07)"/><path class="cls-8" d="M1505.73,502.92l102.43-31.48c42.79-13.15,58.16-65.81,29.14-99.9l-90.53-119.92-69,45.75,51.34,84.73s-16.49,1-69.76,6.45" transform="translate(-230.63 -161.07)"/><path class="cls-10" d="M1023,348.07a149.84,149.84,0,0,0-30.6,209.69l120.15-89.54Z" transform="translate(-230.63 -161.07)"/><path class="cls-4" d="M902.75,1088A149.85,149.85,0,0,0,752.9,1237.81H902.75Z" transform="translate(-230.63 -161.07)"/><path class="cls-4" d="M1148.12,457s-6.71-14.19-27.73-18.76c-10.18-2.21-21.15-3.37-37.45-16-15.61-12.12-16.18,8.11-3.82,15.14,8.32,4.74,29.63,13.78,27,22.17l48,24.19" transform="translate(-230.63 -161.07)"/><path class="cls-8" d="M1252.37,584.54c-58,8.69-144.75-67.62-144.75-67.62l31.59-78.31,105.92,41.18,124.62-74.64-6.21,131.73S1306.31,576.45,1252.37,584.54Z" transform="translate(-230.63 -161.07)"/><rect class="cls-11" x="372.43" y="926.89" width="149.85" height="149.85"/><rect class="cls-11" x="743.34" y="926.89" width="149.85" height="149.85"/><rect class="cls-10" x="372.43" y="777.05" width="149.85" height="149.85"/><circle class="cls-4" cx="217.41" cy="993.24" r="83.5"/><circle class="cls-4" cx="784.99" cy="843.39" r="83.5"/><polygon class="cls-4" points="480.14 777.05 287.3 777.05 383.72 618.01 480.14 777.05"/><g class="cls-12"><line class="cls-13" x1="870.02" y1="285.59" x2="933" y2="348.57"/><line class="cls-13" x1="855.66" y1="362.92" x2="800.03" y2="418.56"/><line class="cls-13" x1="1158.59" y1="508.62" x2="1102.95" y2="564.25"/><line class="cls-13" x1="1005.2" y1="362.92" x2="949.56" y2="418.56"/><line class="cls-13" x1="1005.2" y1="213.38" x2="949.56" y2="269.02"/><line class="cls-13" x1="1096.53" y1="423.34" x2="1159.52" y2="360.35"/><line class="cls-13" x1="948.95" y1="574.93" x2="1011.93" y2="511.94"/><line class="cls-13" x1="1173.87" y1="437.69" x2="1229.51" y2="493.33"/><line class="cls-13" x1="865.9" y1="441.69" x2="921.53" y2="497.33"/><line class="cls-13" x1="1023.12" y1="441.69" x2="1078.76" y2="497.33"/><line class="cls-13" x1="1024.33" y1="288.15" x2="1079.97" y2="343.79"/><line class="cls-13" x1="1169.24" y1="132.63" x2="1232.22" y2="195.62"/><line class="cls-13" x1="1154.88" y1="209.97" x2="1099.25" y2="265.61"/><line class="cls-13" x1="1457.81" y1="355.66" x2="1402.17" y2="411.3"/><line class="cls-13" x1="1304.42" y1="209.97" x2="1248.78" y2="265.61"/><line class="cls-13" x1="1304.42" y1="60.43" x2="1248.78" y2="116.07"/><line class="cls-13" x1="1395.75" y1="270.39" x2="1458.74" y2="207.4"/><line class="cls-13" x1="1248.17" y1="421.97" x2="1311.15" y2="358.99"/><line class="cls-13" x1="1473.09" y1="284.74" x2="1528.73" y2="340.38"/><line class="cls-13" x1="1165.12" y1="288.74" x2="1220.75" y2="344.38"/><line class="cls-13" x1="1322.34" y1="288.74" x2="1377.98" y2="344.38"/><line class="cls-13" x1="1323.55" y1="135.2" x2="1379.19" y2="190.84"/></g><line class="cls-7" x1="1112.58" y1="391.02" x2="1101.3" y2="337.7"/></g></svg>