<svg xmlns="http://www.w3.org/2000/svg" viewBox="0 0 1569.63 980.47"><defs><style>.cls-1{fill:#e9eef2;}.cls-2{fill:#f2f6f9;}.cls-12,.cls-13,.cls-3,.cls-7{fill:none;}.cls-3{stroke:#f2f6f9;stroke-width:20px;}.cls-3,.cls-7{stroke-linecap:round;}.cls-11,.cls-12,.cls-13,.cls-3,.cls-7{stroke-miterlimit:10;}.cls-4{fill:#e4eff7;}.cls-5{fill:#ef6e45;}.cls-6{fill:#1d2228;}.cls-13,.cls-7{stroke:#1f2128;stroke-width:8px;}.cls-11,.cls-8{fill:#3361c2;}.cls-9{fill:#24272d;}.cls-10{fill:#fff;}.cls-11,.cls-12{stroke:#fff;stroke-width:3px;}.cls-11{stroke-linecap:square;}</style></defs><title>19</title><g id="Back"><path class="cls-1" d="M976.68,422.89V367.55a14.14,14.14,0,0,1,21.82-11.88l72.76,47.06c11.16,7.21,7.12,24.42-6.07,25.92l-72.77,8.29A14.14,14.14,0,0,1,976.68,422.89Z" transform="translate(-228.39 -203.94)"/><path class="cls-2" d="M1208.85,398.35,1105.6,367.42a27.54,27.54,0,0,1-10-47.34L1224.1,210.61c19.68-16.77,49.54.38,45,25.83l-25.21,140.4A27.54,27.54,0,0,1,1208.85,398.35Z" transform="translate(-228.39 -203.94)"/><path class="cls-2" d="M1045.22,978.42,1079,905.21a20.6,20.6,0,0,1,36.11-2.4l67.56,106.65c10.35,16.35-5.49,36.66-23.86,30.59l-101.33-33.44A20.6,20.6,0,0,1,1045.22,978.42Z" transform="translate(-228.39 -203.94)"/><path class="cls-1" d="M1785.43,485l12.06,35.16a9.5,9.5,0,0,1-11.27,12.3l-56.48-14a9.49,9.49,0,0,1-1.79-17.79l44.42-21.12A9.49,9.49,0,0,1,1785.43,485Z" transform="translate(-228.39 -203.94)"/><path class="cls-1" d="M467.11,747.59l24.32,70.93a19.16,19.16,0,0,1-22.74,24.81L354.75,815c-17.46-4.33-19.86-28.17-3.61-35.89l89.62-42.61A19.16,19.16,0,0,1,467.11,747.59Z" transform="translate(-228.39 -203.94)"/><path class="cls-1" d="M1532.67,284.66l39.91,37.26a14,14,0,0,1-6.12,23.73l-82.93,20.82c-12.71,3.19-22.41-11.31-14.61-21.84l43-58.07A14,14,0,0,1,1532.67,284.66Z" transform="translate(-228.39 -203.94)"/><path class="cls-1" d="M373.28,327.43l52.94,49.4a18.51,18.51,0,0,1-8.12,31.48l-110,27.6c-16.85,4.23-29.71-15-19.37-29l57-77A18.51,18.51,0,0,1,373.28,327.43Z" transform="translate(-228.39 -203.94)"/><path class="cls-2" d="M1763.56,618.45,1697.82,661a30,30,0,0,1-45.75-19.52l-18.55-96.66c-5-25.88,23.46-45.12,45.64-30.89l84.3,54.09A30,30,0,0,1,1763.56,618.45Z" transform="translate(-228.39 -203.94)"/><path class="cls-3" d="M1127.67,756.54c-15.9,15.9-27.2,4.6-43.1,20.49s-4.59,27.21-20.49,43.1-27.2,4.6-43.11,20.5-4.59,27.21-20.49,43.11" transform="translate(-228.39 -203.94)"/><circle class="cls-1" cx="1059.45" cy="645.53" r="110.09"/><circle class="cls-1" cx="793.94" cy="63.24" r="29.87"/><circle class="cls-1" cx="1422.95" cy="610.55" r="71.19"/><circle class="cls-1" cx="34.68" cy="373.74" r="34.68"/><circle class="cls-2" cx="163.2" cy="339.06" r="51.39"/><circle class="cls-2" cx="88.05" cy="724.14" r="48.86"/></g><g id="Man"><ellipse class="cls-4" cx="766.96" cy="973.76" rx="595.04" ry="6.72"/><rect class="cls-5" x="912.44" y="241.46" width="429.05" height="185.77" rx="12"/><path class="cls-6" d="M1016.52,548.24h-2.93l-7.52-12v12h-2.93V531.38h2.93l7.54,12v-12h2.91Z" transform="translate(-228.39 -203.94)"/><path class="cls-6" d="M1032.85,542.75a6.12,6.12,0,0,1-2,4.21,6.79,6.79,0,0,1-4.63,1.51,6.66,6.66,0,0,1-3.55-1,6.28,6.28,0,0,1-2.36-2.72,9.69,9.69,0,0,1-.87-4.09v-1.57a10,10,0,0,1,.84-4.21,6.47,6.47,0,0,1,2.43-2.8,6.72,6.72,0,0,1,3.65-1,6.54,6.54,0,0,1,4.5,1.52,6.33,6.33,0,0,1,2,4.28h-2.92a4.17,4.17,0,0,0-1.06-2.63,3.54,3.54,0,0,0-2.5-.8,3.41,3.41,0,0,0-2.93,1.39,7,7,0,0,0-1.05,4.1v1.5a7.43,7.43,0,0,0,1,4.17,3.24,3.24,0,0,0,2.86,1.44,3.79,3.79,0,0,0,2.6-.78,4.08,4.08,0,0,0,1.1-2.58Z" transform="translate(-228.39 -203.94)"/><path class="cls-6" d="M1045.32,540.71h-6.92v5.19h8.09v2.34h-11V531.38h11v2.36h-8v4.65h6.92Z" transform="translate(-228.39 -203.94)"/><path class="cls-6" d="M1051.81,545.9h7.65v2.34h-10.58V531.38h2.93Z" transform="translate(-228.39 -203.94)"/><line class="cls-7" x1="666.28" y1="388.79" x2="646.99" y2="410.67"/><polygon class="cls-8" points="566.39 973.76 429.48 973.76 453.47 906.68 507.37 929.05 566.39 973.76"/><polygon class="cls-8" points="340.37 973.76 212.8 973.76 236.78 906.68 281.35 929.05 340.37 973.76"/><path class="cls-5" d="M824.52,600.64s37.19-9.41,52.19-2.55,22.9,19.39,20.64,32.72c-1.1,6.45-39.76,35.36-39.76,35.36l-39.68-32.74Z" transform="translate(-228.39 -203.94)"/><path class="cls-9" d="M860.39,912l-93,235.57-106.66-21.37,80.61-233.59-56.12-51.19L699,864.73a61.09,61.09,0,0,1-2.17,65.81l-148,217.07-103.72-36.42,123-204.63L521,744c-7.4-25.56-7.92-61.3.81-86.5l17.3-42.59,133.81-3.43c.44,0,128,171,179.26,239.86A62.68,62.68,0,0,1,860.39,912Z" transform="translate(-228.39 -203.94)"/><path class="cls-8" d="M673.27,518.34l-15.1,73.39a54.57,54.57,0,0,0,60.12,65.17l111.93-13.75-.55-49.46-86.49-5.55s18.46-106.76-21.34-129.63c-55.94-32.14-82.51-16-100.87,5.71-14.32,16.95-30.81,57.9-42.58,78s-39.27,72.62-39.27,72.62l125.29,15.93" transform="translate(-228.39 -203.94)"/><path class="cls-5" d="M679,467.81a20,20,0,0,1-18.52-27.54l32.67-80.38A20,20,0,0,1,730.21,375l-32.68,80.38A20,20,0,0,1,679,467.81Z" transform="translate(-228.39 -203.94)"/><path class="cls-5" d="M702.43,431l4.29,1.72a36.53,36.53,0,0,0,49.38-26.87l5.14-26.09a36.53,36.53,0,0,0-22.67-41.12h0a36.53,36.53,0,0,0-47.24,20.9l-9.42,24.37A36.52,36.52,0,0,0,702.43,431Z" transform="translate(-228.39 -203.94)"/><path class="cls-9" d="M517.63,360.69c-11.23,57,44.15,68,44.15,68s-37.91,59.69,31.91,62.07,94.17-44.93,94.61-73.48c.17-11.37-4.7-20.73-10.36-29.87,38.6-1.67,40.9-27.87,40.9-27.87s58.22,30.45,62.9-16.42S740.09,276,711.68,273.32a59.42,59.42,0,0,0-17.9,1.12c-18.92,3.95-34.25,13.18-58.52,10.89C568.2,279,557.6,316.05,557.6,316.05S525.22,322.15,517.63,360.69Z" transform="translate(-228.39 -203.94)"/><polyline class="cls-5" points="532.18 176.2 537.56 206.01 526.25 204.64"/><circle class="cls-10" cx="520.39" cy="180.27" r="5.34"/><path class="cls-11" d="M739.46,411.55s-5.19-1.26-4-6.61" transform="translate(-228.39 -203.94)"/><rect class="cls-5" x="675.21" y="351.21" width="32.9" height="47.86" rx="15.15" transform="translate(1233.17 333.65) rotate(163.44)"/><line class="cls-11" x1="457.25" y1="155.5" x2="464.2" y2="178.85"/><path class="cls-12" d="M673.27,518.34l-17,86.24c-1.87,7.1.23,18.38,8.11,26.15" transform="translate(-228.39 -203.94)"/><path class="cls-12" d="M734.65,888.38,594.17,754.86s-16.36-13.29-16.36-46.25" transform="translate(-228.39 -203.94)"/><path class="cls-6" d="M959.28,544.69a14.17,14.17,0,0,1-4.62,9.76q-4,3.49-10.71,3.5a15.28,15.28,0,0,1-8.23-2.21,14.59,14.59,0,0,1-5.49-6.3,22.8,22.8,0,0,1-2-9.48v-3.65a23,23,0,0,1,2-9.74,14.82,14.82,0,0,1,5.63-6.5,15.7,15.7,0,0,1,8.47-2.28q6.47,0,10.42,3.5t4.59,9.92h-6.77q-.48-4.22-2.45-6.08a8.16,8.16,0,0,0-5.79-1.87,8,8,0,0,0-6.81,3.24q-2.37,3.24-2.43,9.5v3.47q0,6.35,2.27,9.67a7.52,7.52,0,0,0,6.65,3.34c2.66,0,4.67-.6,6-1.8s2.19-3.2,2.55-6Z" transform="translate(-228.39 -203.94)"/><path class="cls-6" d="M987.23,548.31H972.08l-3.16,9.11h-7.06l14.76-39.1h6.1l14.79,39.1h-7.09ZM974,542.84h11.33l-5.66-16.22Z" transform="translate(-228.39 -203.94)"/><path class="cls-10" d="M1251.76,544.82A14.68,14.68,0,0,1,1247,555q-4.18,3.63-11.14,3.64a15.82,15.82,0,0,1-8.55-2.31,15.08,15.08,0,0,1-5.7-6.54,23.67,23.67,0,0,1-2.1-9.85v-3.79a23.76,23.76,0,0,1,2-10.13,15.36,15.36,0,0,1,5.85-6.75,16.28,16.28,0,0,1,8.8-2.37q6.72,0,10.82,3.64t4.78,10.31h-7q-.49-4.38-2.55-6.32c-1.37-1.3-3.37-1.94-6-1.94a8.23,8.23,0,0,0-7.07,3.36q-2.47,3.38-2.53,9.88v3.6q0,6.58,2.36,10.05a7.81,7.81,0,0,0,6.9,3.46q4.17,0,6.25-1.86c1.4-1.25,2.28-3.32,2.65-6.23Z" transform="translate(-228.39 -203.94)"/><path class="cls-10" d="M1290.48,538.8a25,25,0,0,1-2.06,10.47,15.65,15.65,0,0,1-5.9,6.92,17.28,17.28,0,0,1-17.64,0,16,16,0,0,1-6-6.87,24.26,24.26,0,0,1-2.13-10.3v-2.29a24.77,24.77,0,0,1,2.1-10.49,15.88,15.88,0,0,1,5.95-7,16.14,16.14,0,0,1,8.8-2.41,16.32,16.32,0,0,1,8.8,2.38,15.58,15.58,0,0,1,5.93,6.87,24.55,24.55,0,0,1,2.12,10.42Zm-7.06-2.12q0-6.75-2.55-10.36a9,9,0,0,0-14.4,0q-2.58,3.59-2.63,10.14v2.35q0,6.69,2.61,10.35a9,9,0,0,0,14.45.08q2.52-3.57,2.52-10.43Z" transform="translate(-228.39 -203.94)"/><path class="cls-10" d="M1329.74,558.05h-7.06l-18.11-28.82v28.82h-7.06V517.42h7.06l18.17,28.94V517.42h7Z" transform="translate(-228.39 -203.94)"/><path class="cls-10" d="M1366.62,523.12H1354v34.93h-7V523.12H1334.4v-5.7h32.22Z" transform="translate(-228.39 -203.94)"/><path class="cls-10" d="M1379.4,558.05h-7V517.42h7Z" transform="translate(-228.39 -203.94)"/><path class="cls-10" d="M1420.31,558.05h-7.06l-18.11-28.82v28.82h-7.06V517.42h7.06l18.16,28.94V517.42h7Z" transform="translate(-228.39 -203.94)"/><path class="cls-10" d="M1458.36,517.42v27.15q0,6.48-4.14,10.26t-11,3.78q-7,0-11.07-3.73t-4.1-10.34V517.42h7V544.6a8.64,8.64,0,0,0,2.06,6.22,8.08,8.08,0,0,0,6.08,2.15q8.16,0,8.15-8.59v-27Z" transform="translate(-228.39 -203.94)"/><path class="cls-10" d="M1489.64,539.91H1473v12.5h19.51v5.64H1465.9V517.42h26.36v5.7H1473v11.21h16.69Z" transform="translate(-228.39 -203.94)"/><circle class="cls-13" cx="706.5" cy="336.88" r="64.54"/></g></svg>