<svg xmlns="http://www.w3.org/2000/svg" xmlns:xlink="http://www.w3.org/1999/xlink" viewBox="0 0 1713.69 1143.42"><defs><style>.cls-1,.cls-12,.cls-15,.cls-21,.cls-22,.cls-26,.cls-4{fill:none;}.cls-2{fill:#e9eef2;}.cls-3{fill:#f2f6f9;}.cls-4{stroke:#f2f6f9;stroke-width:20px;}.cls-12,.cls-22,.cls-4{stroke-linecap:round;}.cls-12,.cls-15,.cls-16,.cls-21,.cls-24,.cls-26,.cls-4{stroke-miterlimit:10;}.cls-5{fill:#f0f4f7;}.cls-6{fill:#d2e8f9;}.cls-7{fill:#9ac3e8;}.cls-8{fill:#f7f9fc;}.cls-9{fill:#f36b7f;}.cls-10{fill:#518eee;}.cls-11{fill:#b5d6f4;}.cls-12{stroke:#ef4c43;stroke-width:10px;}.cls-13{fill:#e4eff7;}.cls-14,.cls-16,.cls-24{fill:#3361c2;}.cls-15{stroke:#1d2026;stroke-width:7px;}.cls-16,.cls-21,.cls-24{stroke:#fff;stroke-width:3px;}.cls-17{fill:#151e24;}.cls-18{fill:#ffc774;}.cls-19{clip-path:url(#clip-path);}.cls-20{fill:#ef6e45;}.cls-22{stroke:#3361c2;stroke-linejoin:round;stroke-width:40px;}.cls-23{fill:#fff;}.cls-24{stroke-linecap:square;}.cls-25{clip-path:url(#clip-path-2);}.cls-26{stroke:#f8cf61;stroke-width:8px;}</style><clipPath id="clip-path" transform="translate(-117.7 -168.89)"><path class="cls-1" d="M1276.72,597.51l-103,7.84a47.4,47.4,0,0,1-17.21,25.18l-91.25,68.56L1030,664.66l69-81.35a240.41,240.41,0,0,1-5.66-24.64L1004,488l33.64-56.93,61.4,36.72c5.34-10.79,13.3-19.93,24.84-26,53-27.69,77.69-6.37,92.41,15.53,11.47,17.09,22.5,56.52,31.31,76.22S1276.72,597.51,1276.72,597.51Z"/></clipPath><clipPath id="clip-path-2" transform="translate(-117.7 -168.89)"><circle class="cls-1" cx="941.72" cy="478.37" r="32.51"/></clipPath></defs><title>2</title><g id="Back"><path class="cls-2" d="M943.31,841.67l-21.26-68.38a18.29,18.29,0,0,1,22.39-23l108,30.17c16.55,4.63,18.17,27.45,2.45,34.37L968.16,853A18.3,18.3,0,0,1,943.31,841.67Z" transform="translate(-117.7 -168.89)"/><path class="cls-2" d="M320.19,409.5V354.16A14.14,14.14,0,0,1,342,342.28l72.77,47.06c11.15,7.21,7.11,24.42-6.08,25.92l-72.77,8.29A14.14,14.14,0,0,1,320.19,409.5Z" transform="translate(-117.7 -168.89)"/><path class="cls-3" d="M498.9,376.78l-81.46-24.41A21.73,21.73,0,0,1,409.58,315l101.35-86.37c15.53-13.23,39.09.3,35.48,20.38L526.52,359.8A21.73,21.73,0,0,1,498.9,376.78Z" transform="translate(-117.7 -168.89)"/><path class="cls-3" d="M1444.09,1011l15.21-33a9.28,9.28,0,0,1,16.27-1.07L1506,1025a9.28,9.28,0,0,1-10.75,13.78l-45.65-15.07A9.27,9.27,0,0,1,1444.09,1011Z" transform="translate(-117.7 -168.89)"/><path class="cls-2" d="M1537.23,377.5l11.24,32.76A8.85,8.85,0,0,1,1538,421.72l-52.63-13.08a8.85,8.85,0,0,1-1.66-16.58l41.39-19.68A8.85,8.85,0,0,1,1537.23,377.5Z" transform="translate(-117.7 -168.89)"/><path class="cls-2" d="M1287.81,172.64l39.92,37.26a14,14,0,0,1-6.13,23.73l-82.93,20.81c-12.71,3.19-22.4-11.31-14.61-21.83l43-58.07A14,14,0,0,1,1287.81,172.64Z" transform="translate(-117.7 -168.89)"/><path class="cls-3" d="M1503,481.81l-51.78,33.52a23.62,23.62,0,0,1-36-15.37l-14.61-76.13c-3.92-20.38,18.48-35.54,35.94-24.33l66.39,42.6A23.62,23.62,0,0,1,1503,481.81Z" transform="translate(-117.7 -168.89)"/><path class="cls-4" d="M1492.23,830.32c-10.83,10.84-22.14-.46-33,10.37s.47,22.15-10.37,33-22.14-.46-33,10.38.47,22.14-10.37,33" transform="translate(-117.7 -168.89)"/><circle class="cls-2" cx="1435.44" cy="737.82" r="59.81"/><circle class="cls-2" cx="248.14" cy="84.9" r="29.87"/><circle class="cls-2" cx="358.34" cy="698.06" r="26.15"/><circle class="cls-3" cx="455.26" cy="671.91" r="38.75"/><path class="cls-3" d="M1831.39,789.44H1266.53s38.52-141.13,117.71-147.32c46.7-3.66,70,52.08,116.35,52.08s72.65-130.72,163.21-130.72C1812.19,563.48,1831.39,789.44,1831.39,789.44Z" transform="translate(-117.7 -168.89)"/><path class="cls-3" d="M117.7,1009.19H697.25s-39.55-103-120.78-98.64-71.81,34.87-119.37,34.87-74.54-87.53-167.45-87.53C137.4,857.89,117.7,1009.19,117.7,1009.19Z" transform="translate(-117.7 -168.89)"/><path class="cls-5" d="M955,1127.08H602.89c13.16-25.7,33.17-48.38,60.44-49.14,32.54-.9,47.2,34.89,78.45,34.89s49-87.54,110-87.54C913.59,1025.29,942.15,1083,955,1127.08Z" transform="translate(-117.7 -168.89)"/></g><g id="Cloud"><path class="cls-6" d="M1387.24,684.15a147.67,147.67,0,0,1-1.73,22.59H344.41a206.2,206.2,0,0,1-8.72-59.51C335.69,533.33,428,441,541.92,441q4.58,0,9.1.2a54.42,54.42,0,0,0,53.15-35.1c32-83.61,113-143,207.86-143a222.32,222.32,0,0,1,188.65,104.49,54.18,54.18,0,0,0,55,24.95A187.9,187.9,0,0,1,1265,515.32a54.74,54.74,0,0,0,30.77,32.56A147.25,147.25,0,0,1,1387.24,684.15Z" transform="translate(-117.7 -168.89)"/><polygon class="cls-7" points="950.35 537.86 706.42 537.86 586.58 478.35 837.15 469.58 950.35 537.86"/><rect class="cls-8" x="576.58" y="332.94" width="233.15" height="68.28"/><rect class="cls-8" x="576.58" y="248.29" width="233.15" height="68.28"/><path class="cls-9" d="M734,600.82V556.69a11.28,11.28,0,0,1,17.4-9.47l58,37.52a11.27,11.27,0,0,1-4.85,20.67l-58,6.61A11.28,11.28,0,0,1,734,600.82Z" transform="translate(-117.7 -168.89)"/><path class="cls-9" d="M950.85,561.47,961,588.65a11.1,11.1,0,0,1-10.71,15l-36.44-1a11.1,11.1,0,0,1-7.53-19l26.29-26.17A11.11,11.11,0,0,1,950.85,561.47Z" transform="translate(-117.7 -168.89)"/><path class="cls-10" d="M766.49,611.17a51,51,0,0,1,102,0" transform="translate(-117.7 -168.89)"/><rect class="cls-11" x="586.58" y="425.14" width="233.15" height="53.2"/><path class="cls-12" d="M894.24,500c-4,6.44-17.57-1.94-21.53,4.49s9.65,14.81,5.69,21.25-17.57-1.94-21.54,4.49,9.66,14.82,5.7,21.26" transform="translate(-117.7 -168.89)"/><rect class="cls-8" x="673.54" y="417.6" width="233.15" height="68.28"/><circle class="cls-11" cx="693.16" cy="367.08" r="13.23"/><circle class="cls-11" cx="693.16" cy="282.43" r="13.23"/></g><g id="Man"><ellipse class="cls-13" cx="1297.89" cy="1135.59" rx="236.18" ry="7.83"/><polygon class="cls-14" points="1030.37 784.86 990.07 847.42 1096.92 791.19 1070.97 763.08 1030.37 784.86"/><line class="cls-15" x1="909.01" y1="676.81" x2="1074.05" y2="676.81"/><line class="cls-15" x1="958.62" y1="820.75" x2="1123.66" y2="820.75"/><line class="cls-15" x1="1008.22" y1="964.7" x2="1173.26" y2="964.7"/><line class="cls-15" x1="1057.83" y1="1108.65" x2="1222.87" y2="1108.65"/><line class="cls-15" x1="846.65" y1="495.15" x2="1070.03" y2="1135.59"/><line class="cls-15" x1="1009.45" y1="495.15" x2="1232.83" y2="1135.59"/><line class="cls-15" x1="859.4" y1="532.86" x2="1024.44" y2="532.86"/><path class="cls-14" d="M1042.58,664s-32.73,13.94-40,27.42-6,27.18,3.15,35.75c4.43,4.14,49.2,3.77,49.2,3.77l10.91-46.45Z" transform="translate(-117.7 -168.89)"/><line class="cls-15" x1="860.61" y1="532.86" x2="903.92" y2="532.86"/><polygon class="cls-14" points="1126.72 929.14 1057.13 949.32 1176.78 974.49 1174.64 936.31 1126.72 929.14"/><path class="cls-16" d="M1011.39,719.38s12.91-29.53,19.16-28.15-3.68,29.85-3.68,29.85,12.21-32.23,18.19-29.93c4.64,1.8-2.78,30-2.78,30s8.93-24.61,14.16-23.52-7.64,28.68-7.64,28.68" transform="translate(-117.7 -168.89)"/><path class="cls-17" d="M1086.23,674.24l-51.93,50a49.93,49.93,0,0,0-6.68,64l106.35,173,71-38.11-81.57-144.37,68.32-42.69,43.9,360.71,63.61,12.23,2.65-412.55a179.58,179.58,0,0,0-13-68.65l-12.22-30.37-123.38-3.06Z" transform="translate(-117.7 -168.89)"/><path class="cls-18" d="M1162.54,502,1175,585.56a47.5,47.5,0,0,1-18.45,45l-91.25,68.56L1030,664.66l69-81.35s-33.68-110.88,24.9-141.46c53.05-27.7,77.7-6.38,92.41,15.53,11.48,17.08,22.51,56.52,31.32,76.21s29.14,63.92,29.14,63.92l-117.46,9" transform="translate(-117.7 -168.89)"/><path class="cls-14" d="M936.28,447.18c-.46,0-18,4.83-18.2-2.95s20.15-12.16,30.61-12.74,22.31.89,26.26-6.26c6.19-11.2-3.18-19.23-4.56-28s.76-13.85,6.3-13.54,5.85,19.11,17.46,26.62c12.21,7.9,21,23.07,21,23.07l31.7,20.68s-22.77,32.25-23.7,32.4-26.46-21.08-26.46-21.08-2,6.62-34.61,15.08" transform="translate(-117.7 -168.89)"/><polygon class="cls-18" points="919.92 262.19 886.28 319.11 999.3 408.55 1013.04 317.88 919.92 262.19"/><g class="cls-19"><circle class="cls-20" cx="1144.92" cy="389.11" r="30"/><circle class="cls-20" cx="962.68" cy="331.56" r="30"/><circle class="cls-20" cx="1064.2" cy="257.97" r="30"/><circle class="cls-20" cx="1044.79" cy="440.56" r="30"/><circle class="cls-20" cx="945.61" cy="455.56" r="30"/><circle class="cls-20" cx="1056.79" cy="343.18" r="30"/><circle class="cls-20" cx="910.24" cy="257.87" r="30"/></g><path class="cls-21" d="M1093.3,558.77c-4.48-24.8-8-63.32,5.72-91" transform="translate(-117.7 -168.89)"/><line class="cls-22" x1="1024.79" y1="190.02" x2="1046.73" y2="267.45"/><path class="cls-14" d="M1144.54,418.46l-4.12,1.15a33.88,33.88,0,0,1-42.79-29.8l-2.08-24.58a33.87,33.87,0,0,1,25.08-35.6h0a33.88,33.88,0,0,1,41.43,24.08l6.2,23.43A33.87,33.87,0,0,1,1144.54,418.46Z" transform="translate(-117.7 -168.89)"/><path class="cls-20" d="M1322.08,372.46c4.54,53.66-47.63,58.21-47.63,58.21s28.87,58.89-35.74,54-82.24-51-79.74-77.37c1-10.5,6.44-18.64,12.59-26.49-35.41-5.47-34.87-29.86-34.87-29.86s-56.77,22.15-56.31-21.54,45.24-57.69,71.7-57.23a55.21,55.21,0,0,1,16.39,2.85c17,5.57,30.23,15.64,52.84,16,62.46,1,68.46,36.23,68.46,36.23S1319,336.15,1322.08,372.46Z" transform="translate(-117.7 -168.89)"/><polyline class="cls-14" points="978.43 196.76 970.44 223.69 981 223.59"/><circle class="cls-23" cx="988.89" cy="201.71" r="4.95"/><circle class="cls-20" cx="824.02" cy="309.48" r="32.51"/><path class="cls-24" d="M1112.39,396.75s4.91-.63,4.38-5.67" transform="translate(-117.7 -168.89)"/><rect class="cls-14" x="1144.9" y="345.87" width="30.52" height="44.39" rx="15.15" transform="translate(116.46 -590.73) rotate(22.86)"/><line class="cls-24" x1="1049.62" y1="185.31" x2="1040.83" y2="206.13"/><path class="cls-21" d="M1191.75,736.14a133.51,133.51,0,0,0,26.79-21.06c15.54-16,19.85-32.62,19.85-32.62" transform="translate(-117.7 -168.89)"/><circle class="cls-11" cx="790.11" cy="451.74" r="13.23"/><path class="cls-21" d="M1162.54,502,1175,585.56a47.55,47.55,0,0,1-1.24,19.8" transform="translate(-117.7 -168.89)"/><g class="cls-25"><line class="cls-26" x1="797.3" y1="284.96" x2="860.22" y2="315.11"/><line class="cls-26" x1="787.92" y1="306.81" x2="881.15" y2="294.34"/><line class="cls-26" x1="857.92" y1="330.11" x2="789.46" y2="319.19"/></g><polyline class="cls-21" points="886.28 319.11 975.59 389.79 981.25 414.43 912.26 495.78"/></g></svg>