<svg xmlns="http://www.w3.org/2000/svg" viewBox="0 0 1769.03 1081.98"><defs><style>.cls-1{fill:#f2f6f9;}.cls-2{fill:#fff;}.cls-3{fill:#e4eff7;}.cls-4{fill:#ef6e45;}.cls-11,.cls-14,.cls-5,.cls-9{fill:none;}.cls-12,.cls-5,.cls-9{stroke:#fff;}.cls-12,.cls-14,.cls-5,.cls-9{stroke-miterlimit:10;}.cls-12,.cls-5{stroke-width:6px;}.cls-6{fill:#72a065;}.cls-12,.cls-7{fill:#3361c2;}.cls-8{fill:#274992;}.cls-9{stroke-linecap:square;}.cls-14,.cls-9{stroke-width:3px;}.cls-10{fill:#24272d;}.cls-11{stroke:#3361c2;stroke-linecap:round;stroke-linejoin:round;stroke-width:65px;}.cls-13{fill:#ffc774;}.cls-14{stroke:#edf0f4;}</style></defs><title>20</title><g id="Back"><circle class="cls-1" cx="1056.05" cy="469.55" r="41.6"/><rect class="cls-1" x="1027.18" y="168.59" width="57.75" height="229.03"/><circle class="cls-1" cx="1358.64" cy="900.36" r="41.6"/><rect class="cls-1" x="1329.77" y="599.4" width="57.75" height="229.03"/><circle class="cls-1" cx="218.17" cy="811.74" r="41.6"/><rect class="cls-1" x="189.29" y="510.77" width="57.75" height="229.03"/><polygon class="cls-1" points="700.12 320.3 318.95 320.3 509.54 0 700.12 320.3"/><circle class="cls-2" cx="509.54" cy="257.68" r="22.09"/><rect class="cls-2" x="494.2" y="97.86" width="30.67" height="121.62"/><polygon class="cls-1" points="987.82 940.9 606.65 940.9 797.23 620.6 987.82 940.9"/><circle class="cls-2" cx="797.23" cy="878.28" r="22.09"/><rect class="cls-2" x="781.9" y="718.46" width="30.67" height="121.62"/><polygon class="cls-1" points="1769.03 409.65 1387.86 409.65 1578.45 89.35 1769.03 409.65"/><circle class="cls-2" cx="1578.45" cy="347.03" r="22.09"/><rect class="cls-2" x="1563.12" y="187.21" width="30.67" height="121.62"/></g><g id="Man"><ellipse class="cls-3" cx="913.49" cy="1075.75" rx="792.38" ry="6.23"/><polygon class="cls-4" points="1287.79 222.7 1346.7 281.67 1420.42 208.03 1361.51 149.05 1356.39 182.44 1325.62 184.91 1322.45 216.34 1287.79 222.7"/><line class="cls-5" x1="1403.15" y1="205.74" x2="1324.85" y2="192.56"/><line class="cls-5" x1="1341.85" y1="209.58" x2="1345.04" y2="260.76"/><polygon class="cls-6" points="1665.66 1023.02 1685.59 1075.75 1519.37 1075.75 1594.02 1033.02 1665.66 1023.02"/><polygon class="cls-7" points="1249.59 368.75 1222.96 360.34 1313.93 72.52 1354.1 38.08 1249.59 368.75"/><polygon class="cls-8" points="1249.59 368.75 1276.22 377.17 1367.18 89.35 1354.1 38.08 1249.59 368.75"/><rect class="cls-7" x="1321.51" y="530.42" width="20.97" height="75" transform="translate(136.57 -529.55) rotate(17.54)"/><rect class="cls-7" x="1334.21" y="477.33" width="20.97" height="100.79" transform="translate(339.75 1496.33) rotate(-72.46)"/><circle class="cls-7" cx="1220.95" cy="459.37" r="18.97"/><path class="cls-7" d="M1388.2,601.16s-.73-12.79,1.46-20.12c2.37-7.95,6.67-21.19-8.67-27.27s-54.49-20.62-65.22-15.22-24.29,40.66-12.12,49.36,53.57,19.6,53.57,19.6" transform="translate(-96.51 -154.53)"/><path class="cls-9" d="M1346.63,549.74a10.94,10.94,0,0,1-6.55,7s8.17,2.23,6.79,8.11c-1.54,6.51-7,6.08-7,6.08s7.7,2.29,6.24,9.57c-1.59,8-10.35,5.22-10.35,5.22s6.88,3.24,4.57,9.18-9.84,4.56-9.84,4.56" transform="translate(-96.51 -154.53)"/><line class="cls-9" x1="1244.12" y1="402.39" x2="1219.93" y2="396.62"/><line class="cls-9" x1="1244.28" y1="416.74" x2="1212.82" y2="409.67"/><line class="cls-9" x1="1240.55" y1="431.64" x2="1210.62" y2="422.12"/><path class="cls-7" d="M1367.49,568.2l-13.63-7.48s-13.44,13.44-22,12.76c0,0,13.25-27.37,12.77-30.67S1375,553.7,1375,553.7" transform="translate(-96.51 -154.53)"/><path class="cls-9" d="M1367.78,567.1l-13.64-7.47s-11.29,13.67-19.81,13" transform="translate(-96.51 -154.53)"/><path class="cls-10" d="M1661.69,1190.56l-74.38-315.82-8.12,75,18,240.84H1477.76l-14.84-255.84a172.32,172.32,0,0,1,4.95-52.17l55.79-221.27,177.28-1.42L1718.54,936l58,245.54Z" transform="translate(-96.51 -154.53)"/><line class="cls-9" x1="1492.28" y1="737.07" x2="1480.37" y2="612.38"/><polygon class="cls-6" points="1480.73 1036.02 1500.65 1075.75 1321.44 1075.75 1396.09 1036.02 1480.73 1036.02"/><path class="cls-6" d="M1451.76,581s56.53-88.48,144.24-86.56c103.42,2.28,152.62,76.22,173.73,124.25a29.08,29.08,0,0,1-26.37,40.79l-94.17.74-125.53,1.07-9-30.43L1497.45,651a54.35,54.35,0,0,1-72.26,9.44L1356,612.64l26.33-64.36Z" transform="translate(-96.51 -154.53)"/><line class="cls-11" x1="1486.96" y1="246.76" x2="1489.66" y2="345.53"/><path class="cls-7" d="M1567.91,472.79l-5.26.11a41.61,41.61,0,0,1-41.92-48.4l5-29.87a41.59,41.59,0,0,1,40.61-34.78h0a41.59,41.59,0,0,1,42,41.17l.3,29.76A41.6,41.6,0,0,1,1567.91,472.79Z" transform="translate(-96.51 -154.53)"/><rect class="cls-7" x="1591.38" y="407.68" width="30.59" height="39.27" rx="15.3" transform="translate(480.04 -1032.16) rotate(36.82)"/><line class="cls-9" x1="1519.14" y1="268.8" x2="1508.62" y2="279.8"/><polyline class="cls-9" points="1445.82 253.93 1442.76 278.01 1451.32 279.15"/><path class="cls-10" d="M1592.65,432.49l-7.63-44.7-1.81-10.6a34.84,34.84,0,0,1-9.6,6.07c-12.75,5.43-49.18-.53-51.91-26.69-2.22-21.35,18.93-7.26,30.45-7.53,18.1-.43,31.5-9.83,54.8,5.66,27.88,18.54,10.44,56.17,10.44,56.17S1604.93,404.69,1592.65,432.49Z" transform="translate(-96.51 -154.53)"/><polygon class="cls-10" points="1460.98 318.37 1476.64 318.38 1461.19 330.92 1460.98 318.37"/><circle class="cls-2" cx="1458.21" cy="260.07" r="4.28"/><circle class="cls-2" cx="1435.76" cy="260.07" r="4.28"/><line class="cls-9" x1="1571.28" y1="445.52" x2="1527.17" y2="403.4"/><line class="cls-9" x1="1418.13" y1="476.32" x2="1407.25" y2="441.67"/><path class="cls-9" d="M1613.64,665.64" transform="translate(-96.51 -154.53)"/><path class="cls-9" d="M1619.88,709.41" transform="translate(-96.51 -154.53)"/><path class="cls-9" d="M1596.61,660.57" transform="translate(-96.51 -154.53)"/><path class="cls-9" d="M1602.85,704.34" transform="translate(-96.51 -154.53)"/><path class="cls-9" d="M1587.61,656.64" transform="translate(-96.51 -154.53)"/><path class="cls-9" d="M1593.85,700.41" transform="translate(-96.51 -154.53)"/><polyline class="cls-9" points="1465.08 780.89 1482.69 795.19 1467.02 811.69"/><polygon class="cls-4" points="1446.03 560.76 1474.37 469.77 1559.41 425.12 1650.41 453.45 1695.06 538.5 1666.72 629.5 1581.67 674.15 1490.68 645.81 1446.03 560.76"/><path class="cls-9" d="M1562.13,439.42s-6.51,1.86-8.75,7.1" transform="translate(-96.51 -154.53)"/><line class="cls-9" x1="1433.98" y1="243.4" x2="1441.34" y2="245.48"/><line class="cls-9" x1="1464.74" y1="244.64" x2="1453.48" y2="246.9"/><rect class="cls-4" x="762.65" y="433.88" width="162.36" height="104.21"/><polyline class="cls-5" points="771.88 445.9 843.83 491.98 915.88 445.9"/><line class="cls-12" x1="818.85" y1="489.92" x2="776.6" y2="523.56"/><line class="cls-12" x1="869.56" y1="489.92" x2="911.81" y2="523.56"/><rect class="cls-4" x="437.52" y="728.79" width="162.36" height="104.21"/><polyline class="cls-5" points="446.75 740.82 518.7 786.89 590.75 740.82"/><line class="cls-12" x1="493.72" y1="784.83" x2="451.47" y2="818.47"/><line class="cls-12" x1="544.43" y1="784.83" x2="586.69" y2="818.47"/><rect class="cls-6" x="123.67" y="597.17" width="162.36" height="104.21"/><polyline class="cls-5" points="132.9 609.19 204.85 655.27 276.9 609.19"/><line class="cls-12" x1="179.88" y1="653.2" x2="137.62" y2="686.85"/><line class="cls-12" x1="230.58" y1="653.2" x2="272.84" y2="686.85"/><rect class="cls-6" x="446.75" y="393.01" width="162.36" height="104.21"/><polyline class="cls-5" points="455.98 405.04 527.93 451.11 599.98 405.04"/><line class="cls-12" x1="502.96" y1="449.05" x2="460.7" y2="482.69"/><line class="cls-12" x1="553.66" y1="449.05" x2="595.92" y2="482.69"/><rect class="cls-6" x="893.69" y="214.43" width="162.36" height="104.21"/><polyline class="cls-5" points="902.92 226.46 974.87 272.54 1046.92 226.46"/><line class="cls-12" x1="949.9" y1="270.47" x2="907.64" y2="304.11"/><line class="cls-12" x1="1000.6" y1="270.47" x2="1042.86" y2="304.11"/><rect class="cls-6" x="911.06" y="670.03" width="162.36" height="104.21"/><polyline class="cls-5" points="920.29 682.05 992.24 728.13 1064.29 682.05"/><line class="cls-12" x1="967.26" y1="726.06" x2="925.01" y2="759.7"/><line class="cls-12" x1="1017.97" y1="726.06" x2="1060.22" y2="759.7"/><rect class="cls-4" x="260.29" y="160.15" width="162.36" height="104.21"/><polyline class="cls-5" points="269.52 172.18 341.47 218.25 413.52 172.18"/><line class="cls-12" x1="316.49" y1="216.19" x2="274.24" y2="249.83"/><line class="cls-12" x1="367.2" y1="216.19" x2="409.46" y2="249.83"/><polygon class="cls-4" points="1293.72 234.15 1224.99 259.78 1188.57 162.15 1257.31 136.51 1285.56 155.02 1275.03 184.04 1302.32 199.97 1293.72 234.15"/><line class="cls-5" x1="1203.29" y1="164.69" x2="1276.17" y2="180.9"/><line class="cls-5" x1="1259.19" y1="195.72" x2="1234.8" y2="241.27"/><circle class="cls-13" cx="1596.05" cy="598.22" r="17.6"/><rect class="cls-13" x="1643.67" y="634.45" width="24.43" height="96.91" transform="translate(-224.17 693.5) rotate(-27.7)"/><line class="cls-14" x1="251.96" y1="160.15" x2="137.87" y2="160.15"/><line class="cls-14" x1="251.96" y1="264.35" x2="176.57" y2="264.35"/><line class="cls-14" x1="251.96" y1="172.18" x2="208.43" y2="172.18"/><line class="cls-14" x1="251.96" y1="252.24" x2="211.2" y2="252.24"/><line class="cls-14" x1="437.52" y1="393.01" x2="323.43" y2="393.01"/><line class="cls-14" x1="437.52" y1="497.22" x2="362.13" y2="497.22"/><line class="cls-14" x1="437.52" y1="405.04" x2="393.99" y2="405.04"/><line class="cls-14" x1="437.52" y1="485.1" x2="396.76" y2="485.1"/><line class="cls-14" x1="881.21" y1="214.43" x2="767.12" y2="214.43"/><line class="cls-14" x1="881.21" y1="318.64" x2="805.82" y2="318.64"/><line class="cls-14" x1="881.21" y1="226.46" x2="837.68" y2="226.46"/><line class="cls-14" x1="881.21" y1="306.52" x2="840.45" y2="306.52"/><line class="cls-14" x1="753.82" y1="433.88" x2="639.73" y2="433.88"/><line class="cls-14" x1="753.82" y1="538.08" x2="678.44" y2="538.08"/><line class="cls-14" x1="753.82" y1="445.9" x2="710.3" y2="445.9"/><line class="cls-14" x1="753.82" y1="525.96" x2="713.06" y2="525.96"/><line class="cls-14" x1="900.56" y1="670.03" x2="786.47" y2="670.03"/><line class="cls-14" x1="900.56" y1="774.23" x2="825.17" y2="774.23"/><line class="cls-14" x1="900.56" y1="682.05" x2="857.03" y2="682.05"/><line class="cls-14" x1="900.56" y1="762.11" x2="859.8" y2="762.11"/><line class="cls-14" x1="424.24" y1="728.79" x2="310.15" y2="728.79"/><line class="cls-14" x1="424.24" y1="833" x2="348.86" y2="833"/><line class="cls-14" x1="424.24" y1="740.82" x2="380.72" y2="740.82"/><line class="cls-14" x1="424.24" y1="820.88" x2="383.49" y2="820.88"/><line class="cls-14" x1="114.09" y1="597.17" y2="597.17"/><line class="cls-14" x1="114.09" y1="701.37" x2="38.71" y2="701.37"/><line class="cls-14" x1="114.09" y1="609.19" x2="70.56" y2="609.19"/><line class="cls-14" x1="114.09" y1="689.25" x2="73.33" y2="689.25"/></g></svg>