<svg xmlns="http://www.w3.org/2000/svg" xmlns:xlink="http://www.w3.org/1999/xlink" viewBox="0 0 1752.12 1092.48"><defs><style>.cls-1,.cls-11,.cls-12,.cls-13,.cls-17,.cls-4,.cls-5{fill:none;}.cls-2{fill:#e9eef2;}.cls-3{fill:#dce2e5;}.cls-4{stroke:#e9eef2;stroke-width:10px;}.cls-11,.cls-12,.cls-17,.cls-4,.cls-5{stroke-miterlimit:10;}.cls-12,.cls-17,.cls-5{stroke:#fff;stroke-linecap:square;}.cls-17,.cls-5{stroke-width:3px;}.cls-6{fill:#274992;}.cls-7{fill:#3361c2;}.cls-8{fill:#162c56;}.cls-9{fill:#ef6e45;}.cls-10{clip-path:url(#clip-path);}.cls-11{stroke:#ffa161;stroke-width:31px;}.cls-11,.cls-13{stroke-linecap:round;}.cls-12{stroke-width:14px;}.cls-13{stroke:#3361c2;stroke-linejoin:round;stroke-width:65px;}.cls-14{fill:#fff;}.cls-15{fill:#24272d;}.cls-16{fill:#ffba5f;}.cls-17{fill-rule:evenodd;}</style><clipPath id="clip-path" transform="translate(-95.64 -145.33)"><path class="cls-1" d="M1112.08,412.92s-79-28.69-180.51-26.46c-119.66,2.63-176.59,88.17-201,143.74a33.63,33.63,0,0,0,30.5,47.19l109,.87,145.23,1.23,25.43-85.75L1143,499.79a59.06,59.06,0,0,0,61.16-46.2L1232.81,324l-70.27-18.64Z"/></clipPath></defs><title>3</title><g id="Back"><circle class="cls-2" cx="923.67" cy="252.91" r="161.11"/><polygon class="cls-2" points="1136.58 876.19 710.75 876.19 872.21 240.11 975.12 240.11 1136.58 876.19"/><polygon class="cls-2" points="1401.44 238.37 1401.44 456.21 1249.21 456.21 1249.21 293.54 1304.39 238.37 1401.44 238.37"/><polygon class="cls-3" points="1304.39 238.37 1304.39 293.54 1249.21 293.54 1304.39 238.37"/><circle class="cls-3" cx="1325.33" cy="332.16" r="19.13"/><polygon class="cls-3" points="1350.61 406.16 1300.05 406.16 1319.22 330.64 1331.44 330.64 1350.61 406.16"/><polygon class="cls-2" points="1366.56 273.09 1366.56 490.93 1214.33 490.93 1214.33 328.26 1269.51 273.09 1366.56 273.09"/><polygon class="cls-3" points="1269.51 273.09 1269.51 328.26 1214.33 328.26 1269.51 273.09"/><circle class="cls-3" cx="1290.44" cy="366.88" r="19.13"/><polygon class="cls-3" points="1315.72 440.88 1265.16 440.88 1284.33 365.36 1296.55 365.36 1315.72 440.88"/><rect class="cls-3" x="628.3" y="414.64" width="37.83" height="220.53" rx="18.91" transform="translate(1198.79 904.49) rotate(-180)"/><rect class="cls-3" x="605.42" y="551.94" width="27.18" height="79.29" rx="13.59" transform="translate(-68.22 1065.26) rotate(-90)"/><rect class="cls-3" x="618.39" y="520.66" width="27.18" height="63.38" rx="13.59" transform="translate(-16.01 1039) rotate(-90)"/><path class="cls-3" d="M647.21,336.25a39.08,39.08,0,1,1-39.07,39.08,39.12,39.12,0,0,1,39.07-39.08m0-32a71.08,71.08,0,1,0,71.08,71.08,71.08,71.08,0,0,0-71.08-71.08Z" transform="translate(-95.64 -145.33)"/><rect class="cls-2" x="1478.73" y="158.3" width="32.64" height="190.3" rx="16.32" transform="translate(1652.86 -1386.92) rotate(90)"/><rect class="cls-2" x="1540.86" y="243.58" width="23.45" height="68.42" rx="11.73" transform="translate(3009.53 410.26) rotate(-180)"/><rect class="cls-2" x="1507" y="239.25" width="23.45" height="54.69" rx="11.73" transform="translate(2941.81 387.88) rotate(-180)"/><path class="cls-2" d="M1366,224.12a29.33,29.33,0,1,1-29.33,29.33A29.37,29.37,0,0,1,1366,224.12m0-32a61.33,61.33,0,1,0,61.34,61.33A61.33,61.33,0,0,0,1366,192.12Z" transform="translate(-95.64 -145.33)"/><circle class="cls-3" cx="199.13" cy="627.67" r="56.62"/><circle class="cls-2" cx="155.06" cy="125.24" r="78.31"/><polygon class="cls-3" points="291.44 947.06 106.82 947.06 142.04 796.27 152.45 751.71 176.82 647.37 221.44 647.37 245.81 751.71 256.22 796.27 291.44 947.06"/><circle class="cls-3" cx="1613.21" cy="203.56" r="70.19"/><polygon class="cls-3" points="1729.06 448.42 1497.36 448.42 1585.21 222.7 1641.21 222.7 1729.06 448.42"/><circle class="cls-2" cx="1486.75" cy="683.19" r="76.25"/><polygon class="cls-2" points="1587.52 978.18 1385.98 978.18 1462.4 677.13 1511.1 677.13 1587.52 978.18"/><circle class="cls-4" cx="1706.27" cy="546.21" r="34"/><line class="cls-4" x1="1694.59" y1="578.15" x2="1670.11" y2="649.13"/><line class="cls-4" x1="1670.62" y1="643.66" x2="1690.42" y2="650.67"/><line class="cls-4" x1="1679.28" y1="622.55" x2="1695.96" y2="628.52"/><circle class="cls-4" cx="343.79" cy="53.86" r="28.25"/><line class="cls-4" x1="363.11" y1="74.49" x2="406.6" y2="119.24"/><line class="cls-4" x1="402.73" y1="116.81" x2="415.35" y2="104.75"/><line class="cls-4" x1="390.31" y1="102.48" x2="400.99" y2="92.34"/><circle class="cls-4" cx="1244.25" cy="674.43" r="27.25"/><line class="cls-4" x1="1259.87" y1="696.77" x2="1293.44" y2="746.72"/><line class="cls-4" x1="1291.92" y1="742.58" x2="1278.03" y2="752.09"/><line class="cls-4" x1="1280.87" y1="728.01" x2="1269.17" y2="736.07"/><line class="cls-4" x1="3.54" y1="639.8" x2="90.33" y2="726.59"/><line class="cls-4" x1="1647.55" y1="3.54" x2="1734.34" y2="90.33"/><line class="cls-4" x1="322.04" y1="487.74" x2="408.84" y2="574.53"/><line class="cls-4" x1="1661.79" y1="832.79" x2="1748.59" y2="919.58"/><line class="cls-4" x1="623.2" y1="42.02" x2="709.99" y2="128.81"/><line class="cls-4" x1="407.59" y1="251.39" x2="323.29" y2="335.69"/><line class="cls-4" x1="1297.36" y1="911.61" x2="1213.07" y2="995.91"/><line class="cls-4" x1="468.03" y1="915.88" x2="541.26" y2="989.11"/><rect class="cls-2" x="120.9" y="148.77" width="68.31" height="227.69"/><polygon class="cls-2" points="1331.67 307.81 1331.67 525.65 1179.44 525.65 1179.44 362.98 1234.62 307.81 1331.67 307.81"/><polygon class="cls-3" points="1234.62 307.81 1234.62 362.98 1179.44 362.98 1234.62 307.81"/><circle class="cls-3" cx="1255.56" cy="401.6" r="19.13"/><polygon class="cls-3" points="1280.84 475.6 1230.28 475.6 1249.45 400.08 1261.67 400.08 1280.84 475.6"/><line class="cls-5" x1="1234.62" y1="307.81" x2="1331.67" y2="307.81"/><line class="cls-5" x1="1331.67" y1="493.75" x2="1331.67" y2="307.81"/><line class="cls-5" x1="1269.51" y1="273.09" x2="1366.56" y2="273.09"/><line class="cls-5" x1="1366.56" y1="456.21" x2="1366.56" y2="273.09"/><path class="cls-2" d="M462.26,919.31A22.28,22.28,0,0,1,440,941.59H237.68L248.09,897H440A22.27,22.27,0,0,1,462.26,919.31Z" transform="translate(-95.64 -145.33)"/><path class="cls-2" d="M508.58,875.58a43.73,43.73,0,1,1-43.74,43.73,43.78,43.78,0,0,1,43.74-43.73m0-40a83.73,83.73,0,1,0,83.73,83.73,83.74,83.74,0,0,0-83.73-83.73Z" transform="translate(-95.64 -145.33)"/></g><g id="Man"><path class="cls-6" d="M897.22,1191.85l44.4-365.39,21,96-16.17,269.39h121.95l17.17-296a199.52,199.52,0,0,0-5.72-60.36l-64.55-256-205.11-1.64L809.46,880l-31.2,311.85Z" transform="translate(-95.64 -145.33)"/><line class="cls-5" x1="846.59" y1="689.07" x2="860.36" y2="544.81"/><path class="cls-7" d="M1176.14,308.69l-2.21-12.49a177.69,177.69,0,0,1-1-18.34c0-9.57,5.19-21.51-3.65-37.38s9-6.28,13.52,1.21c3.82,6.25,3.86,20.33,8.19,25a23.38,23.38,0,0,0,4.77-4.59l30-50.29a3.88,3.88,0,0,1,4.81-1.68l2,.81a3.89,3.89,0,0,1,2,5.41c-5.71,11-23.61,43.41-23,43.64l1.07,1,36.41-48.94a3.89,3.89,0,0,1,5-1.21l2.71,1.45a3.86,3.86,0,0,1,1.5,5.42c-7,11.7-34,49.4-33.4,49.66l1.38,1.06,34.68-38.9a3.88,3.88,0,0,1,5.25-1.05l2.08,1.33a3.89,3.89,0,0,1,1.19,5.38L1237,274l1.25,1.54,29.12-26.13a3.89,3.89,0,0,1,5.13-.62l1,.69a3.9,3.9,0,0,1,1,5.34c-4,6.07-17.35,17-27.35,29.77-7.76,9.89-11.09,18.79-22.22,30.18-4.7,4.83-12.26,9.9-16.4,12.76" transform="translate(-95.64 -145.33)"/><polygon class="cls-8" points="857.64 1046.52 834.58 1092.48 1041.93 1092.48 955.56 1046.52 857.64 1046.52"/><polygon class="cls-8" points="689.65 1046.52 666.6 1092.48 873.94 1092.48 787.57 1046.52 689.65 1046.52"/><path class="cls-9" d="M1112.08,412.92s-79-28.69-180.51-26.46c-119.66,2.63-176.59,88.17-201,143.74a33.63,33.63,0,0,0,30.5,47.19l109,.87,145.23,1.23,25.43-85.75L1143,499.79a59.06,59.06,0,0,0,61.16-46.2L1232.81,324l-70.27-18.64Z" transform="translate(-95.64 -145.33)"/><g class="cls-10"><line class="cls-11" x1="662.8" y1="270.06" x2="729.23" y2="336.49"/><line class="cls-11" x1="767.83" y1="280.92" x2="841.47" y2="207.27"/><line class="cls-11" x1="888.61" y1="349.68" x2="843.43" y2="304.49"/><line class="cls-11" x1="915.67" y1="277.03" x2="981.24" y2="211.46"/><line class="cls-11" x1="997.75" y1="304.75" x2="1073.26" y2="380.26"/><line class="cls-11" x1="1086.19" y1="270.88" x2="1160.55" y2="196.51"/><line class="cls-11" x1="1077.57" y1="194.57" x2="997.99" y2="114.99"/><line class="cls-11" x1="803.37" y1="355.49" x2="761.03" y2="397.82"/><line class="cls-11" x1="662.88" y1="364.08" x2="589.68" y2="437.28"/><line class="cls-11" x1="867.54" y1="417.39" x2="924.36" y2="474.21"/><line class="cls-12" x1="940.95" y1="428.2" x2="818.01" y2="426.15"/></g><line class="cls-13" x1="850.43" y1="133.36" x2="847.3" y2="247.64"/><path class="cls-7" d="M964.07,361.41l6.08.13a48.12,48.12,0,0,0,48.49-56L1012.91,271a48.12,48.12,0,0,0-47-40.24h0a48.12,48.12,0,0,0-48.61,47.63L917,312.81A48.13,48.13,0,0,0,964.07,361.41Z" transform="translate(-95.64 -145.33)"/><rect class="cls-7" x="901.51" y="286.08" width="35.39" height="45.43" rx="17.7" transform="translate(1744.49 -140.19) rotate(143.18)"/><line class="cls-5" x1="813.2" y1="158.86" x2="825.36" y2="171.6"/><polyline class="cls-5" points="898.02 141.66 901.56 169.53 891.66 170.84"/><path class="cls-14" d="M962.34,327a13.21,13.21,0,1,0,24.29,10.4c2.87-6.7-4.12-9-10.83-11.88S965.21,320.3,962.34,327Z" transform="translate(-95.64 -145.33)"/><path class="cls-15" d="M935.43,314.78l8.84-51.7,2.09-12.27a40.12,40.12,0,0,0,11.11,7c14.75,6.28,56.89-.61,60-30.88,2.58-24.69-21.9-8.4-35.23-8.71-20.93-.5-36.44-11.38-63.39,6.54-32.27,21.46-12.08,65-12.08,65S921.23,282.62,935.43,314.78Z" transform="translate(-95.64 -145.33)"/><polygon class="cls-15" points="880.48 216.22 862.36 216.23 880.24 230.74 880.48 216.22"/><circle class="cls-14" cx="873.69" cy="148.77" r="4.95"/><circle class="cls-14" cx="909.67" cy="148.77" r="4.95"/><rect class="cls-16" x="748.15" y="751.42" width="54.98" height="490.05" rx="26.98" transform="translate(101.91 -271.53) rotate(10.65)"/><rect class="cls-16" x="748.15" y="1116.61" width="54.98" height="101.67" rx="26.98" transform="translate(-610.69 1568.61) rotate(-79.35)"/><rect class="cls-16" x="787.5" y="1033.98" width="54.98" height="117.14" rx="26.98" transform="translate(-505.01 1546.22) rotate(-79.35)"/><path class="cls-16" d="M837.84,631.76A60.56,60.56,0,0,1,849,632.82a59.85,59.85,0,0,1-10.92,118.66,60.67,60.67,0,0,1-11.2-1.06,59.85,59.85,0,0,1,10.93-118.66h0m0-63a122.95,122.95,0,1,0,22.85,2.14,122.9,122.9,0,0,0-22.85-2.14Z" transform="translate(-95.64 -145.33)"/><path class="cls-7" d="M871.52,572.84l18.06,15.57s-6.57,46.77,14.36,46.77c0,0-.83,7.41,3.28,8.63s17.64-14.88,17.64-14.88,16.41-4,21.33-18.78,9.85-50.46,5.33-53.74-52.1-10.26-52.1-10.26S879.32,546.15,871.52,572.84Z" transform="translate(-95.64 -145.33)"/><line class="cls-5" x1="813.36" y1="395.9" x2="737.67" y2="357.03"/><line class="cls-5" x1="752.87" y1="363.32" x2="803.9" y2="314.6"/><line class="cls-5" x1="942.19" y1="367.08" x2="951.21" y2="331.6"/><path class="cls-5" d="M911.15,584.54" transform="translate(-95.64 -145.33)"/><path class="cls-5" d="M903.94,635.18" transform="translate(-95.64 -145.33)"/><path class="cls-5" d="M930.85,578.67" transform="translate(-95.64 -145.33)"/><path class="cls-5" d="M923.63,629.31" transform="translate(-95.64 -145.33)"/><path class="cls-5" d="M941.27,574.12" transform="translate(-95.64 -145.33)"/><path class="cls-5" d="M934.05,624.76" transform="translate(-95.64 -145.33)"/><path class="cls-5" d="M871.15,574.86s1.39-28.71,39.24-33" transform="translate(-95.64 -145.33)"/><polyline class="cls-5" points="879.21 759.44 866.94 777.13 880.44 791.6"/><path class="cls-17" d="M784.44,803.94s16,6.87,25.4,9" transform="translate(-95.64 -145.33)"/><line class="cls-5" x1="625.26" y1="1055.49" x2="637.57" y2="991.08"/><line class="cls-5" x1="640.65" y1="977.95" x2="646.19" y2="949.24"/></g></svg>