<svg xmlns="http://www.w3.org/2000/svg" xmlns:xlink="http://www.w3.org/1999/xlink" viewBox="0 0 1666.46 1091.43"><defs><style>.cls-1,.cls-12,.cls-14,.cls-19,.cls-20,.cls-22,.cls-23,.cls-5{fill:none;}.cls-2{fill:url(#linear-gradient);}.cls-3{fill:url(#linear-gradient-2);}.cls-24,.cls-4{fill:#ffc774;}.cls-5{stroke:#3971d3;stroke-width:12px;}.cls-12,.cls-14,.cls-19,.cls-21,.cls-22,.cls-23,.cls-24,.cls-5{stroke-miterlimit:10;}.cls-6{fill:#fff;}.cls-7{fill:#f2f6f9;}.cls-21,.cls-8{fill:#3361c2;}.cls-9{fill:url(#linear-gradient-3);}.cls-10{fill:url(#linear-gradient-4);}.cls-11{fill:#e4eff7;}.cls-12,.cls-14{stroke:#32373f;}.cls-12,.cls-20{stroke-linecap:round;}.cls-12{stroke-width:36px;}.cls-13{fill:#2b292d;}.cls-14{stroke-width:23px;}.cls-15{fill:#162c56;}.cls-16{clip-path:url(#clip-path);}.cls-17{fill:#b49ac9;}.cls-18{fill:#ea6f57;}.cls-19,.cls-21,.cls-22,.cls-24{stroke:#fff;}.cls-19,.cls-21,.cls-24{stroke-width:3px;}.cls-20{stroke:#3361c2;stroke-linejoin:round;stroke-width:40px;}.cls-21{stroke-linecap:square;}.cls-22{stroke-width:14px;}.cls-23{stroke:#292c33;stroke-width:18px;}.cls-25{fill:#292c33;}</style><linearGradient id="linear-gradient" x1="1444.9" y1="562.38" x2="1444.9" y2="722.38" gradientUnits="userSpaceOnUse"><stop offset="0.01" stop-color="#dfe5ea" stop-opacity="0.6"/><stop offset="1" stop-color="#fff"/></linearGradient><linearGradient id="linear-gradient-2" x1="675.1" y1="514.04" x2="671.72" y2="753.6" gradientUnits="userSpaceOnUse"><stop offset="0.01" stop-color="#d3dbe0"/><stop offset="1" stop-color="#fff"/></linearGradient><linearGradient id="linear-gradient-3" x1="1674.46" y1="1028.21" x2="1672.89" y2="1204.49" gradientTransform="matrix(-12.18, 0, 0, 1, 21977.93, 0)" gradientUnits="userSpaceOnUse"><stop offset="0.01" stop-color="#dfe5ea"/><stop offset="1" stop-color="#fff"/></linearGradient><linearGradient id="linear-gradient-4" x1="1724.5" y1="848.12" x2="1722.91" y2="1026.49" gradientTransform="translate(-9113.49) scale(6.06 1)" xlink:href="#linear-gradient-3"/><clipPath id="clip-path" transform="translate(-161.92 -128.86)"><path class="cls-1" d="M860.85,499.82l-62.62,9.25,12.7,95-130.38,3.22,15,91.67-108,13.89C573.42,607.1,655,450.89,655,450.89L658,469c11.29-22.07,22.27-35.66,80.54-34.13,58.71,1.55,76.32,3.47,76.32,3.47l-12.25-54.84,56.93-16.22,26.21,94.2A30.48,30.48,0,0,1,860.85,499.82Z"/></clipPath></defs><title>4</title><g id="Back"><path class="cls-2" d="M1061.41,713.36s32.64-61.44,94.23-61.44c40.15,0,49.94,27.54,89.11,27.54s88.13-126.92,154.72-126.92,152.77,149.55,202.71,149.55,62.67-57,104.78-57,121.43,97.43,121.43,97.43" transform="translate(-161.92 -128.86)"/><path class="cls-3" d="M161.92,762.56s111.61-248,226-248,102.78,214.77,227,214.77,231.69-130.72,342-130.72S1181,781.08,1181,781.08" transform="translate(-161.92 -128.86)"/><circle class="cls-4" cx="769.28" cy="824.74" r="53.16"/><path class="cls-5" d="M1006,952.6a87.11,87.11,0,0,1,87.12,87.12" transform="translate(-161.92 -128.86)"/><path class="cls-5" d="M1180.59,1127.09a87.11,87.11,0,0,1-87.12-87.11" transform="translate(-161.92 -128.86)"/><rect class="cls-6" x="902.63" y="892.43" width="84.58" height="45.71"/><path class="cls-7" d="M1707.33,302.79H1317.46s26.61-66.66,81.25-63.85S1447,282.17,1479,282.17s54.73-83.05,117.23-83.05C1679.31,199.12,1707.33,302.79,1707.33,302.79Z" transform="translate(-161.92 -128.86)"/><path class="cls-7" d="M1027.1,416.5h417.59c-15.6-33.05-39.34-62.23-71.68-63.21-38.6-1.16-56,44.88-93,44.88s-58.1-112.61-130.52-112.61C1076.18,285.56,1042.3,359.74,1027.1,416.5Z" transform="translate(-161.92 -128.86)"/><path class="cls-5" d="M1178.07,1127.09h515.81a89.33,89.33,0,0,0,0-178.65H1274.47a62.75,62.75,0,0,1,0-125.49h173a41.7,41.7,0,0,0,41.69-41.7v-64" transform="translate(-161.92 -128.86)"/><path class="cls-7" d="M292.47,214H688.78s-19.1-52.18-68-52.18c-36.64,0-53.12,22.05-88.3,22.05s-68.14-55-136.86-55C326.05,128.86,292.47,214,292.47,214Z" transform="translate(-161.92 -128.86)"/><path class="cls-8" d="M1557.5,512.32c0,35.95-65.09,144.71-65.09,144.71s-65.09-108.76-65.09-144.71a65.09,65.09,0,1,1,130.18,0Z" transform="translate(-161.92 -128.86)"/><circle class="cls-4" cx="1330.49" cy="382.07" r="34.4"/><rect class="cls-6" x="1585.57" y="908.55" width="88.04" height="77.2" transform="translate(3097.27 1765.45) rotate(180)"/><rect class="cls-6" x="1457.62" y="908.55" width="72.74" height="77.2" transform="translate(2826.04 1765.45) rotate(180)"/><rect class="cls-6" x="1150.93" y="964.72" width="51.98" height="73.36"/><rect class="cls-6" x="1146.85" y="660.9" width="46.08" height="77.2"/><path class="cls-9" d="M1713,1220.29H1486.73s11.46-180.07,100.26-180.07S1713,1220.29,1713,1220.29Z" transform="translate(-161.92 -128.86)"/><path class="cls-10" d="M1229,1042.42h190.15s-9.62-182.14-84.24-182.14S1229,1042.42,1229,1042.42Z" transform="translate(-161.92 -128.86)"/></g><g id="Man"><ellipse class="cls-11" cx="432.72" cy="1056.41" rx="375.48" ry="6.95"/><polyline class="cls-8" points="626.59 224.46 638.31 250.88 627.51 252.17"/><line class="cls-12" x1="687.76" y1="236.34" x2="729.37" y2="241.19"/><ellipse class="cls-13" cx="853.33" cy="365.87" rx="18.37" ry="9.74" transform="translate(229.32 1042.31) rotate(-83.36)"/><line class="cls-14" x1="632.45" y1="229.61" x2="687.6" y2="235.97"/><ellipse class="cls-13" cx="794.37" cy="358.47" rx="11.58" ry="5.79" transform="translate(184.52 977.19) rotate(-83.36)"/><path class="cls-8" d="M799.33,347.4s-.1-2,3.28-4.17c14-8.83,55.4-15.37,53.12,21.29-2.21,35.55-35.57,21.31-48.8,12.57-3.79-2.5-2.83-5.91-2.83-5.91s20.16,2.95,20.82-9.8S799.33,347.4,799.33,347.4Z" transform="translate(-161.92 -128.86)"/><path class="cls-8" d="M600.57,703.74s-5.46,32.19,2,45.54,19.57,20.7,31.52,19.17c5.78-.73,28.87-33.54,28.87-33.54l-33.12-35.82Z" transform="translate(-161.92 -128.86)"/><polygon class="cls-15" points="584.43 1056.3 443.94 1056.3 454.55 1014.21 517.37 1013.52 584.43 1056.3"/><polygon class="cls-15" points="755.97 752.16 756.85 760.85 832.42 764.43 708.01 829.41 700.28 763.98 755.97 752.16"/><path class="cls-4" d="M860.85,499.82l-62.62,9.25,12.7,95-130.38,3.22,15,91.67-108,13.89C573.42,607.1,655,450.89,655,450.89L658,469c11.29-22.07,22.27-35.66,80.54-34.13,58.71,1.55,76.32,3.47,76.32,3.47l-12.25-54.84,56.93-16.22,26.21,94.2A30.48,30.48,0,0,1,860.85,499.82Z" transform="translate(-161.92 -128.86)"/><g class="cls-16"><path class="cls-17" d="M604.52,612.08c0,10.28-18.61,40.43-18.61,40.43s-18.62-30.15-18.62-40.43a18.62,18.62,0,0,1,37.23,0Z" transform="translate(-161.92 -128.86)"/><path class="cls-17" d="M652.83,681c0,10.28-18.62,40.44-18.62,40.44S615.6,691.28,615.6,681a18.62,18.62,0,0,1,37.23,0Z" transform="translate(-161.92 -128.86)"/><path class="cls-17" d="M661.75,549c0,10.28-18.61,40.44-18.61,40.44S624.52,559.27,624.52,549a18.62,18.62,0,0,1,37.23,0Z" transform="translate(-161.92 -128.86)"/><path class="cls-17" d="M714.13,480.07c0,10.28-18.62,40.43-18.62,40.43s-18.61-30.15-18.61-40.43a18.62,18.62,0,0,1,37.23,0Z" transform="translate(-161.92 -128.86)"/><path class="cls-17" d="M762.43,549c0,10.28-18.61,40.44-18.61,40.44S725.21,559.27,725.21,549a18.61,18.61,0,1,1,37.22,0Z" transform="translate(-161.92 -128.86)"/><path class="cls-17" d="M771.36,417c0,10.28-18.62,40.44-18.62,40.44S734.13,427.26,734.13,417a18.62,18.62,0,0,1,37.23,0Z" transform="translate(-161.92 -128.86)"/><path class="cls-17" d="M827.44,477.15c0,10.28-18.61,40.43-18.61,40.43s-18.61-30.15-18.61-40.43a18.61,18.61,0,0,1,37.22,0Z" transform="translate(-161.92 -128.86)"/><path class="cls-17" d="M884.67,414.06c0,10.28-18.61,40.44-18.61,40.44s-18.61-30.16-18.61-40.44a18.61,18.61,0,0,1,37.22,0Z" transform="translate(-161.92 -128.86)"/></g><path class="cls-18" d="M952.07,662.61,928.39,885.82,853.13,901.9l.16-198.77L756.68,721.7,685.6,1143.07l-77.76,1.09L635,697.77a345.42,345.42,0,0,1,6-46.21L649.61,608,776,604.7l122-1.77A53.68,53.68,0,0,1,952.07,662.61Z" transform="translate(-161.92 -128.86)"/><path class="cls-19" d="M669.69,483.82,650.61,608s-19.07,56.45-19.93,160.62" transform="translate(-161.92 -128.86)"/><line class="cls-20" x1="563.29" y1="223.26" x2="565.33" y2="306.04"/><path class="cls-8" d="M746.08,413.61l4.37.62a34.86,34.86,0,0,0,39.73-36.06l-1.12-25.35a34.87,34.87,0,0,0-30.3-33h0a34.86,34.86,0,0,0-39.09,30l-3.24,24.73A34.86,34.86,0,0,0,746.08,413.61Z" transform="translate(-161.92 -128.86)"/><path class="cls-13" d="M571.84,392.1c2.45,55.36,43.29,51.12,43.29,51.12s-29.68,63.91,35.6,50.35,85.19-62.91,79.16-89.48c-2.41-10.58.65-27.2-6.66-34.4,35.41-10.26,35.54-26.15,35.54-26.15s47.27,15.21,41-29.31S746,261.33,719.08,265.3a56.51,56.51,0,0,0-16.35,5.07c-16.65,7.93-28.79,19.95-51.81,23.3-63.61,9.27-46.08,49-46.08,49S570.19,354.65,571.84,392.1Z" transform="translate(-161.92 -128.86)"/><ellipse class="cls-6" cx="620.88" cy="230.04" rx="4.62" ry="3.71"/><path class="cls-21" d="M780.65,386.24s-5.1,0-5.22-5.21" transform="translate(-161.92 -128.86)"/><path class="cls-8" d="M746.24,384.24l.79-.55c5.89-4.2,7.9-13.52,4.46-20.72l-6.33-13.29c-3.44-7.19-11.07-9.65-17-5.46l-.78.56c-5.9,4.2-7.91,13.52-4.47,20.72l6.34,13.28C732.72,386,740.35,388.44,746.24,384.24Z" transform="translate(-161.92 -128.86)"/><line class="cls-21" x1="567.82" y1="222.17" x2="577.41" y2="242.25"/><path class="cls-19" d="M757.67,724s-14.48.14-27.82-4.1c-16.24-5.16-21.46-9.74-21.46-9.74" transform="translate(-161.92 -128.86)"/><line class="cls-21" x1="653.47" y1="308.02" x2="669.13" y2="309.32"/><line class="cls-22" x1="489.96" y1="471.87" x2="670.15" y2="467.87"/></g><g id="Dog"><path class="cls-15" d="M418.49,979.11v110.67l39.43,71.34h0a22.47,22.47,0,0,1,22.48,22.48v1.56H426.19l-64.6-112.68" transform="translate(-161.92 -128.86)"/><path class="cls-4" d="M397.82,916.41v-47.5a40.41,40.41,0,0,1,39.92-40.41l11.54-.14a40.41,40.41,0,0,1,40.89,40.4h49c0,35.72-3.1,64.67-38.82,64.67l-20.07,11.24,3,31.58a101.25,101.25,0,0,1-9.41,53.07l-39.26,82.33a129.06,129.06,0,0,1-116.49,73.51H299.2c-51.3,0-79.11-60-45.94-99.17Z" transform="translate(-161.92 -128.86)"/><ellipse class="cls-6" cx="315.8" cy="737.15" rx="3.73" ry="5.73"/><path class="cls-4" d="M299.2,1185.17H447.28a25.87,25.87,0,0,0-25.87-25.87h-81" transform="translate(-161.92 -128.86)"/><path class="cls-4" d="M474.69,979.11v110.67l39.43,71.34h0a22.48,22.48,0,0,1,22.49,22.48v1.56H482.39L417.8,1072.48" transform="translate(-161.92 -128.86)"/><path class="cls-19" d="M403,1157.57H371.67s-1.86-94.37-59.54-94.37" transform="translate(-161.92 -128.86)"/><path class="cls-4" d="M303.93,1184.83H278.32s-76.09-37.29-55.68-126.53S238.91,1166.09,303.93,1184.83Z" transform="translate(-161.92 -128.86)"/><line class="cls-23" x1="325.22" y1="822.64" x2="227.48" y2="789.31"/><path class="cls-24" d="M420.5,863.36l-8.05,40a16.21,16.21,0,0,0,6.44,16.37L446,939.17a9,9,0,0,0,14.19-7.28V844.21" transform="translate(-161.92 -128.86)"/><path class="cls-25" d="M539.21,868.76H523.82s-.3,14.67,13.95,14.69A61.87,61.87,0,0,0,539.21,868.76Z" transform="translate(-161.92 -128.86)"/></g></svg>