<svg xmlns="http://www.w3.org/2000/svg" xmlns:xlink="http://www.w3.org/1999/xlink" viewBox="0 0 1696.78 1035.01"><defs><style>.cls-1,.cls-13,.cls-14,.cls-16,.cls-19,.cls-21,.cls-4{fill:none;}.cls-2{fill:#e9eef2;}.cls-3{fill:#f2f6f9;}.cls-4{stroke:#f2f6f9;}.cls-14,.cls-16,.cls-19,.cls-21,.cls-4{stroke-miterlimit:10;}.cls-16,.cls-4{stroke-width:14px;}.cls-5{fill:#e4eff7;}.cls-6{fill:#e09b8c;}.cls-7{fill:#fff;}.cls-8{fill:#f9d0b5;}.cls-9{fill:#3361c2;}.cls-10{fill:#162c56;}.cls-11{fill:#72a065;}.cls-12{fill:#ffba5f;}.cls-13{stroke:#3361c2;stroke-linejoin:round;stroke-width:65px;}.cls-13,.cls-19{stroke-linecap:round;}.cls-14,.cls-16{stroke:#fff;stroke-linecap:square;}.cls-14{stroke-width:3px;}.cls-15{fill:#24272d;}.cls-17{clip-path:url(#clip-path);}.cls-18{fill:#ea6f57;}.cls-19,.cls-21{stroke:#1f2128;stroke-width:8px;}.cls-20{clip-path:url(#clip-path-2);}.cls-22{fill:#2b292d;}</style><clipPath id="clip-path" transform="translate(-152.16 -141.97)"><path class="cls-1" d="M837.41,658.9S799.45,535,745.56,508c-83.8-42-149.21,9.06-180.29,43.47-15.62,17.29-56.83,73.87-56.83,73.87L584.78,672l2.31,18.08a52,52,0,0,0,33.41,42.12l114,42.54,25.91-72.57,11.28,19.64,150.37,63.93,28.18-75.51ZM711.06,676.19l20.27-24.74L755,692.72Z"/></clipPath><clipPath id="clip-path-2" transform="translate(-152.16 -141.97)"><polygon class="cls-1" points="838.14 589.09 850.25 634.5 890.47 639.11 874.93 672.47 839.92 701.38 804.69 698.52 794.47 669.84 800.15 634.37 838.14 589.09"/></clipPath></defs><title>5</title><g id="Back"><rect class="cls-2" x="1500.63" y="698.82" width="112.48" height="269.02"/><path class="cls-3" d="M494.19,489.79a149.32,149.32,0,0,1,0,298.64" transform="translate(-152.16 -141.97)"/><path class="cls-2" d="M1417.35,471.68a167.26,167.26,0,1,1,334.52,0" transform="translate(-152.16 -141.97)"/><path class="cls-3" d="M874.26,921.22a167.26,167.26,0,0,1,334.52,0" transform="translate(-152.16 -141.97)"/><polygon class="cls-3" points="909.6 337.69 765.95 122.3 622.3 337.69 909.6 337.69"/><polygon class="cls-3" points="306.28 843.19 191.07 670.45 75.87 843.19 306.28 843.19"/><polygon class="cls-3" points="1110.16 18.68 1237.4 209.46 1364.64 18.68 1110.16 18.68"/><rect class="cls-2" x="284.07" width="112.48" height="269.02"/><path class="cls-3" d="M343.23,636.26a149.32,149.32,0,0,1,0-298.63" transform="translate(-152.16 -141.97)"/><line class="cls-4" x1="610.6" y1="40.91" x2="528.14" y2="123.37"/><line class="cls-4" x1="955.53" y1="129.34" x2="1037.99" y2="211.8"/><line class="cls-4" x1="4.95" y1="606.68" x2="87.41" y2="689.14"/><line class="cls-4" x1="1580.64" y1="415.49" x2="1663.1" y2="497.95"/><line class="cls-4" x1="756.87" y1="405.89" x2="839.33" y2="488.35"/><line class="cls-4" x1="99.41" y1="5.29" x2="181.86" y2="87.75"/><line class="cls-4" x1="725.44" y1="866.39" x2="642.98" y2="948.84"/><line class="cls-4" x1="1576.35" y1="5.29" x2="1493.89" y2="87.75"/></g><g id="Man"><ellipse class="cls-5" cx="853.97" cy="1027.18" rx="809.13" ry="7.83"/><polygon class="cls-6" points="1696.78 686.57 1333 1026.18 1193.56 1026.18 1557.35 686.57 1696.78 686.57"/><polygon class="cls-7" points="1559.31 682.07 1178.48 274.14 1305.61 274.14 1686.42 682.07 1559.31 682.07"/><path class="cls-8" d="M1455.81,420.61l372.41,398.93h-114.8L1341,420.61h114.82m3.91-9H1320.28l389.23,416.93h139.43L1459.72,411.61Z" transform="translate(-152.16 -141.97)"/><path class="cls-9" d="M941.7,721.36S972.49,734.27,986,749.5s22,48,22,48-82,10.35-89.89-64" transform="translate(-152.16 -141.97)"/><polygon class="cls-10" points="114.97 943.93 62.69 997.06 111.28 1026.18 261.07 1026.18 181.32 983.74 114.97 943.93"/><polygon class="cls-10" points="409.76 959.49 376.31 1026.18 567.77 1026.18 488.02 983.74 409.76 959.49"/><path class="cls-11" d="M354.88,1137.54,534.8,957.72A108,108,0,0,0,565.13,898l15.39-98.69,67.33,98.17L542.21,1100,657,1134l108.57-174.9a95.7,95.7,0,0,0-3.22-105.77L671.22,724.81,508.44,625.33l-35.07,55a145.45,145.45,0,0,0-22.52,69.21L443.28,872,239.57,1081.64Z" transform="translate(-152.16 -141.97)"/><path class="cls-12" d="M837.33,658.89S799.37,535,745.48,508c-83.8-42-149.21,9.06-180.29,43.46-15.62,17.29-56.82,73.87-56.82,73.87l162.77,99.48,60.12-73.36,40.37,70.34L922,785.7l28.18-75.5Z" transform="translate(-152.16 -141.97)"/><line class="cls-13" x1="668.08" y1="311.83" x2="587.12" y2="379.57"/><path class="cls-9" d="M765.35,537.39l4.89,2.76a44.45,44.45,0,0,0,63.9-24.41l10.41-30.62a44.44,44.44,0,0,0-20.67-53.26h0a44.45,44.45,0,0,0-60.35,17.55l-15.31,27.87A44.44,44.44,0,0,0,765.35,537.39Z" transform="translate(-152.16 -141.97)"/><rect class="cls-9" x="735.46" y="454.02" width="32.68" height="41.95" rx="15.57" transform="translate(1414.12 690.03) rotate(171.38)"/><line class="cls-14" x1="593.21" y1="324.75" x2="599.87" y2="342.61"/><polyline class="cls-14" points="668.69 345.93 661.5 370.85 652.62 368.34"/><path class="cls-15" d="M762.39,487l29.76-38.22,7.06-9.08a36.9,36.9,0,0,0,6,10.56c9.27,11.56,46.57,24.34,62.35,1.08,12.87-19-14.16-16.39-24.87-22.46-16.82-9.54-24.7-25.16-54.45-22.34C752.59,409.87,750,454.11,750,454.11S764.87,454.58,762.39,487Z" transform="translate(-152.16 -141.97)"/><polygon class="cls-15" points="616.63 397.41 605.28 385.12 605.77 406.33 616.63 397.41"/><circle class="cls-7" cx="654.55" cy="343.94" r="4.57"/><circle class="cls-7" cx="679.64" cy="355.01" r="4.57"/><line class="cls-16" x1="526.28" y1="580.25" x2="358.19" y2="480.75"/><path class="cls-9" d="M756.9,713.41s12.5-6.53,31.82-5l20.76,7.81s18.43,14.78-6.84,40.92-73.09,6.38-73.09,6.38" transform="translate(-152.16 -141.97)"/><path class="cls-12" d="M579.24,628.75l7.85,61.31a52,52,0,0,0,33.4,42.13l114,42.53,28.24-79.09-87.83-33L677.36,589" transform="translate(-152.16 -141.97)"/><polygon class="cls-8" points="1557.35 686.57 1193.56 1026.18 804.34 609.26 1168.12 269.64 1557.35 686.57"/><g class="cls-17"><polygon class="cls-18" points="443.09 450.83 413.08 405.83 383.07 450.83 443.09 450.83"/><polygon class="cls-18" points="559.38 450.83 529.37 405.83 499.36 450.83 559.38 450.83"/><polygon class="cls-18" points="676.5 450.83 646.49 405.83 616.48 450.83 676.5 450.83"/><polygon class="cls-18" points="559.38 612.06 529.37 567.06 499.36 612.06 559.38 612.06"/><polygon class="cls-18" points="792.8 612.06 762.79 567.06 732.78 612.06 792.8 612.06"/><polygon class="cls-18" points="559.38 491.6 589.39 536.6 619.4 491.6 559.38 491.6"/><polygon class="cls-18" points="442.67 491.6 472.68 536.6 502.69 491.6 442.67 491.6"/><polygon class="cls-18" points="442.67 346 472.68 391 502.69 346 442.67 346"/></g><line class="cls-19" x1="653.44" y1="555.27" x2="637.88" y2="577.41"/><polygon class="cls-12" points="685.98 447.12 698.09 492.52 738.31 497.14 722.78 530.5 687.77 559.41 652.54 556.55 642.32 527.87 647.99 492.39 685.98 447.12"/><g class="cls-20"><polygon class="cls-18" points="626.74 474.97 678.95 553.25 731.15 474.97 626.74 474.97"/></g><ellipse class="cls-21" cx="845.87" cy="639.92" rx="70.11" ry="41.03" transform="translate(-303.8 858.45) rotate(-56.98)"/><polygon class="cls-18" points="770.43 1026.18 735.33 973.54 700.22 1026.18 770.43 1026.18"/><polygon class="cls-22" points="1174.34 671.16 1187.89 614.88 1130.73 624 1174.34 671.16"/><polygon class="cls-9" points="1088.84 1026.18 996.76 888.11 904.67 1026.18 1088.84 1026.18"/><rect class="cls-12" x="836.91" y="846.42" width="75.16" height="179.76"/><rect class="cls-22" x="1377.17" y="800.93" width="48.16" height="115.18" transform="translate(-362.6 1037.5) rotate(-42.76)"/><path class="cls-11" d="M967.36,1168.15a103.12,103.12,0,0,1,206.24,0" transform="translate(-152.16 -141.97)"/><path class="cls-22" d="M1264.54,746.13a48.15,48.15,0,1,0-65.38-70.71Z" transform="translate(-152.16 -141.97)"/><path class="cls-7" d="M786.69,507.5s-2.35,9.23,7.31,13.78" transform="translate(-152.16 -141.97)"/><polyline class="cls-14" points="559.21 532.68 521.67 518.02 520.64 435.76"/><line class="cls-14" x1="429.91" y1="516.69" x2="426.09" y2="459.05"/><polyline class="cls-14" points="296.28 752.34 287.61 728.95 308.92 725.64"/><polyline class="cls-14" points="511.21 772.5 491.34 754.7 518.87 740.93"/><line class="cls-14" x1="431.38" y1="628.73" x2="425" y2="698.44"/></g></svg>