<svg xmlns="http://www.w3.org/2000/svg" xmlns:xlink="http://www.w3.org/1999/xlink" viewBox="0 0 1722.74 1085.34"><defs><style>.cls-1,.cls-10,.cls-13,.cls-14,.cls-15,.cls-16,.cls-18,.cls-21,.cls-5{fill:none;}.cls-2{fill:#f2f6f9;}.cls-3{fill:#dce2e5;}.cls-4{fill:#fff;}.cls-5{stroke:#f2f6f9;stroke-width:11px;}.cls-10,.cls-13,.cls-14,.cls-16,.cls-17,.cls-18,.cls-21,.cls-5{stroke-miterlimit:10;}.cls-6{fill:#e4eff7;}.cls-7{fill:#162c56;}.cls-17,.cls-8{fill:#3361c2;}.cls-9{fill:#9fbfff;}.cls-10,.cls-14,.cls-16,.cls-17,.cls-18{stroke:#fff;}.cls-10{stroke-width:8px;}.cls-11{fill:#ea6f57;}.cls-12{clip-path:url(#clip-path);}.cls-13{stroke:#9fbfff;}.cls-13,.cls-15{stroke-linecap:round;stroke-width:40px;}.cls-14{stroke-width:12px;}.cls-15{stroke:#3361c2;stroke-linejoin:round;}.cls-16,.cls-17,.cls-21{stroke-width:3px;}.cls-17{stroke-linecap:square;}.cls-18{stroke-width:2px;}.cls-19{fill:#24272d;}.cls-20{fill:#76b79f;}.cls-21{stroke:#24272b;}</style><clipPath id="clip-path" transform="translate(-145.95 -117.66)"><path class="cls-1" d="M560.47,736.35,593.4,894.16a142.55,142.55,0,0,1,.61,54.92l-39.86,215-65.75-.85,12.44-244.13L464,797.25l-37.64,366.07-62.5-.13V738.87a186.08,186.08,0,0,1,27.85-98.47L409,615.22l111.42,49.87Z"/></clipPath></defs><title>6</title><g id="Back"><rect class="cls-2" y="117.03" width="593.06" height="724.64" rx="35.69"/><path class="cls-3" d="M35.69,117H557.37a35.69,35.69,0,0,1,35.69,35.69v28.83a0,0,0,0,1,0,0H0a0,0,0,0,1,0,0V152.72A35.69,35.69,0,0,1,35.69,117Z"/><circle class="cls-2" cx="41.62" cy="148.61" r="14.76"/><circle class="cls-2" cx="91.93" cy="148.61" r="14.76"/><circle class="cls-2" cx="142.24" cy="148.61" r="14.76"/><rect class="cls-2" x="1199.35" y="385.08" width="523.39" height="527.42" rx="35.69"/><path class="cls-3" d="M1235,385.08h452a35.69,35.69,0,0,1,35.69,35.69v23a0,0,0,0,1,0,0H1199.35a0,0,0,0,1,0,0v-23A35.69,35.69,0,0,1,1235,385.08Z"/><rect class="cls-2" x="1166.73" y="157.36" width="483.51" height="586.91" rx="39.19"/><path class="cls-4" d="M1757,278.52a35.79,35.79,0,0,1,35.69,35.69V822.73A35.79,35.79,0,0,1,1757,858.42H1351.88a35.79,35.79,0,0,1-35.69-35.69V314.21a35.79,35.79,0,0,1,35.69-35.69H1757m0-7H1351.88a42.74,42.74,0,0,0-42.69,42.69V822.73a42.74,42.74,0,0,0,42.69,42.69H1757a42.74,42.74,0,0,0,42.69-42.69V314.21A42.74,42.74,0,0,0,1757,271.52Z" transform="translate(-145.95 -117.66)"/><path class="cls-3" d="M1205.92,160.86H1611a35.69,35.69,0,0,1,35.69,35.69v28.83a0,0,0,0,1,0,0H1170.23a0,0,0,0,1,0,0V196.55A35.69,35.69,0,0,1,1205.92,160.86Z"/><rect class="cls-2" x="1057.81" y="28.42" width="483.51" height="586.91" rx="39.19"/><path class="cls-4" d="M1648.08,149.58a35.79,35.79,0,0,1,35.69,35.69V693.79a35.8,35.8,0,0,1-35.69,35.7H1243a35.8,35.8,0,0,1-35.7-35.7V185.27a35.8,35.8,0,0,1,35.7-35.69h405.12m0-7H1243a42.74,42.74,0,0,0-42.7,42.69V693.79a42.75,42.75,0,0,0,42.7,42.7h405.12a42.75,42.75,0,0,0,42.69-42.7V185.27a42.74,42.74,0,0,0-42.69-42.69Z" transform="translate(-145.95 -117.66)"/><path class="cls-3" d="M1097,31.92h405.12a35.69,35.69,0,0,1,35.69,35.69V96.45a0,0,0,0,1,0,0H1061.31a0,0,0,0,1,0,0V67.62A35.69,35.69,0,0,1,1097,31.92Z"/><circle class="cls-2" cx="1103.51" cy="66.24" r="14.76"/><circle class="cls-2" cx="1153.82" cy="66.24" r="14.76"/><circle class="cls-2" cx="1204.13" cy="66.24" r="14.76"/><line class="cls-5" x1="709.59" y1="353.04" x2="653.52" y2="409.11"/><line class="cls-5" x1="1112.82" y1="841.66" x2="1056.75" y2="897.73"/><line class="cls-5" x1="528.2" y1="3.89" x2="472.13" y2="59.96"/><line class="cls-5" x1="995.66" y1="121.21" x2="995.66" y2="200.51"/><line class="cls-5" x1="602.97" y1="939.51" x2="546.9" y2="995.58"/><line class="cls-5" x1="111.2" y1="939.51" x2="55.13" y2="995.58"/><line class="cls-5" x1="940.84" y1="68.41" x2="996.91" y2="124.48"/><line class="cls-5" x1="745.89" y1="432.14" x2="801.96" y2="488.21"/><line class="cls-5" x1="1058.12" y1="895.17" x2="1058.12" y2="974.47"/><line class="cls-5" x1="63.89" y1="3.89" x2="119.96" y2="59.96"/><line class="cls-5" x1="421.2" y1="3.89" x2="477.28" y2="59.96"/><line class="cls-5" x1="640.93" y1="841.66" x2="697.01" y2="897.73"/><line class="cls-5" x1="694.84" y1="895.17" x2="774.13" y2="895.17"/><line class="cls-5" x1="1487.19" y1="971.41" x2="1543.26" y2="1027.48"/><line class="cls-5" x1="1609.96" y1="38.2" x2="1666.03" y2="94.27"/></g><g id="Man"><ellipse class="cls-6" cx="767.35" cy="1078.4" rx="580.31" ry="6.95"/><polygon class="cls-7" points="326.06 1078.4 228.33 1078.4 216.01 1078.27 225.45 1041.45 269.65 1044.77 326.06 1078.4"/><polygon class="cls-7" points="448.84 1078.4 351.12 1078.4 338.8 1078.27 348.23 1041.45 392.43 1044.77 448.84 1078.4"/><path class="cls-8" d="M711.52,618s64.56,13.44,64.56,25.72h-71Z" transform="translate(-145.95 -117.66)"/><circle class="cls-8" cx="979.62" cy="388.1" r="87.12" transform="translate(293.65 1175.25) rotate(-80.78)"/><path class="cls-9" d="M979.62,309.49A78.62,78.62,0,1,1,901,388.1a78.62,78.62,0,0,1,78.62-78.61m0-17a95.62,95.62,0,1,0,95.61,95.61,95.72,95.72,0,0,0-95.61-95.61Z" transform="translate(-145.95 -117.66)"/><line class="cls-10" x1="793.51" y1="244.73" x2="833.66" y2="273.45"/><line class="cls-10" x1="867.05" y1="254.88" x2="833.66" y2="273.45"/><polygon class="cls-11" points="560.12 525.42 451.51 525.42 479.05 471.54 569.94 490.82 560.12 525.42"/><path class="cls-11" d="M566.71,626.46c16.82-5.54,93.64-63.84,55.11-120.41-34.89-51.22-70.84-26.18-94-8.14-23.38,18.26-25,40.52-66.56,73.44-31.82,25.22-54.2,46-54.2,46L523,670.24" transform="translate(-145.95 -117.66)"/><path class="cls-8" d="M560.47,736.35,593.4,894.16a142.55,142.55,0,0,1,.61,54.92l-39.86,215-65.75-.85,12.44-244.13L464,797.25l-37.64,366.07-62.5-.13V738.87a186.08,186.08,0,0,1,27.85-98.47L409,615.22l111.42,49.87Z" transform="translate(-145.95 -117.66)"/><g class="cls-12"><line class="cls-13" x1="182.61" y1="929.68" x2="238" y2="985.06"/><line class="cls-13" x1="278.03" y1="906.58" x2="329.9" y2="854.71"/><line class="cls-13" x1="255.97" y1="814.34" x2="197.22" y2="755.59"/><line class="cls-13" x1="445.69" y1="1008.07" x2="386.94" y2="949.31"/><line class="cls-13" x1="303.53" y1="733.77" x2="345.31" y2="691.98"/><line class="cls-13" x1="267.12" y1="643.18" x2="214.75" y2="590.81"/><line class="cls-13" x1="453.94" y1="859.95" x2="401.56" y2="807.58"/><line class="cls-13" x1="322.24" y1="568.11" x2="371.33" y2="519.02"/></g><line class="cls-14" x1="263.45" y1="494.02" x2="383.05" y2="551.58"/><line class="cls-15" x1="480.15" y1="294.11" x2="458.21" y2="371.54"/><path class="cls-8" d="M620.05,483.33l4.13,1.14A33.89,33.89,0,0,0,667,454.67L669,430.1A33.88,33.88,0,0,0,644,394.49h0a33.87,33.87,0,0,0-41.42,24.08L596.33,442A33.88,33.88,0,0,0,620.05,483.33Z" transform="translate(-145.95 -117.66)"/><polyline class="cls-16" points="509.1 312.83 514.94 334.48 506.4 334.64"/><circle class="cls-4" cx="497.35" cy="314.52" r="4.41"/><circle class="cls-4" cx="518.84" cy="315.16" r="4.41"/><path class="cls-17" d="M629.73,456s7.85,0,11.46,6.62" transform="translate(-145.95 -117.66)"/><line class="cls-18" x1="317.82" y1="697.14" x2="327.15" y2="615.23"/><path class="cls-8" d="M619.58,518.34l18.19-35.26s3.19-8.62,10.62-7.59,9.64-20.93,20.3-20.72,25.78,55.85-10.22,44.55l-17.06,32.55Z" transform="translate(-145.95 -117.66)"/><path class="cls-11" d="M588.8,556.55l32.88-58.64,54.61,31.53L615.61,630.27a30,30,0,0,1-51.57-.34l-47.56-81.48,56.3-26.23Z" transform="translate(-145.95 -117.66)"/><path class="cls-16" d="M588.8,556.55l32.88-58.64,54.61,31.53L615.61,630.27a30,30,0,0,1-51.57-.34l-47.56-81.48,56.3-26.23Z" transform="translate(-145.95 -117.66)"/><path class="cls-19" d="M449.52,459.32C445,513,490.14,495.53,490.14,495.53s-28.87,58.89,35.74,54,82.24-51,79.74-77.37c-1-10.5-6.44-18.64-12.59-26.49,35.41-5.47,34.87-29.86,34.87-29.86s56.77,22.15,56.31-21.54S639,336.55,612.51,337a55.21,55.21,0,0,0-16.39,2.86c-17,5.56-30.23,14.63-52.84,15-62.46,1-68.46,60.22-68.46,60.22S452.59,423,449.52,459.32Z" transform="translate(-145.95 -117.66)"/><rect class="cls-8" x="588.17" y="410.73" width="30.52" height="44.39" rx="15.15" transform="translate(1181.7 479.72) rotate(157.14)"/><line class="cls-17" x1="452.32" y1="304.4" x2="459.97" y2="322.53"/><path class="cls-18" d="M636.59,485.36s10.36-18.28,15.33-18,.82,13.8.82,13.8,3.94-25.24,14.33-26.21" transform="translate(-145.95 -117.66)"/><rect class="cls-4" x="373.85" y="525.42" width="936.52" height="260.31" rx="35.69"/><path class="cls-9" d="M1456.32,703.38H519.8V678.77a35.8,35.8,0,0,1,35.7-35.69h865.13a35.79,35.79,0,0,1,35.69,35.69Z" transform="translate(-145.95 -117.66)"/><path class="cls-8" d="M706.69,641.54s11.3,4.8,21.75,6.58,19.51,1.8,19.71-2.71c.18-3.87-30.36-11.49-30.36-11.49" transform="translate(-145.95 -117.66)"/><rect class="cls-19" x="432.54" y="647.68" width="819.13" height="63.79"/><rect class="cls-20" x="441.75" y="657.51" width="42.43" height="44.13"/><rect class="cls-20" x="492.37" y="657.51" width="42.43" height="44.13"/><rect class="cls-20" x="542.99" y="657.51" width="42.43" height="44.13"/><rect class="cls-20" x="593.6" y="657.51" width="42.43" height="44.13"/><rect class="cls-20" x="644.22" y="657.51" width="42.43" height="44.13"/><rect class="cls-20" x="694.84" y="657.51" width="42.43" height="44.13"/><rect class="cls-20" x="745.46" y="657.51" width="42.43" height="44.13"/><rect class="cls-20" x="796.07" y="657.51" width="42.43" height="44.13"/><rect class="cls-20" x="846.69" y="657.51" width="42.43" height="44.13"/><rect class="cls-20" x="897.31" y="657.51" width="24.53" height="44.13"/><polyline class="cls-18" points="369.17 788.81 354.89 801.41 369.56 814.35"/><circle class="cls-4" cx="414.31" cy="557.35" r="14.76"/><circle class="cls-4" cx="464.62" cy="557.35" r="14.76"/><circle class="cls-4" cx="514.93" cy="557.35" r="14.76"/><circle class="cls-4" cx="833.66" cy="272.45" r="9.03"/><path class="cls-21" d="M1455.79,704.38V870.8a34.25,34.25,0,0,1-34.26,34.25H596.09" transform="translate(-145.95 -117.66)"/></g></svg>