<svg xmlns="http://www.w3.org/2000/svg" viewBox="0 0 1672.59 1015.3"><defs><style>.cls-1{fill:#f2f6f9;}.cls-2{fill:#f9d0b5;}.cls-3{fill:#e4eff7;}.cls-4{fill:#162c56;}.cls-5{fill:#274992;}.cls-10,.cls-13,.cls-17,.cls-20,.cls-21,.cls-6,.cls-8{fill:none;stroke-miterlimit:10;}.cls-13,.cls-20,.cls-6{stroke:#fff;}.cls-13,.cls-6,.cls-8{stroke-linecap:square;}.cls-17,.cls-20,.cls-21,.cls-6,.cls-8{stroke-width:3px;}.cls-7{fill:#3361c2;}.cls-8{stroke:#24252d;}.cls-9{fill:#24272d;}.cls-10{stroke:#274992;stroke-width:5px;}.cls-11{fill:#ea6f57;}.cls-12{fill:#ffba5f;}.cls-13{stroke-width:4px;}.cls-14{fill:#ed9a98;}.cls-15{fill:#ffd39f;}.cls-16,.cls-18{fill:#fff;}.cls-16{opacity:0.33;}.cls-17{stroke:#ef6e45;}.cls-19{fill:#ffc774;}.cls-21{stroke:#3361c2;}</style></defs><title>7</title><g id="Back"><path class="cls-1" d="M1170.12,346.81h389.42s-18.76-56.41-66.84-56.41c-36,0-52.21,23.83-86.77,23.83s-67-59.42-134.49-59.42C1203.12,254.81,1170.12,346.81,1170.12,346.81Z" transform="translate(-193.78 -132.3)"/><path class="cls-1" d="M1794.64,234.17h-383.1s26.15-65.5,79.84-62.74,47.47,42.48,78.91,42.48,53.78-81.61,115.19-81.61C1767.1,132.3,1794.64,234.17,1794.64,234.17Z" transform="translate(-193.78 -132.3)"/><path class="cls-1" d="M209.45,276.49H619.8c-15.34-32.48-38.66-61.15-70.44-62.11-37.93-1.14-55,44.1-91.43,44.1S400.84,147.82,329.67,147.82C257.69,147.82,224.4,220.71,209.45,276.49Z" transform="translate(-193.78 -132.3)"/></g><g id="Man"><rect class="cls-2" x="381.55" y="481.72" width="38.95" height="53.76" transform="translate(-175.12 -146.47) rotate(2.07)"/><ellipse class="cls-3" cx="807.87" cy="1008.48" rx="807.87" ry="6.83"/><polygon class="cls-4" points="143.13 1006.6 51.44 1006.6 13.38 969.93 38.23 930.18 80.16 968.39 143.13 1006.6"/><polygon class="cls-5" points="90.26 976.06 189.22 801.56 179.15 972.75 268.96 972.75 277.87 757.55 255.56 521.79 104.51 520.59 112.32 746.67 20.65 923.15 90.26 976.06"/><path class="cls-6" d="M362.06,972.88l20-40A138.19,138.19,0,0,0,396.5,879l4.12-70.71" transform="translate(-193.78 -132.3)"/><polygon class="cls-4" points="182.76 971.66 169.16 1006.6 322.87 1006.6 257.2 971.66 182.76 971.66"/><path class="cls-2" d="M411.63,493.49l4.48.1a35.43,35.43,0,0,0,35.71-41.23l-4.22-25.45A35.43,35.43,0,0,0,413,397.27h0a35.44,35.44,0,0,0-35.8,35.08l-.26,25.35A35.43,35.43,0,0,0,411.63,493.49Z" transform="translate(-193.78 -132.3)"/><rect class="cls-7" x="365.57" y="438.02" width="26.07" height="33.46" rx="13.03" transform="translate(760.42 459.6) rotate(143.18)"/><line class="cls-6" x1="177.18" y1="319.05" x2="186.14" y2="328.43"/><polyline class="cls-8" points="240.63 306.38 243.24 326.91 235.94 327.87"/><path class="cls-9" d="M410.36,468.16a9.73,9.73,0,1,0,17.89,7.66c2.12-4.94-3-6.64-8-8.75S412.48,463.22,410.36,468.16Z" transform="translate(-193.78 -132.3)"/><path class="cls-9" d="M390.84,471.07l6.5-38.08,1.55-9a29.35,29.35,0,0,0,8.18,5.17c10.86,4.63,41.34,2.74,43.67-19.55.22-2.14-11.7-.75-12-2.12-2.11-10.31-4.75-7.28-13.41-7.48-15.42-.37-26.84-8.38-46.69,4.82-23.76,15.8-8.9,47.86-8.9,47.86S380.38,447.38,390.84,471.07Z" transform="translate(-193.78 -132.3)"/><polygon class="cls-9" points="227.16 360.93 213.81 360.93 226.98 371.62 227.16 360.93"/><circle class="cls-9" cx="224.68" cy="311.15" r="3.65"/><circle class="cls-9" cx="251.14" cy="311.15" r="3.65"/><path class="cls-6" d="M372.67,657.81" transform="translate(-193.78 -132.3)"/><path class="cls-6" d="M367.35,695.11" transform="translate(-193.78 -132.3)"/><path class="cls-6" d="M387.17,653.49" transform="translate(-193.78 -132.3)"/><path class="cls-6" d="M381.86,690.79" transform="translate(-193.78 -132.3)"/><path class="cls-5" d="M362.43,436a46.05,46.05,0,1,1,87.83-27.72" transform="translate(-193.78 -132.3)"/><line class="cls-10" x1="168.65" y1="303.64" x2="285.8" y2="266.68"/><path class="cls-6" d="M394.84,650.14" transform="translate(-193.78 -132.3)"/><path class="cls-6" d="M389.53,687.44" transform="translate(-193.78 -132.3)"/><polyline class="cls-6" points="406 751.43 396.96 764.46 406.9 775.11"/><polygon class="cls-11" points="246.08 665.41 153.03 665.41 158.67 482.95 260.77 482.95 246 665.15 246.08 665.41"/><polygon class="cls-11" points="161.78 381.88 121.56 381.88 103.97 284.72 150 284.72 161.78 381.88"/><polygon class="cls-12" points="208.35 381.88 147.13 381.88 135.35 284.72 197.37 284.72 208.35 381.88"/><polygon class="cls-11" points="232.96 381.88 223.52 482.95 155.09 482.95 153.83 381.88 232.96 381.88"/><polygon class="cls-12" points="187.11 381.88 202.15 482.95 301.51 482.95 294.81 381.88 187.11 381.88"/><line class="cls-13" x1="148.09" y1="300.81" x2="178.59" y2="300.81"/><line class="cls-13" x1="148.96" y1="311.63" x2="179.46" y2="311.63"/><line class="cls-13" x1="151.83" y1="322.44" x2="182.33" y2="322.44"/><line class="cls-13" x1="199.97" y1="392.37" x2="241.38" y2="392.37"/><line class="cls-13" x1="203.86" y1="403.18" x2="245.28" y2="403.18"/><polygon class="cls-12" points="314.27 665.41 206.85 665.41 220.13 483.22 220.06 482.95 336.92 482.95 314.27 665.41"/><polygon class="cls-14" points="215.43 547.66 212.35 589.93 164.54 589.93 164.54 547.66 215.43 547.66"/><polygon class="cls-15" points="328.89 547.66 323.64 589.93 212.35 589.93 215.43 547.66 328.89 547.66"/><polygon class="cls-16" points="330.3 547.66 330.3 589.93 323.64 589.93 328.89 547.66 330.3 547.66"/><path class="cls-2" d="M442.78,797.45c-.29,9-22.76,20.79-43.56,19.18s-33-22.54-33-22.54l30.09-19.87s5.41-.35,12.52,3.69c6.85,3.89,27.88,3,27.88,3s.06,4.78-8.34,7.3c-5.85,1.76-17,3.27-16.74,5.88C412.19,799.22,442.78,797.45,442.78,797.45Z" transform="translate(-193.78 -132.3)"/><path class="cls-6" d="M399.92,774.62a52.17,52.17,0,0,1,13.5,4.89c6.5,3.57,23.28,1.41,23.28,1.41s3.85,7.39-24.44,12c-3.57.59.46,7.33,30.52,4.5" transform="translate(-193.78 -132.3)"/><circle class="cls-13" cx="244.31" cy="506.87" r="10.97"/><path class="cls-5" d="M347.87,535.48s-125.53,82.08,5.23,272.8l59.16-41.88s-64.85-95.91-57.4-166.49" transform="translate(-193.78 -132.3)"/><polygon class="cls-11" points="352.9 1006.6 239.87 1006.6 265.49 824.15 367.59 824.15 352.82 1006.34 352.9 1006.6"/><polygon class="cls-12" points="403.96 1006.6 298.44 1006.6 327.9 824.41 327.84 824.15 444.69 824.15 403.96 1006.6"/><line class="cls-13" x1="270.37" y1="500.6" x2="311.79" y2="500.6"/><line class="cls-13" x1="266.57" y1="512.02" x2="307.98" y2="512.02"/><line class="cls-17" x1="192.76" y1="481.71" x2="301.46" y2="481.71"/><path class="cls-6" d="M367.35,798.19,353.1,808.28S318,766.78,297.31,697.4" transform="translate(-193.78 -132.3)"/><circle class="cls-13" cx="357.39" cy="854.16" r="10.97"/><rect class="cls-18" x="336.92" y="835.44" width="21.62" height="20.7"/><line class="cls-13" x1="385.51" y1="840.31" x2="425.84" y2="840.31"/><line class="cls-13" x1="382.17" y1="851.86" x2="422.5" y2="851.86"/><line class="cls-13" x1="378.27" y1="863.41" x2="402.37" y2="863.41"/><path class="cls-2" d="M469.22,797.71s29.39,18.4,36.36,0" transform="translate(-193.78 -132.3)"/><polygon class="cls-5" points="315.24 657.63 326.5 658.26 322.77 596.94 315.24 657.63"/></g><g id="Car"><circle class="cls-5" cx="910.12" cy="947.81" r="58.8"/><circle class="cls-5" cx="1477.59" cy="947.81" r="58.8"/><polygon class="cls-11" points="1560.66 942.44 573.72 942.44 564.66 880.94 541.8 725.65 463.94 196.99 1291.21 196.99 1546.23 902.52 1560.66 942.44"/><polygon class="cls-5" points="996.08 717.08 651.55 717.08 605.9 407.13 950.43 407.13 996.08 717.08"/><polygon class="cls-19" points="1560.66 942.44 1408.97 942.44 1139.51 196.99 1291.21 196.99 1560.66 942.44"/><polygon class="cls-18" points="1497.33 778.27 1381.55 778.27 1217.23 323.69 1333.01 323.69 1497.33 778.27"/><polygon class="cls-18" points="1288.6 778.27 1175.85 778.27 1108.9 323.69 1124.28 323.69 1288.6 778.27"/><rect class="cls-11" x="1285.83" y="819.43" width="207.89" height="123.01"/><polygon class="cls-19" points="1672.59 942.44 1453.03 942.44 1434.92 819.43 1654.47 819.43 1672.59 942.44"/><path class="cls-18" d="M804.85,1076c0-39.11,33.25-70.81,74.27-70.81s74.27,31.7,74.27,70.81" transform="translate(-193.78 -132.3)"/><path class="cls-18" d="M1372.32,1076c0-39.11,33.25-70.81,74.27-70.81s74.27,31.7,74.27,70.81" transform="translate(-193.78 -132.3)"/><circle class="cls-5" cx="1252.81" cy="947.81" r="58.8"/><path class="cls-20" d="M1336.42,1026.78a102.86,102.86,0,0,1,99.68-77.5" transform="translate(-193.78 -132.3)"/><ellipse class="cls-18" cx="1622.89" cy="879.6" rx="20.65" ry="25.35"/><ellipse class="cls-18" cx="1492.42" cy="879.6" rx="20.65" ry="25.35"/><polygon class="cls-18" points="599.56 880.94 569.65 880.94 546.79 725.65 576.7 725.65 599.56 880.94"/><line class="cls-20" x1="578.33" y1="819.43" x2="1059.21" y2="819.43"/><line class="cls-20" x1="511.56" y1="289.24" x2="1324.55" y2="289.24"/><line class="cls-20" x1="1142.65" y1="894.48" x2="1053.73" y2="290.65"/><path class="cls-5" d="M1211.5,553.69h31.8a0,0,0,0,1,0,0V670a0,0,0,0,1,0,0h-31.8a16.1,16.1,0,0,1-16.1-16.1V569.79A16.1,16.1,0,0,1,1211.5,553.69Z"/><rect class="cls-5" x="1243.3" y="620.01" width="20.06" height="49.95"/><line class="cls-21" x1="1376.37" y1="693.05" x2="1444.9" y2="780.27"/><line class="cls-21" x1="1417.28" y1="693.05" x2="1485.81" y2="780.27"/><polyline class="cls-20" points="605.9 407.13 797.58 580.71 950.43 407.13"/><line class="cls-20" x1="755" y1="578.25" x2="670.66" y2="686.34"/><line class="cls-20" x1="840.09" y1="573.13" x2="959.23" y2="683.27"/><circle class="cls-5" cx="685.34" cy="947.81" r="58.8"/><line class="cls-20" x1="1216.13" y1="669.97" x2="1216.13" y2="553.69"/><rect class="cls-11" x="1539.17" y="868.65" width="42.99" height="21.9"/></g></svg>