<svg xmlns="http://www.w3.org/2000/svg" xmlns:xlink="http://www.w3.org/1999/xlink" viewBox="0 0 1538.92 1064.7"><defs><style>.cls-1,.cls-12,.cls-14,.cls-16,.cls-17,.cls-5{fill:none;}.cls-2{fill:#f2f6f9;}.cls-3{fill:#e2e6e8;}.cls-4{fill:#e4eff7;}.cls-5{stroke:#475056;stroke-width:5px;}.cls-12,.cls-14,.cls-16,.cls-17,.cls-5{stroke-miterlimit:10;}.cls-6{fill:#24272d;}.cls-7{fill:#72a065;}.cls-8{fill:#ea6f57;}.cls-9{fill:#fff;}.cls-10{clip-path:url(#clip-path);}.cls-11{fill:#ffc774;}.cls-12{stroke:#25282d;}.cls-12,.cls-14,.cls-17{stroke-width:3px;}.cls-13{fill:#cbcfd3;opacity:0.68;}.cls-14,.cls-16,.cls-17{stroke:#fff;}.cls-14{stroke-linecap:square;}.cls-15{fill:#274992;}.cls-16{stroke-linecap:round;stroke-width:23px;}</style><clipPath id="clip-path" transform="translate(-218.23 -138.3)"><path class="cls-1" d="M1269.21,637.33H1213V732.1h104.22c29.12,0,43.49-35.42,22.58-55.68-39.11-37.91-88.55-83.24-112.64-94.88-43.28-20.92-114.26-22.57-145.44-15.18s-100.92,82-100.92,82L850.33,666.87v67H970.14a93.9,93.9,0,0,0,43.17-10.51l54.46-28.16s30.36,47,38.15,81.13h144.23S1241,708.62,1238.44,670"/></clipPath></defs><title>8</title><g id="Back"><rect class="cls-2" x="797.01" y="135.85" width="463.98" height="291.46"/><path class="cls-3" d="M1444.91,309.32V530.45H1049.56V309.32h395.35m8-8H1041.56V538.45h411.35V301.32Z" transform="translate(-218.23 -138.3)"/><rect class="cls-2" x="482.77" y="710.93" width="212.31" height="221.33"/><rect class="cls-2" x="922.57" y="784.67" width="283.51" height="132.42"/><rect class="cls-2" x="74.77" y="118.32" width="287.61" height="319.38"/><rect class="cls-2" x="422.77" y="16.78" width="307.85" height="333.3"/><rect class="cls-2" x="438.16" y="405.93" width="307.69" height="259.77"/><rect class="cls-2" x="1327.38" y="324.62" width="211.53" height="216.67"/><rect class="cls-2" x="1333.23" y="104.78" width="109.54" height="167.38"/><rect class="cls-2" x="870.82" width="316.36" height="104.62"/><rect class="cls-2" x="1327.38" y="621.7" width="115.38" height="242.46"/><rect class="cls-2" x="973.85" y="486.32" width="301.54" height="252.9"/><rect class="cls-2" y="493.58" width="346.95" height="217.62"/><path class="cls-3" d="M522.61,670.61V810.78H260.81V670.61h261.8m11-11H249.81V821.78h283.8V659.61Z" transform="translate(-218.23 -138.3)"/><path class="cls-3" d="M1429.69,681V821.15H1256V681h173.69m11-11H1245V832.15h195.69V670Z" transform="translate(-218.23 -138.3)"/><path class="cls-3" d="M906.92,596.36V751.87H713.55V596.36H906.92m11-11H702.55V762.87H917.92V585.36Z" transform="translate(-218.23 -138.3)"/><path class="cls-3" d="M508.61,334V498.62H365V334h143.6m25-25H340V523.62h193.6V309Z" transform="translate(-218.23 -138.3)"/><path class="cls-3" d="M905.31,199.89V443.57H684.54V199.89H905.31m8-8H676.54V451.57H913.31V191.89Z" transform="translate(-218.23 -138.3)"/><path class="cls-3" d="M854.08,908.81V1011H760.23V908.81h93.85m16-16H744.23V1027H870.08V892.81Z" transform="translate(-218.23 -138.3)"/><path class="cls-3" d="M1629.06,795.41V967.05h-51.5V795.41h51.5m3-3h-57.5V970.05h57.5V792.41Z" transform="translate(-218.23 -138.3)"/><path class="cls-3" d="M1366.52,172.34v36.53H1127.94V172.34h238.58m3-3H1124.94v42.53h244.58V169.34Z" transform="translate(-218.23 -138.3)"/><path class="cls-3" d="M1691.87,527.63v87.25h-81V527.63h81m17-17h-115V631.88h115V510.63Z" transform="translate(-218.23 -138.3)"/><rect class="cls-2" x="233.85" y="762.01" width="201.85" height="119.17"/></g><g id="Man"><ellipse class="cls-4" cx="695.08" cy="1057.75" rx="580.31" ry="6.95"/><line class="cls-5" x1="815.41" y1="803.08" x2="743.21" y2="1057.44"/><line class="cls-5" x1="876.41" y1="803.08" x2="804.21" y2="1057.44"/><line class="cls-5" x1="964.21" y1="803.08" x2="1036.41" y2="1057.44"/><line class="cls-5" x1="1025.21" y1="803.08" x2="1097.41" y2="1057.44"/><ellipse class="cls-6" cx="847.4" cy="304" rx="42.44" ry="54.2"/><path class="cls-7" d="M747.11,732.21c0-17,20.9-30.68,46.68-30.68s46.67,13.73,46.67,30.68" transform="translate(-218.23 -138.3)"/><path class="cls-8" d="M521.89,550.11h125.7a0,0,0,0,1,0,0v13.12a0,0,0,0,1,0,0H529.18A10.2,10.2,0,0,1,519,553v0A2.92,2.92,0,0,1,521.89,550.11Z"/><rect class="cls-8" x="567.18" y="579.24" width="78.36" height="14.67" rx="7.33"/><path class="cls-8" d="M581.23,552.67h92.92a0,0,0,0,1,0,0V581.8a0,0,0,0,1,0,0H598.46a17.23,17.23,0,0,1-17.23-17.23v-11.9A0,0,0,0,1,581.23,552.67Z"/><path class="cls-9" d="M1269.21,637.33H1213V732.1h104.22c29.12,0,43.49-35.42,22.58-55.68-39.11-37.91-88.55-83.24-112.64-94.88-43.28-20.92-114.26-22.57-145.44-15.18s-100.92,82-100.92,82L850.33,666.87v67H970.14a93.9,93.9,0,0,0,43.17-10.51l54.46-28.16s30.36,47,38.15,81.13h144.23S1241,708.62,1238.44,670" transform="translate(-218.23 -138.3)"/><g class="cls-10"><polygon class="cls-11" points="719.51 537.07 683.72 483.47 647.92 537.07 719.51 537.07"/><polygon class="cls-11" points="1110.8 537.07 1075.01 483.47 1039.22 537.07 1110.8 537.07"/><polygon class="cls-11" points="847.15 537.07 811.36 483.47 775.57 537.07 847.15 537.07"/><polygon class="cls-11" points="974.8 537.07 939 483.47 903.21 537.07 974.8 537.07"/><polygon class="cls-11" points="913.46 463.06 877.66 409.47 841.87 463.06 913.46 463.06"/><polygon class="cls-11" points="784.22 619.19 748.42 565.6 712.63 619.19 784.22 619.19"/><polygon class="cls-11" points="913.46 619.19 877.66 565.6 841.87 619.19 913.46 619.19"/><polygon class="cls-11" points="1048.86 619.19 1013.07 565.6 977.27 619.19 1048.86 619.19"/></g><path class="cls-12" d="M1213,732.1h104.22c29.12,0,43.49-35.42,22.58-55.68-39.11-37.91-88.55-83.24-112.64-94.88-43.28-20.92-114.26-22.57-145.44-15.18s-100.92,82-100.92,82L850.33,666.87v67H970.14a93.9,93.9,0,0,0,43.17-10.51l54.46-28.16s30.36,47,38.15,81.13h144.23s-1.42-5.43-5.54-44.1" transform="translate(-218.23 -138.3)"/><line class="cls-12" x1="1050.97" y1="499.03" x2="994.77" y2="499.03"/><rect class="cls-8" x="778.46" y="758.01" width="283.38" height="47.08"/><polygon class="cls-7" points="800.31 1057.75 923.27 1057.75 938.77 1057.58 926.91 1007.79 871.28 1012.28 800.31 1057.75"/><polygon class="cls-7" points="519.39 987.35 625.2 1050.01 638.62 1057.75 664.62 986.62 608.62 980.46 519.39 987.35"/><path class="cls-8" d="M1129.67,592.48a29,29,0,0,1-27.89-21.1l-26.94-95.07a29,29,0,1,1,55.8-15.81l26.94,95.07a29,29,0,0,1-20,35.81A29.37,29.37,0,0,1,1129.67,592.48Z" transform="translate(-218.23 -138.3)"/><path class="cls-8" d="M1103.17,550.27l-5.06,1.4a41.6,41.6,0,0,1-52.54-36.59L1043,484.91a41.59,41.59,0,0,1,30.79-43.72h0a41.61,41.61,0,0,1,50.87,29.57l7.61,28.77A41.6,41.6,0,0,1,1103.17,550.27Z" transform="translate(-218.23 -138.3)"/><polyline class="cls-12" points="845.13 350.08 837.96 376.65 848.45 376.85"/><circle class="cls-6" cx="857.78" cy="355.32" r="5.09"/><circle class="cls-6" cx="833.32" cy="355.32" r="5.09"/><path class="cls-12" d="M1077.46,525.22s6.24-.34,8.82-5.77" transform="translate(-218.23 -138.3)"/><path class="cls-6" d="M1312.56,520.8c5.61,65.88-50.1,44.46-50.1,44.46s35.6,72.31-44.07,66.27-101.41-62.64-98.32-95c1.23-12.9,7.94-22.89,15.52-32.53-43.66-6.72-43-36.66-43-36.66s-70,27.19-69.43-26.45,55.78-70.84,88.41-70.27a68.31,68.31,0,0,1,20.21,3.5c21,6.84,37.28,18,65.16,18.42,77,1.22,84.42,73.95,84.42,73.95S1308.77,476.22,1312.56,520.8Z" transform="translate(-218.23 -138.3)"/><rect class="cls-8" x="1104.84" y="461.13" width="37.47" height="54.51" rx="18.74" transform="translate(59.8 -536.48) rotate(22.86)"/><line class="cls-12" x1="911.68" y1="336.74" x2="902.28" y2="359"/><path class="cls-13" d="M1150,648.34l47.54-47.54a63.77,63.77,0,0,1,45.09-18.68h56.07l10.23-10.24a43.37,43.37,0,0,1,30.64-12.69h36.2a23.92,23.92,0,0,1,23.91,23.91h0A23.92,23.92,0,0,1,1375.76,607H1238.22a64.48,64.48,0,0,0-45.6,18.89l-26.47,26.47" transform="translate(-218.23 -138.3)"/><line class="cls-14" x1="1006.05" y1="504.16" x2="1048.51" y2="504.16"/><path class="cls-15" d="M1227.15,776.31H994.32a89.28,89.28,0,0,0-82.05,54.09L795.46,1102.92l102.08,48,116.77-254.61h206.38Z" transform="translate(-218.23 -138.3)"/><path class="cls-15" d="M1227.16,776.3v120h-64.85v253.85H1053V850.41a74.11,74.11,0,0,1,74.1-74.11Z" transform="translate(-218.23 -138.3)"/><path class="cls-14" d="M1053,896.31v-45.9a74.11,74.11,0,0,1,74.1-74.11" transform="translate(-218.23 -138.3)"/><path class="cls-8" d="M1012.85,624.57h49a0,0,0,0,1,0,0V773.08a0,0,0,0,1,0,0H968a0,0,0,0,1,0,0V669.42A44.85,44.85,0,0,1,1012.85,624.57Z"/><rect class="cls-7" x="913.31" y="500.26" width="70.28" height="95.28"/><rect class="cls-7" x="968.39" y="507.29" width="44.84" height="76" rx="14.26"/><path class="cls-9" d="M983.59,518.83h7.58A11.18,11.18,0,0,1,1002.36,530v30.55a11.18,11.18,0,0,1-11.18,11.18h-7.58a0,0,0,0,1,0,0V518.83A0,0,0,0,1,983.59,518.83Z"/><polyline class="cls-16" points="938.6 541.65 948.38 552.08 958.3 541.51"/><line class="cls-5" x1="328.67" y1="595.84" x2="197.63" y2="1057.44"/><line class="cls-5" x1="470.59" y1="595.84" x2="339.56" y2="1057.44"/><line class="cls-5" x1="1141.56" y1="595.37" x2="1272.72" y2="1057.44"/><line class="cls-5" x1="999.49" y1="595.37" x2="1130.66" y2="1057.44"/><path class="cls-8" d="M1212.44,654.66c-5.2,4.62-6.85,51.57,0,55s43.64-2.45,43.64-28.34S1219.88,648.05,1212.44,654.66Z" transform="translate(-218.23 -138.3)"/><polyline class="cls-12" points="853.08 498.16 840.46 535.82 849.54 556.88"/><path class="cls-6" d="M870.08,435.69V638.77a12,12,0,0,1-12,12h-8a12,12,0,0,0,12-12V435.69a12,12,0,0,0-12-12h8A12,12,0,0,1,870.08,435.69Z" transform="translate(-218.23 -138.3)"/><rect class="cls-7" x="254.31" y="285.39" width="389.54" height="227.08" rx="12"/><circle class="cls-9" cx="457.08" cy="355.93" r="21.38"/><path class="cls-9" d="M693.52,452.51s.14,7.86-4.61,12.61-12.61,4.61-12.61,4.61-.15-7.86,4.61-12.61S693.52,452.51,693.52,452.51Z" transform="translate(-218.23 -138.3)"/><polygon class="cls-7" points="431.36 595.55 352.38 595.55 411.17 410.42 490.15 410.42 431.36 595.55"/><polyline class="cls-17" points="378.76 512.47 411.17 410.42 490.15 410.42"/><polygon class="cls-6" points="457.75 512.47 490.15 512.47 490.15 410.42 457.75 512.47"/><rect class="cls-7" x="383.9" y="581.8" width="101.74" height="12.1"/><line class="cls-5" x1="209.54" y1="595.55" x2="1231.38" y2="595.55"/><path class="cls-9" d="M653,650.77a25.32,25.32,0,0,1-.9,2.57c-4.51,10.92-15.47,16.74-24.49,13-6-2.49-9.63-8.57-10.06-15.59a24.77,24.77,0,0,1,1.89-10.92c4.51-10.92,15.48-16.74,24.5-13C652.2,630.27,656,640.62,653,650.77Z" transform="translate(-218.23 -138.3)"/><path class="cls-6" d="M653,650.77H617.5a24.77,24.77,0,0,1,1.89-10.92c4.51-10.92,15.48-16.74,24.5-13C652.2,630.27,656,640.62,653,650.77Z" transform="translate(-218.23 -138.3)"/><circle class="cls-7" cx="541.58" cy="577.74" r="7.81"/><polyline class="cls-17" points="774.77 758.01 796.08 758.01 797.01 739.21"/><polyline class="cls-17" points="921.85 754.51 944.08 758 944.08 736.16"/></g></svg>