<svg xmlns="http://www.w3.org/2000/svg" xmlns:xlink="http://www.w3.org/1999/xlink" viewBox="0 0 1589.41 1029.35"><defs><style>.cls-1,.cls-11,.cls-12,.cls-13,.cls-6{fill:none;}.cls-2{fill:#f2f6f9;}.cls-3{fill:#3361c2;}.cls-4{fill:#ea6f57;}.cls-5{fill:#f9d0b5;}.cls-6{stroke:#fff;stroke-linecap:square;}.cls-11,.cls-12,.cls-13,.cls-6{stroke-miterlimit:10;}.cls-13,.cls-6{stroke-width:3px;}.cls-7{fill:#162c56;}.cls-8{fill:#ffc774;}.cls-9{fill:#e4eff7;}.cls-10{clip-path:url(#clip-path);}.cls-11{stroke:#f9d0b5;stroke-linecap:round;stroke-width:51px;}.cls-12{stroke:#ffc774;stroke-width:5px;}.cls-13{stroke:#252b2d;}.cls-14{fill:#24272d;}</style><clipPath id="clip-path" transform="translate(-192.2 -147.63)"><path class="cls-1" d="M1126.85,350.15l-10,141.21a81.31,81.31,0,0,1-15.22,41.86l-71.35,98.6,64,108.48-44.18,25.15,15.26,46.85L946.79,861.52,909,877.19a51.17,51.17,0,0,1-69.74-36.77c-16.7-80.4-28.22-218.6,80.48-242.2,28.64-6.22,102.53-124.38,102.53-124.38l19.5-115Z"/></clipPath></defs><title>9</title><g id="Man"><circle class="cls-2" cx="1380.68" cy="320.44" r="41.6"/><rect class="cls-2" x="1351.81" y="19.47" width="57.75" height="229.03"/><circle class="cls-2" cx="588.84" cy="613.25" r="41.6"/><rect class="cls-2" x="559.97" y="312.28" width="57.75" height="229.03"/><polygon class="cls-2" points="336.12 797.24 0 797.24 168.06 514.8 336.12 797.24"/><polygon class="cls-2" points="1055.32 282.44 719.21 282.44 887.26 0 1055.32 282.44"/><polygon class="cls-2" points="1589.41 866.27 1253.29 866.27 1421.35 583.83 1589.41 866.27"/><circle class="cls-2" cx="246.86" cy="334.7" r="41.6"/><rect class="cls-2" x="217.98" y="33.73" width="57.75" height="229.03"/><line class="cls-3" x1="930.03" y1="137.45" x2="930.12" y2="145"/><rect class="cls-4" x="930.12" y="57.54" width="203.91" height="288.99"/><path class="cls-5" d="M1122.19,354h0l-38.37,1.63s16-79,38.37-87.58l.19,43.77c7.7-6.43,15.92-12.24,18.85-10.64C1146.7,304.12,1122.19,354,1122.19,354Z" transform="translate(-192.2 -147.63)"/><path class="cls-6" d="M1122.17,268s-19.68,2.12-38.37,86.55" transform="translate(-192.2 -147.63)"/><polygon class="cls-7" points="1087.45 905.76 1086.21 978.35 1256.56 934.38 1169.19 911.39 1087.45 905.76"/><polygon class="cls-7" points="1214.32 423.61 1271.05 427.79 1239.97 271.04 1204.41 371.56 1214.32 423.61"/><path class="cls-3" d="M920.69,696.18l17.94,62.59,100.22-27.69,26.46,81.23L909,877.19a51.18,51.18,0,0,1-69.75-36.77c-16.69-80.39-28.21-218.6,80.49-242.2,28.64-6.22,102.53-124.37,102.53-124.37l19.5-115,85-8.68-10,141.22a81.31,81.31,0,0,1-15.22,41.85l-71.35,98.61,64,108.48L929.91,833.85" transform="translate(-192.2 -147.63)"/><path class="cls-8" d="M1079.46,791.9c1.67-1.6,20.31-108.22,32.14-176.74a89.78,89.78,0,0,1,65.13-71.4l214.12-57.61,34.46,107.08-192,65.23-11.69,137.85" transform="translate(-192.2 -147.63)"/><path class="cls-8" d="M933.62,806.16l7.78,17.75a95.38,95.38,0,0,0,95.07,56.73l135.92-11.09,84.3,216.61s126.77-31.38,123.08-36.3c-2.58-3.45-60.86-162.53-95.66-257.85a93.13,93.13,0,0,0-99.65-60.4L991.68,757" transform="translate(-192.2 -147.63)"/><ellipse class="cls-9" cx="847.26" cy="1021.53" rx="649.23" ry="7.83"/><polygon class="cls-3" points="754.59 713.89 873.11 664.68 849.06 590.85 719.26 622.22 754.59 713.89"/><g class="cls-10"><circle class="cls-8" cx="699.48" cy="600.44" r="24.4"/><circle class="cls-8" cx="797.69" cy="608.42" r="24.4"/><circle class="cls-8" cx="895.9" cy="616.41" r="24.4"/><circle class="cls-8" cx="601.27" cy="592.45" r="24.4"/><circle class="cls-8" cx="754.1" cy="536.55" r="24.4"/><circle class="cls-8" cx="852.31" cy="544.54" r="24.4"/><circle class="cls-8" cx="950.53" cy="552.52" r="24.4"/><circle class="cls-8" cx="655.89" cy="528.57" r="24.4"/><circle class="cls-8" cx="742.83" cy="672.29" r="24.4"/><circle class="cls-8" cx="841.04" cy="680.27" r="24.4"/><circle class="cls-8" cx="939.25" cy="688.26" r="24.4"/><circle class="cls-8" cx="644.62" cy="664.3" r="24.4"/><circle class="cls-8" cx="721.91" cy="328.95" r="24.4"/><circle class="cls-8" cx="820.12" cy="336.94" r="24.4"/><circle class="cls-8" cx="918.33" cy="344.92" r="24.4"/><circle class="cls-8" cx="623.7" cy="320.97" r="24.4"/><circle class="cls-8" cx="765.26" cy="400.8" r="24.4"/><circle class="cls-8" cx="863.47" cy="408.79" r="24.4"/><circle class="cls-8" cx="961.68" cy="416.77" r="24.4"/><circle class="cls-8" cx="667.05" cy="392.82" r="24.4"/><circle class="cls-8" cx="776.65" cy="265.08" r="24.4"/><circle class="cls-8" cx="874.86" cy="273.06" r="24.4"/><circle class="cls-8" cx="973.07" cy="281.05" r="24.4"/><circle class="cls-8" cx="678.44" cy="257.09" r="24.4"/><circle class="cls-8" cx="808.96" cy="472.68" r="24.4"/><circle class="cls-8" cx="907.17" cy="480.67" r="24.4"/><circle class="cls-8" cx="612.54" cy="456.71" r="24.4"/></g><line class="cls-11" x1="728.01" y1="461.01" x2="739.11" y2="366.47"/><polyline class="cls-6" points="995.85 722.97 977.26 721 983.37 697.6"/><line class="cls-6" x1="721.76" y1="618.56" x2="738.48" y2="614.39"/><path class="cls-5" d="M1053.47,777c0-.13,34.84-31.9,34.84-31.9l41.25-8.66s-33.87-32.63-86,9.21" transform="translate(-192.2 -147.63)"/><polyline class="cls-6" points="1042.34 491.59 1045 513.13 1017.39 512.72"/><path class="cls-6" d="M915.56,696.16l15,66.15,108.29-31.23,15.22,46.72,35.19-34.51,96.15-12.66s27.85-4.39,41.49,4.37" transform="translate(-192.2 -147.63)"/><path class="cls-3" d="M1122.23,350h0l0,0Z" transform="translate(-192.2 -147.63)"/><rect class="cls-4" x="187.56" y="474.69" width="448.82" height="222.3"/><rect class="cls-4" x="1112.47" y="486.59" width="398.61" height="174.38"/><rect class="cls-4" x="486.65" y="733.51" width="497.23" height="206.55"/><rect class="cls-4" x="1280.96" y="169.35" width="87.38" height="147.12"/><rect class="cls-4" x="1227.57" y="721" width="125.54" height="103.06"/><polygon class="cls-8" points="824.28 214.42 716.29 214.42 770.28 123.68 824.28 214.42"/><polygon class="cls-8" points="640.93 885.29 533.03 885.29 586.98 794.63 640.93 885.29"/><polygon class="cls-8" points="789.21 885.29 681.32 885.29 735.26 794.63 789.21 885.29"/><polygon class="cls-8" points="937.49 885.29 829.6 885.29 883.54 794.63 937.49 885.29"/><circle class="cls-8" cx="1242.93" cy="616.99" r="13.08"/><rect class="cls-8" x="1233.85" y="522.37" width="18.15" height="72"/><circle class="cls-8" cx="1306.77" cy="616.99" r="13.08"/><rect class="cls-8" x="1297.7" y="522.37" width="18.15" height="72"/><circle class="cls-4" cx="770.28" cy="240.6" r="19.67"/><rect class="cls-4" x="756.63" y="98.25" width="27.31" height="108.32"/><circle class="cls-8" cx="1370.62" cy="616.99" r="13.08"/><rect class="cls-8" x="1361.54" y="522.37" width="18.15" height="72"/><circle class="cls-8" cx="327.75" cy="639.62" r="17.25"/><rect class="cls-8" x="315.78" y="514.8" width="23.95" height="94.98"/><circle class="cls-8" cx="411.97" cy="639.62" r="17.25"/><circle class="cls-8" cx="496.2" cy="639.62" r="17.25"/><rect class="cls-8" x="484.22" y="514.8" width="23.95" height="94.98"/><circle class="cls-8" cx="1341.95" cy="248.79" r="8.74"/><rect class="cls-8" x="1335.89" y="185.53" width="12.14" height="48.14"/><line class="cls-12" x1="1458.83" y1="508.38" x2="1488.44" y2="537.99"/><line class="cls-12" x1="1488.44" y1="508.38" x2="1458.83" y2="537.99"/><line class="cls-12" x1="511.62" y1="758.35" x2="543.06" y2="789.8"/><line class="cls-12" x1="543.06" y1="758.35" x2="511.62" y2="789.8"/><line class="cls-12" x1="211.46" y1="645.24" x2="242.9" y2="676.69"/><line class="cls-12" x1="242.9" y1="645.24" x2="211.46" y2="676.69"/><line class="cls-12" x1="600.09" y1="493.91" x2="618.43" y2="512.25"/><line class="cls-12" x1="618.43" y1="493.91" x2="600.09" y2="512.25"/><line class="cls-12" x1="1088.43" y1="303.61" x2="1110.15" y2="325.33"/><line class="cls-12" x1="1110.15" y1="303.61" x2="1088.43" y2="325.33"/><line class="cls-12" x1="1295.7" y1="278.32" x2="1317.42" y2="300.04"/><line class="cls-12" x1="1317.42" y1="278.32" x2="1295.7" y2="300.04"/><line class="cls-12" x1="1257.49" y1="739.68" x2="1323.2" y2="805.39"/><line class="cls-12" x1="1323.2" y1="739.68" x2="1257.49" y2="805.39"/><path class="cls-8" d="M598.56,738.91a87.83,87.83,0,0,1,11.66-15.74A75.61,75.61,0,0,0,619,711.89,20.78,20.78,0,0,0,621.81,701q0-8.52-5.55-13.8t-14.85-5.29q-17.62,0-26.6,15.65L559,684.78a49.62,49.62,0,0,1,18.11-18.38q11.1-6.4,26.11-6.4,18.28,0,29.13,9.85T643.19,697A44.16,44.16,0,0,1,641,711.59a43,43,0,0,1-5.3,10.67,123.76,123.76,0,0,1-8.16,10,73.31,73.31,0,0,0-9.22,12.19,24.85,24.85,0,0,0-3,12.58H594.56Q594.56,746.13,598.56,738.91Z" transform="translate(-192.2 -147.63)"/><path class="cls-8" d="M1268.8,398.51q-11.34,10.77-32.85,13.05v21.33h-15.62V411.75a107.13,107.13,0,0,1-26.66-5.14q-12.57-4.2-20-10.67l8.57-19.23a62.84,62.84,0,0,0,17.14,9.61,75.81,75.81,0,0,0,20.95,4.86V353.1a139.81,139.81,0,0,1-22.57-7.15,39,39,0,0,1-15.14-11.42q-6.09-7.51-6.09-19.9a35.19,35.19,0,0,1,11.24-26.28q11.22-10.86,32.56-13V253.88H1236V275a89.15,89.15,0,0,1,20.85,3.62,68.36,68.36,0,0,1,17.8,8l-7.8,19.23A79.22,79.22,0,0,0,1236,295.59v38.46a147.56,147.56,0,0,1,22.75,7,39.29,39.29,0,0,1,15.24,11.34q6.19,7.51,6.19,19.9A34.78,34.78,0,0,1,1268.8,398.51Zm-62.75-74.94q5,3.82,14.28,6.48V296.16q-9.7,1.51-14.47,6.09a15,15,0,0,0-4.76,11.24A12.07,12.07,0,0,0,1206.05,323.57Zm44.85,61.33a14,14,0,0,0,4.85-10.86,12.37,12.37,0,0,0-5.14-10.37q-5.14-3.92-14.66-6.57v33.7Q1246,389.29,1250.9,384.9Z" transform="translate(-192.2 -147.63)"/><path class="cls-5" d="M935.78,602l5.65-.07c28-.31,48.69-27.6,43.17-56.8l-6.42-34c-4.28-22.64-23.19-38.78-44.85-38.28h0c-24.65.56-44.15,22.3-43.55,48.55l.78,34C891.15,581.47,911.32,602.22,935.78,602Z" transform="translate(-192.2 -147.63)"/><polyline class="cls-13" points="761.39 381.02 768.11 407.96 758.54 410.4"/><path class="cls-14" d="M908.87,556.77l7-51.35,1.67-12.19a39.37,39.37,0,0,0,11.19,6.57c14.78,5.73,56.17-2.45,58.3-32.45,1.74-24.47-21.9-7.58-35.07-7.46-20.69.2-36.36-10-62.39,8.53-31.17,22.24-9.82,64.58-9.82,64.58S893.79,525.47,908.87,556.77Z" transform="translate(-192.2 -147.63)"/><circle class="cls-14" cx="741.42" cy="386.77" r="4.89"/><circle class="cls-14" cx="771.51" cy="383.55" r="4.89"/><path class="cls-13" d="M941.76,567.82s-1.41-10.09-12.82-10.69" transform="translate(-192.2 -147.63)"/><rect class="cls-4" x="369.78" y="190.76" width="318.92" height="225.56"/><rect class="cls-5" x="878.15" y="527.56" width="34.97" height="51.91" rx="17.49" transform="translate(1748.49 277.76) rotate(141.29)"/><line class="cls-13" x1="691.05" y1="396.54" x2="706.8" y2="409.51"/><polygon class="cls-8" points="600.09 354.81 467.11 354.81 533.6 243.06 600.09 354.81"/><circle class="cls-4" cx="533.6" cy="332.96" r="7.71"/><rect class="cls-4" x="528.25" y="277.2" width="10.7" height="42.43"/><line class="cls-12" x1="643.43" y1="214.08" x2="665.15" y2="235.8"/><line class="cls-12" x1="665.15" y1="214.08" x2="643.43" y2="235.8"/><polygon class="cls-14" points="754.5 453.87 742.59 456.4 753.41 464.07 754.5 453.87"/><path class="cls-6" d="M1085.3,725.16s27.08-7.19,44.26,11.26" transform="translate(-192.2 -147.63)"/></g></svg>