<?xml version="1.0"?>
<svg xmlns="http://www.w3.org/2000/svg" xmlns:xlink="http://www.w3.org/1999/xlink" xmlns:svgjs="http://svgjs.com/svgjs" version="1.1" width="512" height="512" x="0" y="0" viewBox="0 0 24 24" style="enable-background:new 0 0 512 512" xml:space="preserve"><g><path xmlns="http://www.w3.org/2000/svg" d="m4 13h3v2h-3zm5 2h3v-2h-3zm-5 4h3v-2h-3zm5 0h3v-2h-3zm-5-12h3v-2h-3zm5 0h3v-2h-3zm-5 4h3v-2h-3zm5 0h3v-2h-3zm15-3v16h-24v-21a3 3 0 0 1 3-3h10a3 3 0 0 1 3 3v2h5a3 3 0 0 1 3 3zm-10-5a1 1 0 0 0 -1-1h-10a1 1 0 0 0 -1 1v19h12zm8 5a1 1 0 0 0 -1-1h-5v15h6zm-4 7h2v-2h-2zm0 4h2v-2h-2zm0-8h2v-2h-2z" fill="#003058" data-original="#000000"/></g></svg>
