<?xml version="1.0"?>
<svg xmlns="http://www.w3.org/2000/svg" xmlns:xlink="http://www.w3.org/1999/xlink" xmlns:svgjs="http://svgjs.com/svgjs" version="1.1" width="512" height="512" x="0" y="0" viewBox="0 0 24 24" style="enable-background:new 0 0 512 512" xml:space="preserve"><g><g xmlns="http://www.w3.org/2000/svg" id="_01_align_center" data-name="01 align center"><path d="M12.032,19a2.991,2.991,0,0,0,2.122-.878L18.073,14.2,16.659,12.79l-3.633,3.634L13,0,11,0l.026,16.408-3.62-3.62L5.992,14.2l3.919,3.919A2.992,2.992,0,0,0,12.032,19Z" fill="#ffffff" data-original="#000000"/><path d="M22,16v5a1,1,0,0,1-1,1H3a1,1,0,0,1-1-1V16H0v5a3,3,0,0,0,3,3H21a3,3,0,0,0,3-3V16Z" fill="#ffffff" data-original="#000000"/></g></g></svg>
