<svg id="Layer_1" data-name="Layer 1" xmlns="http://www.w3.org/2000/svg" viewBox="0 0 420.66 199.92"><defs><style>.cls-1{fill:#183254;}.cls-2{fill:#ffd714;}</style></defs><path class="cls-1" d="M380.27,499.8,327.35,394.13a7,7,0,0,0-6.27-3.87H285.53a7,7,0,0,0-6.26,3.86l-53,105.67a7,7,0,0,0,6.26,10.15H374A7,7,0,0,0,380.27,499.8Z" transform="translate(-106.93 -310.02)"/><rect class="cls-2" x="175.5" y="151.16" width="18.07" height="18.06" rx="2.65"/><rect class="cls-2" x="175.5" y="130.34" width="18.07" height="18.06" rx="2.65"/><rect class="cls-2" x="196.34" y="130.34" width="18.06" height="18.06" rx="2.65"/><rect class="cls-2" x="196.34" y="151.16" width="18.06" height="18.06" rx="2.65"/><path class="cls-1" d="M523.31,344.47A14.56,14.56,0,0,0,513,340.19H477.66a7.19,7.19,0,0,0-6.48,4.07l-11.84,24.42-.35.73-1.34,2.76L455.31,377l-4,8.34-5.92,12.26L443.26,402l-4,8.32-4,8.32-4,8.37-4,8.36-4,8.28-4.31,8.93-.34.69a4.25,4.25,0,0,1-7.66,0l-.43-.89-4.32-8.94-4-8.32-4-8.34L394,418.43l-4-8.3-12.08-25-4-8.34-3.56-7.37-.47-1-4-8.34a5,5,0,0,1,.4-5l18.08-25.88a5,5,0,0,0-1.24-6.93l-16.28-11.37a5,5,0,0,0-6.93,1.24l-18.1,25.91a5,5,0,0,1-4.08,2.13H256.87a14.81,14.81,0,0,0-7.68,2.27,9.39,9.39,0,0,0-.87.58c-.37.29-.73.57-1.06.88a1.86,1.86,0,0,0-.28.21c-.17.16-.34.38-.49.55s-.36.38-.52.57a17.46,17.46,0,0,0-1.41,1.86,12.58,12.58,0,0,0-.83,1.44L242.05,352l-4,8.35-4,8.32L230,377l-4,8.34L217.93,402l-4,8.32-4,8.32-4,8.37-4,8.36-4,8.28-4.31,8.93-.34.69a4.25,4.25,0,0,1-7.66,0l-.43-.89-4.32-8.94-4-8.32-4-8.34-4-8.37-4-8.3-4-8.34-8.05-16.67-4-8.34-2.49-5.17-1.54-3.16-4-8.34-4-8.34L135,348.55a14.71,14.71,0,0,0-19.7-6.88,14.66,14.66,0,0,0-6.87,19.7l1.69,3.53,4,8.32,4,8.33,8,16.68,4,8.32,4,8.35,8,16.66,3.87,8,.18.37,4,8.34,4,8.32,8.85,18.33,3.32,6.89L173,495.31l3,6.27c.07.18.18.34.27.52v0c.12.21.25.4.37.62,0,0,0,0,0,.06h0l.07.14c.18.27.36.56.55.81s.41.55.62.83a18,18,0,0,0,2.2,2.16s.07,0,.09.05A17.81,17.81,0,0,0,182,508c.3.18.63.34,1,.5s.52.25.77.35c.54.22,1.07.4,1.59.56a7,7,0,0,0,.8.19,4.54,4.54,0,0,0,.67.15l.61.1a5.69,5.69,0,0,0,.82.08c.39,0,.77.05,1.14.05s.77,0,1.14-.05a5.56,5.56,0,0,0,.82-.08l.61-.1a4.54,4.54,0,0,0,.67-.15,3.72,3.72,0,0,0,.8-.19c.52-.16,1.06-.34,1.59-.56.25-.1.52-.22.77-.35s.65-.32,1-.5.55-.34.81-.5.63-.45.91-.66a.15.15,0,0,0,.09-.05,15.44,15.44,0,0,0,2.19-2.16c.22-.28.43-.55.63-.83s.37-.54.55-.81l.09-.15,0-.06c.11-.22.24-.41.36-.62v0c.09-.18.2-.34.29-.52l.73-1.53,4-8.3,4-8.32,4-8.3,4.54-9.4,44.63-92.49a6.77,6.77,0,0,1,6.11-3.83h62.64a6.8,6.8,0,0,1,6.12,3.83l4,8.31,16.11,33.35,8,16.66,4.05,8.35,4,8.34,4,8.32,8.85,18.33,3.32,6.89,6.52,13.52h0l3,6.27c.07.18.18.34.27.52v0c.12.21.25.4.36.62l.05.06h0a.9.9,0,0,1,.07.14c.18.27.36.56.55.81l.63.83a16,16,0,0,0,2.19,2.16s.07,0,.09.05a14.78,14.78,0,0,0,1.72,1.16c.3.18.63.34,1,.5s.51.25.76.35c.54.22,1.07.4,1.59.56.26.09.55.14.8.21s.46.09.67.13l.61.1a7.34,7.34,0,0,0,.82.09c.37,0,.77,0,1.14,0s.77,0,1.14,0a6.7,6.7,0,0,0,.77-.08l.66-.11c.21,0,.44-.07.68-.13a7.34,7.34,0,0,0,.8-.21c.51-.16,1-.34,1.58-.56.25-.1.52-.22.77-.35s.66-.32,1-.5.55-.34.82-.5.6-.45.91-.66c0,0,.07,0,.08-.05a15.44,15.44,0,0,0,2.19-2.16l.63-.83c.2-.25.37-.54.55-.81a.51.51,0,0,0,.07-.15s0,0,0-.06c.11-.22.24-.41.36-.62v0c.09-.18.2-.34.27-.52l.75-1.53,4-8.3,4-8.32,4-8.3,4.54-9.4.11-.22,33-68,11.68-24.06a7.2,7.2,0,0,1,6.48-4.06H513a14.61,14.61,0,0,0,10.33-24.94Z" transform="translate(-106.93 -310.02)"/></svg>