<?xml version="1.0"?>
<svg xmlns="http://www.w3.org/2000/svg" xmlns:xlink="http://www.w3.org/1999/xlink" xmlns:svgjs="http://svgjs.com/svgjs" version="1.1" width="512" height="512" x="0" y="0" viewBox="0 0 24 24" style="enable-background:new 0 0 512 512" xml:space="preserve"><g><g xmlns="http://www.w3.org/2000/svg" id="_01_align_center" data-name="01 align center"><path d="M21,4H18V2a2,2,0,0,0-2-2H8A2,2,0,0,0,6,2V4H3A3,3,0,0,0,0,7V24H24V7A3,3,0,0,0,21,4ZM8,2h8V4H8ZM3,6H21a1,1,0,0,1,1,1v5H2V7A1,1,0,0,1,3,6ZM2,22V14h9v2h2V14h9v8Z" fill="#003058" data-original="#000000"/></g></g></svg>
