<svg id="Layer_1" data-name="Layer 1" xmlns="http://www.w3.org/2000/svg" xmlns:xlink="http://www.w3.org/1999/xlink" viewBox="0 0 1234.98 654.24"><defs><style>.cls-1{fill:#231f20;}.cls-2{fill:#fff;}.cls-3{fill:#114746;}.cls-4{fill:#eadd38;}.cls-5{fill:none;}.cls-6{fill:url(#linear-gradient);}.cls-7{fill:url(#linear-gradient-2);}.cls-8{fill:url(#linear-gradient-3);}</style><linearGradient id="linear-gradient" x1="496.71" y1="1267.28" x2="1485.41" y2="1267.28" gradientUnits="userSpaceOnUse"><stop offset="0" stop-color="#968436"/><stop offset="0" stop-color="#9b8a34"/><stop offset="0" stop-color="#a89a30"/><stop offset="0" stop-color="#bdb629"/><stop offset="0.01" stop-color="#dbdc1f"/><stop offset="0.01" stop-color="#edf219"/><stop offset="0.1" stop-color="#e9f01a"/><stop offset="0.2" stop-color="#dbeb1c"/><stop offset="0.31" stop-color="#c5e220"/><stop offset="0.42" stop-color="#a7d626"/><stop offset="0.53" stop-color="#80c62d"/><stop offset="0.64" stop-color="#54b435"/><stop offset="1" stop-color="#379237"/></linearGradient><linearGradient id="linear-gradient-2" x1="495.92" y1="1224.65" x2="502.59" y2="1224.65" xlink:href="#linear-gradient"/><linearGradient id="linear-gradient-3" x1="810.07" y1="1271.03" x2="810.22" y2="1271.03" xlink:href="#linear-gradient"/></defs><title>bản 2 &amp;apos;1 tour</title><path class="cls-1" d="M424.68,1328.17l2,1.28h-3.15Z" transform="translate(-384.81 -782.2)"/><path class="cls-2" d="M432.13,1331h-12l4.27-4.81,1.1.71c.66.43,1.33.85,2,1.26Z" transform="translate(-384.81 -782.2)"/><path class="cls-1" d="M424.68,1328.17l-1.13,1.28h3.15l-2-1.28Z" transform="translate(-384.81 -782.2)"/><path class="cls-2" d="M432.13,1331h-12l4.27-4.81,1.1.71c.66.43,1.33.85,2,1.26Z" transform="translate(-384.81 -782.2)"/><path class="cls-1" d="M1444.36,1265.84h-.09s0,0,.06-.06Z" transform="translate(-384.81 -782.2)"/><polygon class="cls-2" points="1059.55 485.17 1059.45 485.17 1059.45 483.69 1058.17 484.31 1058.14 484.25 1059.43 483.63 1058.2 482.78 1058.46 482.47 1059.98 481.03 1061.97 485.11 1059.55 485.17"/><path class="cls-1" d="M1444.33,1265.78s0,.06-.06.06h.09l0-.06Z" transform="translate(-384.81 -782.2)"/><polygon class="cls-2" points="1062 485.17 1059.45 485.17 1059.45 483.69 1058.17 484.31 1059.43 483.63 1058.2 482.78 1058.46 482.47 1059.98 481.03 1062 485.17"/><path class="cls-3" d="M518.09,1376.17c-50.07-14.27-94.54-30.9-131.9-49.58-.46-.25-.92-.46-1.38-.71l111.9-98.64C523.57,1277.31,519,1363.86,518.09,1376.17Z" transform="translate(-384.81 -782.2)"/><path class="cls-3" d="M534.26,1355.68c.55-33.63-2-96.1-25-137.35l-6.68,3.7L625.8,1113.47C634.5,1214.19,565.13,1315.87,534.26,1355.68Z" transform="translate(-384.81 -782.2)"/><path class="cls-3" d="M701.56,1414.05l-.06.37q-31.83-4.59-62.13-10.23c-37.18-6.86-72.46-14.76-105.51-23.67,15.28-17.67,90.71-109.33,105.51-214.1a248.93,248.93,0,0,0,2.48-39.63A247.79,247.79,0,0,1,680.19,1185C701.63,1229.69,722.73,1305.7,701.56,1414.05Z" transform="translate(-384.81 -782.2)"/><path class="cls-3" d="M720.49,1394.33c15.1-101-5.76-173.12-26.89-216.8-2.91-6-5.85-11.6-8.88-16.87L810.07,1271s.09.06.15.12l-.15-.09C810.8,1272.69,819.16,1300,720.49,1394.33Z" transform="translate(-384.81 -782.2)"/><path class="cls-3" d="M810.77,1271.58l0,0c-.12-.12-.24-.21-.33-.3Z" transform="translate(-384.81 -782.2)"/><path class="cls-3" d="M996.39,1435.31c-97-.28-191-6.68-277.49-18.44,62.84-58.4,99.07-103.94,105.9-132.91l156.74,138,.8.71.42.39Z" transform="translate(-384.81 -782.2)"/><path class="cls-3" d="M1314.25,1152l-68.2,62.2a166.06,166.06,0,0,0-117.79-5.94c-18.28,6-36.93,6.34-54,1.1a209.28,209.28,0,0,0-61.86-9.15c-31.15,0-61.74,6.73-88.45,19.54-22.84,11-48.87,12.34-71.38,3.76a134.74,134.74,0,0,0-74.82-5.82l-66.95-60.33a158.5,158.5,0,0,1,27-2.32,156.36,156.36,0,0,1,56.48,10.5c34.45,13.32,74.14,11.24,108.87-5.7,33-16.11,71-24.59,109.67-24.59a255.92,255.92,0,0,1,76.84,11.55c26.15,8.2,54.66,7.65,82.44-1.57a199,199,0,0,1,142.13,6.77Z" transform="translate(-384.81 -782.2)"/><polygon class="cls-3" points="626.83 645.42 626.65 645.58 626.62 645.58 626.5 645.64 626.31 645.48 626.68 645.33 626.83 645.42"/><path class="cls-3" d="M1187.12,1270.27l-1.13,1-.21-.55A9.22,9.22,0,0,1,1187.12,1270.27Z" transform="translate(-384.81 -782.2)"/><path class="cls-3" d="M1417.58,1394.11c-114,25.18-248.95,39.69-391.11,41.1H1026l14.45-12.86,2.45-2.2,2.64-2.33.06-.06,1-.92,150-133.56,0,0C1263.32,1264.63,1369.31,1350.5,1417.58,1394.11Z" transform="translate(-384.81 -782.2)"/><path class="cls-3" d="M1234.23,1225.86l-40.7,36.26-.65.58-181.57,161.7L833.86,1268.22l-.33-.31-41.1-37.06a119,119,0,0,1,12.83-.67,117.45,117.45,0,0,1,41.93,7.66c26.4,10,56.81,8.45,83.42-4.29,24.65-11.79,52.95-18,81.83-18a195.34,195.34,0,0,1,57.36,8.45c20.06,6.22,41.93,5.79,63.21-1.16a150.61,150.61,0,0,1,100.54,2.82A6.13,6.13,0,0,1,1234.23,1225.86Z" transform="translate(-384.81 -782.2)"/><path class="cls-3" d="M1368.88,1105.93l-40.27,35.9h0a11.39,11.39,0,0,0-1-.53,214.1,214.1,0,0,0-160.23-10.62c-24.71,8.21-50,8.73-73.07,1.5a271.16,271.16,0,0,0-81.4-12.25c-41,0-81.25,9-116.38,26.15-30.93,15.07-66.15,17-96.62,5.18a172.48,172.48,0,0,0-102.38-6.77c-1.1.24-2.17.52-3.25.8L646,1102.84l-4-3.61,359.63-317Z" transform="translate(-384.81 -782.2)"/><path class="cls-3" d="M1464,1189.78c-35-1.53-69.37,14-101.25,46.19-23.24,23.46-39.17,49.58-46.55,63-33.41-19.26-68.48-33.32-99.69-33.44l165.81-147.67Z" transform="translate(-384.81 -782.2)"/><path class="cls-3" d="M1619.8,1327.11c-49.92,24.83-112.43,46-183.91,62.84-22.2-20.67-62.2-55.52-106.51-83.12,15.43-27.83,74-121,156-98.18Z" transform="translate(-384.81 -782.2)"/><polygon class="cls-4" points="626.83 645.42 626.65 645.58 626.62 645.58 626.5 645.64 626.31 645.48 626.68 645.33 626.83 645.42"/><path class="cls-4" d="M1026,1435.21l-1.14,1-1.13-1C1024.48,1435.24,1025.24,1435.24,1026,1435.21Z" transform="translate(-384.81 -782.2)"/><path class="cls-4" d="M1187.12,1270.27l-1.13,1-.21-.55A9.22,9.22,0,0,1,1187.12,1270.27Z" transform="translate(-384.81 -782.2)"/><path class="cls-4" d="M810.22,1271.09l-.15-.09v0S810.16,1271,810.22,1271.09Z" transform="translate(-384.81 -782.2)"/><polygon class="cls-4" points="626.83 645.42 626.65 645.58 626.62 645.58 626.5 645.64 626.31 645.48 626.68 645.33 626.83 645.42"/><line class="cls-5" x1="254.56" y1="338.53" x2="254.56" y2="325.02"/><line class="cls-5" x1="254.56" y1="621.99" x2="254.56" y2="384.22"/><path class="cls-3" d="M1179.41,1215.51a149.51,149.51,0,0,0-46.4,7.29c-21.28,7-43.15,7.38-63.21,1.16a195.34,195.34,0,0,0-57.36-8.45c-28.88,0-57.18,6.25-81.83,18-26.61,12.74-57,14.3-83.42,4.29a117.45,117.45,0,0,0-41.93-7.66,119,119,0,0,0-12.83.67l41.1,37.06.33.31,177.45,156.18,181.57-161.7.65-.58,40-36.5A149.18,149.18,0,0,0,1179.41,1215.51Zm55.06-80.27a197.17,197.17,0,0,0-62.35,10c-27.78,9.22-56.29,9.77-82.44,1.57a255.92,255.92,0,0,0-76.84-11.55c-38.68,0-76.63,8.48-109.67,24.59-34.73,16.94-74.42,19-108.87,5.7a156.36,156.36,0,0,0-56.48-10.5,158.5,158.5,0,0,0-27,2.32l66.95,60.33a134.74,134.74,0,0,1,74.82,5.82c22.51,8.58,48.54,7.2,71.38-3.76,26.71-12.81,57.3-19.54,88.45-19.54a209.28,209.28,0,0,1,61.86,9.15c17,5.24,35.68,4.87,54-1.1a166.06,166.06,0,0,1,117.79,5.94l68.2-62.2A197.61,197.61,0,0,0,1234.47,1135.24Zm0,0a197.17,197.17,0,0,0-62.35,10c-27.78,9.22-56.29,9.77-82.44,1.57a255.92,255.92,0,0,0-76.84-11.55c-38.68,0-76.63,8.48-109.67,24.59-34.73,16.94-74.42,19-108.87,5.7a156.36,156.36,0,0,0-56.48-10.5,158.5,158.5,0,0,0-27,2.32l66.95,60.33a134.74,134.74,0,0,1,74.82,5.82c22.51,8.58,48.54,7.2,71.38-3.76,26.71-12.81,57.3-19.54,88.45-19.54a209.28,209.28,0,0,1,61.86,9.15c17,5.24,35.68,4.87,54-1.1a166.06,166.06,0,0,1,117.79,5.94l68.2-62.2A197.61,197.61,0,0,0,1234.47,1135.24Zm-223,292.29-.37.15.19.15.12-.06h0l.18-.15Zm31.42-7.38-2.45,2.2L1026,1435.21c-.77,0-1.53,0-2.27,0l1.13,1,.06.07.19.15,1.35-1.23,19.08-17.39Zm142.87-149.42.21.55,1.13-1A9.22,9.22,0,0,0,1185.78,1270.73Zm47.77-45.11A150.61,150.61,0,0,0,1133,1222.8c-21.28,7-43.15,7.38-63.21,1.16a195.34,195.34,0,0,0-57.36-8.45c-28.88,0-57.18,6.25-81.83,18-26.61,12.74-57,14.3-83.42,4.29a117.45,117.45,0,0,0-41.93-7.66,119,119,0,0,0-12.83.67l41.1,37.06.33.31,177.45,156.18,181.57-161.7.65-.58,40.7-36.26A6.13,6.13,0,0,0,1233.55,1225.62Z" transform="translate(-384.81 -782.2)"/><path class="cls-4" d="M1187.12,1270.27l-1.13,1-.21-.55A9.22,9.22,0,0,1,1187.12,1270.27Z" transform="translate(-384.81 -782.2)"/><path class="cls-6" d="M1485.41,1208.65l-21.4-18.87c-35-1.53-69.37,14-101.25,46.19-23.24,23.46-39.17,49.58-46.55,63-33.41-19.26-68.48-33.32-99.69-33.44l165.81-147.67-13.45-11.89-40.27,35.9h0a11.39,11.39,0,0,0-1-.53,214.1,214.1,0,0,0-160.23-10.62c-24.71,8.21-50,8.73-73.07,1.5a271.16,271.16,0,0,0-81.4-12.25c-41,0-81.25,9-116.38,26.15-30.93,15.07-66.15,17-96.62,5.18a172.48,172.48,0,0,0-102.38-6.77c-1.1.24-2.17.52-3.25.8L646,1102.84l-4-3.61-3.28,2.87-10.2,9-2.69,2.39c8.7,100.72-60.67,202.4-91.54,242.21.55-33.63-2-96.1-25-137.35l-6.68,3.7,0,0-5.88,5.18c26.86,50.07,22.24,136.62,21.38,148.93,5.18,1.47,10.44,2.94,15.74,4.35h0c15.28-17.67,90.71-109.33,105.51-214.1a248.93,248.93,0,0,0,2.48-39.63A247.79,247.79,0,0,1,680.19,1185c21.44,44.68,42.54,120.69,21.37,229l-.06.37q8.64,1.29,17.4,2.45c62.84-58.4,99.07-103.94,105.9-132.91l156.74,138,.8.71.42.39,13.63,12.29a.45.45,0,0,0,.28,0l0,0,0,0c.8,0,1.59,0,2.39,0h4.41q10.11,0,20.21-.1c.74,0,1.5,0,2.27,0l14.45-12.86,2.45-2.2,2.64-2.33.06-.06,1-.92,150-133.56,0,0c66.7-18.62,172.69,67.25,221,110.86,6.15-1.34,12.28-2.75,18.31-4.16-22.2-20.67-62.2-55.52-106.51-83.12C1344.81,1279,1403.43,1185.8,1485.41,1208.65ZM737.82,1155a156.36,156.36,0,0,1,56.48,10.5c34.45,13.32,74.14,11.24,108.87-5.7,33-16.11,71-24.59,109.67-24.59a255.92,255.92,0,0,1,76.84,11.55c26.15,8.2,54.66,7.65,82.44-1.57a199,199,0,0,1,142.13,6.77l-68.2,62.2a166.06,166.06,0,0,0-117.79-5.94c-18.28,6-36.93,6.34-54,1.1a209.28,209.28,0,0,0-61.86-9.15c-31.15,0-61.74,6.73-88.45,19.54-22.84,11-48.87,12.34-71.38,3.76a134.74,134.74,0,0,0-74.82-5.82l-66.95-60.33A158.5,158.5,0,0,1,737.82,1155Zm-17.33,239.3c15.1-101-5.76-173.12-26.89-216.8-2.91-6-5.85-11.6-8.88-16.87L810.07,1271s.09.06.15.12l-.15-.09C810.8,1272.69,819.16,1300,720.49,1394.33Zm90.25-122.72c-.12-.12-.24-.21-.33-.3l.36.27Zm200.72,156.16h0l-.12.06-.19-.15.37-.15.15.09ZM1186,1271.28l-.21-.55a9.22,9.22,0,0,1,1.34-.46Zm7.54-9.16-.65.58-181.57,161.7L833.86,1268.22l-.33-.31-41.1-37.06a119,119,0,0,1,12.83-.67,117.45,117.45,0,0,1,41.93,7.66c26.4,10,56.81,8.45,83.42-4.29,24.65-11.79,52.95-18,81.83-18a195.34,195.34,0,0,1,57.36,8.45c20.06,6.22,41.93,5.79,63.21-1.16a150.61,150.61,0,0,1,100.54,2.82,6.13,6.13,0,0,1,.68.24Z" transform="translate(-384.81 -782.2)"/><path class="cls-7" d="M502.59,1222.06l-5.88,5.18c-.24-.49-.52-1-.79-1.47Z" transform="translate(-384.81 -782.2)"/><path class="cls-8" d="M810.22,1271.09l-.15-.09v0S810.16,1271,810.22,1271.09Z" transform="translate(-384.81 -782.2)"/></svg>